<?xml version="1.0" encoding="utf-8" standalone="no"?>
<!DOCTYPE svg PUBLIC "-//W3C//DTD SVG 1.1//EN"
  "http://www.w3.org/Graphics/SVG/1.1/DTD/svg11.dtd">
<svg xmlns:xlink="http://www.w3.org/1999/xlink" width="792pt" height="302.4pt" viewBox="0 0 792 302.4" xmlns="http://www.w3.org/2000/svg" version="1.1">
 <metadata>
  <rdf:RDF xmlns:dc="http://purl.org/dc/elements/1.1/" xmlns:cc="http://creativecommons.org/ns#" xmlns:rdf="http://www.w3.org/1999/02/22-rdf-syntax-ns#">
   <cc:Work>
    <dc:type rdf:resource="http://purl.org/dc/dcmitype/StillImage"/>
    <dc:date>2026-07-15T21:27:29.604764</dc:date>
    <dc:format>image/svg+xml</dc:format>
    <dc:creator>
     <cc:Agent>
      <dc:title>Matplotlib v3.10.3, https://matplotlib.org/</dc:title>
     </cc:Agent>
    </dc:creator>
   </cc:Work>
  </rdf:RDF>
 </metadata>
 <defs>
  <style type="text/css">*{stroke-linejoin: round; stroke-linecap: butt}</style>
 </defs>
 <g id="figure_1">
  <g id="patch_1">
   <path d="M 0 302.4 
L 792 302.4 
L 792 0 
L 0 0 
z
" style="fill: #ffffff"/>
  </g>
  <g id="axes_1">
   <g id="patch_2">
    <path d="M 36.403365 269.04351 
L 788.99976 269.04351 
L 788.99976 20.70822 
L 36.403365 20.70822 
z
" style="fill: #ffffff"/>
   </g>
   <g id="matplotlib.axis_1">
    <g id="xtick_1">
     <g id="line2d_1">
      <path d="M 36.403365 269.04351 
L 36.403365 20.70822 
" clip-path="url(#p5746191f82)" style="fill: none; stroke: #ededed; stroke-width: 0.6; stroke-linecap: square"/>
     </g>
     <g id="line2d_2">
      <defs>
       <path id="meb7aaeb8fa" d="M 0 0 
L 0 3.5 
" style="stroke: #000000; stroke-width: 0.8"/>
      </defs>
      <g>
       <use xlink:href="#meb7aaeb8fa" x="36.403365" y="269.04351" style="stroke: #000000; stroke-width: 0.8"/>
      </g>
     </g>
     <g id="text_1">
      <!-- 0 -->
      <g transform="translate(33.222115 283.641948) scale(0.1 -0.1)">
       <defs>
        <path id="DejaVuSans-30" d="M 2034 4250 
Q 1547 4250 1301 3770 
Q 1056 3291 1056 2328 
Q 1056 1369 1301 889 
Q 1547 409 2034 409 
Q 2525 409 2770 889 
Q 3016 1369 3016 2328 
Q 3016 3291 2770 3770 
Q 2525 4250 2034 4250 
z
M 2034 4750 
Q 2819 4750 3233 4129 
Q 3647 3509 3647 2328 
Q 3647 1150 3233 529 
Q 2819 -91 2034 -91 
Q 1250 -91 836 529 
Q 422 1150 422 2328 
Q 422 3509 836 4129 
Q 1250 4750 2034 4750 
z
" transform="scale(0.015625)"/>
       </defs>
       <use xlink:href="#DejaVuSans-30"/>
      </g>
     </g>
    </g>
    <g id="xtick_2">
     <g id="line2d_3">
      <path d="M 125.36275 269.04351 
L 125.36275 20.70822 
" clip-path="url(#p5746191f82)" style="fill: none; stroke: #ededed; stroke-width: 0.6; stroke-linecap: square"/>
     </g>
     <g id="line2d_4">
      <g>
       <use xlink:href="#meb7aaeb8fa" x="125.36275" y="269.04351" style="stroke: #000000; stroke-width: 0.8"/>
      </g>
     </g>
     <g id="text_2">
      <!-- 25 -->
      <g transform="translate(119.00025 283.641948) scale(0.1 -0.1)">
       <defs>
        <path id="DejaVuSans-32" d="M 1228 531 
L 3431 531 
L 3431 0 
L 469 0 
L 469 531 
Q 828 903 1448 1529 
Q 2069 2156 2228 2338 
Q 2531 2678 2651 2914 
Q 2772 3150 2772 3378 
Q 2772 3750 2511 3984 
Q 2250 4219 1831 4219 
Q 1534 4219 1204 4116 
Q 875 4013 500 3803 
L 500 4441 
Q 881 4594 1212 4672 
Q 1544 4750 1819 4750 
Q 2544 4750 2975 4387 
Q 3406 4025 3406 3419 
Q 3406 3131 3298 2873 
Q 3191 2616 2906 2266 
Q 2828 2175 2409 1742 
Q 1991 1309 1228 531 
z
" transform="scale(0.015625)"/>
        <path id="DejaVuSans-35" d="M 691 4666 
L 3169 4666 
L 3169 4134 
L 1269 4134 
L 1269 2991 
Q 1406 3038 1543 3061 
Q 1681 3084 1819 3084 
Q 2600 3084 3056 2656 
Q 3513 2228 3513 1497 
Q 3513 744 3044 326 
Q 2575 -91 1722 -91 
Q 1428 -91 1123 -41 
Q 819 9 494 109 
L 494 744 
Q 775 591 1075 516 
Q 1375 441 1709 441 
Q 2250 441 2565 725 
Q 2881 1009 2881 1497 
Q 2881 1984 2565 2268 
Q 2250 2553 1709 2553 
Q 1456 2553 1204 2497 
Q 953 2441 691 2322 
L 691 4666 
z
" transform="scale(0.015625)"/>
       </defs>
       <use xlink:href="#DejaVuSans-32"/>
       <use xlink:href="#DejaVuSans-35" transform="translate(63.623047 0)"/>
      </g>
     </g>
    </g>
    <g id="xtick_3">
     <g id="line2d_5">
      <path d="M 214.322135 269.04351 
L 214.322135 20.70822 
" clip-path="url(#p5746191f82)" style="fill: none; stroke: #ededed; stroke-width: 0.6; stroke-linecap: square"/>
     </g>
     <g id="line2d_6">
      <g>
       <use xlink:href="#meb7aaeb8fa" x="214.322135" y="269.04351" style="stroke: #000000; stroke-width: 0.8"/>
      </g>
     </g>
     <g id="text_3">
      <!-- 50 -->
      <g transform="translate(207.959635 283.641948) scale(0.1 -0.1)">
       <use xlink:href="#DejaVuSans-35"/>
       <use xlink:href="#DejaVuSans-30" transform="translate(63.623047 0)"/>
      </g>
     </g>
    </g>
    <g id="xtick_4">
     <g id="line2d_7">
      <path d="M 303.281519 269.04351 
L 303.281519 20.70822 
" clip-path="url(#p5746191f82)" style="fill: none; stroke: #ededed; stroke-width: 0.6; stroke-linecap: square"/>
     </g>
     <g id="line2d_8">
      <g>
       <use xlink:href="#meb7aaeb8fa" x="303.281519" y="269.04351" style="stroke: #000000; stroke-width: 0.8"/>
      </g>
     </g>
     <g id="text_4">
      <!-- 75 -->
      <g transform="translate(296.919019 283.641948) scale(0.1 -0.1)">
       <defs>
        <path id="DejaVuSans-37" d="M 525 4666 
L 3525 4666 
L 3525 4397 
L 1831 0 
L 1172 0 
L 2766 4134 
L 525 4134 
L 525 4666 
z
" transform="scale(0.015625)"/>
       </defs>
       <use xlink:href="#DejaVuSans-37"/>
       <use xlink:href="#DejaVuSans-35" transform="translate(63.623047 0)"/>
      </g>
     </g>
    </g>
    <g id="xtick_5">
     <g id="line2d_9">
      <path d="M 392.240904 269.04351 
L 392.240904 20.70822 
" clip-path="url(#p5746191f82)" style="fill: none; stroke: #ededed; stroke-width: 0.6; stroke-linecap: square"/>
     </g>
     <g id="line2d_10">
      <g>
       <use xlink:href="#meb7aaeb8fa" x="392.240904" y="269.04351" style="stroke: #000000; stroke-width: 0.8"/>
      </g>
     </g>
     <g id="text_5">
      <!-- 100 -->
      <g transform="translate(382.697154 283.641948) scale(0.1 -0.1)">
       <defs>
        <path id="DejaVuSans-31" d="M 794 531 
L 1825 531 
L 1825 4091 
L 703 3866 
L 703 4441 
L 1819 4666 
L 2450 4666 
L 2450 531 
L 3481 531 
L 3481 0 
L 794 0 
L 794 531 
z
" transform="scale(0.015625)"/>
       </defs>
       <use xlink:href="#DejaVuSans-31"/>
       <use xlink:href="#DejaVuSans-30" transform="translate(63.623047 0)"/>
       <use xlink:href="#DejaVuSans-30" transform="translate(127.246094 0)"/>
      </g>
     </g>
    </g>
    <g id="xtick_6">
     <g id="line2d_11">
      <path d="M 481.200289 269.04351 
L 481.200289 20.70822 
" clip-path="url(#p5746191f82)" style="fill: none; stroke: #ededed; stroke-width: 0.6; stroke-linecap: square"/>
     </g>
     <g id="line2d_12">
      <g>
       <use xlink:href="#meb7aaeb8fa" x="481.200289" y="269.04351" style="stroke: #000000; stroke-width: 0.8"/>
      </g>
     </g>
     <g id="text_6">
      <!-- 125 -->
      <g transform="translate(471.656539 283.641948) scale(0.1 -0.1)">
       <use xlink:href="#DejaVuSans-31"/>
       <use xlink:href="#DejaVuSans-32" transform="translate(63.623047 0)"/>
       <use xlink:href="#DejaVuSans-35" transform="translate(127.246094 0)"/>
      </g>
     </g>
    </g>
    <g id="xtick_7">
     <g id="line2d_13">
      <path d="M 570.159674 269.04351 
L 570.159674 20.70822 
" clip-path="url(#p5746191f82)" style="fill: none; stroke: #ededed; stroke-width: 0.6; stroke-linecap: square"/>
     </g>
     <g id="line2d_14">
      <g>
       <use xlink:href="#meb7aaeb8fa" x="570.159674" y="269.04351" style="stroke: #000000; stroke-width: 0.8"/>
      </g>
     </g>
     <g id="text_7">
      <!-- 150 -->
      <g transform="translate(560.615924 283.641948) scale(0.1 -0.1)">
       <use xlink:href="#DejaVuSans-31"/>
       <use xlink:href="#DejaVuSans-35" transform="translate(63.623047 0)"/>
       <use xlink:href="#DejaVuSans-30" transform="translate(127.246094 0)"/>
      </g>
     </g>
    </g>
    <g id="xtick_8">
     <g id="line2d_15">
      <path d="M 659.119058 269.04351 
L 659.119058 20.70822 
" clip-path="url(#p5746191f82)" style="fill: none; stroke: #ededed; stroke-width: 0.6; stroke-linecap: square"/>
     </g>
     <g id="line2d_16">
      <g>
       <use xlink:href="#meb7aaeb8fa" x="659.119058" y="269.04351" style="stroke: #000000; stroke-width: 0.8"/>
      </g>
     </g>
     <g id="text_8">
      <!-- 175 -->
      <g transform="translate(649.575308 283.641948) scale(0.1 -0.1)">
       <use xlink:href="#DejaVuSans-31"/>
       <use xlink:href="#DejaVuSans-37" transform="translate(63.623047 0)"/>
       <use xlink:href="#DejaVuSans-35" transform="translate(127.246094 0)"/>
      </g>
     </g>
    </g>
    <g id="xtick_9">
     <g id="line2d_17">
      <path d="M 748.078443 269.04351 
L 748.078443 20.70822 
" clip-path="url(#p5746191f82)" style="fill: none; stroke: #ededed; stroke-width: 0.6; stroke-linecap: square"/>
     </g>
     <g id="line2d_18">
      <g>
       <use xlink:href="#meb7aaeb8fa" x="748.078443" y="269.04351" style="stroke: #000000; stroke-width: 0.8"/>
      </g>
     </g>
     <g id="text_9">
      <!-- 200 -->
      <g transform="translate(738.534693 283.641948) scale(0.1 -0.1)">
       <use xlink:href="#DejaVuSans-32"/>
       <use xlink:href="#DejaVuSans-30" transform="translate(63.623047 0)"/>
       <use xlink:href="#DejaVuSans-30" transform="translate(127.246094 0)"/>
      </g>
     </g>
    </g>
    <g id="text_10">
     <!-- time (s, video clock) -->
     <g transform="translate(362.042187 297.320073) scale(0.1 -0.1)">
      <defs>
       <path id="DejaVuSans-74" d="M 1172 4494 
L 1172 3500 
L 2356 3500 
L 2356 3053 
L 1172 3053 
L 1172 1153 
Q 1172 725 1289 603 
Q 1406 481 1766 481 
L 2356 481 
L 2356 0 
L 1766 0 
Q 1100 0 847 248 
Q 594 497 594 1153 
L 594 3053 
L 172 3053 
L 172 3500 
L 594 3500 
L 594 4494 
L 1172 4494 
z
" transform="scale(0.015625)"/>
       <path id="DejaVuSans-69" d="M 603 3500 
L 1178 3500 
L 1178 0 
L 603 0 
L 603 3500 
z
M 603 4863 
L 1178 4863 
L 1178 4134 
L 603 4134 
L 603 4863 
z
" transform="scale(0.015625)"/>
       <path id="DejaVuSans-6d" d="M 3328 2828 
Q 3544 3216 3844 3400 
Q 4144 3584 4550 3584 
Q 5097 3584 5394 3201 
Q 5691 2819 5691 2113 
L 5691 0 
L 5113 0 
L 5113 2094 
Q 5113 2597 4934 2840 
Q 4756 3084 4391 3084 
Q 3944 3084 3684 2787 
Q 3425 2491 3425 1978 
L 3425 0 
L 2847 0 
L 2847 2094 
Q 2847 2600 2669 2842 
Q 2491 3084 2119 3084 
Q 1678 3084 1418 2786 
Q 1159 2488 1159 1978 
L 1159 0 
L 581 0 
L 581 3500 
L 1159 3500 
L 1159 2956 
Q 1356 3278 1631 3431 
Q 1906 3584 2284 3584 
Q 2666 3584 2933 3390 
Q 3200 3197 3328 2828 
z
" transform="scale(0.015625)"/>
       <path id="DejaVuSans-65" d="M 3597 1894 
L 3597 1613 
L 953 1613 
Q 991 1019 1311 708 
Q 1631 397 2203 397 
Q 2534 397 2845 478 
Q 3156 559 3463 722 
L 3463 178 
Q 3153 47 2828 -22 
Q 2503 -91 2169 -91 
Q 1331 -91 842 396 
Q 353 884 353 1716 
Q 353 2575 817 3079 
Q 1281 3584 2069 3584 
Q 2775 3584 3186 3129 
Q 3597 2675 3597 1894 
z
M 3022 2063 
Q 3016 2534 2758 2815 
Q 2500 3097 2075 3097 
Q 1594 3097 1305 2825 
Q 1016 2553 972 2059 
L 3022 2063 
z
" transform="scale(0.015625)"/>
       <path id="DejaVuSans-20" transform="scale(0.015625)"/>
       <path id="DejaVuSans-28" d="M 1984 4856 
Q 1566 4138 1362 3434 
Q 1159 2731 1159 2009 
Q 1159 1288 1364 580 
Q 1569 -128 1984 -844 
L 1484 -844 
Q 1016 -109 783 600 
Q 550 1309 550 2009 
Q 550 2706 781 3412 
Q 1013 4119 1484 4856 
L 1984 4856 
z
" transform="scale(0.015625)"/>
       <path id="DejaVuSans-73" d="M 2834 3397 
L 2834 2853 
Q 2591 2978 2328 3040 
Q 2066 3103 1784 3103 
Q 1356 3103 1142 2972 
Q 928 2841 928 2578 
Q 928 2378 1081 2264 
Q 1234 2150 1697 2047 
L 1894 2003 
Q 2506 1872 2764 1633 
Q 3022 1394 3022 966 
Q 3022 478 2636 193 
Q 2250 -91 1575 -91 
Q 1294 -91 989 -36 
Q 684 19 347 128 
L 347 722 
Q 666 556 975 473 
Q 1284 391 1588 391 
Q 1994 391 2212 530 
Q 2431 669 2431 922 
Q 2431 1156 2273 1281 
Q 2116 1406 1581 1522 
L 1381 1569 
Q 847 1681 609 1914 
Q 372 2147 372 2553 
Q 372 3047 722 3315 
Q 1072 3584 1716 3584 
Q 2034 3584 2315 3537 
Q 2597 3491 2834 3397 
z
" transform="scale(0.015625)"/>
       <path id="DejaVuSans-2c" d="M 750 794 
L 1409 794 
L 1409 256 
L 897 -744 
L 494 -744 
L 750 256 
L 750 794 
z
" transform="scale(0.015625)"/>
       <path id="DejaVuSans-76" d="M 191 3500 
L 800 3500 
L 1894 563 
L 2988 3500 
L 3597 3500 
L 2284 0 
L 1503 0 
L 191 3500 
z
" transform="scale(0.015625)"/>
       <path id="DejaVuSans-64" d="M 2906 2969 
L 2906 4863 
L 3481 4863 
L 3481 0 
L 2906 0 
L 2906 525 
Q 2725 213 2448 61 
Q 2172 -91 1784 -91 
Q 1150 -91 751 415 
Q 353 922 353 1747 
Q 353 2572 751 3078 
Q 1150 3584 1784 3584 
Q 2172 3584 2448 3432 
Q 2725 3281 2906 2969 
z
M 947 1747 
Q 947 1113 1208 752 
Q 1469 391 1925 391 
Q 2381 391 2643 752 
Q 2906 1113 2906 1747 
Q 2906 2381 2643 2742 
Q 2381 3103 1925 3103 
Q 1469 3103 1208 2742 
Q 947 2381 947 1747 
z
" transform="scale(0.015625)"/>
       <path id="DejaVuSans-6f" d="M 1959 3097 
Q 1497 3097 1228 2736 
Q 959 2375 959 1747 
Q 959 1119 1226 758 
Q 1494 397 1959 397 
Q 2419 397 2687 759 
Q 2956 1122 2956 1747 
Q 2956 2369 2687 2733 
Q 2419 3097 1959 3097 
z
M 1959 3584 
Q 2709 3584 3137 3096 
Q 3566 2609 3566 1747 
Q 3566 888 3137 398 
Q 2709 -91 1959 -91 
Q 1206 -91 779 398 
Q 353 888 353 1747 
Q 353 2609 779 3096 
Q 1206 3584 1959 3584 
z
" transform="scale(0.015625)"/>
       <path id="DejaVuSans-63" d="M 3122 3366 
L 3122 2828 
Q 2878 2963 2633 3030 
Q 2388 3097 2138 3097 
Q 1578 3097 1268 2742 
Q 959 2388 959 1747 
Q 959 1106 1268 751 
Q 1578 397 2138 397 
Q 2388 397 2633 464 
Q 2878 531 3122 666 
L 3122 134 
Q 2881 22 2623 -34 
Q 2366 -91 2075 -91 
Q 1284 -91 818 406 
Q 353 903 353 1747 
Q 353 2603 823 3093 
Q 1294 3584 2113 3584 
Q 2378 3584 2631 3529 
Q 2884 3475 3122 3366 
z
" transform="scale(0.015625)"/>
       <path id="DejaVuSans-6c" d="M 603 4863 
L 1178 4863 
L 1178 0 
L 603 0 
L 603 4863 
z
" transform="scale(0.015625)"/>
       <path id="DejaVuSans-6b" d="M 581 4863 
L 1159 4863 
L 1159 1991 
L 2875 3500 
L 3609 3500 
L 1753 1863 
L 3688 0 
L 2938 0 
L 1159 1709 
L 1159 0 
L 581 0 
L 581 4863 
z
" transform="scale(0.015625)"/>
       <path id="DejaVuSans-29" d="M 513 4856 
L 1013 4856 
Q 1481 4119 1714 3412 
Q 1947 2706 1947 2009 
Q 1947 1309 1714 600 
Q 1481 -109 1013 -844 
L 513 -844 
Q 928 -128 1133 580 
Q 1338 1288 1338 2009 
Q 1338 2731 1133 3434 
Q 928 4138 513 4856 
z
" transform="scale(0.015625)"/>
      </defs>
      <use xlink:href="#DejaVuSans-74"/>
      <use xlink:href="#DejaVuSans-69" transform="translate(39.208984 0)"/>
      <use xlink:href="#DejaVuSans-6d" transform="translate(66.992188 0)"/>
      <use xlink:href="#DejaVuSans-65" transform="translate(164.404297 0)"/>
      <use xlink:href="#DejaVuSans-20" transform="translate(225.927734 0)"/>
      <use xlink:href="#DejaVuSans-28" transform="translate(257.714844 0)"/>
      <use xlink:href="#DejaVuSans-73" transform="translate(296.728516 0)"/>
      <use xlink:href="#DejaVuSans-2c" transform="translate(348.828125 0)"/>
      <use xlink:href="#DejaVuSans-20" transform="translate(380.615234 0)"/>
      <use xlink:href="#DejaVuSans-76" transform="translate(412.402344 0)"/>
      <use xlink:href="#DejaVuSans-69" transform="translate(471.582031 0)"/>
      <use xlink:href="#DejaVuSans-64" transform="translate(499.365234 0)"/>
      <use xlink:href="#DejaVuSans-65" transform="translate(562.841797 0)"/>
      <use xlink:href="#DejaVuSans-6f" transform="translate(624.365234 0)"/>
      <use xlink:href="#DejaVuSans-20" transform="translate(685.546875 0)"/>
      <use xlink:href="#DejaVuSans-63" transform="translate(717.333984 0)"/>
      <use xlink:href="#DejaVuSans-6c" transform="translate(772.314453 0)"/>
      <use xlink:href="#DejaVuSans-6f" transform="translate(800.097656 0)"/>
      <use xlink:href="#DejaVuSans-63" transform="translate(861.279297 0)"/>
      <use xlink:href="#DejaVuSans-6b" transform="translate(916.259766 0)"/>
      <use xlink:href="#DejaVuSans-29" transform="translate(974.169922 0)"/>
     </g>
    </g>
   </g>
   <g id="matplotlib.axis_2">
    <g id="ytick_1">
     <g id="line2d_19">
      <path d="M 36.403365 257.755542 
L 788.99976 257.755542 
" clip-path="url(#p5746191f82)" style="fill: none; stroke: #ededed; stroke-width: 0.6; stroke-linecap: square"/>
     </g>
     <g id="line2d_20">
      <defs>
       <path id="m3108781e20" d="M 0 0 
L -3.5 0 
" style="stroke: #000000; stroke-width: 0.8"/>
      </defs>
      <g>
       <use xlink:href="#m3108781e20" x="36.403365" y="257.755542" style="stroke: #000000; stroke-width: 0.8"/>
      </g>
     </g>
     <g id="text_11">
      <!-- 0 -->
      <g transform="translate(23.040865 261.554761) scale(0.1 -0.1)">
       <use xlink:href="#DejaVuSans-30"/>
      </g>
     </g>
    </g>
    <g id="ytick_2">
     <g id="line2d_21">
      <path d="M 36.403365 216.189857 
L 788.99976 216.189857 
" clip-path="url(#p5746191f82)" style="fill: none; stroke: #ededed; stroke-width: 0.6; stroke-linecap: square"/>
     </g>
     <g id="line2d_22">
      <g>
       <use xlink:href="#m3108781e20" x="36.403365" y="216.189857" style="stroke: #000000; stroke-width: 0.8"/>
      </g>
     </g>
     <g id="text_12">
      <!-- 10 -->
      <g transform="translate(16.678365 219.989076) scale(0.1 -0.1)">
       <use xlink:href="#DejaVuSans-31"/>
       <use xlink:href="#DejaVuSans-30" transform="translate(63.623047 0)"/>
      </g>
     </g>
    </g>
    <g id="ytick_3">
     <g id="line2d_23">
      <path d="M 36.403365 174.624172 
L 788.99976 174.624172 
" clip-path="url(#p5746191f82)" style="fill: none; stroke: #ededed; stroke-width: 0.6; stroke-linecap: square"/>
     </g>
     <g id="line2d_24">
      <g>
       <use xlink:href="#m3108781e20" x="36.403365" y="174.624172" style="stroke: #000000; stroke-width: 0.8"/>
      </g>
     </g>
     <g id="text_13">
      <!-- 20 -->
      <g transform="translate(16.678365 178.423391) scale(0.1 -0.1)">
       <use xlink:href="#DejaVuSans-32"/>
       <use xlink:href="#DejaVuSans-30" transform="translate(63.623047 0)"/>
      </g>
     </g>
    </g>
    <g id="ytick_4">
     <g id="line2d_25">
      <path d="M 36.403365 133.058487 
L 788.99976 133.058487 
" clip-path="url(#p5746191f82)" style="fill: none; stroke: #ededed; stroke-width: 0.6; stroke-linecap: square"/>
     </g>
     <g id="line2d_26">
      <g>
       <use xlink:href="#m3108781e20" x="36.403365" y="133.058487" style="stroke: #000000; stroke-width: 0.8"/>
      </g>
     </g>
     <g id="text_14">
      <!-- 30 -->
      <g transform="translate(16.678365 136.857706) scale(0.1 -0.1)">
       <defs>
        <path id="DejaVuSans-33" d="M 2597 2516 
Q 3050 2419 3304 2112 
Q 3559 1806 3559 1356 
Q 3559 666 3084 287 
Q 2609 -91 1734 -91 
Q 1441 -91 1130 -33 
Q 819 25 488 141 
L 488 750 
Q 750 597 1062 519 
Q 1375 441 1716 441 
Q 2309 441 2620 675 
Q 2931 909 2931 1356 
Q 2931 1769 2642 2001 
Q 2353 2234 1838 2234 
L 1294 2234 
L 1294 2753 
L 1863 2753 
Q 2328 2753 2575 2939 
Q 2822 3125 2822 3475 
Q 2822 3834 2567 4026 
Q 2313 4219 1838 4219 
Q 1578 4219 1281 4162 
Q 984 4106 628 3988 
L 628 4550 
Q 988 4650 1302 4700 
Q 1616 4750 1894 4750 
Q 2613 4750 3031 4423 
Q 3450 4097 3450 3541 
Q 3450 3153 3228 2886 
Q 3006 2619 2597 2516 
z
" transform="scale(0.015625)"/>
       </defs>
       <use xlink:href="#DejaVuSans-33"/>
       <use xlink:href="#DejaVuSans-30" transform="translate(63.623047 0)"/>
      </g>
     </g>
    </g>
    <g id="ytick_5">
     <g id="line2d_27">
      <path d="M 36.403365 91.492802 
L 788.99976 91.492802 
" clip-path="url(#p5746191f82)" style="fill: none; stroke: #ededed; stroke-width: 0.6; stroke-linecap: square"/>
     </g>
     <g id="line2d_28">
      <g>
       <use xlink:href="#m3108781e20" x="36.403365" y="91.492802" style="stroke: #000000; stroke-width: 0.8"/>
      </g>
     </g>
     <g id="text_15">
      <!-- 40 -->
      <g transform="translate(16.678365 95.292021) scale(0.1 -0.1)">
       <defs>
        <path id="DejaVuSans-34" d="M 2419 4116 
L 825 1625 
L 2419 1625 
L 2419 4116 
z
M 2253 4666 
L 3047 4666 
L 3047 1625 
L 3713 1625 
L 3713 1100 
L 3047 1100 
L 3047 0 
L 2419 0 
L 2419 1100 
L 313 1100 
L 313 1709 
L 2253 4666 
z
" transform="scale(0.015625)"/>
       </defs>
       <use xlink:href="#DejaVuSans-34"/>
       <use xlink:href="#DejaVuSans-30" transform="translate(63.623047 0)"/>
      </g>
     </g>
    </g>
    <g id="ytick_6">
     <g id="line2d_29">
      <path d="M 36.403365 49.927117 
L 788.99976 49.927117 
" clip-path="url(#p5746191f82)" style="fill: none; stroke: #ededed; stroke-width: 0.6; stroke-linecap: square"/>
     </g>
     <g id="line2d_30">
      <g>
       <use xlink:href="#m3108781e20" x="36.403365" y="49.927117" style="stroke: #000000; stroke-width: 0.8"/>
      </g>
     </g>
     <g id="text_16">
      <!-- 50 -->
      <g transform="translate(16.678365 53.726336) scale(0.1 -0.1)">
       <use xlink:href="#DejaVuSans-35"/>
       <use xlink:href="#DejaVuSans-30" transform="translate(63.623047 0)"/>
      </g>
     </g>
    </g>
    <g id="text_17">
     <!-- theta (deg) -->
     <g transform="translate(10.598677 173.021178) rotate(-90) scale(0.1 -0.1)">
      <defs>
       <path id="DejaVuSans-68" d="M 3513 2113 
L 3513 0 
L 2938 0 
L 2938 2094 
Q 2938 2591 2744 2837 
Q 2550 3084 2163 3084 
Q 1697 3084 1428 2787 
Q 1159 2491 1159 1978 
L 1159 0 
L 581 0 
L 581 4863 
L 1159 4863 
L 1159 2956 
Q 1366 3272 1645 3428 
Q 1925 3584 2291 3584 
Q 2894 3584 3203 3211 
Q 3513 2838 3513 2113 
z
" transform="scale(0.015625)"/>
       <path id="DejaVuSans-61" d="M 2194 1759 
Q 1497 1759 1228 1600 
Q 959 1441 959 1056 
Q 959 750 1161 570 
Q 1363 391 1709 391 
Q 2188 391 2477 730 
Q 2766 1069 2766 1631 
L 2766 1759 
L 2194 1759 
z
M 3341 1997 
L 3341 0 
L 2766 0 
L 2766 531 
Q 2569 213 2275 61 
Q 1981 -91 1556 -91 
Q 1019 -91 701 211 
Q 384 513 384 1019 
Q 384 1609 779 1909 
Q 1175 2209 1959 2209 
L 2766 2209 
L 2766 2266 
Q 2766 2663 2505 2880 
Q 2244 3097 1772 3097 
Q 1472 3097 1187 3025 
Q 903 2953 641 2809 
L 641 3341 
Q 956 3463 1253 3523 
Q 1550 3584 1831 3584 
Q 2591 3584 2966 3190 
Q 3341 2797 3341 1997 
z
" transform="scale(0.015625)"/>
       <path id="DejaVuSans-67" d="M 2906 1791 
Q 2906 2416 2648 2759 
Q 2391 3103 1925 3103 
Q 1463 3103 1205 2759 
Q 947 2416 947 1791 
Q 947 1169 1205 825 
Q 1463 481 1925 481 
Q 2391 481 2648 825 
Q 2906 1169 2906 1791 
z
M 3481 434 
Q 3481 -459 3084 -895 
Q 2688 -1331 1869 -1331 
Q 1566 -1331 1297 -1286 
Q 1028 -1241 775 -1147 
L 775 -588 
Q 1028 -725 1275 -790 
Q 1522 -856 1778 -856 
Q 2344 -856 2625 -561 
Q 2906 -266 2906 331 
L 2906 616 
Q 2728 306 2450 153 
Q 2172 0 1784 0 
Q 1141 0 747 490 
Q 353 981 353 1791 
Q 353 2603 747 3093 
Q 1141 3584 1784 3584 
Q 2172 3584 2450 3431 
Q 2728 3278 2906 2969 
L 2906 3500 
L 3481 3500 
L 3481 434 
z
" transform="scale(0.015625)"/>
      </defs>
      <use xlink:href="#DejaVuSans-74"/>
      <use xlink:href="#DejaVuSans-68" transform="translate(39.208984 0)"/>
      <use xlink:href="#DejaVuSans-65" transform="translate(102.587891 0)"/>
      <use xlink:href="#DejaVuSans-74" transform="translate(164.111328 0)"/>
      <use xlink:href="#DejaVuSans-61" transform="translate(203.320312 0)"/>
      <use xlink:href="#DejaVuSans-20" transform="translate(264.599609 0)"/>
      <use xlink:href="#DejaVuSans-28" transform="translate(296.386719 0)"/>
      <use xlink:href="#DejaVuSans-64" transform="translate(335.400391 0)"/>
      <use xlink:href="#DejaVuSans-65" transform="translate(398.876953 0)"/>
      <use xlink:href="#DejaVuSans-67" transform="translate(460.400391 0)"/>
      <use xlink:href="#DejaVuSans-29" transform="translate(523.876953 0)"/>
     </g>
    </g>
   </g>
   <g id="line2d_31">
    <path d="M 36.403365 257.755542 
L 50.636867 257.755542 
L 52.416054 250.592364 
L 63.09118 247.010776 
L 73.766307 241.638392 
L 84.441433 233.579817 
L 95.116559 239.059514 
L 105.791685 243.772949 
L 116.466811 246.155952 
L 127.141937 246.60569 
L 137.817064 245.19712 
L 148.49219 241.695479 
L 159.167316 235.517161 
L 169.842442 225.632446 
L 180.517568 210.393881 
L 191.192694 187.261706 
L 201.867821 152.380559 
L 212.542947 124.141884 
L 223.218073 100.802736 
L 233.893199 81.336976 
L 244.568325 66.002419 
L 255.243451 53.966321 
L 265.918578 45.871503 
L 276.593704 40.899867 
L 287.26883 37.885131 
L 297.943956 36.153394 
L 308.619082 35.435541 
L 331.748522 35.650966 
L 340.644461 36.177196 
L 351.319587 37.539002 
L 361.994713 36.166895 
L 374.449027 35.878237 
L 385.124153 36.211136 
L 394.020092 36.75792 
L 406.474406 36.551085 
L 415.370344 36.739587 
L 426.04547 38.130725 
L 436.720596 36.895374 
L 447.395723 36.339264 
L 458.070849 36.862502 
L 468.745975 36.022771 
L 481.200289 36.10477 
L 491.875415 36.766551 
L 500.771353 37.675609 
L 511.44648 38.047509 
L 522.121606 39.632888 
L 534.57592 43.045946 
L 543.471858 45.821797 
L 554.146984 48.367208 
L 564.82211 49.735125 
L 575.497237 49.995679 
L 586.172363 53.52549 
L 596.847489 59.847192 
L 607.522615 71.125732 
L 618.197741 89.466625 
L 628.872867 118.16949 
L 639.547994 161.973566 
L 650.22312 189.813978 
L 660.898246 206.330797 
L 671.573372 214.276824 
L 682.248498 214.976399 
L 692.923624 208.546116 
L 703.598751 193.914263 
L 714.273877 168.642196 
L 724.949003 162.378994 
L 735.624129 175.779062 
L 746.299255 202.323805 
L 756.974381 219.629926 
L 767.649508 230.581777 
L 778.324634 237.004667 
L 788.99976 239.969077 
L 788.99976 239.969077 
" clip-path="url(#p5746191f82)" style="fill: none; stroke: #c0392b; stroke-width: 2; stroke-linecap: square"/>
   </g>
   <g id="line2d_32">
    <path d="M 36.311861 254.712296 
L 39.870237 254.74348 
L 43.428612 254.500534 
L 46.986988 254.037189 
L 55.882926 254.386508 
L 61.220489 254.188251 
L 64.778864 253.753449 
L 68.33724 252.927307 
L 70.116428 252.99874 
L 73.674803 253.595281 
L 77.233178 254.033151 
L 80.791554 254.284636 
L 84.349929 254.483828 
L 87.908305 254.595661 
L 93.245868 254.49339 
L 98.583431 254.386311 
L 102.141806 254.450933 
L 111.037745 254.327243 
L 116.375308 254.276773 
L 119.933683 253.975421 
L 125.271246 253.854046 
L 135.946372 253.529056 
L 139.504748 253.50555 
L 141.283935 253.365298 
L 144.842311 252.727126 
L 148.400686 251.919754 
L 150.179874 251.638842 
L 151.959062 251.541212 
L 157.296625 251.587541 
L 164.413375 251.449639 
L 167.971751 250.975071 
L 171.530126 250.38858 
L 178.646877 249.038208 
L 182.205252 248.248583 
L 185.763628 247.225413 
L 189.322003 245.796372 
L 192.880379 244.284117 
L 196.438754 242.56832 
L 205.334692 238.017503 
L 210.672255 234.461232 
L 212.451443 233.251519 
L 214.230631 231.846901 
L 216.009819 230.243098 
L 217.789006 228.457083 
L 221.347382 224.372283 
L 223.126569 222.015519 
L 224.905757 219.331819 
L 226.684945 216.326214 
L 228.464132 212.89707 
L 233.801696 201.162669 
L 237.360071 193.773212 
L 239.139259 189.603698 
L 240.918446 184.898423 
L 242.697634 179.240568 
L 244.476822 172.623384 
L 248.035197 156.859431 
L 249.814385 146.954213 
L 251.593572 134.118962 
L 253.37276 118.339101 
L 256.931136 83.885743 
L 258.710323 69.884156 
L 260.489511 60.112622 
L 262.268699 54.536813 
L 264.047886 53.030673 
L 265.827074 55.316861 
L 267.606262 60.451009 
L 269.385449 66.762529 
L 271.164637 71.061761 
L 272.943825 70.730104 
L 274.723013 64.591439 
L 278.281388 46.795279 
L 280.060576 40.401214 
L 281.839763 37.257229 
L 283.618951 37.697309 
L 285.398139 41.53591 
L 288.956514 53.909251 
L 290.735702 57.292615 
L 292.514889 55.850991 
L 294.294077 50.434798 
L 296.073265 43.848619 
L 297.852453 38.922155 
L 299.63164 36.626566 
L 301.410828 37.623927 
L 303.190016 42.111713 
L 304.969203 49.36244 
L 306.748391 57.915942 
L 308.527579 64.512889 
L 310.306766 67.049668 
L 312.085954 63.844305 
L 315.644329 50.304025 
L 317.423517 45.252697 
L 319.202705 43.18221 
L 320.981893 45.275671 
L 322.76108 51.324815 
L 324.540268 59.485308 
L 326.319456 64.075269 
L 328.098643 59.744976 
L 331.657019 39.126912 
L 333.436206 33.300078 
L 335.215394 31.996188 
L 336.994582 33.301655 
L 338.77377 35.394688 
L 340.552957 38.599039 
L 342.332145 42.922596 
L 344.111333 48.399558 
L 345.89052 53.465094 
L 347.669708 56.239811 
L 349.448896 54.59072 
L 351.228083 49.231894 
L 353.007271 42.648933 
L 354.786459 37.942934 
L 356.565646 38.377569 
L 358.344834 43.72659 
L 360.124022 51.162641 
L 361.90321 56.233649 
L 363.682397 57.403572 
L 365.461585 53.96643 
L 367.240773 47.287884 
L 369.01996 42.081893 
L 370.799148 40.456046 
L 374.357523 41.971412 
L 376.136711 42.466348 
L 377.915899 43.623204 
L 379.695087 46.611827 
L 383.253462 57.498842 
L 385.03265 60.297009 
L 386.811837 57.856831 
L 388.591025 51.21014 
L 390.370213 43.131306 
L 392.1494 37.915381 
L 393.928588 37.946344 
L 395.707776 42.883659 
L 397.486963 49.48681 
L 399.266151 53.756314 
L 401.045339 54.39267 
L 402.824527 50.84542 
L 404.603714 44.868136 
L 406.382902 40.882236 
L 408.16209 40.343271 
L 409.941277 41.406844 
L 413.499653 42.88242 
L 415.27884 44.351066 
L 417.058028 48.332984 
L 420.616404 61.329123 
L 422.395591 64.285741 
L 424.174779 61.813319 
L 425.953967 54.982452 
L 427.733154 46.836959 
L 429.512342 41.37038 
L 431.29153 40.822986 
L 433.070717 44.528952 
L 434.849905 49.353537 
L 436.629093 51.849638 
L 438.40828 51.29485 
L 440.187468 47.162621 
L 441.966656 41.817557 
L 443.745844 39.116458 
L 445.525031 39.592616 
L 447.304219 40.984016 
L 449.083407 41.692282 
L 450.862594 42.086481 
L 452.641782 43.165301 
L 454.42097 46.987579 
L 457.979345 59.560411 
L 459.758533 62.224463 
L 461.53772 59.718828 
L 463.316908 53.154894 
L 465.096096 45.867264 
L 466.875284 42.060635 
L 468.654471 43.107814 
L 472.212847 52.870512 
L 473.992034 55.128667 
L 475.771222 54.310638 
L 477.55041 50.009757 
L 479.329597 45.101146 
L 481.108785 42.810977 
L 482.887973 43.062408 
L 484.667161 43.61197 
L 486.446348 43.30051 
L 488.225536 42.696126 
L 490.004724 43.024607 
L 491.783911 46.295257 
L 495.342287 58.285328 
L 497.121474 60.743038 
L 498.900662 58.296278 
L 502.459037 45.556691 
L 504.238225 42.478007 
L 506.017413 44.084595 
L 509.575788 54.219333 
L 511.354976 56.72016 
L 513.134164 56.750695 
L 514.913351 54.733768 
L 516.692539 53.673771 
L 518.471727 55.406691 
L 523.80929 68.180152 
L 527.367665 76.246743 
L 529.146853 82.223136 
L 530.926041 91.143413 
L 532.705228 102.294652 
L 534.484416 111.706254 
L 536.263604 117.946595 
L 538.042791 123.144956 
L 539.821979 129.978385 
L 541.601167 137.45297 
L 543.380354 143.550255 
L 545.159542 148.463434 
L 546.93873 150.148651 
L 548.717918 147.815863 
L 550.497105 144.194011 
L 552.276293 142.460133 
L 554.055481 145.967311 
L 555.834668 154.981998 
L 557.613856 164.775982 
L 559.393044 173.597026 
L 561.172231 180.024963 
L 562.951419 184.079725 
L 564.730607 187.407643 
L 566.509794 191.380028 
L 568.288982 196.147454 
L 571.847358 206.287898 
L 573.626545 210.658955 
L 575.405733 214.400545 
L 577.184921 217.603752 
L 580.743296 223.503068 
L 582.522484 226.837072 
L 584.301671 229.722368 
L 586.080859 231.913106 
L 587.860047 233.499935 
L 589.639235 234.86498 
L 591.418422 235.850991 
L 593.19761 236.51957 
L 594.976798 236.928528 
L 596.755985 237.710617 
L 603.872736 241.755025 
L 605.651924 242.575342 
L 609.210299 244.654996 
L 612.768675 246.070891 
L 618.106238 247.666327 
L 619.885425 248.12518 
L 621.664613 248.338871 
L 627.002176 248.439021 
L 628.781364 248.449783 
L 632.339739 249.161792 
L 639.45649 249.902797 
L 641.235678 249.874516 
L 644.794053 250.542843 
L 650.131616 251.531046 
L 651.910804 251.725479 
L 653.689992 251.740333 
L 659.027555 251.259798 
L 666.144305 250.957165 
L 667.923493 250.671348 
L 669.702681 250.568638 
L 671.481869 250.720643 
L 675.040244 251.296935 
L 676.819432 251.365372 
L 678.598619 251.277354 
L 680.377807 251.601184 
L 682.156995 252.081331 
L 685.71537 252.590207 
L 689.273745 252.74503 
L 692.832121 252.725364 
L 698.169684 253.260855 
L 699.948872 253.28096 
L 701.728059 253.186723 
L 703.507247 252.977368 
L 707.065622 252.264977 
L 712.403185 253.140473 
L 715.961561 253.284053 
L 719.519936 253.143922 
L 721.299124 253.113206 
L 724.857499 253.390215 
L 728.415875 253.597079 
L 739.091001 253.800327 
L 742.649376 253.95299 
L 749.766127 253.936685 
L 751.545315 253.983163 
L 755.10369 253.71504 
L 762.220441 252.769164 
L 765.778816 252.734138 
L 778.23313 253.087656 
L 781.791506 253.337562 
L 790.687444 253.729514 
L 790.687444 253.729514 
" clip-path="url(#p5746191f82)" style="fill: none; stroke: #1f6fd6; stroke-width: 1.5; stroke-linecap: square"/>
   </g>
   <g id="patch_3">
    <path d="M 36.403365 269.04351 
L 36.403365 20.70822 
" style="fill: none; stroke: #000000; stroke-width: 0.8; stroke-linejoin: miter; stroke-linecap: square"/>
   </g>
   <g id="patch_4">
    <path d="M 36.403365 269.04351 
L 788.99976 269.04351 
" style="fill: none; stroke: #000000; stroke-width: 0.8; stroke-linejoin: miter; stroke-linecap: square"/>
   </g>
   <g id="legend_1">
    <g id="patch_5">
     <path d="M 667.384447 54.328845 
L 782.69976 54.328845 
Q 784.49976 54.328845 784.49976 52.528845 
L 784.49976 27.00822 
Q 784.49976 25.20822 782.69976 25.20822 
L 667.384447 25.20822 
Q 665.584448 25.20822 665.584448 27.00822 
L 665.584448 52.528845 
Q 665.584448 54.328845 667.384447 54.328845 
z
" style="fill: #ffffff; opacity: 0.8; stroke: #cccccc; stroke-linejoin: miter"/>
    </g>
    <g id="line2d_33">
     <path d="M 669.184448 32.496814 
L 678.184448 32.496814 
L 687.184448 32.496814 
" style="fill: none; stroke: #c0392b; stroke-width: 2; stroke-linecap: square"/>
    </g>
    <g id="text_18">
     <!-- video theta(t) -->
     <g transform="translate(694.384448 35.646814) scale(0.09 -0.09)">
      <use xlink:href="#DejaVuSans-76"/>
      <use xlink:href="#DejaVuSans-69" transform="translate(59.179688 0)"/>
      <use xlink:href="#DejaVuSans-64" transform="translate(86.962891 0)"/>
      <use xlink:href="#DejaVuSans-65" transform="translate(150.439453 0)"/>
      <use xlink:href="#DejaVuSans-6f" transform="translate(211.962891 0)"/>
      <use xlink:href="#DejaVuSans-20" transform="translate(273.144531 0)"/>
      <use xlink:href="#DejaVuSans-74" transform="translate(304.931641 0)"/>
      <use xlink:href="#DejaVuSans-68" transform="translate(344.140625 0)"/>
      <use xlink:href="#DejaVuSans-65" transform="translate(407.519531 0)"/>
      <use xlink:href="#DejaVuSans-74" transform="translate(469.042969 0)"/>
      <use xlink:href="#DejaVuSans-61" transform="translate(508.251953 0)"/>
      <use xlink:href="#DejaVuSans-28" transform="translate(569.53125 0)"/>
      <use xlink:href="#DejaVuSans-74" transform="translate(608.544922 0)"/>
      <use xlink:href="#DejaVuSans-29" transform="translate(647.753906 0)"/>
     </g>
    </g>
    <g id="line2d_34">
     <path d="M 669.184448 45.707126 
L 678.184448 45.707126 
L 687.184448 45.707126 
" style="fill: none; stroke: #1f6fd6; stroke-width: 1.5; stroke-linecap: square"/>
    </g>
    <g id="text_19">
     <!-- phone arctan(aT/g) -->
     <g transform="translate(694.384448 48.857126) scale(0.09 -0.09)">
      <defs>
       <path id="DejaVuSans-70" d="M 1159 525 
L 1159 -1331 
L 581 -1331 
L 581 3500 
L 1159 3500 
L 1159 2969 
Q 1341 3281 1617 3432 
Q 1894 3584 2278 3584 
Q 2916 3584 3314 3078 
Q 3713 2572 3713 1747 
Q 3713 922 3314 415 
Q 2916 -91 2278 -91 
Q 1894 -91 1617 61 
Q 1341 213 1159 525 
z
M 3116 1747 
Q 3116 2381 2855 2742 
Q 2594 3103 2138 3103 
Q 1681 3103 1420 2742 
Q 1159 2381 1159 1747 
Q 1159 1113 1420 752 
Q 1681 391 2138 391 
Q 2594 391 2855 752 
Q 3116 1113 3116 1747 
z
" transform="scale(0.015625)"/>
       <path id="DejaVuSans-6e" d="M 3513 2113 
L 3513 0 
L 2938 0 
L 2938 2094 
Q 2938 2591 2744 2837 
Q 2550 3084 2163 3084 
Q 1697 3084 1428 2787 
Q 1159 2491 1159 1978 
L 1159 0 
L 581 0 
L 581 3500 
L 1159 3500 
L 1159 2956 
Q 1366 3272 1645 3428 
Q 1925 3584 2291 3584 
Q 2894 3584 3203 3211 
Q 3513 2838 3513 2113 
z
" transform="scale(0.015625)"/>
       <path id="DejaVuSans-72" d="M 2631 2963 
Q 2534 3019 2420 3045 
Q 2306 3072 2169 3072 
Q 1681 3072 1420 2755 
Q 1159 2438 1159 1844 
L 1159 0 
L 581 0 
L 581 3500 
L 1159 3500 
L 1159 2956 
Q 1341 3275 1631 3429 
Q 1922 3584 2338 3584 
Q 2397 3584 2469 3576 
Q 2541 3569 2628 3553 
L 2631 2963 
z
" transform="scale(0.015625)"/>
       <path id="DejaVuSans-54" d="M -19 4666 
L 3928 4666 
L 3928 4134 
L 2272 4134 
L 2272 0 
L 1638 0 
L 1638 4134 
L -19 4134 
L -19 4666 
z
" transform="scale(0.015625)"/>
       <path id="DejaVuSans-2f" d="M 1625 4666 
L 2156 4666 
L 531 -594 
L 0 -594 
L 1625 4666 
z
" transform="scale(0.015625)"/>
      </defs>
      <use xlink:href="#DejaVuSans-70"/>
      <use xlink:href="#DejaVuSans-68" transform="translate(63.476562 0)"/>
      <use xlink:href="#DejaVuSans-6f" transform="translate(126.855469 0)"/>
      <use xlink:href="#DejaVuSans-6e" transform="translate(188.037109 0)"/>
      <use xlink:href="#DejaVuSans-65" transform="translate(251.416016 0)"/>
      <use xlink:href="#DejaVuSans-20" transform="translate(312.939453 0)"/>
      <use xlink:href="#DejaVuSans-61" transform="translate(344.726562 0)"/>
      <use xlink:href="#DejaVuSans-72" transform="translate(406.005859 0)"/>
      <use xlink:href="#DejaVuSans-63" transform="translate(444.869141 0)"/>
      <use xlink:href="#DejaVuSans-74" transform="translate(499.849609 0)"/>
      <use xlink:href="#DejaVuSans-61" transform="translate(539.058594 0)"/>
      <use xlink:href="#DejaVuSans-6e" transform="translate(600.337891 0)"/>
      <use xlink:href="#DejaVuSans-28" transform="translate(663.716797 0)"/>
      <use xlink:href="#DejaVuSans-61" transform="translate(702.730469 0)"/>
      <use xlink:href="#DejaVuSans-54" transform="translate(764.009766 0)"/>
      <use xlink:href="#DejaVuSans-2f" transform="translate(825.09375 0)"/>
      <use xlink:href="#DejaVuSans-67" transform="translate(858.785156 0)"/>
      <use xlink:href="#DejaVuSans-29" transform="translate(922.261719 0)"/>
     </g>
    </g>
   </g>
  </g>
  <g id="text_20">
   <!-- Video (ryan) vs accelerometer: probably trial 1 -->
   <g transform="translate(237.025313 12.118365) scale(0.12 -0.12)">
    <defs>
     <path id="DejaVuSans-Bold-56" d="M 31 4666 
L 1241 4666 
L 2478 1222 
L 3713 4666 
L 4922 4666 
L 3194 0 
L 1759 0 
L 31 4666 
z
" transform="scale(0.015625)"/>
     <path id="DejaVuSans-Bold-69" d="M 538 3500 
L 1656 3500 
L 1656 0 
L 538 0 
L 538 3500 
z
M 538 4863 
L 1656 4863 
L 1656 3950 
L 538 3950 
L 538 4863 
z
" transform="scale(0.015625)"/>
     <path id="DejaVuSans-Bold-64" d="M 2919 2988 
L 2919 4863 
L 4044 4863 
L 4044 0 
L 2919 0 
L 2919 506 
Q 2688 197 2409 53 
Q 2131 -91 1766 -91 
Q 1119 -91 703 423 
Q 288 938 288 1747 
Q 288 2556 703 3070 
Q 1119 3584 1766 3584 
Q 2128 3584 2408 3439 
Q 2688 3294 2919 2988 
z
M 2181 722 
Q 2541 722 2730 984 
Q 2919 1247 2919 1747 
Q 2919 2247 2730 2509 
Q 2541 2772 2181 2772 
Q 1825 2772 1636 2509 
Q 1447 2247 1447 1747 
Q 1447 1247 1636 984 
Q 1825 722 2181 722 
z
" transform="scale(0.015625)"/>
     <path id="DejaVuSans-Bold-65" d="M 4031 1759 
L 4031 1441 
L 1416 1441 
Q 1456 1047 1700 850 
Q 1944 653 2381 653 
Q 2734 653 3104 758 
Q 3475 863 3866 1075 
L 3866 213 
Q 3469 63 3072 -14 
Q 2675 -91 2278 -91 
Q 1328 -91 801 392 
Q 275 875 275 1747 
Q 275 2603 792 3093 
Q 1309 3584 2216 3584 
Q 3041 3584 3536 3087 
Q 4031 2591 4031 1759 
z
M 2881 2131 
Q 2881 2450 2695 2645 
Q 2509 2841 2209 2841 
Q 1884 2841 1681 2658 
Q 1478 2475 1428 2131 
L 2881 2131 
z
" transform="scale(0.015625)"/>
     <path id="DejaVuSans-Bold-6f" d="M 2203 2784 
Q 1831 2784 1636 2517 
Q 1441 2250 1441 1747 
Q 1441 1244 1636 976 
Q 1831 709 2203 709 
Q 2569 709 2762 976 
Q 2956 1244 2956 1747 
Q 2956 2250 2762 2517 
Q 2569 2784 2203 2784 
z
M 2203 3584 
Q 3106 3584 3614 3096 
Q 4122 2609 4122 1747 
Q 4122 884 3614 396 
Q 3106 -91 2203 -91 
Q 1297 -91 786 396 
Q 275 884 275 1747 
Q 275 2609 786 3096 
Q 1297 3584 2203 3584 
z
" transform="scale(0.015625)"/>
     <path id="DejaVuSans-Bold-20" transform="scale(0.015625)"/>
     <path id="DejaVuSans-Bold-28" d="M 2413 -844 
L 1484 -844 
Q 1006 -72 778 623 
Q 550 1319 550 2003 
Q 550 2688 779 3389 
Q 1009 4091 1484 4856 
L 2413 4856 
Q 2013 4116 1813 3408 
Q 1613 2700 1613 2009 
Q 1613 1319 1811 609 
Q 2009 -100 2413 -844 
z
" transform="scale(0.015625)"/>
     <path id="DejaVuSans-Bold-72" d="M 3138 2547 
Q 2991 2616 2845 2648 
Q 2700 2681 2553 2681 
Q 2122 2681 1889 2404 
Q 1656 2128 1656 1613 
L 1656 0 
L 538 0 
L 538 3500 
L 1656 3500 
L 1656 2925 
Q 1872 3269 2151 3426 
Q 2431 3584 2822 3584 
Q 2878 3584 2943 3579 
Q 3009 3575 3134 3559 
L 3138 2547 
z
" transform="scale(0.015625)"/>
     <path id="DejaVuSans-Bold-79" d="M 78 3500 
L 1197 3500 
L 2138 1125 
L 2938 3500 
L 4056 3500 
L 2584 -331 
Q 2363 -916 2067 -1148 
Q 1772 -1381 1288 -1381 
L 641 -1381 
L 641 -647 
L 991 -647 
Q 1275 -647 1404 -556 
Q 1534 -466 1606 -231 
L 1638 -134 
L 78 3500 
z
" transform="scale(0.015625)"/>
     <path id="DejaVuSans-Bold-61" d="M 2106 1575 
Q 1756 1575 1579 1456 
Q 1403 1338 1403 1106 
Q 1403 894 1545 773 
Q 1688 653 1941 653 
Q 2256 653 2472 879 
Q 2688 1106 2688 1447 
L 2688 1575 
L 2106 1575 
z
M 3816 1997 
L 3816 0 
L 2688 0 
L 2688 519 
Q 2463 200 2181 54 
Q 1900 -91 1497 -91 
Q 953 -91 614 226 
Q 275 544 275 1050 
Q 275 1666 698 1953 
Q 1122 2241 2028 2241 
L 2688 2241 
L 2688 2328 
Q 2688 2594 2478 2717 
Q 2269 2841 1825 2841 
Q 1466 2841 1156 2769 
Q 847 2697 581 2553 
L 581 3406 
Q 941 3494 1303 3539 
Q 1666 3584 2028 3584 
Q 2975 3584 3395 3211 
Q 3816 2838 3816 1997 
z
" transform="scale(0.015625)"/>
     <path id="DejaVuSans-Bold-6e" d="M 4056 2131 
L 4056 0 
L 2931 0 
L 2931 347 
L 2931 1631 
Q 2931 2084 2911 2256 
Q 2891 2428 2841 2509 
Q 2775 2619 2662 2680 
Q 2550 2741 2406 2741 
Q 2056 2741 1856 2470 
Q 1656 2200 1656 1722 
L 1656 0 
L 538 0 
L 538 3500 
L 1656 3500 
L 1656 2988 
Q 1909 3294 2193 3439 
Q 2478 3584 2822 3584 
Q 3428 3584 3742 3212 
Q 4056 2841 4056 2131 
z
" transform="scale(0.015625)"/>
     <path id="DejaVuSans-Bold-29" d="M 513 -844 
Q 913 -100 1113 609 
Q 1313 1319 1313 2009 
Q 1313 2700 1113 3408 
Q 913 4116 513 4856 
L 1441 4856 
Q 1916 4091 2145 3389 
Q 2375 2688 2375 2003 
Q 2375 1319 2147 623 
Q 1919 -72 1441 -844 
L 513 -844 
z
" transform="scale(0.015625)"/>
     <path id="DejaVuSans-Bold-76" d="M 97 3500 
L 1216 3500 
L 2088 1081 
L 2956 3500 
L 4078 3500 
L 2700 0 
L 1472 0 
L 97 3500 
z
" transform="scale(0.015625)"/>
     <path id="DejaVuSans-Bold-73" d="M 3272 3391 
L 3272 2541 
Q 2913 2691 2578 2766 
Q 2244 2841 1947 2841 
Q 1628 2841 1473 2761 
Q 1319 2681 1319 2516 
Q 1319 2381 1436 2309 
Q 1553 2238 1856 2203 
L 2053 2175 
Q 2913 2066 3209 1816 
Q 3506 1566 3506 1031 
Q 3506 472 3093 190 
Q 2681 -91 1863 -91 
Q 1516 -91 1145 -36 
Q 775 19 384 128 
L 384 978 
Q 719 816 1070 734 
Q 1422 653 1784 653 
Q 2113 653 2278 743 
Q 2444 834 2444 1013 
Q 2444 1163 2330 1236 
Q 2216 1309 1875 1350 
L 1678 1375 
Q 931 1469 631 1722 
Q 331 1975 331 2491 
Q 331 3047 712 3315 
Q 1094 3584 1881 3584 
Q 2191 3584 2531 3537 
Q 2872 3491 3272 3391 
z
" transform="scale(0.015625)"/>
     <path id="DejaVuSans-Bold-63" d="M 3366 3391 
L 3366 2478 
Q 3138 2634 2908 2709 
Q 2678 2784 2431 2784 
Q 1963 2784 1702 2511 
Q 1441 2238 1441 1747 
Q 1441 1256 1702 982 
Q 1963 709 2431 709 
Q 2694 709 2930 787 
Q 3166 866 3366 1019 
L 3366 103 
Q 3103 6 2833 -42 
Q 2563 -91 2291 -91 
Q 1344 -91 809 395 
Q 275 881 275 1747 
Q 275 2613 809 3098 
Q 1344 3584 2291 3584 
Q 2566 3584 2833 3536 
Q 3100 3488 3366 3391 
z
" transform="scale(0.015625)"/>
     <path id="DejaVuSans-Bold-6c" d="M 538 4863 
L 1656 4863 
L 1656 0 
L 538 0 
L 538 4863 
z
" transform="scale(0.015625)"/>
     <path id="DejaVuSans-Bold-6d" d="M 3781 2919 
Q 3994 3244 4286 3414 
Q 4578 3584 4928 3584 
Q 5531 3584 5847 3212 
Q 6163 2841 6163 2131 
L 6163 0 
L 5038 0 
L 5038 1825 
Q 5041 1866 5042 1909 
Q 5044 1953 5044 2034 
Q 5044 2406 4934 2573 
Q 4825 2741 4581 2741 
Q 4263 2741 4089 2478 
Q 3916 2216 3909 1719 
L 3909 0 
L 2784 0 
L 2784 1825 
Q 2784 2406 2684 2573 
Q 2584 2741 2328 2741 
Q 2006 2741 1831 2477 
Q 1656 2213 1656 1722 
L 1656 0 
L 531 0 
L 531 3500 
L 1656 3500 
L 1656 2988 
Q 1863 3284 2130 3434 
Q 2397 3584 2719 3584 
Q 3081 3584 3359 3409 
Q 3638 3234 3781 2919 
z
" transform="scale(0.015625)"/>
     <path id="DejaVuSans-Bold-74" d="M 1759 4494 
L 1759 3500 
L 2913 3500 
L 2913 2700 
L 1759 2700 
L 1759 1216 
Q 1759 972 1856 886 
Q 1953 800 2241 800 
L 2816 800 
L 2816 0 
L 1856 0 
Q 1194 0 917 276 
Q 641 553 641 1216 
L 641 2700 
L 84 2700 
L 84 3500 
L 641 3500 
L 641 4494 
L 1759 4494 
z
" transform="scale(0.015625)"/>
     <path id="DejaVuSans-Bold-3a" d="M 716 3500 
L 1844 3500 
L 1844 2291 
L 716 2291 
L 716 3500 
z
M 716 1209 
L 1844 1209 
L 1844 0 
L 716 0 
L 716 1209 
z
" transform="scale(0.015625)"/>
     <path id="DejaVuSans-Bold-70" d="M 1656 506 
L 1656 -1331 
L 538 -1331 
L 538 3500 
L 1656 3500 
L 1656 2988 
Q 1888 3294 2169 3439 
Q 2450 3584 2816 3584 
Q 3463 3584 3878 3070 
Q 4294 2556 4294 1747 
Q 4294 938 3878 423 
Q 3463 -91 2816 -91 
Q 2450 -91 2169 54 
Q 1888 200 1656 506 
z
M 2400 2772 
Q 2041 2772 1848 2508 
Q 1656 2244 1656 1747 
Q 1656 1250 1848 986 
Q 2041 722 2400 722 
Q 2759 722 2948 984 
Q 3138 1247 3138 1747 
Q 3138 2247 2948 2509 
Q 2759 2772 2400 2772 
z
" transform="scale(0.015625)"/>
     <path id="DejaVuSans-Bold-62" d="M 2400 722 
Q 2759 722 2948 984 
Q 3138 1247 3138 1747 
Q 3138 2247 2948 2509 
Q 2759 2772 2400 2772 
Q 2041 2772 1848 2508 
Q 1656 2244 1656 1747 
Q 1656 1250 1848 986 
Q 2041 722 2400 722 
z
M 1656 2988 
Q 1888 3294 2169 3439 
Q 2450 3584 2816 3584 
Q 3463 3584 3878 3070 
Q 4294 2556 4294 1747 
Q 4294 938 3878 423 
Q 3463 -91 2816 -91 
Q 2450 -91 2169 54 
Q 1888 200 1656 506 
L 1656 0 
L 538 0 
L 538 4863 
L 1656 4863 
L 1656 2988 
z
" transform="scale(0.015625)"/>
     <path id="DejaVuSans-Bold-31" d="M 750 831 
L 1813 831 
L 1813 3847 
L 722 3622 
L 722 4441 
L 1806 4666 
L 2950 4666 
L 2950 831 
L 4013 831 
L 4013 0 
L 750 0 
L 750 831 
z
" transform="scale(0.015625)"/>
    </defs>
    <use xlink:href="#DejaVuSans-Bold-56"/>
    <use xlink:href="#DejaVuSans-Bold-69" transform="translate(75.642578 0)"/>
    <use xlink:href="#DejaVuSans-Bold-64" transform="translate(109.919922 0)"/>
    <use xlink:href="#DejaVuSans-Bold-65" transform="translate(181.501953 0)"/>
    <use xlink:href="#DejaVuSans-Bold-6f" transform="translate(249.324219 0)"/>
    <use xlink:href="#DejaVuSans-Bold-20" transform="translate(318.025391 0)"/>
    <use xlink:href="#DejaVuSans-Bold-28" transform="translate(352.839844 0)"/>
    <use xlink:href="#DejaVuSans-Bold-72" transform="translate(398.542969 0)"/>
    <use xlink:href="#DejaVuSans-Bold-79" transform="translate(447.859375 0)"/>
    <use xlink:href="#DejaVuSans-Bold-61" transform="translate(513.044922 0)"/>
    <use xlink:href="#DejaVuSans-Bold-6e" transform="translate(580.525391 0)"/>
    <use xlink:href="#DejaVuSans-Bold-29" transform="translate(651.716797 0)"/>
    <use xlink:href="#DejaVuSans-Bold-20" transform="translate(697.419922 0)"/>
    <use xlink:href="#DejaVuSans-Bold-76" transform="translate(732.234375 0)"/>
    <use xlink:href="#DejaVuSans-Bold-73" transform="translate(797.419922 0)"/>
    <use xlink:href="#DejaVuSans-Bold-20" transform="translate(856.941406 0)"/>
    <use xlink:href="#DejaVuSans-Bold-61" transform="translate(891.755859 0)"/>
    <use xlink:href="#DejaVuSans-Bold-63" transform="translate(959.236328 0)"/>
    <use xlink:href="#DejaVuSans-Bold-63" transform="translate(1018.513672 0)"/>
    <use xlink:href="#DejaVuSans-Bold-65" transform="translate(1077.791016 0)"/>
    <use xlink:href="#DejaVuSans-Bold-6c" transform="translate(1145.613281 0)"/>
    <use xlink:href="#DejaVuSans-Bold-65" transform="translate(1179.890625 0)"/>
    <use xlink:href="#DejaVuSans-Bold-72" transform="translate(1247.712891 0)"/>
    <use xlink:href="#DejaVuSans-Bold-6f" transform="translate(1297.029297 0)"/>
    <use xlink:href="#DejaVuSans-Bold-6d" transform="translate(1365.730469 0)"/>
    <use xlink:href="#DejaVuSans-Bold-65" transform="translate(1469.929688 0)"/>
    <use xlink:href="#DejaVuSans-Bold-74" transform="translate(1537.751953 0)"/>
    <use xlink:href="#DejaVuSans-Bold-65" transform="translate(1585.554688 0)"/>
    <use xlink:href="#DejaVuSans-Bold-72" transform="translate(1653.376953 0)"/>
    <use xlink:href="#DejaVuSans-Bold-3a" transform="translate(1702.693359 0)"/>
    <use xlink:href="#DejaVuSans-Bold-20" transform="translate(1742.683594 0)"/>
    <use xlink:href="#DejaVuSans-Bold-70" transform="translate(1777.498047 0)"/>
    <use xlink:href="#DejaVuSans-Bold-72" transform="translate(1849.080078 0)"/>
    <use xlink:href="#DejaVuSans-Bold-6f" transform="translate(1898.396484 0)"/>
    <use xlink:href="#DejaVuSans-Bold-62" transform="translate(1967.097656 0)"/>
    <use xlink:href="#DejaVuSans-Bold-61" transform="translate(2038.679688 0)"/>
    <use xlink:href="#DejaVuSans-Bold-62" transform="translate(2106.160156 0)"/>
    <use xlink:href="#DejaVuSans-Bold-6c" transform="translate(2177.742188 0)"/>
    <use xlink:href="#DejaVuSans-Bold-79" transform="translate(2212.019531 0)"/>
    <use xlink:href="#DejaVuSans-Bold-20" transform="translate(2277.205078 0)"/>
    <use xlink:href="#DejaVuSans-Bold-74" transform="translate(2312.019531 0)"/>
    <use xlink:href="#DejaVuSans-Bold-72" transform="translate(2359.822266 0)"/>
    <use xlink:href="#DejaVuSans-Bold-69" transform="translate(2409.138672 0)"/>
    <use xlink:href="#DejaVuSans-Bold-61" transform="translate(2443.416016 0)"/>
    <use xlink:href="#DejaVuSans-Bold-6c" transform="translate(2510.896484 0)"/>
    <use xlink:href="#DejaVuSans-Bold-20" transform="translate(2545.173828 0)"/>
    <use xlink:href="#DejaVuSans-Bold-31" transform="translate(2579.988281 0)"/>
   </g>
  </g>
 </g>
 <defs>
  <clipPath id="p5746191f82">
   <rect x="36.403365" y="20.70822" width="752.596395" height="248.33529"/>
  </clipPath>
 </defs>
</svg>
