<?xml version="1.0" encoding="utf-8" standalone="no"?>
<!DOCTYPE svg PUBLIC "-//W3C//DTD SVG 1.1//EN"
  "http://www.w3.org/Graphics/SVG/1.1/DTD/svg11.dtd">
<svg xmlns:xlink="http://www.w3.org/1999/xlink" width="792pt" height="432pt" viewBox="0 0 792 432" xmlns="http://www.w3.org/2000/svg" version="1.1">
 <metadata>
  <rdf:RDF xmlns:dc="http://purl.org/dc/elements/1.1/" xmlns:cc="http://creativecommons.org/ns#" xmlns:rdf="http://www.w3.org/1999/02/22-rdf-syntax-ns#">
   <cc:Work>
    <dc:type rdf:resource="http://purl.org/dc/dcmitype/StillImage"/>
    <dc:date>2026-07-15T21:27:28.287263</dc:date>
    <dc:format>image/svg+xml</dc:format>
    <dc:creator>
     <cc:Agent>
      <dc:title>Matplotlib v3.10.3, https://matplotlib.org/</dc:title>
     </cc:Agent>
    </dc:creator>
   </cc:Work>
  </rdf:RDF>
 </metadata>
 <defs>
  <style type="text/css">*{stroke-linejoin: round; stroke-linecap: butt}</style>
 </defs>
 <g id="figure_1">
  <g id="patch_1">
   <path d="M 0 432 
L 792 432 
L 792 0 
L 0 0 
z
" style="fill: #ffffff"/>
  </g>
  <g id="axes_1">
   <g id="patch_2">
    <path d="M 36.403365 204.925625 
L 788.99976 204.925625 
L 788.99976 20.70822 
L 36.403365 20.70822 
z
" style="fill: #ffffff"/>
   </g>
   <g id="FillBetweenPolyCollection_1">
    <defs>
     <path id="m8f1ba87826" d="M 70.612292 -235.447893 
L 70.612292 -235.447893 
L 78.567856 -235.447893 
L 86.523421 -235.447893 
L 94.478985 -235.447893 
L 102.43455 -235.447893 
L 110.390114 -235.447893 
L 118.345679 -235.447893 
L 126.301243 -235.447893 
L 134.256807 -235.447893 
L 142.212372 -235.447893 
L 150.167936 -235.447893 
L 158.123501 -235.447893 
L 166.079065 -235.447893 
L 174.03463 -235.447893 
L 181.990194 -235.447893 
L 189.945758 -235.447893 
L 197.901323 -235.447893 
L 205.856887 -235.447893 
L 213.812452 -235.447893 
L 221.768016 -235.447893 
L 229.723581 -235.447893 
L 237.679145 -235.447893 
L 245.634709 -235.447893 
L 253.590274 -235.447893 
L 261.545838 -235.447893 
L 269.501403 -235.447893 
L 277.456967 -235.447893 
L 285.412532 -235.447893 
L 293.368096 -235.447893 
L 301.32366 -235.447893 
L 309.279225 -235.447893 
L 317.234789 -235.447893 
L 325.190354 -263.133552 
L 333.145918 -235.447893 
L 341.101483 -247.613617 
L 349.057047 -252.792715 
L 357.012611 -248.943893 
L 364.968176 -250.560275 
L 372.92374 -249.667239 
L 380.879305 -247.224929 
L 388.834869 -248.127677 
L 396.790434 -251.54265 
L 404.745998 -249.204608 
L 412.701563 -251.843983 
L 420.657127 -255.802401 
L 428.612691 -259.837315 
L 436.568256 -266.366827 
L 444.52382 -280.621639 
L 452.479385 -283.709044 
L 460.434949 -284.71493 
L 468.390514 -289.972486 
L 476.346078 -299.770448 
L 484.301642 -304.853915 
L 492.257207 -305.846405 
L 500.212771 -305.685951 
L 508.168336 -344.484538 
L 516.1239 -310.333641 
L 524.079465 -357.839838 
L 532.035029 -317.435887 
L 539.990593 -291.381003 
L 547.946158 -341.711743 
L 555.901722 -342.726373 
L 563.857287 -278.015183 
L 571.812851 -356.843577 
L 579.768416 -335.300956 
L 587.72398 -352.769194 
L 595.679544 -280.57872 
L 603.635109 -354.417313 
L 611.590673 -301.332129 
L 619.546238 -306.678165 
L 627.501802 -346.762932 
L 635.457367 -338.000554 
L 643.412931 -283.599366 
L 651.368495 -324.460582 
L 659.32406 -346.995606 
L 667.279624 -279.594874 
L 675.235189 -252.711632 
L 683.190753 -300.769877 
L 691.146318 -304.943541 
L 699.101882 -266.438663 
L 707.057446 -265.319065 
L 715.013011 -265.936322 
L 722.968575 -259.39738 
L 730.92414 -269.122207 
L 738.879704 -247.410961 
L 746.835269 -250.274791 
L 754.790833 -254.096824 
L 754.790833 -287.006423 
L 754.790833 -287.006423 
L 746.835269 -266.66458 
L 738.879704 -280.818297 
L 730.92414 -302.850769 
L 722.968575 -287.231534 
L 715.013011 -302.845028 
L 707.057446 -325.757313 
L 699.101882 -343.880015 
L 691.146318 -359.749401 
L 683.190753 -340.70571 
L 675.235189 -336.00057 
L 667.279624 -364.127244 
L 659.32406 -365.297091 
L 651.368495 -395.840592 
L 643.412931 -378.254076 
L 635.457367 -360.815398 
L 627.501802 -385.181681 
L 619.546238 -381.072653 
L 611.590673 -364.344766 
L 603.635109 -375.043887 
L 595.679544 -392.579099 
L 587.72398 -374.135681 
L 579.768416 -371.232212 
L 571.812851 -402.918262 
L 563.857287 -367.659504 
L 555.901722 -366.425535 
L 547.946158 -379.193519 
L 539.990593 -397.118229 
L 532.035029 -363.516113 
L 524.079465 -388.880691 
L 516.1239 -378.18926 
L 508.168336 -383.926364 
L 500.212771 -387.747759 
L 492.257207 -378.868437 
L 484.301642 -373.431168 
L 476.346078 -363.30921 
L 468.390514 -354.772845 
L 460.434949 -342.041605 
L 452.479385 -330.357321 
L 444.52382 -312.588173 
L 436.568256 -294.83156 
L 428.612691 -293.093388 
L 420.657127 -271.957154 
L 412.701563 -272.609643 
L 404.745998 -285.797258 
L 396.790434 -356.170118 
L 388.834869 -268.222488 
L 380.879305 -272.559032 
L 372.92374 -285.111565 
L 364.968176 -269.310599 
L 357.012611 -268.215993 
L 349.057047 -269.965734 
L 341.101483 -259.641545 
L 333.145918 -235.447893 
L 325.190354 -401.1301 
L 317.234789 -235.447893 
L 309.279225 -235.447893 
L 301.32366 -235.447893 
L 293.368096 -235.447893 
L 285.412532 -235.447893 
L 277.456967 -235.447893 
L 269.501403 -235.447893 
L 261.545838 -235.447893 
L 253.590274 -235.447893 
L 245.634709 -235.447893 
L 237.679145 -235.447893 
L 229.723581 -235.447893 
L 221.768016 -235.447893 
L 213.812452 -235.447893 
L 205.856887 -235.447893 
L 197.901323 -235.447893 
L 189.945758 -235.447893 
L 181.990194 -235.447893 
L 174.03463 -235.447893 
L 166.079065 -235.447893 
L 158.123501 -235.447893 
L 150.167936 -235.447893 
L 142.212372 -235.447893 
L 134.256807 -235.447893 
L 126.301243 -235.447893 
L 118.345679 -235.447893 
L 110.390114 -235.447893 
L 102.43455 -235.447893 
L 94.478985 -235.447893 
L 86.523421 -235.447893 
L 78.567856 -235.447893 
L 70.612292 -235.447893 
z
" style="stroke: #f2c7c0; stroke-opacity: 0.6"/>
    </defs>
    <g clip-path="url(#pb67452efd9)">
     <use xlink:href="#m8f1ba87826" x="0" y="432" style="fill: #f2c7c0; fill-opacity: 0.6; stroke: #f2c7c0; stroke-opacity: 0.6"/>
    </g>
   </g>
   <g id="patch_3">
    <path d="M 325.190354 204.925625 
L 325.190354 204.925625 
L 325.190354 20.70822 
L 325.190354 20.70822 
z
" clip-path="url(#pb67452efd9)" style="fill: #8fb3d9; opacity: 0.18; stroke: #8fb3d9; stroke-linejoin: miter"/>
   </g>
   <g id="patch_4">
    <path d="M 500.212771 204.925625 
L 675.235189 204.925625 
L 675.235189 20.70822 
L 500.212771 20.70822 
z
" clip-path="url(#pb67452efd9)" style="fill: #8fb3d9; opacity: 0.18; stroke: #8fb3d9; stroke-linejoin: miter"/>
   </g>
   <g id="matplotlib.axis_1">
    <g id="xtick_1">
     <g id="line2d_1">
      <path d="M 66.63451 204.925625 
L 66.63451 20.70822 
" clip-path="url(#pb67452efd9)" style="fill: none; stroke: #ededed; stroke-width: 0.6; stroke-linecap: square"/>
     </g>
     <g id="line2d_2">
      <defs>
       <path id="mb06a1b4f4c" d="M 0 0 
L 0 3.5 
" style="stroke: #000000; stroke-width: 0.8"/>
      </defs>
      <g>
       <use xlink:href="#mb06a1b4f4c" x="66.63451" y="204.925625" style="stroke: #000000; stroke-width: 0.8"/>
      </g>
     </g>
    </g>
    <g id="xtick_2">
     <g id="line2d_3">
      <path d="M 199.22725 204.925625 
L 199.22725 20.70822 
" clip-path="url(#pb67452efd9)" style="fill: none; stroke: #ededed; stroke-width: 0.6; stroke-linecap: square"/>
     </g>
     <g id="line2d_4">
      <g>
       <use xlink:href="#mb06a1b4f4c" x="199.22725" y="204.925625" style="stroke: #000000; stroke-width: 0.8"/>
      </g>
     </g>
    </g>
    <g id="xtick_3">
     <g id="line2d_5">
      <path d="M 331.819991 204.925625 
L 331.819991 20.70822 
" clip-path="url(#pb67452efd9)" style="fill: none; stroke: #ededed; stroke-width: 0.6; stroke-linecap: square"/>
     </g>
     <g id="line2d_6">
      <g>
       <use xlink:href="#mb06a1b4f4c" x="331.819991" y="204.925625" style="stroke: #000000; stroke-width: 0.8"/>
      </g>
     </g>
    </g>
    <g id="xtick_4">
     <g id="line2d_7">
      <path d="M 464.412731 204.925625 
L 464.412731 20.70822 
" clip-path="url(#pb67452efd9)" style="fill: none; stroke: #ededed; stroke-width: 0.6; stroke-linecap: square"/>
     </g>
     <g id="line2d_8">
      <g>
       <use xlink:href="#mb06a1b4f4c" x="464.412731" y="204.925625" style="stroke: #000000; stroke-width: 0.8"/>
      </g>
     </g>
    </g>
    <g id="xtick_5">
     <g id="line2d_9">
      <path d="M 597.005472 204.925625 
L 597.005472 20.70822 
" clip-path="url(#pb67452efd9)" style="fill: none; stroke: #ededed; stroke-width: 0.6; stroke-linecap: square"/>
     </g>
     <g id="line2d_10">
      <g>
       <use xlink:href="#mb06a1b4f4c" x="597.005472" y="204.925625" style="stroke: #000000; stroke-width: 0.8"/>
      </g>
     </g>
    </g>
    <g id="xtick_6">
     <g id="line2d_11">
      <path d="M 729.598212 204.925625 
L 729.598212 20.70822 
" clip-path="url(#pb67452efd9)" style="fill: none; stroke: #ededed; stroke-width: 0.6; stroke-linecap: square"/>
     </g>
     <g id="line2d_12">
      <g>
       <use xlink:href="#mb06a1b4f4c" x="729.598212" y="204.925625" style="stroke: #000000; stroke-width: 0.8"/>
      </g>
     </g>
    </g>
   </g>
   <g id="matplotlib.axis_2">
    <g id="ytick_1">
     <g id="line2d_13">
      <path d="M 36.403365 196.552107 
L 788.99976 196.552107 
" clip-path="url(#pb67452efd9)" style="fill: none; stroke: #ededed; stroke-width: 0.6; stroke-linecap: square"/>
     </g>
     <g id="line2d_14">
      <defs>
       <path id="m32a2f31c39" d="M 0 0 
L -3.5 0 
" style="stroke: #000000; stroke-width: 0.8"/>
      </defs>
      <g>
       <use xlink:href="#m32a2f31c39" x="36.403365" y="196.552107" style="stroke: #000000; stroke-width: 0.8"/>
      </g>
     </g>
     <g id="text_1">
      <!-- 0 -->
      <g transform="translate(23.040865 200.351325) scale(0.1 -0.1)">
       <defs>
        <path id="DejaVuSans-30" d="M 2034 4250 
Q 1547 4250 1301 3770 
Q 1056 3291 1056 2328 
Q 1056 1369 1301 889 
Q 1547 409 2034 409 
Q 2525 409 2770 889 
Q 3016 1369 3016 2328 
Q 3016 3291 2770 3770 
Q 2525 4250 2034 4250 
z
M 2034 4750 
Q 2819 4750 3233 4129 
Q 3647 3509 3647 2328 
Q 3647 1150 3233 529 
Q 2819 -91 2034 -91 
Q 1250 -91 836 529 
Q 422 1150 422 2328 
Q 422 3509 836 4129 
Q 1250 4750 2034 4750 
z
" transform="scale(0.015625)"/>
       </defs>
       <use xlink:href="#DejaVuSans-30"/>
      </g>
     </g>
    </g>
    <g id="ytick_2">
     <g id="line2d_15">
      <path d="M 36.403365 162.365805 
L 788.99976 162.365805 
" clip-path="url(#pb67452efd9)" style="fill: none; stroke: #ededed; stroke-width: 0.6; stroke-linecap: square"/>
     </g>
     <g id="line2d_16">
      <g>
       <use xlink:href="#m32a2f31c39" x="36.403365" y="162.365805" style="stroke: #000000; stroke-width: 0.8"/>
      </g>
     </g>
     <g id="text_2">
      <!-- 10 -->
      <g transform="translate(16.678365 166.165024) scale(0.1 -0.1)">
       <defs>
        <path id="DejaVuSans-31" d="M 794 531 
L 1825 531 
L 1825 4091 
L 703 3866 
L 703 4441 
L 1819 4666 
L 2450 4666 
L 2450 531 
L 3481 531 
L 3481 0 
L 794 0 
L 794 531 
z
" transform="scale(0.015625)"/>
       </defs>
       <use xlink:href="#DejaVuSans-31"/>
       <use xlink:href="#DejaVuSans-30" transform="translate(63.623047 0)"/>
      </g>
     </g>
    </g>
    <g id="ytick_3">
     <g id="line2d_17">
      <path d="M 36.403365 128.179504 
L 788.99976 128.179504 
" clip-path="url(#pb67452efd9)" style="fill: none; stroke: #ededed; stroke-width: 0.6; stroke-linecap: square"/>
     </g>
     <g id="line2d_18">
      <g>
       <use xlink:href="#m32a2f31c39" x="36.403365" y="128.179504" style="stroke: #000000; stroke-width: 0.8"/>
      </g>
     </g>
     <g id="text_3">
      <!-- 20 -->
      <g transform="translate(16.678365 131.978723) scale(0.1 -0.1)">
       <defs>
        <path id="DejaVuSans-32" d="M 1228 531 
L 3431 531 
L 3431 0 
L 469 0 
L 469 531 
Q 828 903 1448 1529 
Q 2069 2156 2228 2338 
Q 2531 2678 2651 2914 
Q 2772 3150 2772 3378 
Q 2772 3750 2511 3984 
Q 2250 4219 1831 4219 
Q 1534 4219 1204 4116 
Q 875 4013 500 3803 
L 500 4441 
Q 881 4594 1212 4672 
Q 1544 4750 1819 4750 
Q 2544 4750 2975 4387 
Q 3406 4025 3406 3419 
Q 3406 3131 3298 2873 
Q 3191 2616 2906 2266 
Q 2828 2175 2409 1742 
Q 1991 1309 1228 531 
z
" transform="scale(0.015625)"/>
       </defs>
       <use xlink:href="#DejaVuSans-32"/>
       <use xlink:href="#DejaVuSans-30" transform="translate(63.623047 0)"/>
      </g>
     </g>
    </g>
    <g id="ytick_4">
     <g id="line2d_19">
      <path d="M 36.403365 93.993202 
L 788.99976 93.993202 
" clip-path="url(#pb67452efd9)" style="fill: none; stroke: #ededed; stroke-width: 0.6; stroke-linecap: square"/>
     </g>
     <g id="line2d_20">
      <g>
       <use xlink:href="#m32a2f31c39" x="36.403365" y="93.993202" style="stroke: #000000; stroke-width: 0.8"/>
      </g>
     </g>
     <g id="text_4">
      <!-- 30 -->
      <g transform="translate(16.678365 97.792421) scale(0.1 -0.1)">
       <defs>
        <path id="DejaVuSans-33" d="M 2597 2516 
Q 3050 2419 3304 2112 
Q 3559 1806 3559 1356 
Q 3559 666 3084 287 
Q 2609 -91 1734 -91 
Q 1441 -91 1130 -33 
Q 819 25 488 141 
L 488 750 
Q 750 597 1062 519 
Q 1375 441 1716 441 
Q 2309 441 2620 675 
Q 2931 909 2931 1356 
Q 2931 1769 2642 2001 
Q 2353 2234 1838 2234 
L 1294 2234 
L 1294 2753 
L 1863 2753 
Q 2328 2753 2575 2939 
Q 2822 3125 2822 3475 
Q 2822 3834 2567 4026 
Q 2313 4219 1838 4219 
Q 1578 4219 1281 4162 
Q 984 4106 628 3988 
L 628 4550 
Q 988 4650 1302 4700 
Q 1616 4750 1894 4750 
Q 2613 4750 3031 4423 
Q 3450 4097 3450 3541 
Q 3450 3153 3228 2886 
Q 3006 2619 2597 2516 
z
" transform="scale(0.015625)"/>
       </defs>
       <use xlink:href="#DejaVuSans-33"/>
       <use xlink:href="#DejaVuSans-30" transform="translate(63.623047 0)"/>
      </g>
     </g>
    </g>
    <g id="ytick_5">
     <g id="line2d_21">
      <path d="M 36.403365 59.806901 
L 788.99976 59.806901 
" clip-path="url(#pb67452efd9)" style="fill: none; stroke: #ededed; stroke-width: 0.6; stroke-linecap: square"/>
     </g>
     <g id="line2d_22">
      <g>
       <use xlink:href="#m32a2f31c39" x="36.403365" y="59.806901" style="stroke: #000000; stroke-width: 0.8"/>
      </g>
     </g>
     <g id="text_5">
      <!-- 40 -->
      <g transform="translate(16.678365 63.60612) scale(0.1 -0.1)">
       <defs>
        <path id="DejaVuSans-34" d="M 2419 4116 
L 825 1625 
L 2419 1625 
L 2419 4116 
z
M 2253 4666 
L 3047 4666 
L 3047 1625 
L 3713 1625 
L 3713 1100 
L 3047 1100 
L 3047 0 
L 2419 0 
L 2419 1100 
L 313 1100 
L 313 1709 
L 2253 4666 
z
" transform="scale(0.015625)"/>
       </defs>
       <use xlink:href="#DejaVuSans-34"/>
       <use xlink:href="#DejaVuSans-30" transform="translate(63.623047 0)"/>
      </g>
     </g>
    </g>
    <g id="ytick_6">
     <g id="line2d_23">
      <path d="M 36.403365 25.6206 
L 788.99976 25.6206 
" clip-path="url(#pb67452efd9)" style="fill: none; stroke: #ededed; stroke-width: 0.6; stroke-linecap: square"/>
     </g>
     <g id="line2d_24">
      <g>
       <use xlink:href="#m32a2f31c39" x="36.403365" y="25.6206" style="stroke: #000000; stroke-width: 0.8"/>
      </g>
     </g>
     <g id="text_6">
      <!-- 50 -->
      <g transform="translate(16.678365 29.419818) scale(0.1 -0.1)">
       <defs>
        <path id="DejaVuSans-35" d="M 691 4666 
L 3169 4666 
L 3169 4134 
L 1269 4134 
L 1269 2991 
Q 1406 3038 1543 3061 
Q 1681 3084 1819 3084 
Q 2600 3084 3056 2656 
Q 3513 2228 3513 1497 
Q 3513 744 3044 326 
Q 2575 -91 1722 -91 
Q 1428 -91 1123 -41 
Q 819 9 494 109 
L 494 744 
Q 775 591 1075 516 
Q 1375 441 1709 441 
Q 2250 441 2565 725 
Q 2881 1009 2881 1497 
Q 2881 1984 2565 2268 
Q 2250 2553 1709 2553 
Q 1456 2553 1204 2497 
Q 953 2441 691 2322 
L 691 4666 
z
" transform="scale(0.015625)"/>
       </defs>
       <use xlink:href="#DejaVuSans-35"/>
       <use xlink:href="#DejaVuSans-30" transform="translate(63.623047 0)"/>
      </g>
     </g>
    </g>
    <g id="text_7">
     <!-- fly-out angle theta (deg) -->
     <g transform="translate(10.598678 174.120048) rotate(-90) scale(0.1 -0.1)">
      <defs>
       <path id="DejaVuSans-66" d="M 2375 4863 
L 2375 4384 
L 1825 4384 
Q 1516 4384 1395 4259 
Q 1275 4134 1275 3809 
L 1275 3500 
L 2222 3500 
L 2222 3053 
L 1275 3053 
L 1275 0 
L 697 0 
L 697 3053 
L 147 3053 
L 147 3500 
L 697 3500 
L 697 3744 
Q 697 4328 969 4595 
Q 1241 4863 1831 4863 
L 2375 4863 
z
" transform="scale(0.015625)"/>
       <path id="DejaVuSans-6c" d="M 603 4863 
L 1178 4863 
L 1178 0 
L 603 0 
L 603 4863 
z
" transform="scale(0.015625)"/>
       <path id="DejaVuSans-79" d="M 2059 -325 
Q 1816 -950 1584 -1140 
Q 1353 -1331 966 -1331 
L 506 -1331 
L 506 -850 
L 844 -850 
Q 1081 -850 1212 -737 
Q 1344 -625 1503 -206 
L 1606 56 
L 191 3500 
L 800 3500 
L 1894 763 
L 2988 3500 
L 3597 3500 
L 2059 -325 
z
" transform="scale(0.015625)"/>
       <path id="DejaVuSans-2d" d="M 313 2009 
L 1997 2009 
L 1997 1497 
L 313 1497 
L 313 2009 
z
" transform="scale(0.015625)"/>
       <path id="DejaVuSans-6f" d="M 1959 3097 
Q 1497 3097 1228 2736 
Q 959 2375 959 1747 
Q 959 1119 1226 758 
Q 1494 397 1959 397 
Q 2419 397 2687 759 
Q 2956 1122 2956 1747 
Q 2956 2369 2687 2733 
Q 2419 3097 1959 3097 
z
M 1959 3584 
Q 2709 3584 3137 3096 
Q 3566 2609 3566 1747 
Q 3566 888 3137 398 
Q 2709 -91 1959 -91 
Q 1206 -91 779 398 
Q 353 888 353 1747 
Q 353 2609 779 3096 
Q 1206 3584 1959 3584 
z
" transform="scale(0.015625)"/>
       <path id="DejaVuSans-75" d="M 544 1381 
L 544 3500 
L 1119 3500 
L 1119 1403 
Q 1119 906 1312 657 
Q 1506 409 1894 409 
Q 2359 409 2629 706 
Q 2900 1003 2900 1516 
L 2900 3500 
L 3475 3500 
L 3475 0 
L 2900 0 
L 2900 538 
Q 2691 219 2414 64 
Q 2138 -91 1772 -91 
Q 1169 -91 856 284 
Q 544 659 544 1381 
z
M 1991 3584 
L 1991 3584 
z
" transform="scale(0.015625)"/>
       <path id="DejaVuSans-74" d="M 1172 4494 
L 1172 3500 
L 2356 3500 
L 2356 3053 
L 1172 3053 
L 1172 1153 
Q 1172 725 1289 603 
Q 1406 481 1766 481 
L 2356 481 
L 2356 0 
L 1766 0 
Q 1100 0 847 248 
Q 594 497 594 1153 
L 594 3053 
L 172 3053 
L 172 3500 
L 594 3500 
L 594 4494 
L 1172 4494 
z
" transform="scale(0.015625)"/>
       <path id="DejaVuSans-20" transform="scale(0.015625)"/>
       <path id="DejaVuSans-61" d="M 2194 1759 
Q 1497 1759 1228 1600 
Q 959 1441 959 1056 
Q 959 750 1161 570 
Q 1363 391 1709 391 
Q 2188 391 2477 730 
Q 2766 1069 2766 1631 
L 2766 1759 
L 2194 1759 
z
M 3341 1997 
L 3341 0 
L 2766 0 
L 2766 531 
Q 2569 213 2275 61 
Q 1981 -91 1556 -91 
Q 1019 -91 701 211 
Q 384 513 384 1019 
Q 384 1609 779 1909 
Q 1175 2209 1959 2209 
L 2766 2209 
L 2766 2266 
Q 2766 2663 2505 2880 
Q 2244 3097 1772 3097 
Q 1472 3097 1187 3025 
Q 903 2953 641 2809 
L 641 3341 
Q 956 3463 1253 3523 
Q 1550 3584 1831 3584 
Q 2591 3584 2966 3190 
Q 3341 2797 3341 1997 
z
" transform="scale(0.015625)"/>
       <path id="DejaVuSans-6e" d="M 3513 2113 
L 3513 0 
L 2938 0 
L 2938 2094 
Q 2938 2591 2744 2837 
Q 2550 3084 2163 3084 
Q 1697 3084 1428 2787 
Q 1159 2491 1159 1978 
L 1159 0 
L 581 0 
L 581 3500 
L 1159 3500 
L 1159 2956 
Q 1366 3272 1645 3428 
Q 1925 3584 2291 3584 
Q 2894 3584 3203 3211 
Q 3513 2838 3513 2113 
z
" transform="scale(0.015625)"/>
       <path id="DejaVuSans-67" d="M 2906 1791 
Q 2906 2416 2648 2759 
Q 2391 3103 1925 3103 
Q 1463 3103 1205 2759 
Q 947 2416 947 1791 
Q 947 1169 1205 825 
Q 1463 481 1925 481 
Q 2391 481 2648 825 
Q 2906 1169 2906 1791 
z
M 3481 434 
Q 3481 -459 3084 -895 
Q 2688 -1331 1869 -1331 
Q 1566 -1331 1297 -1286 
Q 1028 -1241 775 -1147 
L 775 -588 
Q 1028 -725 1275 -790 
Q 1522 -856 1778 -856 
Q 2344 -856 2625 -561 
Q 2906 -266 2906 331 
L 2906 616 
Q 2728 306 2450 153 
Q 2172 0 1784 0 
Q 1141 0 747 490 
Q 353 981 353 1791 
Q 353 2603 747 3093 
Q 1141 3584 1784 3584 
Q 2172 3584 2450 3431 
Q 2728 3278 2906 2969 
L 2906 3500 
L 3481 3500 
L 3481 434 
z
" transform="scale(0.015625)"/>
       <path id="DejaVuSans-65" d="M 3597 1894 
L 3597 1613 
L 953 1613 
Q 991 1019 1311 708 
Q 1631 397 2203 397 
Q 2534 397 2845 478 
Q 3156 559 3463 722 
L 3463 178 
Q 3153 47 2828 -22 
Q 2503 -91 2169 -91 
Q 1331 -91 842 396 
Q 353 884 353 1716 
Q 353 2575 817 3079 
Q 1281 3584 2069 3584 
Q 2775 3584 3186 3129 
Q 3597 2675 3597 1894 
z
M 3022 2063 
Q 3016 2534 2758 2815 
Q 2500 3097 2075 3097 
Q 1594 3097 1305 2825 
Q 1016 2553 972 2059 
L 3022 2063 
z
" transform="scale(0.015625)"/>
       <path id="DejaVuSans-68" d="M 3513 2113 
L 3513 0 
L 2938 0 
L 2938 2094 
Q 2938 2591 2744 2837 
Q 2550 3084 2163 3084 
Q 1697 3084 1428 2787 
Q 1159 2491 1159 1978 
L 1159 0 
L 581 0 
L 581 4863 
L 1159 4863 
L 1159 2956 
Q 1366 3272 1645 3428 
Q 1925 3584 2291 3584 
Q 2894 3584 3203 3211 
Q 3513 2838 3513 2113 
z
" transform="scale(0.015625)"/>
       <path id="DejaVuSans-28" d="M 1984 4856 
Q 1566 4138 1362 3434 
Q 1159 2731 1159 2009 
Q 1159 1288 1364 580 
Q 1569 -128 1984 -844 
L 1484 -844 
Q 1016 -109 783 600 
Q 550 1309 550 2009 
Q 550 2706 781 3412 
Q 1013 4119 1484 4856 
L 1984 4856 
z
" transform="scale(0.015625)"/>
       <path id="DejaVuSans-64" d="M 2906 2969 
L 2906 4863 
L 3481 4863 
L 3481 0 
L 2906 0 
L 2906 525 
Q 2725 213 2448 61 
Q 2172 -91 1784 -91 
Q 1150 -91 751 415 
Q 353 922 353 1747 
Q 353 2572 751 3078 
Q 1150 3584 1784 3584 
Q 2172 3584 2448 3432 
Q 2725 3281 2906 2969 
z
M 947 1747 
Q 947 1113 1208 752 
Q 1469 391 1925 391 
Q 2381 391 2643 752 
Q 2906 1113 2906 1747 
Q 2906 2381 2643 2742 
Q 2381 3103 1925 3103 
Q 1469 3103 1208 2742 
Q 947 2381 947 1747 
z
" transform="scale(0.015625)"/>
       <path id="DejaVuSans-29" d="M 513 4856 
L 1013 4856 
Q 1481 4119 1714 3412 
Q 1947 2706 1947 2009 
Q 1947 1309 1714 600 
Q 1481 -109 1013 -844 
L 513 -844 
Q 928 -128 1133 580 
Q 1338 1288 1338 2009 
Q 1338 2731 1133 3434 
Q 928 4138 513 4856 
z
" transform="scale(0.015625)"/>
      </defs>
      <use xlink:href="#DejaVuSans-66"/>
      <use xlink:href="#DejaVuSans-6c" transform="translate(35.205078 0)"/>
      <use xlink:href="#DejaVuSans-79" transform="translate(62.988281 0)"/>
      <use xlink:href="#DejaVuSans-2d" transform="translate(120.417969 0)"/>
      <use xlink:href="#DejaVuSans-6f" transform="translate(158.376953 0)"/>
      <use xlink:href="#DejaVuSans-75" transform="translate(219.558594 0)"/>
      <use xlink:href="#DejaVuSans-74" transform="translate(282.9375 0)"/>
      <use xlink:href="#DejaVuSans-20" transform="translate(322.146484 0)"/>
      <use xlink:href="#DejaVuSans-61" transform="translate(353.933594 0)"/>
      <use xlink:href="#DejaVuSans-6e" transform="translate(415.212891 0)"/>
      <use xlink:href="#DejaVuSans-67" transform="translate(478.591797 0)"/>
      <use xlink:href="#DejaVuSans-6c" transform="translate(542.068359 0)"/>
      <use xlink:href="#DejaVuSans-65" transform="translate(569.851562 0)"/>
      <use xlink:href="#DejaVuSans-20" transform="translate(631.375 0)"/>
      <use xlink:href="#DejaVuSans-74" transform="translate(663.162109 0)"/>
      <use xlink:href="#DejaVuSans-68" transform="translate(702.371094 0)"/>
      <use xlink:href="#DejaVuSans-65" transform="translate(765.75 0)"/>
      <use xlink:href="#DejaVuSans-74" transform="translate(827.273438 0)"/>
      <use xlink:href="#DejaVuSans-61" transform="translate(866.482422 0)"/>
      <use xlink:href="#DejaVuSans-20" transform="translate(927.761719 0)"/>
      <use xlink:href="#DejaVuSans-28" transform="translate(959.548828 0)"/>
      <use xlink:href="#DejaVuSans-64" transform="translate(998.5625 0)"/>
      <use xlink:href="#DejaVuSans-65" transform="translate(1062.039062 0)"/>
      <use xlink:href="#DejaVuSans-67" transform="translate(1123.5625 0)"/>
      <use xlink:href="#DejaVuSans-29" transform="translate(1187.039062 0)"/>
     </g>
    </g>
   </g>
   <g id="line2d_25">
    <defs>
     <path id="m663be31063" d="M 0 1 
C 0.265203 1 0.51958 0.894634 0.707107 0.707107 
C 0.894634 0.51958 1 0.265203 1 0 
C 1 -0.265203 0.894634 -0.51958 0.707107 -0.707107 
C 0.51958 -0.894634 0.265203 -1 0 -1 
C -0.265203 -1 -0.51958 -0.894634 -0.707107 -0.707107 
C -0.894634 -0.51958 -1 -0.265203 -1 0 
C -1 0.265203 -0.894634 0.51958 -0.707107 0.707107 
C -0.51958 0.894634 -0.265203 1 0 1 
z
" style="stroke: #9aa0a6"/>
    </defs>
    <g clip-path="url(#pb67452efd9)">
     <use xlink:href="#m663be31063" x="70.612292" y="196.552107" style="fill: #9aa0a6; stroke: #9aa0a6"/>
     <use xlink:href="#m663be31063" x="78.567856" y="196.552107" style="fill: #9aa0a6; stroke: #9aa0a6"/>
     <use xlink:href="#m663be31063" x="86.523421" y="196.552107" style="fill: #9aa0a6; stroke: #9aa0a6"/>
     <use xlink:href="#m663be31063" x="94.478985" y="196.552107" style="fill: #9aa0a6; stroke: #9aa0a6"/>
     <use xlink:href="#m663be31063" x="102.43455" y="196.552107" style="fill: #9aa0a6; stroke: #9aa0a6"/>
     <use xlink:href="#m663be31063" x="110.390114" y="196.552107" style="fill: #9aa0a6; stroke: #9aa0a6"/>
     <use xlink:href="#m663be31063" x="118.345679" y="196.552107" style="fill: #9aa0a6; stroke: #9aa0a6"/>
     <use xlink:href="#m663be31063" x="126.301243" y="196.552107" style="fill: #9aa0a6; stroke: #9aa0a6"/>
     <use xlink:href="#m663be31063" x="134.256807" y="196.552107" style="fill: #9aa0a6; stroke: #9aa0a6"/>
     <use xlink:href="#m663be31063" x="142.212372" y="196.552107" style="fill: #9aa0a6; stroke: #9aa0a6"/>
     <use xlink:href="#m663be31063" x="150.167936" y="196.552107" style="fill: #9aa0a6; stroke: #9aa0a6"/>
     <use xlink:href="#m663be31063" x="158.123501" y="196.552107" style="fill: #9aa0a6; stroke: #9aa0a6"/>
     <use xlink:href="#m663be31063" x="166.079065" y="196.552107" style="fill: #9aa0a6; stroke: #9aa0a6"/>
     <use xlink:href="#m663be31063" x="174.03463" y="196.552107" style="fill: #9aa0a6; stroke: #9aa0a6"/>
     <use xlink:href="#m663be31063" x="181.990194" y="196.552107" style="fill: #9aa0a6; stroke: #9aa0a6"/>
     <use xlink:href="#m663be31063" x="189.945758" y="196.552107" style="fill: #9aa0a6; stroke: #9aa0a6"/>
     <use xlink:href="#m663be31063" x="197.901323" y="196.552107" style="fill: #9aa0a6; stroke: #9aa0a6"/>
     <use xlink:href="#m663be31063" x="205.856887" y="196.552107" style="fill: #9aa0a6; stroke: #9aa0a6"/>
     <use xlink:href="#m663be31063" x="213.812452" y="196.552107" style="fill: #9aa0a6; stroke: #9aa0a6"/>
     <use xlink:href="#m663be31063" x="221.768016" y="196.552107" style="fill: #9aa0a6; stroke: #9aa0a6"/>
     <use xlink:href="#m663be31063" x="229.723581" y="196.552107" style="fill: #9aa0a6; stroke: #9aa0a6"/>
     <use xlink:href="#m663be31063" x="237.679145" y="196.552107" style="fill: #9aa0a6; stroke: #9aa0a6"/>
     <use xlink:href="#m663be31063" x="245.634709" y="196.552107" style="fill: #9aa0a6; stroke: #9aa0a6"/>
     <use xlink:href="#m663be31063" x="253.590274" y="196.552107" style="fill: #9aa0a6; stroke: #9aa0a6"/>
     <use xlink:href="#m663be31063" x="261.545838" y="196.552107" style="fill: #9aa0a6; stroke: #9aa0a6"/>
     <use xlink:href="#m663be31063" x="269.501403" y="196.552107" style="fill: #9aa0a6; stroke: #9aa0a6"/>
     <use xlink:href="#m663be31063" x="277.456967" y="196.552107" style="fill: #9aa0a6; stroke: #9aa0a6"/>
     <use xlink:href="#m663be31063" x="285.412532" y="196.552107" style="fill: #9aa0a6; stroke: #9aa0a6"/>
     <use xlink:href="#m663be31063" x="293.368096" y="196.552107" style="fill: #9aa0a6; stroke: #9aa0a6"/>
     <use xlink:href="#m663be31063" x="301.32366" y="196.552107" style="fill: #9aa0a6; stroke: #9aa0a6"/>
     <use xlink:href="#m663be31063" x="309.279225" y="196.552107" style="fill: #9aa0a6; stroke: #9aa0a6"/>
     <use xlink:href="#m663be31063" x="317.234789" y="196.552107" style="fill: #9aa0a6; stroke: #9aa0a6"/>
     <use xlink:href="#m663be31063" x="325.190354" y="30.91812" style="fill: #9aa0a6; stroke: #9aa0a6"/>
     <use xlink:href="#m663be31063" x="333.145918" y="196.552107" style="fill: #9aa0a6; stroke: #9aa0a6"/>
     <use xlink:href="#m663be31063" x="341.101483" y="172.402687" style="fill: #9aa0a6; stroke: #9aa0a6"/>
     <use xlink:href="#m663be31063" x="349.057047" y="165.7496" style="fill: #9aa0a6; stroke: #9aa0a6"/>
     <use xlink:href="#m663be31063" x="357.012611" y="167.971693" style="fill: #9aa0a6; stroke: #9aa0a6"/>
     <use xlink:href="#m663be31063" x="364.968176" y="164.748344" style="fill: #9aa0a6; stroke: #9aa0a6"/>
     <use xlink:href="#m663be31063" x="372.92374" y="168.763304" style="fill: #9aa0a6; stroke: #9aa0a6"/>
     <use xlink:href="#m663be31063" x="380.879305" y="167.418683" style="fill: #9aa0a6; stroke: #9aa0a6"/>
     <use xlink:href="#m663be31063" x="388.834869" y="164.958451" style="fill: #9aa0a6; stroke: #9aa0a6"/>
     <use xlink:href="#m663be31063" x="396.790434" y="105.24109" style="fill: #9aa0a6; stroke: #9aa0a6"/>
     <use xlink:href="#m663be31063" x="404.745998" y="147.14635" style="fill: #9aa0a6; stroke: #9aa0a6"/>
     <use xlink:href="#m663be31063" x="412.701563" y="161.825385" style="fill: #9aa0a6; stroke: #9aa0a6"/>
     <use xlink:href="#m663be31063" x="420.657127" y="160.548935" style="fill: #9aa0a6; stroke: #9aa0a6"/>
     <use xlink:href="#m663be31063" x="428.612691" y="141.056397" style="fill: #9aa0a6; stroke: #9aa0a6"/>
     <use xlink:href="#m663be31063" x="436.568256" y="137.86707" style="fill: #9aa0a6; stroke: #9aa0a6"/>
     <use xlink:href="#m663be31063" x="444.52382" y="121.008321" style="fill: #9aa0a6; stroke: #9aa0a6"/>
     <use xlink:href="#m663be31063" x="452.479385" y="103.014681" style="fill: #9aa0a6; stroke: #9aa0a6"/>
     <use xlink:href="#m663be31063" x="460.434949" y="92.068385" style="fill: #9aa0a6; stroke: #9aa0a6"/>
     <use xlink:href="#m663be31063" x="468.390514" y="78.147787" style="fill: #9aa0a6; stroke: #9aa0a6"/>
     <use xlink:href="#m663be31063" x="476.346078" y="70.213968" style="fill: #9aa0a6; stroke: #9aa0a6"/>
     <use xlink:href="#m663be31063" x="484.301642" y="58.677002" style="fill: #9aa0a6; stroke: #9aa0a6"/>
     <use xlink:href="#m663be31063" x="492.257207" y="53.162242" style="fill: #9aa0a6; stroke: #9aa0a6"/>
     <use xlink:href="#m663be31063" x="500.212771" y="44.341201" style="fill: #9aa0a6; stroke: #9aa0a6"/>
     <use xlink:href="#m663be31063" x="508.168336" y="48.706105" style="fill: #9aa0a6; stroke: #9aa0a6"/>
     <use xlink:href="#m663be31063" x="516.1239" y="54.083179" style="fill: #9aa0a6; stroke: #9aa0a6"/>
     <use xlink:href="#m663be31063" x="524.079465" y="44.722061" style="fill: #9aa0a6; stroke: #9aa0a6"/>
     <use xlink:href="#m663be31063" x="532.035029" y="69.181626" style="fill: #9aa0a6; stroke: #9aa0a6"/>
     <use xlink:href="#m663be31063" x="539.990593" y="34.931148" style="fill: #9aa0a6; stroke: #9aa0a6"/>
     <use xlink:href="#m663be31063" x="547.946158" y="54.151324" style="fill: #9aa0a6; stroke: #9aa0a6"/>
     <use xlink:href="#m663be31063" x="555.901722" y="39.764578" style="fill: #9aa0a6; stroke: #9aa0a6"/>
     <use xlink:href="#m663be31063" x="563.857287" y="68.209656" style="fill: #9aa0a6; stroke: #9aa0a6"/>
     <use xlink:href="#m663be31063" x="571.812851" y="30.830838" style="fill: #9aa0a6; stroke: #9aa0a6"/>
     <use xlink:href="#m663be31063" x="579.768416" y="61.099958" style="fill: #9aa0a6; stroke: #9aa0a6"/>
     <use xlink:href="#m663be31063" x="587.72398" y="54.227096" style="fill: #9aa0a6; stroke: #9aa0a6"/>
     <use xlink:href="#m663be31063" x="595.679544" y="38.46424" style="fill: #9aa0a6; stroke: #9aa0a6"/>
     <use xlink:href="#m663be31063" x="603.635109" y="56.976727" style="fill: #9aa0a6; stroke: #9aa0a6"/>
     <use xlink:href="#m663be31063" x="611.590673" y="69.516311" style="fill: #9aa0a6; stroke: #9aa0a6"/>
     <use xlink:href="#m663be31063" x="619.546238" y="52.435378" style="fill: #9aa0a6; stroke: #9aa0a6"/>
     <use xlink:href="#m663be31063" x="627.501802" y="46.818319" style="fill: #9aa0a6; stroke: #9aa0a6"/>
     <use xlink:href="#m663be31063" x="635.457367" y="34.277998" style="fill: #9aa0a6; stroke: #9aa0a6"/>
     <use xlink:href="#m663be31063" x="643.412931" y="53.745924" style="fill: #9aa0a6; stroke: #9aa0a6"/>
     <use xlink:href="#m663be31063" x="651.368495" y="34.455789" style="fill: #9aa0a6; stroke: #9aa0a6"/>
     <use xlink:href="#m663be31063" x="659.32406" y="67.079788" style="fill: #9aa0a6; stroke: #9aa0a6"/>
     <use xlink:href="#m663be31063" x="667.279624" y="69.376555" style="fill: #9aa0a6; stroke: #9aa0a6"/>
     <use xlink:href="#m663be31063" x="675.235189" y="37.175067" style="fill: #9aa0a6; stroke: #9aa0a6"/>
     <use xlink:href="#m663be31063" x="683.190753" y="92.723197" style="fill: #9aa0a6; stroke: #9aa0a6"/>
     <use xlink:href="#m663be31063" x="691.146318" y="96.79231" style="fill: #9aa0a6; stroke: #9aa0a6"/>
     <use xlink:href="#m663be31063" x="699.101882" y="88.014025" style="fill: #9aa0a6; stroke: #9aa0a6"/>
     <use xlink:href="#m663be31063" x="707.057446" y="106.362813" style="fill: #9aa0a6; stroke: #9aa0a6"/>
     <use xlink:href="#m663be31063" x="715.013011" y="129.154972" style="fill: #9aa0a6; stroke: #9aa0a6"/>
     <use xlink:href="#m663be31063" x="722.968575" y="146.955914" style="fill: #9aa0a6; stroke: #9aa0a6"/>
     <use xlink:href="#m663be31063" x="730.92414" y="129.343087" style="fill: #9aa0a6; stroke: #9aa0a6"/>
     <use xlink:href="#m663be31063" x="738.879704" y="148.336489" style="fill: #9aa0a6; stroke: #9aa0a6"/>
     <use xlink:href="#m663be31063" x="746.835269" y="167.894643" style="fill: #9aa0a6; stroke: #9aa0a6"/>
     <use xlink:href="#m663be31063" x="754.790833" y="103.64533" style="fill: #9aa0a6; stroke: #9aa0a6"/>
    </g>
   </g>
   <g id="line2d_26">
    <path d="M 70.612292 196.552011 
L 78.567856 196.551963 
L 86.523421 196.551892 
L 94.478985 196.551785 
L 102.43455 196.551624 
L 110.390114 196.551382 
L 118.345679 196.55102 
L 126.301243 196.550477 
L 134.256807 196.549662 
L 142.212372 196.548439 
L 150.167936 196.546606 
L 158.123501 196.543855 
L 166.079065 196.539729 
L 174.03463 196.533541 
L 181.990194 196.524258 
L 189.945758 196.510333 
L 197.901323 196.489446 
L 205.856887 196.458116 
L 213.812452 196.411121 
L 221.768016 196.340628 
L 229.723581 196.234888 
L 237.679145 196.076279 
L 245.634709 195.838365 
L 253.590274 195.481495 
L 261.545838 194.946189 
L 269.501403 194.14323 
L 277.456967 192.938791 
L 285.412532 191.132134 
L 293.368096 188.422147 
L 301.32366 184.357168 
L 309.279225 178.259698 
L 317.234789 169.113494 
L 325.190354 155.394187 
L 333.145918 162.420892 
L 341.101483 163.759061 
L 349.057047 163.656626 
L 357.012611 163.205362 
L 364.968176 161.959709 
L 372.92374 160.249284 
L 380.879305 157.119855 
L 388.834869 152.273955 
L 396.790434 145.313973 
L 404.745998 145.032804 
L 412.701563 144.399378 
L 420.657127 140.861617 
L 428.612691 134.042637 
L 436.568256 126.054696 
L 444.52382 116.098027 
L 452.479385 105.322975 
L 460.434949 94.932639 
L 468.390514 85.019679 
L 476.346078 76.252034 
L 484.301642 68.490733 
L 492.257207 62.365054 
L 500.212771 57.773177 
L 508.168336 55.419962 
L 516.1239 54.185724 
L 524.079465 52.968576 
L 532.035029 53.125848 
L 539.990593 50.607157 
L 547.946158 50.701134 
L 555.901722 50.220079 
L 563.857287 51.481608 
L 571.812851 49.955129 
L 579.768416 51.616032 
L 587.72398 51.69628 
L 595.679544 51.354725 
L 603.635109 53.161585 
L 611.590673 54.332588 
L 619.546238 52.97297 
L 627.501802 51.702952 
L 635.457367 51.247038 
L 643.412931 53.619298 
L 651.368495 55.970454 
L 659.32406 61.907387 
L 667.279624 66.982254 
L 675.235189 71.65807 
L 683.190753 82.081054 
L 691.146318 90.730347 
L 699.101882 98.369312 
L 707.057446 107.734159 
L 715.013011 117.327564 
L 722.968575 124.949734 
L 730.92414 128.904207 
L 738.879704 132.785534 
L 746.835269 134.075034 
L 754.790833 129.727934 
" clip-path="url(#pb67452efd9)" style="fill: none; stroke: #c0392b; stroke-width: 2; stroke-linecap: square"/>
   </g>
   <g id="line2d_27">
    <path d="M 36.403365 39.833911 
L 788.99976 39.833911 
" clip-path="url(#pb67452efd9)" style="fill: none; stroke-dasharray: 4.44,1.92; stroke-dashoffset: 0; stroke: #1f6fd6; stroke-width: 1.2"/>
   </g>
   <g id="patch_5">
    <path d="M 36.403365 204.925625 
L 36.403365 20.70822 
" style="fill: none; stroke: #000000; stroke-width: 0.8; stroke-linejoin: miter; stroke-linecap: square"/>
   </g>
   <g id="patch_6">
    <path d="M 36.403365 204.925625 
L 788.99976 204.925625 
" style="fill: none; stroke: #000000; stroke-width: 0.8; stroke-linejoin: miter; stroke-linecap: square"/>
   </g>
   <g id="text_8">
    <!-- spin-up -->
    <g style="fill: #555555" transform="translate(290.312894 181.213836) scale(0.08 -0.08)">
     <defs>
      <path id="DejaVuSans-73" d="M 2834 3397 
L 2834 2853 
Q 2591 2978 2328 3040 
Q 2066 3103 1784 3103 
Q 1356 3103 1142 2972 
Q 928 2841 928 2578 
Q 928 2378 1081 2264 
Q 1234 2150 1697 2047 
L 1894 2003 
Q 2506 1872 2764 1633 
Q 3022 1394 3022 966 
Q 3022 478 2636 193 
Q 2250 -91 1575 -91 
Q 1294 -91 989 -36 
Q 684 19 347 128 
L 347 722 
Q 666 556 975 473 
Q 1284 391 1588 391 
Q 1994 391 2212 530 
Q 2431 669 2431 922 
Q 2431 1156 2273 1281 
Q 2116 1406 1581 1522 
L 1381 1569 
Q 847 1681 609 1914 
Q 372 2147 372 2553 
Q 372 3047 722 3315 
Q 1072 3584 1716 3584 
Q 2034 3584 2315 3537 
Q 2597 3491 2834 3397 
z
" transform="scale(0.015625)"/>
      <path id="DejaVuSans-70" d="M 1159 525 
L 1159 -1331 
L 581 -1331 
L 581 3500 
L 1159 3500 
L 1159 2969 
Q 1341 3281 1617 3432 
Q 1894 3584 2278 3584 
Q 2916 3584 3314 3078 
Q 3713 2572 3713 1747 
Q 3713 922 3314 415 
Q 2916 -91 2278 -91 
Q 1894 -91 1617 61 
Q 1341 213 1159 525 
z
M 3116 1747 
Q 3116 2381 2855 2742 
Q 2594 3103 2138 3103 
Q 1681 3103 1420 2742 
Q 1159 2381 1159 1747 
Q 1159 1113 1420 752 
Q 1681 391 2138 391 
Q 2594 391 2855 752 
Q 3116 1113 3116 1747 
z
" transform="scale(0.015625)"/>
      <path id="DejaVuSans-69" d="M 603 3500 
L 1178 3500 
L 1178 0 
L 603 0 
L 603 3500 
z
M 603 4863 
L 1178 4863 
L 1178 4134 
L 603 4134 
L 603 4863 
z
" transform="scale(0.015625)"/>
     </defs>
     <use xlink:href="#DejaVuSans-73"/>
     <use xlink:href="#DejaVuSans-70" transform="translate(52.099609 0)"/>
     <use xlink:href="#DejaVuSans-69" transform="translate(115.576172 0)"/>
     <use xlink:href="#DejaVuSans-6e" transform="translate(143.359375 0)"/>
     <use xlink:href="#DejaVuSans-2d" transform="translate(206.738281 0)"/>
     <use xlink:href="#DejaVuSans-75" transform="translate(242.822266 0)"/>
     <use xlink:href="#DejaVuSans-70" transform="translate(306.201172 0)"/>
    </g>
   </g>
   <g id="text_9">
    <!-- slow-down -->
    <g style="fill: #555555" transform="translate(680.538898 181.213836) scale(0.08 -0.08)">
     <defs>
      <path id="DejaVuSans-77" d="M 269 3500 
L 844 3500 
L 1563 769 
L 2278 3500 
L 2956 3500 
L 3675 769 
L 4391 3500 
L 4966 3500 
L 4050 0 
L 3372 0 
L 2619 2869 
L 1863 0 
L 1184 0 
L 269 3500 
z
" transform="scale(0.015625)"/>
     </defs>
     <use xlink:href="#DejaVuSans-73"/>
     <use xlink:href="#DejaVuSans-6c" transform="translate(52.099609 0)"/>
     <use xlink:href="#DejaVuSans-6f" transform="translate(79.882812 0)"/>
     <use xlink:href="#DejaVuSans-77" transform="translate(141.064453 0)"/>
     <use xlink:href="#DejaVuSans-2d" transform="translate(222.851562 0)"/>
     <use xlink:href="#DejaVuSans-64" transform="translate(258.935547 0)"/>
     <use xlink:href="#DejaVuSans-6f" transform="translate(322.412109 0)"/>
     <use xlink:href="#DejaVuSans-77" transform="translate(383.59375 0)"/>
     <use xlink:href="#DejaVuSans-6e" transform="translate(465.380859 0)"/>
    </g>
   </g>
   <g id="legend_1">
    <g id="patch_7">
     <path d="M 91.925937 200.925625 
L 733.477188 200.925625 
Q 735.077188 200.925625 735.077188 199.325625 
L 735.077188 188.383125 
Q 735.077188 186.783125 733.477188 186.783125 
L 91.925937 186.783125 
Q 90.325937 186.783125 90.325937 188.383125 
L 90.325937 199.325625 
Q 90.325937 200.925625 91.925937 200.925625 
z
" style="fill: #ffffff; opacity: 0.8; stroke: #cccccc; stroke-linejoin: miter"/>
    </g>
    <g id="patch_8">
     <path d="M 93.525937 196.061875 
L 109.525937 196.061875 
L 109.525937 190.461875 
L 93.525937 190.461875 
z
" style="fill: #f2c7c0; fill-opacity: 0.6; stroke: #f2c7c0; stroke-opacity: 0.6; stroke-linejoin: miter"/>
    </g>
    <g id="text_10">
     <!-- per-window spread (the wave) -->
     <g transform="translate(115.925937 196.061875) scale(0.08 -0.08)">
      <defs>
       <path id="DejaVuSans-72" d="M 2631 2963 
Q 2534 3019 2420 3045 
Q 2306 3072 2169 3072 
Q 1681 3072 1420 2755 
Q 1159 2438 1159 1844 
L 1159 0 
L 581 0 
L 581 3500 
L 1159 3500 
L 1159 2956 
Q 1341 3275 1631 3429 
Q 1922 3584 2338 3584 
Q 2397 3584 2469 3576 
Q 2541 3569 2628 3553 
L 2631 2963 
z
" transform="scale(0.015625)"/>
       <path id="DejaVuSans-76" d="M 191 3500 
L 800 3500 
L 1894 563 
L 2988 3500 
L 3597 3500 
L 2284 0 
L 1503 0 
L 191 3500 
z
" transform="scale(0.015625)"/>
      </defs>
      <use xlink:href="#DejaVuSans-70"/>
      <use xlink:href="#DejaVuSans-65" transform="translate(63.476562 0)"/>
      <use xlink:href="#DejaVuSans-72" transform="translate(125 0)"/>
      <use xlink:href="#DejaVuSans-2d" transform="translate(159.738281 0)"/>
      <use xlink:href="#DejaVuSans-77" transform="translate(195.822266 0)"/>
      <use xlink:href="#DejaVuSans-69" transform="translate(277.609375 0)"/>
      <use xlink:href="#DejaVuSans-6e" transform="translate(305.392578 0)"/>
      <use xlink:href="#DejaVuSans-64" transform="translate(368.771484 0)"/>
      <use xlink:href="#DejaVuSans-6f" transform="translate(432.248047 0)"/>
      <use xlink:href="#DejaVuSans-77" transform="translate(493.429688 0)"/>
      <use xlink:href="#DejaVuSans-20" transform="translate(575.216797 0)"/>
      <use xlink:href="#DejaVuSans-73" transform="translate(607.003906 0)"/>
      <use xlink:href="#DejaVuSans-70" transform="translate(659.103516 0)"/>
      <use xlink:href="#DejaVuSans-72" transform="translate(722.580078 0)"/>
      <use xlink:href="#DejaVuSans-65" transform="translate(761.443359 0)"/>
      <use xlink:href="#DejaVuSans-61" transform="translate(822.966797 0)"/>
      <use xlink:href="#DejaVuSans-64" transform="translate(884.246094 0)"/>
      <use xlink:href="#DejaVuSans-20" transform="translate(947.722656 0)"/>
      <use xlink:href="#DejaVuSans-28" transform="translate(979.509766 0)"/>
      <use xlink:href="#DejaVuSans-74" transform="translate(1018.523438 0)"/>
      <use xlink:href="#DejaVuSans-68" transform="translate(1057.732422 0)"/>
      <use xlink:href="#DejaVuSans-65" transform="translate(1121.111328 0)"/>
      <use xlink:href="#DejaVuSans-20" transform="translate(1182.634766 0)"/>
      <use xlink:href="#DejaVuSans-77" transform="translate(1214.421875 0)"/>
      <use xlink:href="#DejaVuSans-61" transform="translate(1296.208984 0)"/>
      <use xlink:href="#DejaVuSans-76" transform="translate(1357.488281 0)"/>
      <use xlink:href="#DejaVuSans-65" transform="translate(1416.667969 0)"/>
      <use xlink:href="#DejaVuSans-29" transform="translate(1478.191406 0)"/>
     </g>
    </g>
    <g id="line2d_28">
     <g>
      <use xlink:href="#m663be31063" x="261.303437" y="193.261875" style="fill: #9aa0a6; stroke: #9aa0a6"/>
     </g>
    </g>
    <g id="text_11">
     <!-- per window -->
     <g transform="translate(275.703437 196.061875) scale(0.08 -0.08)">
      <use xlink:href="#DejaVuSans-70"/>
      <use xlink:href="#DejaVuSans-65" transform="translate(63.476562 0)"/>
      <use xlink:href="#DejaVuSans-72" transform="translate(125 0)"/>
      <use xlink:href="#DejaVuSans-20" transform="translate(166.113281 0)"/>
      <use xlink:href="#DejaVuSans-77" transform="translate(197.900391 0)"/>
      <use xlink:href="#DejaVuSans-69" transform="translate(279.6875 0)"/>
      <use xlink:href="#DejaVuSans-6e" transform="translate(307.470703 0)"/>
      <use xlink:href="#DejaVuSans-64" transform="translate(370.849609 0)"/>
      <use xlink:href="#DejaVuSans-6f" transform="translate(434.326172 0)"/>
      <use xlink:href="#DejaVuSans-77" transform="translate(495.507812 0)"/>
     </g>
    </g>
    <g id="line2d_29">
     <path d="M 337.887187 193.261875 
L 345.887187 193.261875 
L 353.887187 193.261875 
" style="fill: none; stroke: #c0392b; stroke-width: 2; stroke-linecap: square"/>
    </g>
    <g id="text_12">
     <!-- smoothed -->
     <g transform="translate(360.287187 196.061875) scale(0.08 -0.08)">
      <defs>
       <path id="DejaVuSans-6d" d="M 3328 2828 
Q 3544 3216 3844 3400 
Q 4144 3584 4550 3584 
Q 5097 3584 5394 3201 
Q 5691 2819 5691 2113 
L 5691 0 
L 5113 0 
L 5113 2094 
Q 5113 2597 4934 2840 
Q 4756 3084 4391 3084 
Q 3944 3084 3684 2787 
Q 3425 2491 3425 1978 
L 3425 0 
L 2847 0 
L 2847 2094 
Q 2847 2600 2669 2842 
Q 2491 3084 2119 3084 
Q 1678 3084 1418 2786 
Q 1159 2488 1159 1978 
L 1159 0 
L 581 0 
L 581 3500 
L 1159 3500 
L 1159 2956 
Q 1356 3278 1631 3431 
Q 1906 3584 2284 3584 
Q 2666 3584 2933 3390 
Q 3200 3197 3328 2828 
z
" transform="scale(0.015625)"/>
      </defs>
      <use xlink:href="#DejaVuSans-73"/>
      <use xlink:href="#DejaVuSans-6d" transform="translate(52.099609 0)"/>
      <use xlink:href="#DejaVuSans-6f" transform="translate(149.511719 0)"/>
      <use xlink:href="#DejaVuSans-6f" transform="translate(210.693359 0)"/>
      <use xlink:href="#DejaVuSans-74" transform="translate(271.875 0)"/>
      <use xlink:href="#DejaVuSans-68" transform="translate(311.083984 0)"/>
      <use xlink:href="#DejaVuSans-65" transform="translate(374.462891 0)"/>
      <use xlink:href="#DejaVuSans-64" transform="translate(435.986328 0)"/>
     </g>
    </g>
    <g id="patch_9">
     <path d="M 416.244687 196.061875 
L 432.244687 196.061875 
L 432.244687 190.461875 
L 416.244687 190.461875 
z
" style="fill: #8fb3d9; opacity: 0.18; stroke: #8fb3d9; stroke-linejoin: miter"/>
    </g>
    <g id="text_13">
     <!-- steady state (angle averaged here) -->
     <g transform="translate(438.644687 196.061875) scale(0.08 -0.08)">
      <use xlink:href="#DejaVuSans-73"/>
      <use xlink:href="#DejaVuSans-74" transform="translate(52.099609 0)"/>
      <use xlink:href="#DejaVuSans-65" transform="translate(91.308594 0)"/>
      <use xlink:href="#DejaVuSans-61" transform="translate(152.832031 0)"/>
      <use xlink:href="#DejaVuSans-64" transform="translate(214.111328 0)"/>
      <use xlink:href="#DejaVuSans-79" transform="translate(277.587891 0)"/>
      <use xlink:href="#DejaVuSans-20" transform="translate(336.767578 0)"/>
      <use xlink:href="#DejaVuSans-73" transform="translate(368.554688 0)"/>
      <use xlink:href="#DejaVuSans-74" transform="translate(420.654297 0)"/>
      <use xlink:href="#DejaVuSans-61" transform="translate(459.863281 0)"/>
      <use xlink:href="#DejaVuSans-74" transform="translate(521.142578 0)"/>
      <use xlink:href="#DejaVuSans-65" transform="translate(560.351562 0)"/>
      <use xlink:href="#DejaVuSans-20" transform="translate(621.875 0)"/>
      <use xlink:href="#DejaVuSans-28" transform="translate(653.662109 0)"/>
      <use xlink:href="#DejaVuSans-61" transform="translate(692.675781 0)"/>
      <use xlink:href="#DejaVuSans-6e" transform="translate(753.955078 0)"/>
      <use xlink:href="#DejaVuSans-67" transform="translate(817.333984 0)"/>
      <use xlink:href="#DejaVuSans-6c" transform="translate(880.810547 0)"/>
      <use xlink:href="#DejaVuSans-65" transform="translate(908.59375 0)"/>
      <use xlink:href="#DejaVuSans-20" transform="translate(970.117188 0)"/>
      <use xlink:href="#DejaVuSans-61" transform="translate(1001.904297 0)"/>
      <use xlink:href="#DejaVuSans-76" transform="translate(1063.183594 0)"/>
      <use xlink:href="#DejaVuSans-65" transform="translate(1122.363281 0)"/>
      <use xlink:href="#DejaVuSans-72" transform="translate(1183.886719 0)"/>
      <use xlink:href="#DejaVuSans-61" transform="translate(1225 0)"/>
      <use xlink:href="#DejaVuSans-67" transform="translate(1286.279297 0)"/>
      <use xlink:href="#DejaVuSans-65" transform="translate(1349.755859 0)"/>
      <use xlink:href="#DejaVuSans-64" transform="translate(1411.279297 0)"/>
      <use xlink:href="#DejaVuSans-20" transform="translate(1474.755859 0)"/>
      <use xlink:href="#DejaVuSans-68" transform="translate(1506.542969 0)"/>
      <use xlink:href="#DejaVuSans-65" transform="translate(1569.921875 0)"/>
      <use xlink:href="#DejaVuSans-72" transform="translate(1631.445312 0)"/>
      <use xlink:href="#DejaVuSans-65" transform="translate(1670.308594 0)"/>
      <use xlink:href="#DejaVuSans-29" transform="translate(1731.832031 0)"/>
     </g>
    </g>
    <g id="line2d_30">
     <path d="M 596.315937 193.261875 
L 604.315937 193.261875 
L 612.315937 193.261875 
" style="fill: none; stroke-dasharray: 4.44,1.92; stroke-dashoffset: 0; stroke: #1f6fd6; stroke-width: 1.2"/>
    </g>
    <g id="text_14">
     <!-- steady-state mean 45.8 deg -->
     <g transform="translate(618.715937 196.061875) scale(0.08 -0.08)">
      <defs>
       <path id="DejaVuSans-2e" d="M 684 794 
L 1344 794 
L 1344 0 
L 684 0 
L 684 794 
z
" transform="scale(0.015625)"/>
       <path id="DejaVuSans-38" d="M 2034 2216 
Q 1584 2216 1326 1975 
Q 1069 1734 1069 1313 
Q 1069 891 1326 650 
Q 1584 409 2034 409 
Q 2484 409 2743 651 
Q 3003 894 3003 1313 
Q 3003 1734 2745 1975 
Q 2488 2216 2034 2216 
z
M 1403 2484 
Q 997 2584 770 2862 
Q 544 3141 544 3541 
Q 544 4100 942 4425 
Q 1341 4750 2034 4750 
Q 2731 4750 3128 4425 
Q 3525 4100 3525 3541 
Q 3525 3141 3298 2862 
Q 3072 2584 2669 2484 
Q 3125 2378 3379 2068 
Q 3634 1759 3634 1313 
Q 3634 634 3220 271 
Q 2806 -91 2034 -91 
Q 1263 -91 848 271 
Q 434 634 434 1313 
Q 434 1759 690 2068 
Q 947 2378 1403 2484 
z
M 1172 3481 
Q 1172 3119 1398 2916 
Q 1625 2713 2034 2713 
Q 2441 2713 2670 2916 
Q 2900 3119 2900 3481 
Q 2900 3844 2670 4047 
Q 2441 4250 2034 4250 
Q 1625 4250 1398 4047 
Q 1172 3844 1172 3481 
z
" transform="scale(0.015625)"/>
      </defs>
      <use xlink:href="#DejaVuSans-73"/>
      <use xlink:href="#DejaVuSans-74" transform="translate(52.099609 0)"/>
      <use xlink:href="#DejaVuSans-65" transform="translate(91.308594 0)"/>
      <use xlink:href="#DejaVuSans-61" transform="translate(152.832031 0)"/>
      <use xlink:href="#DejaVuSans-64" transform="translate(214.111328 0)"/>
      <use xlink:href="#DejaVuSans-79" transform="translate(277.587891 0)"/>
      <use xlink:href="#DejaVuSans-2d" transform="translate(335.017578 0)"/>
      <use xlink:href="#DejaVuSans-73" transform="translate(371.101562 0)"/>
      <use xlink:href="#DejaVuSans-74" transform="translate(423.201172 0)"/>
      <use xlink:href="#DejaVuSans-61" transform="translate(462.410156 0)"/>
      <use xlink:href="#DejaVuSans-74" transform="translate(523.689453 0)"/>
      <use xlink:href="#DejaVuSans-65" transform="translate(562.898438 0)"/>
      <use xlink:href="#DejaVuSans-20" transform="translate(624.421875 0)"/>
      <use xlink:href="#DejaVuSans-6d" transform="translate(656.208984 0)"/>
      <use xlink:href="#DejaVuSans-65" transform="translate(753.621094 0)"/>
      <use xlink:href="#DejaVuSans-61" transform="translate(815.144531 0)"/>
      <use xlink:href="#DejaVuSans-6e" transform="translate(876.423828 0)"/>
      <use xlink:href="#DejaVuSans-20" transform="translate(939.802734 0)"/>
      <use xlink:href="#DejaVuSans-34" transform="translate(971.589844 0)"/>
      <use xlink:href="#DejaVuSans-35" transform="translate(1035.212891 0)"/>
      <use xlink:href="#DejaVuSans-2e" transform="translate(1098.835938 0)"/>
      <use xlink:href="#DejaVuSans-38" transform="translate(1130.623047 0)"/>
      <use xlink:href="#DejaVuSans-20" transform="translate(1194.246094 0)"/>
      <use xlink:href="#DejaVuSans-64" transform="translate(1226.033203 0)"/>
      <use xlink:href="#DejaVuSans-65" transform="translate(1289.509766 0)"/>
      <use xlink:href="#DejaVuSans-67" transform="translate(1351.033203 0)"/>
     </g>
    </g>
   </g>
  </g>
  <g id="axes_2">
   <g id="patch_10">
    <path d="M 36.403365 398.64351 
L 788.99976 398.64351 
L 788.99976 214.426105 
L 36.403365 214.426105 
z
" style="fill: #ffffff"/>
   </g>
   <g id="matplotlib.axis_3">
    <g id="xtick_7">
     <g id="line2d_31">
      <path d="M 66.63451 398.64351 
L 66.63451 214.426105 
" clip-path="url(#pf30641a7e1)" style="fill: none; stroke: #ededed; stroke-width: 0.6; stroke-linecap: square"/>
     </g>
     <g id="line2d_32">
      <g>
       <use xlink:href="#mb06a1b4f4c" x="66.63451" y="398.64351" style="stroke: #000000; stroke-width: 0.8"/>
      </g>
     </g>
     <g id="text_15">
      <!-- 0 -->
      <g transform="translate(63.45326 413.241947) scale(0.1 -0.1)">
       <use xlink:href="#DejaVuSans-30"/>
      </g>
     </g>
    </g>
    <g id="xtick_8">
     <g id="line2d_33">
      <path d="M 199.22725 398.64351 
L 199.22725 214.426105 
" clip-path="url(#pf30641a7e1)" style="fill: none; stroke: #ededed; stroke-width: 0.6; stroke-linecap: square"/>
     </g>
     <g id="line2d_34">
      <g>
       <use xlink:href="#mb06a1b4f4c" x="199.22725" y="398.64351" style="stroke: #000000; stroke-width: 0.8"/>
      </g>
     </g>
     <g id="text_16">
      <!-- 50 -->
      <g transform="translate(192.86475 413.241947) scale(0.1 -0.1)">
       <use xlink:href="#DejaVuSans-35"/>
       <use xlink:href="#DejaVuSans-30" transform="translate(63.623047 0)"/>
      </g>
     </g>
    </g>
    <g id="xtick_9">
     <g id="line2d_35">
      <path d="M 331.819991 398.64351 
L 331.819991 214.426105 
" clip-path="url(#pf30641a7e1)" style="fill: none; stroke: #ededed; stroke-width: 0.6; stroke-linecap: square"/>
     </g>
     <g id="line2d_36">
      <g>
       <use xlink:href="#mb06a1b4f4c" x="331.819991" y="398.64351" style="stroke: #000000; stroke-width: 0.8"/>
      </g>
     </g>
     <g id="text_17">
      <!-- 100 -->
      <g transform="translate(322.276241 413.241947) scale(0.1 -0.1)">
       <use xlink:href="#DejaVuSans-31"/>
       <use xlink:href="#DejaVuSans-30" transform="translate(63.623047 0)"/>
       <use xlink:href="#DejaVuSans-30" transform="translate(127.246094 0)"/>
      </g>
     </g>
    </g>
    <g id="xtick_10">
     <g id="line2d_37">
      <path d="M 464.412731 398.64351 
L 464.412731 214.426105 
" clip-path="url(#pf30641a7e1)" style="fill: none; stroke: #ededed; stroke-width: 0.6; stroke-linecap: square"/>
     </g>
     <g id="line2d_38">
      <g>
       <use xlink:href="#mb06a1b4f4c" x="464.412731" y="398.64351" style="stroke: #000000; stroke-width: 0.8"/>
      </g>
     </g>
     <g id="text_18">
      <!-- 150 -->
      <g transform="translate(454.868981 413.241947) scale(0.1 -0.1)">
       <use xlink:href="#DejaVuSans-31"/>
       <use xlink:href="#DejaVuSans-35" transform="translate(63.623047 0)"/>
       <use xlink:href="#DejaVuSans-30" transform="translate(127.246094 0)"/>
      </g>
     </g>
    </g>
    <g id="xtick_11">
     <g id="line2d_39">
      <path d="M 597.005472 398.64351 
L 597.005472 214.426105 
" clip-path="url(#pf30641a7e1)" style="fill: none; stroke: #ededed; stroke-width: 0.6; stroke-linecap: square"/>
     </g>
     <g id="line2d_40">
      <g>
       <use xlink:href="#mb06a1b4f4c" x="597.005472" y="398.64351" style="stroke: #000000; stroke-width: 0.8"/>
      </g>
     </g>
     <g id="text_19">
      <!-- 200 -->
      <g transform="translate(587.461722 413.241947) scale(0.1 -0.1)">
       <use xlink:href="#DejaVuSans-32"/>
       <use xlink:href="#DejaVuSans-30" transform="translate(63.623047 0)"/>
       <use xlink:href="#DejaVuSans-30" transform="translate(127.246094 0)"/>
      </g>
     </g>
    </g>
    <g id="xtick_12">
     <g id="line2d_41">
      <path d="M 729.598212 398.64351 
L 729.598212 214.426105 
" clip-path="url(#pf30641a7e1)" style="fill: none; stroke: #ededed; stroke-width: 0.6; stroke-linecap: square"/>
     </g>
     <g id="line2d_42">
      <g>
       <use xlink:href="#mb06a1b4f4c" x="729.598212" y="398.64351" style="stroke: #000000; stroke-width: 0.8"/>
      </g>
     </g>
     <g id="text_20">
      <!-- 250 -->
      <g transform="translate(720.054462 413.241947) scale(0.1 -0.1)">
       <use xlink:href="#DejaVuSans-32"/>
       <use xlink:href="#DejaVuSans-35" transform="translate(63.623047 0)"/>
       <use xlink:href="#DejaVuSans-30" transform="translate(127.246094 0)"/>
      </g>
     </g>
    </g>
    <g id="text_21">
     <!-- time (s) -->
     <g transform="translate(393.310156 426.920073) scale(0.1 -0.1)">
      <use xlink:href="#DejaVuSans-74"/>
      <use xlink:href="#DejaVuSans-69" transform="translate(39.208984 0)"/>
      <use xlink:href="#DejaVuSans-6d" transform="translate(66.992188 0)"/>
      <use xlink:href="#DejaVuSans-65" transform="translate(164.404297 0)"/>
      <use xlink:href="#DejaVuSans-20" transform="translate(225.927734 0)"/>
      <use xlink:href="#DejaVuSans-28" transform="translate(257.714844 0)"/>
      <use xlink:href="#DejaVuSans-73" transform="translate(296.728516 0)"/>
      <use xlink:href="#DejaVuSans-29" transform="translate(348.828125 0)"/>
     </g>
    </g>
   </g>
   <g id="matplotlib.axis_4">
    <g id="ytick_7">
     <g id="line2d_43">
      <path d="M 36.403365 390.270079 
L 788.99976 390.270079 
" clip-path="url(#pf30641a7e1)" style="fill: none; stroke: #ededed; stroke-width: 0.6; stroke-linecap: square"/>
     </g>
     <g id="line2d_44">
      <g>
       <use xlink:href="#m32a2f31c39" x="36.403365" y="390.270079" style="stroke: #000000; stroke-width: 0.8"/>
      </g>
     </g>
     <g id="text_22">
      <!-- 0 -->
      <g transform="translate(23.040865 394.069298) scale(0.1 -0.1)">
       <use xlink:href="#DejaVuSans-30"/>
      </g>
     </g>
    </g>
    <g id="ytick_8">
     <g id="line2d_45">
      <path d="M 36.403365 353.504619 
L 788.99976 353.504619 
" clip-path="url(#pf30641a7e1)" style="fill: none; stroke: #ededed; stroke-width: 0.6; stroke-linecap: square"/>
     </g>
     <g id="line2d_46">
      <g>
       <use xlink:href="#m32a2f31c39" x="36.403365" y="353.504619" style="stroke: #000000; stroke-width: 0.8"/>
      </g>
     </g>
     <g id="text_23">
      <!-- 2 -->
      <g transform="translate(23.040865 357.303838) scale(0.1 -0.1)">
       <use xlink:href="#DejaVuSans-32"/>
      </g>
     </g>
    </g>
    <g id="ytick_9">
     <g id="line2d_47">
      <path d="M 36.403365 316.739159 
L 788.99976 316.739159 
" clip-path="url(#pf30641a7e1)" style="fill: none; stroke: #ededed; stroke-width: 0.6; stroke-linecap: square"/>
     </g>
     <g id="line2d_48">
      <g>
       <use xlink:href="#m32a2f31c39" x="36.403365" y="316.739159" style="stroke: #000000; stroke-width: 0.8"/>
      </g>
     </g>
     <g id="text_24">
      <!-- 4 -->
      <g transform="translate(23.040865 320.538378) scale(0.1 -0.1)">
       <use xlink:href="#DejaVuSans-34"/>
      </g>
     </g>
    </g>
    <g id="ytick_10">
     <g id="line2d_49">
      <path d="M 36.403365 279.973699 
L 788.99976 279.973699 
" clip-path="url(#pf30641a7e1)" style="fill: none; stroke: #ededed; stroke-width: 0.6; stroke-linecap: square"/>
     </g>
     <g id="line2d_50">
      <g>
       <use xlink:href="#m32a2f31c39" x="36.403365" y="279.973699" style="stroke: #000000; stroke-width: 0.8"/>
      </g>
     </g>
     <g id="text_25">
      <!-- 6 -->
      <g transform="translate(23.040865 283.772918) scale(0.1 -0.1)">
       <defs>
        <path id="DejaVuSans-36" d="M 2113 2584 
Q 1688 2584 1439 2293 
Q 1191 2003 1191 1497 
Q 1191 994 1439 701 
Q 1688 409 2113 409 
Q 2538 409 2786 701 
Q 3034 994 3034 1497 
Q 3034 2003 2786 2293 
Q 2538 2584 2113 2584 
z
M 3366 4563 
L 3366 3988 
Q 3128 4100 2886 4159 
Q 2644 4219 2406 4219 
Q 1781 4219 1451 3797 
Q 1122 3375 1075 2522 
Q 1259 2794 1537 2939 
Q 1816 3084 2150 3084 
Q 2853 3084 3261 2657 
Q 3669 2231 3669 1497 
Q 3669 778 3244 343 
Q 2819 -91 2113 -91 
Q 1303 -91 875 529 
Q 447 1150 447 2328 
Q 447 3434 972 4092 
Q 1497 4750 2381 4750 
Q 2619 4750 2861 4703 
Q 3103 4656 3366 4563 
z
" transform="scale(0.015625)"/>
       </defs>
       <use xlink:href="#DejaVuSans-36"/>
      </g>
     </g>
    </g>
    <g id="ytick_11">
     <g id="line2d_51">
      <path d="M 36.403365 243.208239 
L 788.99976 243.208239 
" clip-path="url(#pf30641a7e1)" style="fill: none; stroke: #ededed; stroke-width: 0.6; stroke-linecap: square"/>
     </g>
     <g id="line2d_52">
      <g>
       <use xlink:href="#m32a2f31c39" x="36.403365" y="243.208239" style="stroke: #000000; stroke-width: 0.8"/>
      </g>
     </g>
     <g id="text_26">
      <!-- 8 -->
      <g transform="translate(23.040865 247.007457) scale(0.1 -0.1)">
       <use xlink:href="#DejaVuSans-38"/>
      </g>
     </g>
    </g>
    <g id="text_27">
     <!-- $g\,\tan\theta$  (m/s$^2$) -->
     <g transform="translate(16.940865 341.284807) rotate(-90) scale(0.1 -0.1)">
      <defs>
       <path id="DejaVuSans-Oblique-67" d="M 3816 3500 
L 3219 434 
Q 3047 -456 2561 -893 
Q 2075 -1331 1253 -1331 
Q 950 -1331 690 -1286 
Q 431 -1241 206 -1147 
L 313 -588 
Q 525 -725 762 -790 
Q 1000 -856 1269 -856 
Q 1816 -856 2167 -557 
Q 2519 -259 2631 300 
L 2681 563 
Q 2441 288 2122 144 
Q 1803 0 1434 0 
Q 903 0 598 351 
Q 294 703 294 1319 
Q 294 1803 478 2267 
Q 663 2731 997 3091 
Q 1219 3328 1514 3456 
Q 1809 3584 2131 3584 
Q 2484 3584 2746 3420 
Q 3009 3256 3138 2956 
L 3238 3500 
L 3816 3500 
z
M 2950 2216 
Q 2950 2641 2750 2872 
Q 2550 3103 2181 3103 
Q 1953 3103 1747 3012 
Q 1541 2922 1394 2759 
Q 1156 2491 1023 2127 
Q 891 1763 891 1375 
Q 891 944 1092 712 
Q 1294 481 1672 481 
Q 2219 481 2584 976 
Q 2950 1472 2950 2216 
z
" transform="scale(0.015625)"/>
       <path id="DejaVuSans-Oblique-3b8" d="M 2913 2219 
L 925 2219 
Q 791 1284 928 888 
Q 1100 400 1566 400 
Q 2034 400 2391 891 
Q 2703 1322 2913 2219 
z
M 3009 2750 
Q 3094 3638 2984 3950 
Q 2813 4444 2353 4444 
Q 1875 4444 1525 3956 
Q 1250 3563 1034 2750 
L 3009 2750 
z
M 2444 4913 
Q 3194 4913 3494 4250 
Q 3794 3591 3566 2422 
Q 3341 1256 2781 594 
Q 2225 -72 1475 -72 
Q 722 -72 425 594 
Q 128 1256 353 2422 
Q 581 3591 1134 4250 
Q 1691 4913 2444 4913 
z
" transform="scale(0.015625)"/>
       <path id="DejaVuSans-2f" d="M 1625 4666 
L 2156 4666 
L 531 -594 
L 0 -594 
L 1625 4666 
z
" transform="scale(0.015625)"/>
      </defs>
      <use xlink:href="#DejaVuSans-Oblique-67" transform="translate(0 0.765625)"/>
      <use xlink:href="#DejaVuSans-74" transform="translate(79.712239 0.765625)"/>
      <use xlink:href="#DejaVuSans-61" transform="translate(118.921223 0.765625)"/>
      <use xlink:href="#DejaVuSans-6e" transform="translate(180.20052 0.765625)"/>
      <use xlink:href="#DejaVuSans-Oblique-3b8" transform="translate(259.815103 0.765625)"/>
      <use xlink:href="#DejaVuSans-20" transform="translate(320.996743 0.765625)"/>
      <use xlink:href="#DejaVuSans-20" transform="translate(352.783853 0.765625)"/>
      <use xlink:href="#DejaVuSans-28" transform="translate(384.570962 0.765625)"/>
      <use xlink:href="#DejaVuSans-6d" transform="translate(423.584634 0.765625)"/>
      <use xlink:href="#DejaVuSans-2f" transform="translate(520.996743 0.765625)"/>
      <use xlink:href="#DejaVuSans-73" transform="translate(554.688149 0.765625)"/>
      <use xlink:href="#DejaVuSans-32" transform="translate(607.74479 39.046875) scale(0.7)"/>
      <use xlink:href="#DejaVuSans-29" transform="translate(655.015298 0.765625)"/>
     </g>
    </g>
   </g>
   <g id="line2d_53">
    <path d="M 70.612292 390.269992 
L 78.567856 390.269948 
L 86.523421 390.269882 
L 94.478985 390.269783 
L 102.43455 390.269635 
L 110.390114 390.269412 
L 118.345679 390.269079 
L 126.301243 390.268579 
L 134.256807 390.267828 
L 142.212372 390.266703 
L 150.167936 390.265015 
L 158.123501 390.262482 
L 166.079065 390.258684 
L 174.03463 390.252986 
L 181.990194 390.24444 
L 189.945758 390.23162 
L 197.901323 390.21239 
L 205.856887 390.183545 
L 213.812452 390.140278 
L 221.768016 390.075377 
L 229.723581 389.978026 
L 237.679145 389.831998 
L 245.634709 389.612956 
L 253.590274 389.284389 
L 261.545838 388.791525 
L 269.501403 388.052186 
L 277.456967 386.943029 
L 285.412532 385.278796 
L 293.368096 382.780764 
L 301.32366 379.028028 
L 309.279225 373.379665 
L 317.234789 364.841606 
L 325.190354 351.809474 
L 333.145918 358.524518 
L 341.101483 359.793204 
L 349.057047 359.696193 
L 357.012611 359.268617 
L 364.968176 358.08658 
L 372.92374 356.459109 
L 380.879305 353.46744 
L 388.834869 348.795607 
L 396.790434 341.990343 
L 404.745998 341.712818 
L 412.701563 341.086813 
L 420.657127 337.569717 
L 428.612691 330.682675 
L 436.568256 322.40939 
L 444.52382 311.731052 
L 452.479385 299.626936 
L 460.434949 287.3039 
L 468.390514 274.830898 
L 476.346078 263.107254 
L 484.301642 252.095152 
L 492.257207 242.92161 
L 500.212771 235.732521 
L 508.168336 231.935692 
L 516.1239 229.91216 
L 524.079465 227.894318 
L 532.035029 228.156316 
L 539.990593 223.914198 
L 547.946158 224.074277 
L 555.901722 223.253357 
L 563.857287 225.398284 
L 571.812851 222.799623 
L 579.768416 225.625347 
L 587.72398 225.760764 
L 595.679544 225.183696 
L 603.635109 228.215798 
L 611.590673 230.154128 
L 619.546238 227.901643 
L 627.501802 225.772018 
L 635.457367 225.001373 
L 643.412931 228.975905 
L 651.368495 232.831011 
L 659.32406 242.217594 
L 667.279624 249.877862 
L 675.235189 256.666962 
L 683.190753 270.979458 
L 691.146318 282.109233 
L 699.101882 291.458262 
L 707.057446 302.390731 
L 715.013011 313.07411 
L 722.968575 321.245544 
L 730.92414 325.388248 
L 738.879704 329.396187 
L 746.835269 330.715758 
L 754.790833 326.243509 
" clip-path="url(#pf30641a7e1)" style="fill: none; stroke: #1f6fd6; stroke-width: 1.6; stroke-linecap: square"/>
   </g>
   <g id="patch_11">
    <path d="M 36.403365 398.64351 
L 36.403365 214.426105 
" style="fill: none; stroke: #000000; stroke-width: 0.8; stroke-linejoin: miter; stroke-linecap: square"/>
   </g>
   <g id="patch_12">
    <path d="M 36.403365 398.64351 
L 788.99976 398.64351 
" style="fill: none; stroke: #000000; stroke-width: 0.8; stroke-linejoin: miter; stroke-linecap: square"/>
   </g>
  </g>
  <g id="text_28">
   <!-- Fly-out angle, automatic: probably trial 1.MOV   (elevation-corrected 30 deg) -->
   <g transform="translate(134.885625 12.118365) scale(0.12 -0.12)">
    <defs>
     <path id="DejaVuSans-Bold-46" d="M 588 4666 
L 3834 4666 
L 3834 3756 
L 1791 3756 
L 1791 2888 
L 3713 2888 
L 3713 1978 
L 1791 1978 
L 1791 0 
L 588 0 
L 588 4666 
z
" transform="scale(0.015625)"/>
     <path id="DejaVuSans-Bold-6c" d="M 538 4863 
L 1656 4863 
L 1656 0 
L 538 0 
L 538 4863 
z
" transform="scale(0.015625)"/>
     <path id="DejaVuSans-Bold-79" d="M 78 3500 
L 1197 3500 
L 2138 1125 
L 2938 3500 
L 4056 3500 
L 2584 -331 
Q 2363 -916 2067 -1148 
Q 1772 -1381 1288 -1381 
L 641 -1381 
L 641 -647 
L 991 -647 
Q 1275 -647 1404 -556 
Q 1534 -466 1606 -231 
L 1638 -134 
L 78 3500 
z
" transform="scale(0.015625)"/>
     <path id="DejaVuSans-Bold-2d" d="M 347 2297 
L 2309 2297 
L 2309 1388 
L 347 1388 
L 347 2297 
z
" transform="scale(0.015625)"/>
     <path id="DejaVuSans-Bold-6f" d="M 2203 2784 
Q 1831 2784 1636 2517 
Q 1441 2250 1441 1747 
Q 1441 1244 1636 976 
Q 1831 709 2203 709 
Q 2569 709 2762 976 
Q 2956 1244 2956 1747 
Q 2956 2250 2762 2517 
Q 2569 2784 2203 2784 
z
M 2203 3584 
Q 3106 3584 3614 3096 
Q 4122 2609 4122 1747 
Q 4122 884 3614 396 
Q 3106 -91 2203 -91 
Q 1297 -91 786 396 
Q 275 884 275 1747 
Q 275 2609 786 3096 
Q 1297 3584 2203 3584 
z
" transform="scale(0.015625)"/>
     <path id="DejaVuSans-Bold-75" d="M 500 1363 
L 500 3500 
L 1625 3500 
L 1625 3150 
Q 1625 2866 1622 2436 
Q 1619 2006 1619 1863 
Q 1619 1441 1641 1255 
Q 1663 1069 1716 984 
Q 1784 875 1895 815 
Q 2006 756 2150 756 
Q 2500 756 2700 1025 
Q 2900 1294 2900 1772 
L 2900 3500 
L 4019 3500 
L 4019 0 
L 2900 0 
L 2900 506 
Q 2647 200 2364 54 
Q 2081 -91 1741 -91 
Q 1134 -91 817 281 
Q 500 653 500 1363 
z
" transform="scale(0.015625)"/>
     <path id="DejaVuSans-Bold-74" d="M 1759 4494 
L 1759 3500 
L 2913 3500 
L 2913 2700 
L 1759 2700 
L 1759 1216 
Q 1759 972 1856 886 
Q 1953 800 2241 800 
L 2816 800 
L 2816 0 
L 1856 0 
Q 1194 0 917 276 
Q 641 553 641 1216 
L 641 2700 
L 84 2700 
L 84 3500 
L 641 3500 
L 641 4494 
L 1759 4494 
z
" transform="scale(0.015625)"/>
     <path id="DejaVuSans-Bold-20" transform="scale(0.015625)"/>
     <path id="DejaVuSans-Bold-61" d="M 2106 1575 
Q 1756 1575 1579 1456 
Q 1403 1338 1403 1106 
Q 1403 894 1545 773 
Q 1688 653 1941 653 
Q 2256 653 2472 879 
Q 2688 1106 2688 1447 
L 2688 1575 
L 2106 1575 
z
M 3816 1997 
L 3816 0 
L 2688 0 
L 2688 519 
Q 2463 200 2181 54 
Q 1900 -91 1497 -91 
Q 953 -91 614 226 
Q 275 544 275 1050 
Q 275 1666 698 1953 
Q 1122 2241 2028 2241 
L 2688 2241 
L 2688 2328 
Q 2688 2594 2478 2717 
Q 2269 2841 1825 2841 
Q 1466 2841 1156 2769 
Q 847 2697 581 2553 
L 581 3406 
Q 941 3494 1303 3539 
Q 1666 3584 2028 3584 
Q 2975 3584 3395 3211 
Q 3816 2838 3816 1997 
z
" transform="scale(0.015625)"/>
     <path id="DejaVuSans-Bold-6e" d="M 4056 2131 
L 4056 0 
L 2931 0 
L 2931 347 
L 2931 1631 
Q 2931 2084 2911 2256 
Q 2891 2428 2841 2509 
Q 2775 2619 2662 2680 
Q 2550 2741 2406 2741 
Q 2056 2741 1856 2470 
Q 1656 2200 1656 1722 
L 1656 0 
L 538 0 
L 538 3500 
L 1656 3500 
L 1656 2988 
Q 1909 3294 2193 3439 
Q 2478 3584 2822 3584 
Q 3428 3584 3742 3212 
Q 4056 2841 4056 2131 
z
" transform="scale(0.015625)"/>
     <path id="DejaVuSans-Bold-67" d="M 2919 594 
Q 2688 288 2409 144 
Q 2131 0 1766 0 
Q 1125 0 706 504 
Q 288 1009 288 1791 
Q 288 2575 706 3076 
Q 1125 3578 1766 3578 
Q 2131 3578 2409 3434 
Q 2688 3291 2919 2981 
L 2919 3500 
L 4044 3500 
L 4044 353 
Q 4044 -491 3511 -936 
Q 2978 -1381 1966 -1381 
Q 1638 -1381 1331 -1331 
Q 1025 -1281 716 -1178 
L 716 -306 
Q 1009 -475 1290 -558 
Q 1572 -641 1856 -641 
Q 2406 -641 2662 -400 
Q 2919 -159 2919 353 
L 2919 594 
z
M 2181 2772 
Q 1834 2772 1640 2515 
Q 1447 2259 1447 1791 
Q 1447 1309 1634 1061 
Q 1822 813 2181 813 
Q 2531 813 2725 1069 
Q 2919 1325 2919 1791 
Q 2919 2259 2725 2515 
Q 2531 2772 2181 2772 
z
" transform="scale(0.015625)"/>
     <path id="DejaVuSans-Bold-65" d="M 4031 1759 
L 4031 1441 
L 1416 1441 
Q 1456 1047 1700 850 
Q 1944 653 2381 653 
Q 2734 653 3104 758 
Q 3475 863 3866 1075 
L 3866 213 
Q 3469 63 3072 -14 
Q 2675 -91 2278 -91 
Q 1328 -91 801 392 
Q 275 875 275 1747 
Q 275 2603 792 3093 
Q 1309 3584 2216 3584 
Q 3041 3584 3536 3087 
Q 4031 2591 4031 1759 
z
M 2881 2131 
Q 2881 2450 2695 2645 
Q 2509 2841 2209 2841 
Q 1884 2841 1681 2658 
Q 1478 2475 1428 2131 
L 2881 2131 
z
" transform="scale(0.015625)"/>
     <path id="DejaVuSans-Bold-2c" d="M 653 1209 
L 1778 1209 
L 1778 256 
L 1006 -909 
L 341 -909 
L 653 256 
L 653 1209 
z
" transform="scale(0.015625)"/>
     <path id="DejaVuSans-Bold-6d" d="M 3781 2919 
Q 3994 3244 4286 3414 
Q 4578 3584 4928 3584 
Q 5531 3584 5847 3212 
Q 6163 2841 6163 2131 
L 6163 0 
L 5038 0 
L 5038 1825 
Q 5041 1866 5042 1909 
Q 5044 1953 5044 2034 
Q 5044 2406 4934 2573 
Q 4825 2741 4581 2741 
Q 4263 2741 4089 2478 
Q 3916 2216 3909 1719 
L 3909 0 
L 2784 0 
L 2784 1825 
Q 2784 2406 2684 2573 
Q 2584 2741 2328 2741 
Q 2006 2741 1831 2477 
Q 1656 2213 1656 1722 
L 1656 0 
L 531 0 
L 531 3500 
L 1656 3500 
L 1656 2988 
Q 1863 3284 2130 3434 
Q 2397 3584 2719 3584 
Q 3081 3584 3359 3409 
Q 3638 3234 3781 2919 
z
" transform="scale(0.015625)"/>
     <path id="DejaVuSans-Bold-69" d="M 538 3500 
L 1656 3500 
L 1656 0 
L 538 0 
L 538 3500 
z
M 538 4863 
L 1656 4863 
L 1656 3950 
L 538 3950 
L 538 4863 
z
" transform="scale(0.015625)"/>
     <path id="DejaVuSans-Bold-63" d="M 3366 3391 
L 3366 2478 
Q 3138 2634 2908 2709 
Q 2678 2784 2431 2784 
Q 1963 2784 1702 2511 
Q 1441 2238 1441 1747 
Q 1441 1256 1702 982 
Q 1963 709 2431 709 
Q 2694 709 2930 787 
Q 3166 866 3366 1019 
L 3366 103 
Q 3103 6 2833 -42 
Q 2563 -91 2291 -91 
Q 1344 -91 809 395 
Q 275 881 275 1747 
Q 275 2613 809 3098 
Q 1344 3584 2291 3584 
Q 2566 3584 2833 3536 
Q 3100 3488 3366 3391 
z
" transform="scale(0.015625)"/>
     <path id="DejaVuSans-Bold-3a" d="M 716 3500 
L 1844 3500 
L 1844 2291 
L 716 2291 
L 716 3500 
z
M 716 1209 
L 1844 1209 
L 1844 0 
L 716 0 
L 716 1209 
z
" transform="scale(0.015625)"/>
     <path id="DejaVuSans-Bold-70" d="M 1656 506 
L 1656 -1331 
L 538 -1331 
L 538 3500 
L 1656 3500 
L 1656 2988 
Q 1888 3294 2169 3439 
Q 2450 3584 2816 3584 
Q 3463 3584 3878 3070 
Q 4294 2556 4294 1747 
Q 4294 938 3878 423 
Q 3463 -91 2816 -91 
Q 2450 -91 2169 54 
Q 1888 200 1656 506 
z
M 2400 2772 
Q 2041 2772 1848 2508 
Q 1656 2244 1656 1747 
Q 1656 1250 1848 986 
Q 2041 722 2400 722 
Q 2759 722 2948 984 
Q 3138 1247 3138 1747 
Q 3138 2247 2948 2509 
Q 2759 2772 2400 2772 
z
" transform="scale(0.015625)"/>
     <path id="DejaVuSans-Bold-72" d="M 3138 2547 
Q 2991 2616 2845 2648 
Q 2700 2681 2553 2681 
Q 2122 2681 1889 2404 
Q 1656 2128 1656 1613 
L 1656 0 
L 538 0 
L 538 3500 
L 1656 3500 
L 1656 2925 
Q 1872 3269 2151 3426 
Q 2431 3584 2822 3584 
Q 2878 3584 2943 3579 
Q 3009 3575 3134 3559 
L 3138 2547 
z
" transform="scale(0.015625)"/>
     <path id="DejaVuSans-Bold-62" d="M 2400 722 
Q 2759 722 2948 984 
Q 3138 1247 3138 1747 
Q 3138 2247 2948 2509 
Q 2759 2772 2400 2772 
Q 2041 2772 1848 2508 
Q 1656 2244 1656 1747 
Q 1656 1250 1848 986 
Q 2041 722 2400 722 
z
M 1656 2988 
Q 1888 3294 2169 3439 
Q 2450 3584 2816 3584 
Q 3463 3584 3878 3070 
Q 4294 2556 4294 1747 
Q 4294 938 3878 423 
Q 3463 -91 2816 -91 
Q 2450 -91 2169 54 
Q 1888 200 1656 506 
L 1656 0 
L 538 0 
L 538 4863 
L 1656 4863 
L 1656 2988 
z
" transform="scale(0.015625)"/>
     <path id="DejaVuSans-Bold-31" d="M 750 831 
L 1813 831 
L 1813 3847 
L 722 3622 
L 722 4441 
L 1806 4666 
L 2950 4666 
L 2950 831 
L 4013 831 
L 4013 0 
L 750 0 
L 750 831 
z
" transform="scale(0.015625)"/>
     <path id="DejaVuSans-Bold-2e" d="M 653 1209 
L 1778 1209 
L 1778 0 
L 653 0 
L 653 1209 
z
" transform="scale(0.015625)"/>
     <path id="DejaVuSans-Bold-4d" d="M 588 4666 
L 2119 4666 
L 3181 2169 
L 4250 4666 
L 5778 4666 
L 5778 0 
L 4641 0 
L 4641 3413 
L 3566 897 
L 2803 897 
L 1728 3413 
L 1728 0 
L 588 0 
L 588 4666 
z
" transform="scale(0.015625)"/>
     <path id="DejaVuSans-Bold-4f" d="M 2719 3878 
Q 2169 3878 1866 3472 
Q 1563 3066 1563 2328 
Q 1563 1594 1866 1187 
Q 2169 781 2719 781 
Q 3272 781 3575 1187 
Q 3878 1594 3878 2328 
Q 3878 3066 3575 3472 
Q 3272 3878 2719 3878 
z
M 2719 4750 
Q 3844 4750 4481 4106 
Q 5119 3463 5119 2328 
Q 5119 1197 4481 553 
Q 3844 -91 2719 -91 
Q 1597 -91 958 553 
Q 319 1197 319 2328 
Q 319 3463 958 4106 
Q 1597 4750 2719 4750 
z
" transform="scale(0.015625)"/>
     <path id="DejaVuSans-Bold-56" d="M 31 4666 
L 1241 4666 
L 2478 1222 
L 3713 4666 
L 4922 4666 
L 3194 0 
L 1759 0 
L 31 4666 
z
" transform="scale(0.015625)"/>
     <path id="DejaVuSans-Bold-28" d="M 2413 -844 
L 1484 -844 
Q 1006 -72 778 623 
Q 550 1319 550 2003 
Q 550 2688 779 3389 
Q 1009 4091 1484 4856 
L 2413 4856 
Q 2013 4116 1813 3408 
Q 1613 2700 1613 2009 
Q 1613 1319 1811 609 
Q 2009 -100 2413 -844 
z
" transform="scale(0.015625)"/>
     <path id="DejaVuSans-Bold-76" d="M 97 3500 
L 1216 3500 
L 2088 1081 
L 2956 3500 
L 4078 3500 
L 2700 0 
L 1472 0 
L 97 3500 
z
" transform="scale(0.015625)"/>
     <path id="DejaVuSans-Bold-64" d="M 2919 2988 
L 2919 4863 
L 4044 4863 
L 4044 0 
L 2919 0 
L 2919 506 
Q 2688 197 2409 53 
Q 2131 -91 1766 -91 
Q 1119 -91 703 423 
Q 288 938 288 1747 
Q 288 2556 703 3070 
Q 1119 3584 1766 3584 
Q 2128 3584 2408 3439 
Q 2688 3294 2919 2988 
z
M 2181 722 
Q 2541 722 2730 984 
Q 2919 1247 2919 1747 
Q 2919 2247 2730 2509 
Q 2541 2772 2181 2772 
Q 1825 2772 1636 2509 
Q 1447 2247 1447 1747 
Q 1447 1247 1636 984 
Q 1825 722 2181 722 
z
" transform="scale(0.015625)"/>
     <path id="DejaVuSans-Bold-33" d="M 2981 2516 
Q 3453 2394 3698 2092 
Q 3944 1791 3944 1325 
Q 3944 631 3412 270 
Q 2881 -91 1863 -91 
Q 1503 -91 1142 -33 
Q 781 25 428 141 
L 428 1069 
Q 766 900 1098 814 
Q 1431 728 1753 728 
Q 2231 728 2486 893 
Q 2741 1059 2741 1369 
Q 2741 1688 2480 1852 
Q 2219 2016 1709 2016 
L 1228 2016 
L 1228 2791 
L 1734 2791 
Q 2188 2791 2409 2933 
Q 2631 3075 2631 3366 
Q 2631 3634 2415 3781 
Q 2200 3928 1806 3928 
Q 1516 3928 1219 3862 
Q 922 3797 628 3669 
L 628 4550 
Q 984 4650 1334 4700 
Q 1684 4750 2022 4750 
Q 2931 4750 3382 4451 
Q 3834 4153 3834 3553 
Q 3834 3144 3618 2883 
Q 3403 2622 2981 2516 
z
" transform="scale(0.015625)"/>
     <path id="DejaVuSans-Bold-30" d="M 2944 2338 
Q 2944 3213 2780 3570 
Q 2616 3928 2228 3928 
Q 1841 3928 1675 3570 
Q 1509 3213 1509 2338 
Q 1509 1453 1675 1090 
Q 1841 728 2228 728 
Q 2613 728 2778 1090 
Q 2944 1453 2944 2338 
z
M 4147 2328 
Q 4147 1169 3647 539 
Q 3147 -91 2228 -91 
Q 1306 -91 806 539 
Q 306 1169 306 2328 
Q 306 3491 806 4120 
Q 1306 4750 2228 4750 
Q 3147 4750 3647 4120 
Q 4147 3491 4147 2328 
z
" transform="scale(0.015625)"/>
     <path id="DejaVuSans-Bold-29" d="M 513 -844 
Q 913 -100 1113 609 
Q 1313 1319 1313 2009 
Q 1313 2700 1113 3408 
Q 913 4116 513 4856 
L 1441 4856 
Q 1916 4091 2145 3389 
Q 2375 2688 2375 2003 
Q 2375 1319 2147 623 
Q 1919 -72 1441 -844 
L 513 -844 
z
" transform="scale(0.015625)"/>
    </defs>
    <use xlink:href="#DejaVuSans-Bold-46"/>
    <use xlink:href="#DejaVuSans-Bold-6c" transform="translate(68.310547 0)"/>
    <use xlink:href="#DejaVuSans-Bold-79" transform="translate(102.587891 0)"/>
    <use xlink:href="#DejaVuSans-Bold-2d" transform="translate(167.773438 0)"/>
    <use xlink:href="#DejaVuSans-Bold-6f" transform="translate(209.277344 0)"/>
    <use xlink:href="#DejaVuSans-Bold-75" transform="translate(277.978516 0)"/>
    <use xlink:href="#DejaVuSans-Bold-74" transform="translate(349.169922 0)"/>
    <use xlink:href="#DejaVuSans-Bold-20" transform="translate(396.972656 0)"/>
    <use xlink:href="#DejaVuSans-Bold-61" transform="translate(431.787109 0)"/>
    <use xlink:href="#DejaVuSans-Bold-6e" transform="translate(499.267578 0)"/>
    <use xlink:href="#DejaVuSans-Bold-67" transform="translate(570.458984 0)"/>
    <use xlink:href="#DejaVuSans-Bold-6c" transform="translate(642.041016 0)"/>
    <use xlink:href="#DejaVuSans-Bold-65" transform="translate(676.318359 0)"/>
    <use xlink:href="#DejaVuSans-Bold-2c" transform="translate(744.140625 0)"/>
    <use xlink:href="#DejaVuSans-Bold-20" transform="translate(782.128906 0)"/>
    <use xlink:href="#DejaVuSans-Bold-61" transform="translate(816.943359 0)"/>
    <use xlink:href="#DejaVuSans-Bold-75" transform="translate(884.423828 0)"/>
    <use xlink:href="#DejaVuSans-Bold-74" transform="translate(955.615234 0)"/>
    <use xlink:href="#DejaVuSans-Bold-6f" transform="translate(1003.417969 0)"/>
    <use xlink:href="#DejaVuSans-Bold-6d" transform="translate(1072.119141 0)"/>
    <use xlink:href="#DejaVuSans-Bold-61" transform="translate(1176.318359 0)"/>
    <use xlink:href="#DejaVuSans-Bold-74" transform="translate(1243.798828 0)"/>
    <use xlink:href="#DejaVuSans-Bold-69" transform="translate(1291.601562 0)"/>
    <use xlink:href="#DejaVuSans-Bold-63" transform="translate(1325.878906 0)"/>
    <use xlink:href="#DejaVuSans-Bold-3a" transform="translate(1385.15625 0)"/>
    <use xlink:href="#DejaVuSans-Bold-20" transform="translate(1425.146484 0)"/>
    <use xlink:href="#DejaVuSans-Bold-70" transform="translate(1459.960938 0)"/>
    <use xlink:href="#DejaVuSans-Bold-72" transform="translate(1531.542969 0)"/>
    <use xlink:href="#DejaVuSans-Bold-6f" transform="translate(1580.859375 0)"/>
    <use xlink:href="#DejaVuSans-Bold-62" transform="translate(1649.560547 0)"/>
    <use xlink:href="#DejaVuSans-Bold-61" transform="translate(1721.142578 0)"/>
    <use xlink:href="#DejaVuSans-Bold-62" transform="translate(1788.623047 0)"/>
    <use xlink:href="#DejaVuSans-Bold-6c" transform="translate(1860.205078 0)"/>
    <use xlink:href="#DejaVuSans-Bold-79" transform="translate(1894.482422 0)"/>
    <use xlink:href="#DejaVuSans-Bold-20" transform="translate(1959.667969 0)"/>
    <use xlink:href="#DejaVuSans-Bold-74" transform="translate(1994.482422 0)"/>
    <use xlink:href="#DejaVuSans-Bold-72" transform="translate(2042.285156 0)"/>
    <use xlink:href="#DejaVuSans-Bold-69" transform="translate(2091.601562 0)"/>
    <use xlink:href="#DejaVuSans-Bold-61" transform="translate(2125.878906 0)"/>
    <use xlink:href="#DejaVuSans-Bold-6c" transform="translate(2193.359375 0)"/>
    <use xlink:href="#DejaVuSans-Bold-20" transform="translate(2227.636719 0)"/>
    <use xlink:href="#DejaVuSans-Bold-31" transform="translate(2262.451172 0)"/>
    <use xlink:href="#DejaVuSans-Bold-2e" transform="translate(2332.03125 0)"/>
    <use xlink:href="#DejaVuSans-Bold-4d" transform="translate(2370.019531 0)"/>
    <use xlink:href="#DejaVuSans-Bold-4f" transform="translate(2469.53125 0)"/>
    <use xlink:href="#DejaVuSans-Bold-56" transform="translate(2551.916016 0)"/>
    <use xlink:href="#DejaVuSans-Bold-20" transform="translate(2629.308594 0)"/>
    <use xlink:href="#DejaVuSans-Bold-20" transform="translate(2664.123047 0)"/>
    <use xlink:href="#DejaVuSans-Bold-20" transform="translate(2698.9375 0)"/>
    <use xlink:href="#DejaVuSans-Bold-28" transform="translate(2733.751953 0)"/>
    <use xlink:href="#DejaVuSans-Bold-65" transform="translate(2779.455078 0)"/>
    <use xlink:href="#DejaVuSans-Bold-6c" transform="translate(2847.277344 0)"/>
    <use xlink:href="#DejaVuSans-Bold-65" transform="translate(2881.554688 0)"/>
    <use xlink:href="#DejaVuSans-Bold-76" transform="translate(2949.376953 0)"/>
    <use xlink:href="#DejaVuSans-Bold-61" transform="translate(3014.5625 0)"/>
    <use xlink:href="#DejaVuSans-Bold-74" transform="translate(3082.042969 0)"/>
    <use xlink:href="#DejaVuSans-Bold-69" transform="translate(3129.845703 0)"/>
    <use xlink:href="#DejaVuSans-Bold-6f" transform="translate(3164.123047 0)"/>
    <use xlink:href="#DejaVuSans-Bold-6e" transform="translate(3232.824219 0)"/>
    <use xlink:href="#DejaVuSans-Bold-2d" transform="translate(3304.015625 0)"/>
    <use xlink:href="#DejaVuSans-Bold-63" transform="translate(3345.519531 0)"/>
    <use xlink:href="#DejaVuSans-Bold-6f" transform="translate(3404.796875 0)"/>
    <use xlink:href="#DejaVuSans-Bold-72" transform="translate(3473.498047 0)"/>
    <use xlink:href="#DejaVuSans-Bold-72" transform="translate(3522.814453 0)"/>
    <use xlink:href="#DejaVuSans-Bold-65" transform="translate(3572.130859 0)"/>
    <use xlink:href="#DejaVuSans-Bold-63" transform="translate(3639.953125 0)"/>
    <use xlink:href="#DejaVuSans-Bold-74" transform="translate(3699.230469 0)"/>
    <use xlink:href="#DejaVuSans-Bold-65" transform="translate(3747.033203 0)"/>
    <use xlink:href="#DejaVuSans-Bold-64" transform="translate(3814.855469 0)"/>
    <use xlink:href="#DejaVuSans-Bold-20" transform="translate(3886.4375 0)"/>
    <use xlink:href="#DejaVuSans-Bold-33" transform="translate(3921.251953 0)"/>
    <use xlink:href="#DejaVuSans-Bold-30" transform="translate(3990.832031 0)"/>
    <use xlink:href="#DejaVuSans-Bold-20" transform="translate(4060.412109 0)"/>
    <use xlink:href="#DejaVuSans-Bold-64" transform="translate(4095.226562 0)"/>
    <use xlink:href="#DejaVuSans-Bold-65" transform="translate(4166.808594 0)"/>
    <use xlink:href="#DejaVuSans-Bold-67" transform="translate(4234.630859 0)"/>
    <use xlink:href="#DejaVuSans-Bold-29" transform="translate(4306.212891 0)"/>
   </g>
  </g>
 </g>
 <defs>
  <clipPath id="pb67452efd9">
   <rect x="36.403365" y="20.70822" width="752.596395" height="184.217405"/>
  </clipPath>
  <clipPath id="pf30641a7e1">
   <rect x="36.403365" y="214.426105" width="752.596395" height="184.217405"/>
  </clipPath>
 </defs>
</svg>
