<?xml version="1.0" encoding="utf-8" standalone="no"?>
<!DOCTYPE svg PUBLIC "-//W3C//DTD SVG 1.1//EN"
  "http://www.w3.org/Graphics/SVG/1.1/DTD/svg11.dtd">
<svg xmlns:xlink="http://www.w3.org/1999/xlink" width="792pt" height="302.4pt" viewBox="0 0 792 302.4" xmlns="http://www.w3.org/2000/svg" version="1.1">
 <metadata>
  <rdf:RDF xmlns:dc="http://purl.org/dc/elements/1.1/" xmlns:cc="http://creativecommons.org/ns#" xmlns:rdf="http://www.w3.org/1999/02/22-rdf-syntax-ns#">
   <cc:Work>
    <dc:type rdf:resource="http://purl.org/dc/dcmitype/StillImage"/>
    <dc:date>2026-07-15T21:27:37.124188</dc:date>
    <dc:format>image/svg+xml</dc:format>
    <dc:creator>
     <cc:Agent>
      <dc:title>Matplotlib v3.10.3, https://matplotlib.org/</dc:title>
     </cc:Agent>
    </dc:creator>
   </cc:Work>
  </rdf:RDF>
 </metadata>
 <defs>
  <style type="text/css">*{stroke-linejoin: round; stroke-linecap: butt}</style>
 </defs>
 <g id="figure_1">
  <g id="patch_1">
   <path d="M 0 302.4 
L 792 302.4 
L 792 0 
L 0 0 
z
" style="fill: #ffffff"/>
  </g>
  <g id="axes_1">
   <g id="patch_2">
    <path d="M 36.403365 269.04351 
L 788.99976 269.04351 
L 788.99976 20.61447 
L 36.403365 20.61447 
z
" style="fill: #ffffff"/>
   </g>
   <g id="matplotlib.axis_1">
    <g id="xtick_1">
     <g id="line2d_1">
      <path d="M 36.403365 269.04351 
L 36.403365 20.61447 
" clip-path="url(#p67ff8c3dd2)" style="fill: none; stroke: #ededed; stroke-width: 0.6; stroke-linecap: square"/>
     </g>
     <g id="line2d_2">
      <defs>
       <path id="md7125c30d9" d="M 0 0 
L 0 3.5 
" style="stroke: #000000; stroke-width: 0.8"/>
      </defs>
      <g>
       <use xlink:href="#md7125c30d9" x="36.403365" y="269.04351" style="stroke: #000000; stroke-width: 0.8"/>
      </g>
     </g>
     <g id="text_1">
      <!-- 0 -->
      <g transform="translate(33.222115 283.641948) scale(0.1 -0.1)">
       <defs>
        <path id="DejaVuSans-30" d="M 2034 4250 
Q 1547 4250 1301 3770 
Q 1056 3291 1056 2328 
Q 1056 1369 1301 889 
Q 1547 409 2034 409 
Q 2525 409 2770 889 
Q 3016 1369 3016 2328 
Q 3016 3291 2770 3770 
Q 2525 4250 2034 4250 
z
M 2034 4750 
Q 2819 4750 3233 4129 
Q 3647 3509 3647 2328 
Q 3647 1150 3233 529 
Q 2819 -91 2034 -91 
Q 1250 -91 836 529 
Q 422 1150 422 2328 
Q 422 3509 836 4129 
Q 1250 4750 2034 4750 
z
" transform="scale(0.015625)"/>
       </defs>
       <use xlink:href="#DejaVuSans-30"/>
      </g>
     </g>
    </g>
    <g id="xtick_2">
     <g id="line2d_3">
      <path d="M 138.381196 269.04351 
L 138.381196 20.61447 
" clip-path="url(#p67ff8c3dd2)" style="fill: none; stroke: #ededed; stroke-width: 0.6; stroke-linecap: square"/>
     </g>
     <g id="line2d_4">
      <g>
       <use xlink:href="#md7125c30d9" x="138.381196" y="269.04351" style="stroke: #000000; stroke-width: 0.8"/>
      </g>
     </g>
     <g id="text_2">
      <!-- 25 -->
      <g transform="translate(132.018696 283.641948) scale(0.1 -0.1)">
       <defs>
        <path id="DejaVuSans-32" d="M 1228 531 
L 3431 531 
L 3431 0 
L 469 0 
L 469 531 
Q 828 903 1448 1529 
Q 2069 2156 2228 2338 
Q 2531 2678 2651 2914 
Q 2772 3150 2772 3378 
Q 2772 3750 2511 3984 
Q 2250 4219 1831 4219 
Q 1534 4219 1204 4116 
Q 875 4013 500 3803 
L 500 4441 
Q 881 4594 1212 4672 
Q 1544 4750 1819 4750 
Q 2544 4750 2975 4387 
Q 3406 4025 3406 3419 
Q 3406 3131 3298 2873 
Q 3191 2616 2906 2266 
Q 2828 2175 2409 1742 
Q 1991 1309 1228 531 
z
" transform="scale(0.015625)"/>
        <path id="DejaVuSans-35" d="M 691 4666 
L 3169 4666 
L 3169 4134 
L 1269 4134 
L 1269 2991 
Q 1406 3038 1543 3061 
Q 1681 3084 1819 3084 
Q 2600 3084 3056 2656 
Q 3513 2228 3513 1497 
Q 3513 744 3044 326 
Q 2575 -91 1722 -91 
Q 1428 -91 1123 -41 
Q 819 9 494 109 
L 494 744 
Q 775 591 1075 516 
Q 1375 441 1709 441 
Q 2250 441 2565 725 
Q 2881 1009 2881 1497 
Q 2881 1984 2565 2268 
Q 2250 2553 1709 2553 
Q 1456 2553 1204 2497 
Q 953 2441 691 2322 
L 691 4666 
z
" transform="scale(0.015625)"/>
       </defs>
       <use xlink:href="#DejaVuSans-32"/>
       <use xlink:href="#DejaVuSans-35" transform="translate(63.623047 0)"/>
      </g>
     </g>
    </g>
    <g id="xtick_3">
     <g id="line2d_5">
      <path d="M 240.359028 269.04351 
L 240.359028 20.61447 
" clip-path="url(#p67ff8c3dd2)" style="fill: none; stroke: #ededed; stroke-width: 0.6; stroke-linecap: square"/>
     </g>
     <g id="line2d_6">
      <g>
       <use xlink:href="#md7125c30d9" x="240.359028" y="269.04351" style="stroke: #000000; stroke-width: 0.8"/>
      </g>
     </g>
     <g id="text_3">
      <!-- 50 -->
      <g transform="translate(233.996528 283.641948) scale(0.1 -0.1)">
       <use xlink:href="#DejaVuSans-35"/>
       <use xlink:href="#DejaVuSans-30" transform="translate(63.623047 0)"/>
      </g>
     </g>
    </g>
    <g id="xtick_4">
     <g id="line2d_7">
      <path d="M 342.336859 269.04351 
L 342.336859 20.61447 
" clip-path="url(#p67ff8c3dd2)" style="fill: none; stroke: #ededed; stroke-width: 0.6; stroke-linecap: square"/>
     </g>
     <g id="line2d_8">
      <g>
       <use xlink:href="#md7125c30d9" x="342.336859" y="269.04351" style="stroke: #000000; stroke-width: 0.8"/>
      </g>
     </g>
     <g id="text_4">
      <!-- 75 -->
      <g transform="translate(335.974359 283.641948) scale(0.1 -0.1)">
       <defs>
        <path id="DejaVuSans-37" d="M 525 4666 
L 3525 4666 
L 3525 4397 
L 1831 0 
L 1172 0 
L 2766 4134 
L 525 4134 
L 525 4666 
z
" transform="scale(0.015625)"/>
       </defs>
       <use xlink:href="#DejaVuSans-37"/>
       <use xlink:href="#DejaVuSans-35" transform="translate(63.623047 0)"/>
      </g>
     </g>
    </g>
    <g id="xtick_5">
     <g id="line2d_9">
      <path d="M 444.31469 269.04351 
L 444.31469 20.61447 
" clip-path="url(#p67ff8c3dd2)" style="fill: none; stroke: #ededed; stroke-width: 0.6; stroke-linecap: square"/>
     </g>
     <g id="line2d_10">
      <g>
       <use xlink:href="#md7125c30d9" x="444.31469" y="269.04351" style="stroke: #000000; stroke-width: 0.8"/>
      </g>
     </g>
     <g id="text_5">
      <!-- 100 -->
      <g transform="translate(434.77094 283.641948) scale(0.1 -0.1)">
       <defs>
        <path id="DejaVuSans-31" d="M 794 531 
L 1825 531 
L 1825 4091 
L 703 3866 
L 703 4441 
L 1819 4666 
L 2450 4666 
L 2450 531 
L 3481 531 
L 3481 0 
L 794 0 
L 794 531 
z
" transform="scale(0.015625)"/>
       </defs>
       <use xlink:href="#DejaVuSans-31"/>
       <use xlink:href="#DejaVuSans-30" transform="translate(63.623047 0)"/>
       <use xlink:href="#DejaVuSans-30" transform="translate(127.246094 0)"/>
      </g>
     </g>
    </g>
    <g id="xtick_6">
     <g id="line2d_11">
      <path d="M 546.292522 269.04351 
L 546.292522 20.61447 
" clip-path="url(#p67ff8c3dd2)" style="fill: none; stroke: #ededed; stroke-width: 0.6; stroke-linecap: square"/>
     </g>
     <g id="line2d_12">
      <g>
       <use xlink:href="#md7125c30d9" x="546.292522" y="269.04351" style="stroke: #000000; stroke-width: 0.8"/>
      </g>
     </g>
     <g id="text_6">
      <!-- 125 -->
      <g transform="translate(536.748772 283.641948) scale(0.1 -0.1)">
       <use xlink:href="#DejaVuSans-31"/>
       <use xlink:href="#DejaVuSans-32" transform="translate(63.623047 0)"/>
       <use xlink:href="#DejaVuSans-35" transform="translate(127.246094 0)"/>
      </g>
     </g>
    </g>
    <g id="xtick_7">
     <g id="line2d_13">
      <path d="M 648.270353 269.04351 
L 648.270353 20.61447 
" clip-path="url(#p67ff8c3dd2)" style="fill: none; stroke: #ededed; stroke-width: 0.6; stroke-linecap: square"/>
     </g>
     <g id="line2d_14">
      <g>
       <use xlink:href="#md7125c30d9" x="648.270353" y="269.04351" style="stroke: #000000; stroke-width: 0.8"/>
      </g>
     </g>
     <g id="text_7">
      <!-- 150 -->
      <g transform="translate(638.726603 283.641948) scale(0.1 -0.1)">
       <use xlink:href="#DejaVuSans-31"/>
       <use xlink:href="#DejaVuSans-35" transform="translate(63.623047 0)"/>
       <use xlink:href="#DejaVuSans-30" transform="translate(127.246094 0)"/>
      </g>
     </g>
    </g>
    <g id="xtick_8">
     <g id="line2d_15">
      <path d="M 750.248184 269.04351 
L 750.248184 20.61447 
" clip-path="url(#p67ff8c3dd2)" style="fill: none; stroke: #ededed; stroke-width: 0.6; stroke-linecap: square"/>
     </g>
     <g id="line2d_16">
      <g>
       <use xlink:href="#md7125c30d9" x="750.248184" y="269.04351" style="stroke: #000000; stroke-width: 0.8"/>
      </g>
     </g>
     <g id="text_8">
      <!-- 175 -->
      <g transform="translate(740.704434 283.641948) scale(0.1 -0.1)">
       <use xlink:href="#DejaVuSans-31"/>
       <use xlink:href="#DejaVuSans-37" transform="translate(63.623047 0)"/>
       <use xlink:href="#DejaVuSans-35" transform="translate(127.246094 0)"/>
      </g>
     </g>
    </g>
    <g id="text_9">
     <!-- time (s, video clock) -->
     <g transform="translate(362.042187 297.320073) scale(0.1 -0.1)">
      <defs>
       <path id="DejaVuSans-74" d="M 1172 4494 
L 1172 3500 
L 2356 3500 
L 2356 3053 
L 1172 3053 
L 1172 1153 
Q 1172 725 1289 603 
Q 1406 481 1766 481 
L 2356 481 
L 2356 0 
L 1766 0 
Q 1100 0 847 248 
Q 594 497 594 1153 
L 594 3053 
L 172 3053 
L 172 3500 
L 594 3500 
L 594 4494 
L 1172 4494 
z
" transform="scale(0.015625)"/>
       <path id="DejaVuSans-69" d="M 603 3500 
L 1178 3500 
L 1178 0 
L 603 0 
L 603 3500 
z
M 603 4863 
L 1178 4863 
L 1178 4134 
L 603 4134 
L 603 4863 
z
" transform="scale(0.015625)"/>
       <path id="DejaVuSans-6d" d="M 3328 2828 
Q 3544 3216 3844 3400 
Q 4144 3584 4550 3584 
Q 5097 3584 5394 3201 
Q 5691 2819 5691 2113 
L 5691 0 
L 5113 0 
L 5113 2094 
Q 5113 2597 4934 2840 
Q 4756 3084 4391 3084 
Q 3944 3084 3684 2787 
Q 3425 2491 3425 1978 
L 3425 0 
L 2847 0 
L 2847 2094 
Q 2847 2600 2669 2842 
Q 2491 3084 2119 3084 
Q 1678 3084 1418 2786 
Q 1159 2488 1159 1978 
L 1159 0 
L 581 0 
L 581 3500 
L 1159 3500 
L 1159 2956 
Q 1356 3278 1631 3431 
Q 1906 3584 2284 3584 
Q 2666 3584 2933 3390 
Q 3200 3197 3328 2828 
z
" transform="scale(0.015625)"/>
       <path id="DejaVuSans-65" d="M 3597 1894 
L 3597 1613 
L 953 1613 
Q 991 1019 1311 708 
Q 1631 397 2203 397 
Q 2534 397 2845 478 
Q 3156 559 3463 722 
L 3463 178 
Q 3153 47 2828 -22 
Q 2503 -91 2169 -91 
Q 1331 -91 842 396 
Q 353 884 353 1716 
Q 353 2575 817 3079 
Q 1281 3584 2069 3584 
Q 2775 3584 3186 3129 
Q 3597 2675 3597 1894 
z
M 3022 2063 
Q 3016 2534 2758 2815 
Q 2500 3097 2075 3097 
Q 1594 3097 1305 2825 
Q 1016 2553 972 2059 
L 3022 2063 
z
" transform="scale(0.015625)"/>
       <path id="DejaVuSans-20" transform="scale(0.015625)"/>
       <path id="DejaVuSans-28" d="M 1984 4856 
Q 1566 4138 1362 3434 
Q 1159 2731 1159 2009 
Q 1159 1288 1364 580 
Q 1569 -128 1984 -844 
L 1484 -844 
Q 1016 -109 783 600 
Q 550 1309 550 2009 
Q 550 2706 781 3412 
Q 1013 4119 1484 4856 
L 1984 4856 
z
" transform="scale(0.015625)"/>
       <path id="DejaVuSans-73" d="M 2834 3397 
L 2834 2853 
Q 2591 2978 2328 3040 
Q 2066 3103 1784 3103 
Q 1356 3103 1142 2972 
Q 928 2841 928 2578 
Q 928 2378 1081 2264 
Q 1234 2150 1697 2047 
L 1894 2003 
Q 2506 1872 2764 1633 
Q 3022 1394 3022 966 
Q 3022 478 2636 193 
Q 2250 -91 1575 -91 
Q 1294 -91 989 -36 
Q 684 19 347 128 
L 347 722 
Q 666 556 975 473 
Q 1284 391 1588 391 
Q 1994 391 2212 530 
Q 2431 669 2431 922 
Q 2431 1156 2273 1281 
Q 2116 1406 1581 1522 
L 1381 1569 
Q 847 1681 609 1914 
Q 372 2147 372 2553 
Q 372 3047 722 3315 
Q 1072 3584 1716 3584 
Q 2034 3584 2315 3537 
Q 2597 3491 2834 3397 
z
" transform="scale(0.015625)"/>
       <path id="DejaVuSans-2c" d="M 750 794 
L 1409 794 
L 1409 256 
L 897 -744 
L 494 -744 
L 750 256 
L 750 794 
z
" transform="scale(0.015625)"/>
       <path id="DejaVuSans-76" d="M 191 3500 
L 800 3500 
L 1894 563 
L 2988 3500 
L 3597 3500 
L 2284 0 
L 1503 0 
L 191 3500 
z
" transform="scale(0.015625)"/>
       <path id="DejaVuSans-64" d="M 2906 2969 
L 2906 4863 
L 3481 4863 
L 3481 0 
L 2906 0 
L 2906 525 
Q 2725 213 2448 61 
Q 2172 -91 1784 -91 
Q 1150 -91 751 415 
Q 353 922 353 1747 
Q 353 2572 751 3078 
Q 1150 3584 1784 3584 
Q 2172 3584 2448 3432 
Q 2725 3281 2906 2969 
z
M 947 1747 
Q 947 1113 1208 752 
Q 1469 391 1925 391 
Q 2381 391 2643 752 
Q 2906 1113 2906 1747 
Q 2906 2381 2643 2742 
Q 2381 3103 1925 3103 
Q 1469 3103 1208 2742 
Q 947 2381 947 1747 
z
" transform="scale(0.015625)"/>
       <path id="DejaVuSans-6f" d="M 1959 3097 
Q 1497 3097 1228 2736 
Q 959 2375 959 1747 
Q 959 1119 1226 758 
Q 1494 397 1959 397 
Q 2419 397 2687 759 
Q 2956 1122 2956 1747 
Q 2956 2369 2687 2733 
Q 2419 3097 1959 3097 
z
M 1959 3584 
Q 2709 3584 3137 3096 
Q 3566 2609 3566 1747 
Q 3566 888 3137 398 
Q 2709 -91 1959 -91 
Q 1206 -91 779 398 
Q 353 888 353 1747 
Q 353 2609 779 3096 
Q 1206 3584 1959 3584 
z
" transform="scale(0.015625)"/>
       <path id="DejaVuSans-63" d="M 3122 3366 
L 3122 2828 
Q 2878 2963 2633 3030 
Q 2388 3097 2138 3097 
Q 1578 3097 1268 2742 
Q 959 2388 959 1747 
Q 959 1106 1268 751 
Q 1578 397 2138 397 
Q 2388 397 2633 464 
Q 2878 531 3122 666 
L 3122 134 
Q 2881 22 2623 -34 
Q 2366 -91 2075 -91 
Q 1284 -91 818 406 
Q 353 903 353 1747 
Q 353 2603 823 3093 
Q 1294 3584 2113 3584 
Q 2378 3584 2631 3529 
Q 2884 3475 3122 3366 
z
" transform="scale(0.015625)"/>
       <path id="DejaVuSans-6c" d="M 603 4863 
L 1178 4863 
L 1178 0 
L 603 0 
L 603 4863 
z
" transform="scale(0.015625)"/>
       <path id="DejaVuSans-6b" d="M 581 4863 
L 1159 4863 
L 1159 1991 
L 2875 3500 
L 3609 3500 
L 1753 1863 
L 3688 0 
L 2938 0 
L 1159 1709 
L 1159 0 
L 581 0 
L 581 4863 
z
" transform="scale(0.015625)"/>
       <path id="DejaVuSans-29" d="M 513 4856 
L 1013 4856 
Q 1481 4119 1714 3412 
Q 1947 2706 1947 2009 
Q 1947 1309 1714 600 
Q 1481 -109 1013 -844 
L 513 -844 
Q 928 -128 1133 580 
Q 1338 1288 1338 2009 
Q 1338 2731 1133 3434 
Q 928 4138 513 4856 
z
" transform="scale(0.015625)"/>
      </defs>
      <use xlink:href="#DejaVuSans-74"/>
      <use xlink:href="#DejaVuSans-69" transform="translate(39.208984 0)"/>
      <use xlink:href="#DejaVuSans-6d" transform="translate(66.992188 0)"/>
      <use xlink:href="#DejaVuSans-65" transform="translate(164.404297 0)"/>
      <use xlink:href="#DejaVuSans-20" transform="translate(225.927734 0)"/>
      <use xlink:href="#DejaVuSans-28" transform="translate(257.714844 0)"/>
      <use xlink:href="#DejaVuSans-73" transform="translate(296.728516 0)"/>
      <use xlink:href="#DejaVuSans-2c" transform="translate(348.828125 0)"/>
      <use xlink:href="#DejaVuSans-20" transform="translate(380.615234 0)"/>
      <use xlink:href="#DejaVuSans-76" transform="translate(412.402344 0)"/>
      <use xlink:href="#DejaVuSans-69" transform="translate(471.582031 0)"/>
      <use xlink:href="#DejaVuSans-64" transform="translate(499.365234 0)"/>
      <use xlink:href="#DejaVuSans-65" transform="translate(562.841797 0)"/>
      <use xlink:href="#DejaVuSans-6f" transform="translate(624.365234 0)"/>
      <use xlink:href="#DejaVuSans-20" transform="translate(685.546875 0)"/>
      <use xlink:href="#DejaVuSans-63" transform="translate(717.333984 0)"/>
      <use xlink:href="#DejaVuSans-6c" transform="translate(772.314453 0)"/>
      <use xlink:href="#DejaVuSans-6f" transform="translate(800.097656 0)"/>
      <use xlink:href="#DejaVuSans-63" transform="translate(861.279297 0)"/>
      <use xlink:href="#DejaVuSans-6b" transform="translate(916.259766 0)"/>
      <use xlink:href="#DejaVuSans-29" transform="translate(974.169922 0)"/>
     </g>
    </g>
   </g>
   <g id="matplotlib.axis_2">
    <g id="ytick_1">
     <g id="line2d_17">
      <path d="M 36.403365 257.751281 
L 788.99976 257.751281 
" clip-path="url(#p67ff8c3dd2)" style="fill: none; stroke: #ededed; stroke-width: 0.6; stroke-linecap: square"/>
     </g>
     <g id="line2d_18">
      <defs>
       <path id="m4d102672b3" d="M 0 0 
L -3.5 0 
" style="stroke: #000000; stroke-width: 0.8"/>
      </defs>
      <g>
       <use xlink:href="#m4d102672b3" x="36.403365" y="257.751281" style="stroke: #000000; stroke-width: 0.8"/>
      </g>
     </g>
     <g id="text_10">
      <!-- 0 -->
      <g transform="translate(23.040865 261.5505) scale(0.1 -0.1)">
       <use xlink:href="#DejaVuSans-30"/>
      </g>
     </g>
    </g>
    <g id="ytick_2">
     <g id="line2d_19">
      <path d="M 36.403365 218.165923 
L 788.99976 218.165923 
" clip-path="url(#p67ff8c3dd2)" style="fill: none; stroke: #ededed; stroke-width: 0.6; stroke-linecap: square"/>
     </g>
     <g id="line2d_20">
      <g>
       <use xlink:href="#m4d102672b3" x="36.403365" y="218.165923" style="stroke: #000000; stroke-width: 0.8"/>
      </g>
     </g>
     <g id="text_11">
      <!-- 10 -->
      <g transform="translate(16.678365 221.965142) scale(0.1 -0.1)">
       <use xlink:href="#DejaVuSans-31"/>
       <use xlink:href="#DejaVuSans-30" transform="translate(63.623047 0)"/>
      </g>
     </g>
    </g>
    <g id="ytick_3">
     <g id="line2d_21">
      <path d="M 36.403365 178.580565 
L 788.99976 178.580565 
" clip-path="url(#p67ff8c3dd2)" style="fill: none; stroke: #ededed; stroke-width: 0.6; stroke-linecap: square"/>
     </g>
     <g id="line2d_22">
      <g>
       <use xlink:href="#m4d102672b3" x="36.403365" y="178.580565" style="stroke: #000000; stroke-width: 0.8"/>
      </g>
     </g>
     <g id="text_12">
      <!-- 20 -->
      <g transform="translate(16.678365 182.379783) scale(0.1 -0.1)">
       <use xlink:href="#DejaVuSans-32"/>
       <use xlink:href="#DejaVuSans-30" transform="translate(63.623047 0)"/>
      </g>
     </g>
    </g>
    <g id="ytick_4">
     <g id="line2d_23">
      <path d="M 36.403365 138.995207 
L 788.99976 138.995207 
" clip-path="url(#p67ff8c3dd2)" style="fill: none; stroke: #ededed; stroke-width: 0.6; stroke-linecap: square"/>
     </g>
     <g id="line2d_24">
      <g>
       <use xlink:href="#m4d102672b3" x="36.403365" y="138.995207" style="stroke: #000000; stroke-width: 0.8"/>
      </g>
     </g>
     <g id="text_13">
      <!-- 30 -->
      <g transform="translate(16.678365 142.794425) scale(0.1 -0.1)">
       <defs>
        <path id="DejaVuSans-33" d="M 2597 2516 
Q 3050 2419 3304 2112 
Q 3559 1806 3559 1356 
Q 3559 666 3084 287 
Q 2609 -91 1734 -91 
Q 1441 -91 1130 -33 
Q 819 25 488 141 
L 488 750 
Q 750 597 1062 519 
Q 1375 441 1716 441 
Q 2309 441 2620 675 
Q 2931 909 2931 1356 
Q 2931 1769 2642 2001 
Q 2353 2234 1838 2234 
L 1294 2234 
L 1294 2753 
L 1863 2753 
Q 2328 2753 2575 2939 
Q 2822 3125 2822 3475 
Q 2822 3834 2567 4026 
Q 2313 4219 1838 4219 
Q 1578 4219 1281 4162 
Q 984 4106 628 3988 
L 628 4550 
Q 988 4650 1302 4700 
Q 1616 4750 1894 4750 
Q 2613 4750 3031 4423 
Q 3450 4097 3450 3541 
Q 3450 3153 3228 2886 
Q 3006 2619 2597 2516 
z
" transform="scale(0.015625)"/>
       </defs>
       <use xlink:href="#DejaVuSans-33"/>
       <use xlink:href="#DejaVuSans-30" transform="translate(63.623047 0)"/>
      </g>
     </g>
    </g>
    <g id="ytick_5">
     <g id="line2d_25">
      <path d="M 36.403365 99.409849 
L 788.99976 99.409849 
" clip-path="url(#p67ff8c3dd2)" style="fill: none; stroke: #ededed; stroke-width: 0.6; stroke-linecap: square"/>
     </g>
     <g id="line2d_26">
      <g>
       <use xlink:href="#m4d102672b3" x="36.403365" y="99.409849" style="stroke: #000000; stroke-width: 0.8"/>
      </g>
     </g>
     <g id="text_14">
      <!-- 40 -->
      <g transform="translate(16.678365 103.209067) scale(0.1 -0.1)">
       <defs>
        <path id="DejaVuSans-34" d="M 2419 4116 
L 825 1625 
L 2419 1625 
L 2419 4116 
z
M 2253 4666 
L 3047 4666 
L 3047 1625 
L 3713 1625 
L 3713 1100 
L 3047 1100 
L 3047 0 
L 2419 0 
L 2419 1100 
L 313 1100 
L 313 1709 
L 2253 4666 
z
" transform="scale(0.015625)"/>
       </defs>
       <use xlink:href="#DejaVuSans-34"/>
       <use xlink:href="#DejaVuSans-30" transform="translate(63.623047 0)"/>
      </g>
     </g>
    </g>
    <g id="ytick_6">
     <g id="line2d_27">
      <path d="M 36.403365 59.82449 
L 788.99976 59.82449 
" clip-path="url(#p67ff8c3dd2)" style="fill: none; stroke: #ededed; stroke-width: 0.6; stroke-linecap: square"/>
     </g>
     <g id="line2d_28">
      <g>
       <use xlink:href="#m4d102672b3" x="36.403365" y="59.82449" style="stroke: #000000; stroke-width: 0.8"/>
      </g>
     </g>
     <g id="text_15">
      <!-- 50 -->
      <g transform="translate(16.678365 63.623709) scale(0.1 -0.1)">
       <use xlink:href="#DejaVuSans-35"/>
       <use xlink:href="#DejaVuSans-30" transform="translate(63.623047 0)"/>
      </g>
     </g>
    </g>
    <g id="text_16">
     <!-- theta (deg) -->
     <g transform="translate(10.598677 172.974303) rotate(-90) scale(0.1 -0.1)">
      <defs>
       <path id="DejaVuSans-68" d="M 3513 2113 
L 3513 0 
L 2938 0 
L 2938 2094 
Q 2938 2591 2744 2837 
Q 2550 3084 2163 3084 
Q 1697 3084 1428 2787 
Q 1159 2491 1159 1978 
L 1159 0 
L 581 0 
L 581 4863 
L 1159 4863 
L 1159 2956 
Q 1366 3272 1645 3428 
Q 1925 3584 2291 3584 
Q 2894 3584 3203 3211 
Q 3513 2838 3513 2113 
z
" transform="scale(0.015625)"/>
       <path id="DejaVuSans-61" d="M 2194 1759 
Q 1497 1759 1228 1600 
Q 959 1441 959 1056 
Q 959 750 1161 570 
Q 1363 391 1709 391 
Q 2188 391 2477 730 
Q 2766 1069 2766 1631 
L 2766 1759 
L 2194 1759 
z
M 3341 1997 
L 3341 0 
L 2766 0 
L 2766 531 
Q 2569 213 2275 61 
Q 1981 -91 1556 -91 
Q 1019 -91 701 211 
Q 384 513 384 1019 
Q 384 1609 779 1909 
Q 1175 2209 1959 2209 
L 2766 2209 
L 2766 2266 
Q 2766 2663 2505 2880 
Q 2244 3097 1772 3097 
Q 1472 3097 1187 3025 
Q 903 2953 641 2809 
L 641 3341 
Q 956 3463 1253 3523 
Q 1550 3584 1831 3584 
Q 2591 3584 2966 3190 
Q 3341 2797 3341 1997 
z
" transform="scale(0.015625)"/>
       <path id="DejaVuSans-67" d="M 2906 1791 
Q 2906 2416 2648 2759 
Q 2391 3103 1925 3103 
Q 1463 3103 1205 2759 
Q 947 2416 947 1791 
Q 947 1169 1205 825 
Q 1463 481 1925 481 
Q 2391 481 2648 825 
Q 2906 1169 2906 1791 
z
M 3481 434 
Q 3481 -459 3084 -895 
Q 2688 -1331 1869 -1331 
Q 1566 -1331 1297 -1286 
Q 1028 -1241 775 -1147 
L 775 -588 
Q 1028 -725 1275 -790 
Q 1522 -856 1778 -856 
Q 2344 -856 2625 -561 
Q 2906 -266 2906 331 
L 2906 616 
Q 2728 306 2450 153 
Q 2172 0 1784 0 
Q 1141 0 747 490 
Q 353 981 353 1791 
Q 353 2603 747 3093 
Q 1141 3584 1784 3584 
Q 2172 3584 2450 3431 
Q 2728 3278 2906 2969 
L 2906 3500 
L 3481 3500 
L 3481 434 
z
" transform="scale(0.015625)"/>
      </defs>
      <use xlink:href="#DejaVuSans-74"/>
      <use xlink:href="#DejaVuSans-68" transform="translate(39.208984 0)"/>
      <use xlink:href="#DejaVuSans-65" transform="translate(102.587891 0)"/>
      <use xlink:href="#DejaVuSans-74" transform="translate(164.111328 0)"/>
      <use xlink:href="#DejaVuSans-61" transform="translate(203.320312 0)"/>
      <use xlink:href="#DejaVuSans-20" transform="translate(264.599609 0)"/>
      <use xlink:href="#DejaVuSans-28" transform="translate(296.386719 0)"/>
      <use xlink:href="#DejaVuSans-64" transform="translate(335.400391 0)"/>
      <use xlink:href="#DejaVuSans-65" transform="translate(398.876953 0)"/>
      <use xlink:href="#DejaVuSans-67" transform="translate(460.400391 0)"/>
      <use xlink:href="#DejaVuSans-29" transform="translate(523.876953 0)"/>
     </g>
    </g>
   </g>
   <g id="line2d_29">
    <path d="M 36.403365 257.751281 
L 40.482478 257.751281 
L 42.522035 256.330507 
L 56.798931 255.442523 
L 69.036271 254.288145 
L 79.234054 252.956169 
L 91.471394 250.558613 
L 103.708734 246.96228 
L 115.946073 241.567779 
L 128.183413 233.476028 
L 140.420753 221.338402 
L 152.658093 203.131962 
L 164.895432 198.667438 
L 177.132772 206.305691 
L 189.370112 205.369679 
L 201.607452 197.854183 
L 213.844791 182.117954 
L 228.121688 153.308034 
L 238.319471 133.644926 
L 250.556811 118.671141 
L 262.79415 110.436975 
L 275.03149 108.221604 
L 287.26883 109.380647 
L 299.50617 113.867466 
L 311.74351 123.65387 
L 323.980849 128.251097 
L 336.218189 129.522975 
L 348.455529 133.111193 
L 360.692869 131.680542 
L 372.930208 127.313583 
L 389.246661 119.22636 
L 401.484001 113.051616 
L 409.642228 109.051715 
L 421.879567 104.923881 
L 436.156464 101.916432 
L 454.512473 97.32345 
L 458.591587 96.332241 
L 470.828926 92.262482 
L 495.303606 86.686526 
L 519.778285 85.776547 
L 532.015625 87.333558 
L 556.490305 86.436233 
L 568.727644 85.542298 
L 580.964984 87.84159 
L 593.202324 87.709207 
L 605.439664 89.166744 
L 617.677003 91.621414 
L 629.914343 90.382097 
L 642.151683 91.341874 
L 654.389023 95.808721 
L 668.665919 96.304752 
L 678.863702 96.234697 
L 691.101042 99.731751 
L 703.338382 108.532258 
L 715.575721 120.29002 
L 731.892174 134.094067 
L 740.050401 140.799024 
L 752.287741 149.464519 
L 764.52508 158.984926 
L 776.76242 164.953647 
L 788.99976 168.197636 
L 788.99976 168.197636 
" clip-path="url(#p67ff8c3dd2)" style="fill: none; stroke: #c0392b; stroke-width: 2; stroke-linecap: square"/>
   </g>
   <g id="line2d_30">
    <path d="M 35.165978 255.283997 
L 41.284648 255.317299 
L 47.403318 255.462546 
L 53.521988 255.451741 
L 61.680214 255.333638 
L 71.877998 255.708427 
L 75.957111 255.790619 
L 104.510904 255.506027 
L 114.708687 255.07168 
L 118.7878 254.703651 
L 120.827357 254.632041 
L 124.90647 254.679343 
L 126.946026 254.586391 
L 128.985583 254.382128 
L 131.02514 253.993616 
L 133.064696 254.009246 
L 137.14381 254.367466 
L 141.222923 254.347664 
L 145.302036 254.173061 
L 147.341593 253.989232 
L 149.381149 253.608376 
L 151.420706 253.074871 
L 153.460263 252.661729 
L 155.499819 253.120649 
L 157.539376 253.713864 
L 159.578932 254.189237 
L 161.618489 254.527156 
L 165.697602 254.901022 
L 169.776716 255.060425 
L 182.014055 254.929496 
L 194.251395 254.363292 
L 206.488735 254.512962 
L 224.844744 253.38538 
L 228.923858 253.182476 
L 230.963414 252.885702 
L 235.042528 252.068767 
L 237.082084 251.913296 
L 243.200754 252.01583 
L 253.398537 251.413101 
L 257.47765 251.005803 
L 267.675434 249.3512 
L 271.754547 248.596569 
L 277.873217 247.716898 
L 279.912773 247.321931 
L 281.95233 246.695823 
L 283.991887 245.937273 
L 288.071 244.082434 
L 292.150113 242.056051 
L 296.229226 239.574846 
L 298.268783 238.578597 
L 300.30834 237.906732 
L 302.347896 237.41461 
L 304.387453 236.752809 
L 306.427009 235.865387 
L 308.466566 234.83018 
L 312.545679 232.366691 
L 314.585236 230.926538 
L 316.624793 229.123708 
L 318.664349 226.987409 
L 322.743463 222.379734 
L 334.980802 209.326199 
L 337.020359 207.296764 
L 339.059916 204.807196 
L 341.099472 201.846461 
L 343.139029 198.623448 
L 345.178585 195.106575 
L 347.218142 191.194303 
L 349.257699 186.652719 
L 351.297255 180.708002 
L 353.336812 173.473411 
L 355.376369 165.12471 
L 357.415925 155.988302 
L 359.455482 145.001284 
L 361.495038 132.075366 
L 367.613708 86.283804 
L 369.653265 73.716708 
L 371.692822 63.101203 
L 373.732378 55.143609 
L 375.771935 50.1115 
L 377.811491 48.330637 
L 379.851048 49.345241 
L 381.890605 52.396535 
L 383.930161 55.938566 
L 385.969718 57.884485 
L 388.009275 56.340892 
L 390.048831 51.45803 
L 392.088388 45.419293 
L 394.127944 40.238508 
L 396.167501 37.342982 
L 398.207058 37.360948 
L 400.246614 40.418339 
L 402.286171 45.857376 
L 404.325728 52.56283 
L 406.365284 58.520865 
L 408.404841 61.091329 
L 410.444397 59.437506 
L 412.483954 55.058942 
L 414.523511 50.162633 
L 416.563067 46.439367 
L 418.602624 45.090585 
L 420.642181 46.891993 
L 422.681737 51.859664 
L 424.721294 58.564556 
L 426.76085 62.302193 
L 428.800407 58.928143 
L 432.87952 40.462956 
L 434.919077 34.128738 
L 436.958634 31.906699 
L 438.99819 32.019768 
L 441.037747 33.45329 
L 443.077303 36.064028 
L 445.11686 40.229447 
L 447.156417 45.903568 
L 449.195973 51.077279 
L 451.23553 53.339335 
L 453.275087 50.981447 
L 455.314643 45.246404 
L 457.3542 38.486797 
L 459.393756 33.667802 
L 461.433313 33.95203 
L 463.47287 38.851056 
L 465.512426 45.498284 
L 467.551983 49.962453 
L 469.59154 50.81605 
L 471.631096 47.761175 
L 473.670653 42.555597 
L 475.710209 39.273054 
L 477.749766 38.617802 
L 479.789323 39.480016 
L 481.828879 39.663609 
L 483.868436 39.190821 
L 485.907993 39.375776 
L 487.947549 41.808551 
L 489.987106 47.076026 
L 492.026662 52.793159 
L 494.066219 55.683565 
L 496.105776 53.770222 
L 498.145332 47.949284 
L 500.184889 41.137291 
L 502.224446 36.590541 
L 504.264002 37.159405 
L 506.303559 41.739812 
L 508.343115 46.971206 
L 510.382672 49.931413 
L 512.422229 49.845014 
L 514.461785 46.897053 
L 516.501342 43.107466 
L 518.540899 41.386375 
L 520.580455 41.965118 
L 522.620012 43.034452 
L 524.659568 42.851642 
L 526.699125 41.931444 
L 528.738682 41.562722 
L 530.778238 43.444029 
L 532.817795 48.148279 
L 534.857352 53.550176 
L 536.896908 56.175743 
L 538.936465 54.231118 
L 540.976021 48.70865 
L 543.015578 42.099189 
L 545.055135 38.449856 
L 547.094691 39.552784 
L 551.173805 48.513952 
L 553.213361 50.495816 
L 555.252918 49.882154 
L 559.332031 43.85371 
L 561.371588 43.113766 
L 563.411144 44.302065 
L 565.450701 45.172922 
L 567.490258 44.365823 
L 569.529814 42.53746 
L 571.569371 41.170572 
L 573.608928 42.323049 
L 575.648484 46.502454 
L 577.688041 51.374555 
L 579.727597 53.817864 
L 581.767154 52.457315 
L 583.806711 48.091773 
L 585.846267 42.952416 
L 587.885824 40.508574 
L 589.925381 42.125283 
L 591.964937 46.064146 
L 594.004494 49.363971 
L 596.04405 49.911905 
L 598.083607 48.098679 
L 600.123164 44.864096 
L 602.16272 42.959896 
L 604.202277 43.7437 
L 606.241834 46.141301 
L 608.28139 47.416964 
L 610.320947 46.611302 
L 614.40006 42.635687 
L 616.439617 43.029222 
L 618.479173 46.284438 
L 620.51873 50.24939 
L 622.558287 51.974032 
L 624.597843 50.543683 
L 626.6374 46.659733 
L 628.676956 42.476241 
L 630.716513 41.244981 
L 632.75607 43.702592 
L 634.795626 47.749594 
L 636.835183 50.089054 
L 638.87474 49.808604 
L 640.914296 47.573366 
L 642.953853 44.943872 
L 644.993409 44.205044 
L 647.032966 46.037321 
L 649.072523 48.717674 
L 651.112079 49.623681 
L 653.151636 48.176643 
L 655.191193 45.464729 
L 657.230749 43.190291 
L 659.270306 43.827453 
L 661.309862 47.487921 
L 663.349419 52.187075 
L 665.388976 54.735704 
L 667.428532 54.549696 
L 669.468089 52.761753 
L 671.507646 51.543945 
L 673.547202 53.739006 
L 675.586759 59.520728 
L 677.626315 67.2419 
L 679.665872 73.987164 
L 681.705429 78.691749 
L 683.744985 81.669154 
L 687.824099 84.4913 
L 689.863655 87.655042 
L 691.903212 93.177886 
L 693.942768 98.222387 
L 695.982325 101.387807 
L 698.021882 103.252406 
L 700.061438 105.290348 
L 702.100995 106.520283 
L 704.140552 108.15614 
L 706.180108 113.033317 
L 708.219665 122.403939 
L 710.259221 130.949553 
L 714.338335 144.073061 
L 718.417448 162.367428 
L 720.457005 169.669169 
L 722.496561 175.430695 
L 724.536118 179.11898 
L 726.575674 180.463738 
L 728.615231 179.254109 
L 730.654788 177.265823 
L 732.694344 177.719903 
L 734.733901 182.929903 
L 736.773458 191.295478 
L 738.813014 198.585805 
L 740.852571 204.884127 
L 742.892127 209.707454 
L 744.931684 213.630591 
L 746.971241 217.093579 
L 749.010797 220.050126 
L 751.050354 222.771192 
L 753.089911 224.915902 
L 755.129467 226.709769 
L 763.287694 232.393692 
L 767.366807 235.291544 
L 771.44592 238.635056 
L 775.525033 241.835037 
L 777.56459 243.00056 
L 779.604147 243.847504 
L 783.68326 245.005926 
L 787.762373 245.832167 
L 789.80193 246.160133 
L 789.80193 246.160133 
" clip-path="url(#p67ff8c3dd2)" style="fill: none; stroke: #1f6fd6; stroke-width: 1.5; stroke-linecap: square"/>
   </g>
   <g id="patch_3">
    <path d="M 36.403365 269.04351 
L 36.403365 20.61447 
" style="fill: none; stroke: #000000; stroke-width: 0.8; stroke-linejoin: miter; stroke-linecap: square"/>
   </g>
   <g id="patch_4">
    <path d="M 36.403365 269.04351 
L 788.99976 269.04351 
" style="fill: none; stroke: #000000; stroke-width: 0.8; stroke-linejoin: miter; stroke-linecap: square"/>
   </g>
   <g id="legend_1">
    <g id="patch_5">
     <path d="M 42.703365 54.235095 
L 158.018677 54.235095 
Q 159.818677 54.235095 159.818677 52.435095 
L 159.818677 26.91447 
Q 159.818677 25.11447 158.018677 25.11447 
L 42.703365 25.11447 
Q 40.903365 25.11447 40.903365 26.91447 
L 40.903365 52.435095 
Q 40.903365 54.235095 42.703365 54.235095 
z
" style="fill: #ffffff; opacity: 0.8; stroke: #cccccc; stroke-linejoin: miter"/>
    </g>
    <g id="line2d_31">
     <path d="M 44.503365 32.403064 
L 53.503365 32.403064 
L 62.503365 32.403064 
" style="fill: none; stroke: #c0392b; stroke-width: 2; stroke-linecap: square"/>
    </g>
    <g id="text_17">
     <!-- video theta(t) -->
     <g transform="translate(69.703365 35.553064) scale(0.09 -0.09)">
      <use xlink:href="#DejaVuSans-76"/>
      <use xlink:href="#DejaVuSans-69" transform="translate(59.179688 0)"/>
      <use xlink:href="#DejaVuSans-64" transform="translate(86.962891 0)"/>
      <use xlink:href="#DejaVuSans-65" transform="translate(150.439453 0)"/>
      <use xlink:href="#DejaVuSans-6f" transform="translate(211.962891 0)"/>
      <use xlink:href="#DejaVuSans-20" transform="translate(273.144531 0)"/>
      <use xlink:href="#DejaVuSans-74" transform="translate(304.931641 0)"/>
      <use xlink:href="#DejaVuSans-68" transform="translate(344.140625 0)"/>
      <use xlink:href="#DejaVuSans-65" transform="translate(407.519531 0)"/>
      <use xlink:href="#DejaVuSans-74" transform="translate(469.042969 0)"/>
      <use xlink:href="#DejaVuSans-61" transform="translate(508.251953 0)"/>
      <use xlink:href="#DejaVuSans-28" transform="translate(569.53125 0)"/>
      <use xlink:href="#DejaVuSans-74" transform="translate(608.544922 0)"/>
      <use xlink:href="#DejaVuSans-29" transform="translate(647.753906 0)"/>
     </g>
    </g>
    <g id="line2d_32">
     <path d="M 44.503365 45.613376 
L 53.503365 45.613376 
L 62.503365 45.613376 
" style="fill: none; stroke: #1f6fd6; stroke-width: 1.5; stroke-linecap: square"/>
    </g>
    <g id="text_18">
     <!-- phone arctan(aT/g) -->
     <g transform="translate(69.703365 48.763376) scale(0.09 -0.09)">
      <defs>
       <path id="DejaVuSans-70" d="M 1159 525 
L 1159 -1331 
L 581 -1331 
L 581 3500 
L 1159 3500 
L 1159 2969 
Q 1341 3281 1617 3432 
Q 1894 3584 2278 3584 
Q 2916 3584 3314 3078 
Q 3713 2572 3713 1747 
Q 3713 922 3314 415 
Q 2916 -91 2278 -91 
Q 1894 -91 1617 61 
Q 1341 213 1159 525 
z
M 3116 1747 
Q 3116 2381 2855 2742 
Q 2594 3103 2138 3103 
Q 1681 3103 1420 2742 
Q 1159 2381 1159 1747 
Q 1159 1113 1420 752 
Q 1681 391 2138 391 
Q 2594 391 2855 752 
Q 3116 1113 3116 1747 
z
" transform="scale(0.015625)"/>
       <path id="DejaVuSans-6e" d="M 3513 2113 
L 3513 0 
L 2938 0 
L 2938 2094 
Q 2938 2591 2744 2837 
Q 2550 3084 2163 3084 
Q 1697 3084 1428 2787 
Q 1159 2491 1159 1978 
L 1159 0 
L 581 0 
L 581 3500 
L 1159 3500 
L 1159 2956 
Q 1366 3272 1645 3428 
Q 1925 3584 2291 3584 
Q 2894 3584 3203 3211 
Q 3513 2838 3513 2113 
z
" transform="scale(0.015625)"/>
       <path id="DejaVuSans-72" d="M 2631 2963 
Q 2534 3019 2420 3045 
Q 2306 3072 2169 3072 
Q 1681 3072 1420 2755 
Q 1159 2438 1159 1844 
L 1159 0 
L 581 0 
L 581 3500 
L 1159 3500 
L 1159 2956 
Q 1341 3275 1631 3429 
Q 1922 3584 2338 3584 
Q 2397 3584 2469 3576 
Q 2541 3569 2628 3553 
L 2631 2963 
z
" transform="scale(0.015625)"/>
       <path id="DejaVuSans-54" d="M -19 4666 
L 3928 4666 
L 3928 4134 
L 2272 4134 
L 2272 0 
L 1638 0 
L 1638 4134 
L -19 4134 
L -19 4666 
z
" transform="scale(0.015625)"/>
       <path id="DejaVuSans-2f" d="M 1625 4666 
L 2156 4666 
L 531 -594 
L 0 -594 
L 1625 4666 
z
" transform="scale(0.015625)"/>
      </defs>
      <use xlink:href="#DejaVuSans-70"/>
      <use xlink:href="#DejaVuSans-68" transform="translate(63.476562 0)"/>
      <use xlink:href="#DejaVuSans-6f" transform="translate(126.855469 0)"/>
      <use xlink:href="#DejaVuSans-6e" transform="translate(188.037109 0)"/>
      <use xlink:href="#DejaVuSans-65" transform="translate(251.416016 0)"/>
      <use xlink:href="#DejaVuSans-20" transform="translate(312.939453 0)"/>
      <use xlink:href="#DejaVuSans-61" transform="translate(344.726562 0)"/>
      <use xlink:href="#DejaVuSans-72" transform="translate(406.005859 0)"/>
      <use xlink:href="#DejaVuSans-63" transform="translate(444.869141 0)"/>
      <use xlink:href="#DejaVuSans-74" transform="translate(499.849609 0)"/>
      <use xlink:href="#DejaVuSans-61" transform="translate(539.058594 0)"/>
      <use xlink:href="#DejaVuSans-6e" transform="translate(600.337891 0)"/>
      <use xlink:href="#DejaVuSans-28" transform="translate(663.716797 0)"/>
      <use xlink:href="#DejaVuSans-61" transform="translate(702.730469 0)"/>
      <use xlink:href="#DejaVuSans-54" transform="translate(764.009766 0)"/>
      <use xlink:href="#DejaVuSans-2f" transform="translate(825.09375 0)"/>
      <use xlink:href="#DejaVuSans-67" transform="translate(858.785156 0)"/>
      <use xlink:href="#DejaVuSans-29" transform="translate(922.261719 0)"/>
     </g>
    </g>
   </g>
  </g>
  <g id="text_19">
   <!-- Video (alex) vs accelerometer: trial 4 -->
   <g transform="translate(270.240937 12.118365) scale(0.12 -0.12)">
    <defs>
     <path id="DejaVuSans-Bold-56" d="M 31 4666 
L 1241 4666 
L 2478 1222 
L 3713 4666 
L 4922 4666 
L 3194 0 
L 1759 0 
L 31 4666 
z
" transform="scale(0.015625)"/>
     <path id="DejaVuSans-Bold-69" d="M 538 3500 
L 1656 3500 
L 1656 0 
L 538 0 
L 538 3500 
z
M 538 4863 
L 1656 4863 
L 1656 3950 
L 538 3950 
L 538 4863 
z
" transform="scale(0.015625)"/>
     <path id="DejaVuSans-Bold-64" d="M 2919 2988 
L 2919 4863 
L 4044 4863 
L 4044 0 
L 2919 0 
L 2919 506 
Q 2688 197 2409 53 
Q 2131 -91 1766 -91 
Q 1119 -91 703 423 
Q 288 938 288 1747 
Q 288 2556 703 3070 
Q 1119 3584 1766 3584 
Q 2128 3584 2408 3439 
Q 2688 3294 2919 2988 
z
M 2181 722 
Q 2541 722 2730 984 
Q 2919 1247 2919 1747 
Q 2919 2247 2730 2509 
Q 2541 2772 2181 2772 
Q 1825 2772 1636 2509 
Q 1447 2247 1447 1747 
Q 1447 1247 1636 984 
Q 1825 722 2181 722 
z
" transform="scale(0.015625)"/>
     <path id="DejaVuSans-Bold-65" d="M 4031 1759 
L 4031 1441 
L 1416 1441 
Q 1456 1047 1700 850 
Q 1944 653 2381 653 
Q 2734 653 3104 758 
Q 3475 863 3866 1075 
L 3866 213 
Q 3469 63 3072 -14 
Q 2675 -91 2278 -91 
Q 1328 -91 801 392 
Q 275 875 275 1747 
Q 275 2603 792 3093 
Q 1309 3584 2216 3584 
Q 3041 3584 3536 3087 
Q 4031 2591 4031 1759 
z
M 2881 2131 
Q 2881 2450 2695 2645 
Q 2509 2841 2209 2841 
Q 1884 2841 1681 2658 
Q 1478 2475 1428 2131 
L 2881 2131 
z
" transform="scale(0.015625)"/>
     <path id="DejaVuSans-Bold-6f" d="M 2203 2784 
Q 1831 2784 1636 2517 
Q 1441 2250 1441 1747 
Q 1441 1244 1636 976 
Q 1831 709 2203 709 
Q 2569 709 2762 976 
Q 2956 1244 2956 1747 
Q 2956 2250 2762 2517 
Q 2569 2784 2203 2784 
z
M 2203 3584 
Q 3106 3584 3614 3096 
Q 4122 2609 4122 1747 
Q 4122 884 3614 396 
Q 3106 -91 2203 -91 
Q 1297 -91 786 396 
Q 275 884 275 1747 
Q 275 2609 786 3096 
Q 1297 3584 2203 3584 
z
" transform="scale(0.015625)"/>
     <path id="DejaVuSans-Bold-20" transform="scale(0.015625)"/>
     <path id="DejaVuSans-Bold-28" d="M 2413 -844 
L 1484 -844 
Q 1006 -72 778 623 
Q 550 1319 550 2003 
Q 550 2688 779 3389 
Q 1009 4091 1484 4856 
L 2413 4856 
Q 2013 4116 1813 3408 
Q 1613 2700 1613 2009 
Q 1613 1319 1811 609 
Q 2009 -100 2413 -844 
z
" transform="scale(0.015625)"/>
     <path id="DejaVuSans-Bold-61" d="M 2106 1575 
Q 1756 1575 1579 1456 
Q 1403 1338 1403 1106 
Q 1403 894 1545 773 
Q 1688 653 1941 653 
Q 2256 653 2472 879 
Q 2688 1106 2688 1447 
L 2688 1575 
L 2106 1575 
z
M 3816 1997 
L 3816 0 
L 2688 0 
L 2688 519 
Q 2463 200 2181 54 
Q 1900 -91 1497 -91 
Q 953 -91 614 226 
Q 275 544 275 1050 
Q 275 1666 698 1953 
Q 1122 2241 2028 2241 
L 2688 2241 
L 2688 2328 
Q 2688 2594 2478 2717 
Q 2269 2841 1825 2841 
Q 1466 2841 1156 2769 
Q 847 2697 581 2553 
L 581 3406 
Q 941 3494 1303 3539 
Q 1666 3584 2028 3584 
Q 2975 3584 3395 3211 
Q 3816 2838 3816 1997 
z
" transform="scale(0.015625)"/>
     <path id="DejaVuSans-Bold-6c" d="M 538 4863 
L 1656 4863 
L 1656 0 
L 538 0 
L 538 4863 
z
" transform="scale(0.015625)"/>
     <path id="DejaVuSans-Bold-78" d="M 1422 1791 
L 159 3500 
L 1344 3500 
L 2059 2463 
L 2784 3500 
L 3969 3500 
L 2706 1797 
L 4031 0 
L 2847 0 
L 2059 1106 
L 1281 0 
L 97 0 
L 1422 1791 
z
" transform="scale(0.015625)"/>
     <path id="DejaVuSans-Bold-29" d="M 513 -844 
Q 913 -100 1113 609 
Q 1313 1319 1313 2009 
Q 1313 2700 1113 3408 
Q 913 4116 513 4856 
L 1441 4856 
Q 1916 4091 2145 3389 
Q 2375 2688 2375 2003 
Q 2375 1319 2147 623 
Q 1919 -72 1441 -844 
L 513 -844 
z
" transform="scale(0.015625)"/>
     <path id="DejaVuSans-Bold-76" d="M 97 3500 
L 1216 3500 
L 2088 1081 
L 2956 3500 
L 4078 3500 
L 2700 0 
L 1472 0 
L 97 3500 
z
" transform="scale(0.015625)"/>
     <path id="DejaVuSans-Bold-73" d="M 3272 3391 
L 3272 2541 
Q 2913 2691 2578 2766 
Q 2244 2841 1947 2841 
Q 1628 2841 1473 2761 
Q 1319 2681 1319 2516 
Q 1319 2381 1436 2309 
Q 1553 2238 1856 2203 
L 2053 2175 
Q 2913 2066 3209 1816 
Q 3506 1566 3506 1031 
Q 3506 472 3093 190 
Q 2681 -91 1863 -91 
Q 1516 -91 1145 -36 
Q 775 19 384 128 
L 384 978 
Q 719 816 1070 734 
Q 1422 653 1784 653 
Q 2113 653 2278 743 
Q 2444 834 2444 1013 
Q 2444 1163 2330 1236 
Q 2216 1309 1875 1350 
L 1678 1375 
Q 931 1469 631 1722 
Q 331 1975 331 2491 
Q 331 3047 712 3315 
Q 1094 3584 1881 3584 
Q 2191 3584 2531 3537 
Q 2872 3491 3272 3391 
z
" transform="scale(0.015625)"/>
     <path id="DejaVuSans-Bold-63" d="M 3366 3391 
L 3366 2478 
Q 3138 2634 2908 2709 
Q 2678 2784 2431 2784 
Q 1963 2784 1702 2511 
Q 1441 2238 1441 1747 
Q 1441 1256 1702 982 
Q 1963 709 2431 709 
Q 2694 709 2930 787 
Q 3166 866 3366 1019 
L 3366 103 
Q 3103 6 2833 -42 
Q 2563 -91 2291 -91 
Q 1344 -91 809 395 
Q 275 881 275 1747 
Q 275 2613 809 3098 
Q 1344 3584 2291 3584 
Q 2566 3584 2833 3536 
Q 3100 3488 3366 3391 
z
" transform="scale(0.015625)"/>
     <path id="DejaVuSans-Bold-72" d="M 3138 2547 
Q 2991 2616 2845 2648 
Q 2700 2681 2553 2681 
Q 2122 2681 1889 2404 
Q 1656 2128 1656 1613 
L 1656 0 
L 538 0 
L 538 3500 
L 1656 3500 
L 1656 2925 
Q 1872 3269 2151 3426 
Q 2431 3584 2822 3584 
Q 2878 3584 2943 3579 
Q 3009 3575 3134 3559 
L 3138 2547 
z
" transform="scale(0.015625)"/>
     <path id="DejaVuSans-Bold-6d" d="M 3781 2919 
Q 3994 3244 4286 3414 
Q 4578 3584 4928 3584 
Q 5531 3584 5847 3212 
Q 6163 2841 6163 2131 
L 6163 0 
L 5038 0 
L 5038 1825 
Q 5041 1866 5042 1909 
Q 5044 1953 5044 2034 
Q 5044 2406 4934 2573 
Q 4825 2741 4581 2741 
Q 4263 2741 4089 2478 
Q 3916 2216 3909 1719 
L 3909 0 
L 2784 0 
L 2784 1825 
Q 2784 2406 2684 2573 
Q 2584 2741 2328 2741 
Q 2006 2741 1831 2477 
Q 1656 2213 1656 1722 
L 1656 0 
L 531 0 
L 531 3500 
L 1656 3500 
L 1656 2988 
Q 1863 3284 2130 3434 
Q 2397 3584 2719 3584 
Q 3081 3584 3359 3409 
Q 3638 3234 3781 2919 
z
" transform="scale(0.015625)"/>
     <path id="DejaVuSans-Bold-74" d="M 1759 4494 
L 1759 3500 
L 2913 3500 
L 2913 2700 
L 1759 2700 
L 1759 1216 
Q 1759 972 1856 886 
Q 1953 800 2241 800 
L 2816 800 
L 2816 0 
L 1856 0 
Q 1194 0 917 276 
Q 641 553 641 1216 
L 641 2700 
L 84 2700 
L 84 3500 
L 641 3500 
L 641 4494 
L 1759 4494 
z
" transform="scale(0.015625)"/>
     <path id="DejaVuSans-Bold-3a" d="M 716 3500 
L 1844 3500 
L 1844 2291 
L 716 2291 
L 716 3500 
z
M 716 1209 
L 1844 1209 
L 1844 0 
L 716 0 
L 716 1209 
z
" transform="scale(0.015625)"/>
     <path id="DejaVuSans-Bold-34" d="M 2356 3675 
L 1038 1722 
L 2356 1722 
L 2356 3675 
z
M 2156 4666 
L 3494 4666 
L 3494 1722 
L 4159 1722 
L 4159 850 
L 3494 850 
L 3494 0 
L 2356 0 
L 2356 850 
L 288 850 
L 288 1881 
L 2156 4666 
z
" transform="scale(0.015625)"/>
    </defs>
    <use xlink:href="#DejaVuSans-Bold-56"/>
    <use xlink:href="#DejaVuSans-Bold-69" transform="translate(75.642578 0)"/>
    <use xlink:href="#DejaVuSans-Bold-64" transform="translate(109.919922 0)"/>
    <use xlink:href="#DejaVuSans-Bold-65" transform="translate(181.501953 0)"/>
    <use xlink:href="#DejaVuSans-Bold-6f" transform="translate(249.324219 0)"/>
    <use xlink:href="#DejaVuSans-Bold-20" transform="translate(318.025391 0)"/>
    <use xlink:href="#DejaVuSans-Bold-28" transform="translate(352.839844 0)"/>
    <use xlink:href="#DejaVuSans-Bold-61" transform="translate(398.542969 0)"/>
    <use xlink:href="#DejaVuSans-Bold-6c" transform="translate(466.023438 0)"/>
    <use xlink:href="#DejaVuSans-Bold-65" transform="translate(500.300781 0)"/>
    <use xlink:href="#DejaVuSans-Bold-78" transform="translate(568.123047 0)"/>
    <use xlink:href="#DejaVuSans-Bold-29" transform="translate(632.625 0)"/>
    <use xlink:href="#DejaVuSans-Bold-20" transform="translate(678.328125 0)"/>
    <use xlink:href="#DejaVuSans-Bold-76" transform="translate(713.142578 0)"/>
    <use xlink:href="#DejaVuSans-Bold-73" transform="translate(778.328125 0)"/>
    <use xlink:href="#DejaVuSans-Bold-20" transform="translate(837.849609 0)"/>
    <use xlink:href="#DejaVuSans-Bold-61" transform="translate(872.664062 0)"/>
    <use xlink:href="#DejaVuSans-Bold-63" transform="translate(940.144531 0)"/>
    <use xlink:href="#DejaVuSans-Bold-63" transform="translate(999.421875 0)"/>
    <use xlink:href="#DejaVuSans-Bold-65" transform="translate(1058.699219 0)"/>
    <use xlink:href="#DejaVuSans-Bold-6c" transform="translate(1126.521484 0)"/>
    <use xlink:href="#DejaVuSans-Bold-65" transform="translate(1160.798828 0)"/>
    <use xlink:href="#DejaVuSans-Bold-72" transform="translate(1228.621094 0)"/>
    <use xlink:href="#DejaVuSans-Bold-6f" transform="translate(1277.9375 0)"/>
    <use xlink:href="#DejaVuSans-Bold-6d" transform="translate(1346.638672 0)"/>
    <use xlink:href="#DejaVuSans-Bold-65" transform="translate(1450.837891 0)"/>
    <use xlink:href="#DejaVuSans-Bold-74" transform="translate(1518.660156 0)"/>
    <use xlink:href="#DejaVuSans-Bold-65" transform="translate(1566.462891 0)"/>
    <use xlink:href="#DejaVuSans-Bold-72" transform="translate(1634.285156 0)"/>
    <use xlink:href="#DejaVuSans-Bold-3a" transform="translate(1683.601562 0)"/>
    <use xlink:href="#DejaVuSans-Bold-20" transform="translate(1723.591797 0)"/>
    <use xlink:href="#DejaVuSans-Bold-74" transform="translate(1758.40625 0)"/>
    <use xlink:href="#DejaVuSans-Bold-72" transform="translate(1806.208984 0)"/>
    <use xlink:href="#DejaVuSans-Bold-69" transform="translate(1855.525391 0)"/>
    <use xlink:href="#DejaVuSans-Bold-61" transform="translate(1889.802734 0)"/>
    <use xlink:href="#DejaVuSans-Bold-6c" transform="translate(1957.283203 0)"/>
    <use xlink:href="#DejaVuSans-Bold-20" transform="translate(1991.560547 0)"/>
    <use xlink:href="#DejaVuSans-Bold-34" transform="translate(2026.375 0)"/>
   </g>
  </g>
 </g>
 <defs>
  <clipPath id="p67ff8c3dd2">
   <rect x="36.403365" y="20.61447" width="752.596395" height="248.42904"/>
  </clipPath>
 </defs>
</svg>
