<?xml version="1.0" encoding="utf-8" standalone="no"?>
<!DOCTYPE svg PUBLIC "-//W3C//DTD SVG 1.1//EN"
  "http://www.w3.org/Graphics/SVG/1.1/DTD/svg11.dtd">
<svg xmlns:xlink="http://www.w3.org/1999/xlink" width="792pt" height="302.4pt" viewBox="0 0 792 302.4" xmlns="http://www.w3.org/2000/svg" version="1.1">
 <metadata>
  <rdf:RDF xmlns:dc="http://purl.org/dc/elements/1.1/" xmlns:cc="http://creativecommons.org/ns#" xmlns:rdf="http://www.w3.org/1999/02/22-rdf-syntax-ns#">
   <cc:Work>
    <dc:type rdf:resource="http://purl.org/dc/dcmitype/StillImage"/>
    <dc:date>2026-07-15T21:27:35.616777</dc:date>
    <dc:format>image/svg+xml</dc:format>
    <dc:creator>
     <cc:Agent>
      <dc:title>Matplotlib v3.10.3, https://matplotlib.org/</dc:title>
     </cc:Agent>
    </dc:creator>
   </cc:Work>
  </rdf:RDF>
 </metadata>
 <defs>
  <style type="text/css">*{stroke-linejoin: round; stroke-linecap: butt}</style>
 </defs>
 <g id="figure_1">
  <g id="patch_1">
   <path d="M 0 302.4 
L 792 302.4 
L 792 0 
L 0 0 
z
" style="fill: #ffffff"/>
  </g>
  <g id="axes_1">
   <g id="patch_2">
    <path d="M 36.403365 269.04351 
L 788.99976 269.04351 
L 788.99976 20.70822 
L 36.403365 20.70822 
z
" style="fill: #ffffff"/>
   </g>
   <g id="matplotlib.axis_1">
    <g id="xtick_1">
     <g id="line2d_1">
      <path d="M 36.403365 269.04351 
L 36.403365 20.70822 
" clip-path="url(#p7c9bde6b6a)" style="fill: none; stroke: #ededed; stroke-width: 0.6; stroke-linecap: square"/>
     </g>
     <g id="line2d_2">
      <defs>
       <path id="m282acd360b" d="M 0 0 
L 0 3.5 
" style="stroke: #000000; stroke-width: 0.8"/>
      </defs>
      <g>
       <use xlink:href="#m282acd360b" x="36.403365" y="269.04351" style="stroke: #000000; stroke-width: 0.8"/>
      </g>
     </g>
     <g id="text_1">
      <!-- 0 -->
      <g transform="translate(33.222115 283.641948) scale(0.1 -0.1)">
       <defs>
        <path id="DejaVuSans-30" d="M 2034 4250 
Q 1547 4250 1301 3770 
Q 1056 3291 1056 2328 
Q 1056 1369 1301 889 
Q 1547 409 2034 409 
Q 2525 409 2770 889 
Q 3016 1369 3016 2328 
Q 3016 3291 2770 3770 
Q 2525 4250 2034 4250 
z
M 2034 4750 
Q 2819 4750 3233 4129 
Q 3647 3509 3647 2328 
Q 3647 1150 3233 529 
Q 2819 -91 2034 -91 
Q 1250 -91 836 529 
Q 422 1150 422 2328 
Q 422 3509 836 4129 
Q 1250 4750 2034 4750 
z
" transform="scale(0.015625)"/>
       </defs>
       <use xlink:href="#DejaVuSans-30"/>
      </g>
     </g>
    </g>
    <g id="xtick_2">
     <g id="line2d_3">
      <path d="M 136.749551 269.04351 
L 136.749551 20.70822 
" clip-path="url(#p7c9bde6b6a)" style="fill: none; stroke: #ededed; stroke-width: 0.6; stroke-linecap: square"/>
     </g>
     <g id="line2d_4">
      <g>
       <use xlink:href="#m282acd360b" x="136.749551" y="269.04351" style="stroke: #000000; stroke-width: 0.8"/>
      </g>
     </g>
     <g id="text_2">
      <!-- 25 -->
      <g transform="translate(130.387051 283.641948) scale(0.1 -0.1)">
       <defs>
        <path id="DejaVuSans-32" d="M 1228 531 
L 3431 531 
L 3431 0 
L 469 0 
L 469 531 
Q 828 903 1448 1529 
Q 2069 2156 2228 2338 
Q 2531 2678 2651 2914 
Q 2772 3150 2772 3378 
Q 2772 3750 2511 3984 
Q 2250 4219 1831 4219 
Q 1534 4219 1204 4116 
Q 875 4013 500 3803 
L 500 4441 
Q 881 4594 1212 4672 
Q 1544 4750 1819 4750 
Q 2544 4750 2975 4387 
Q 3406 4025 3406 3419 
Q 3406 3131 3298 2873 
Q 3191 2616 2906 2266 
Q 2828 2175 2409 1742 
Q 1991 1309 1228 531 
z
" transform="scale(0.015625)"/>
        <path id="DejaVuSans-35" d="M 691 4666 
L 3169 4666 
L 3169 4134 
L 1269 4134 
L 1269 2991 
Q 1406 3038 1543 3061 
Q 1681 3084 1819 3084 
Q 2600 3084 3056 2656 
Q 3513 2228 3513 1497 
Q 3513 744 3044 326 
Q 2575 -91 1722 -91 
Q 1428 -91 1123 -41 
Q 819 9 494 109 
L 494 744 
Q 775 591 1075 516 
Q 1375 441 1709 441 
Q 2250 441 2565 725 
Q 2881 1009 2881 1497 
Q 2881 1984 2565 2268 
Q 2250 2553 1709 2553 
Q 1456 2553 1204 2497 
Q 953 2441 691 2322 
L 691 4666 
z
" transform="scale(0.015625)"/>
       </defs>
       <use xlink:href="#DejaVuSans-32"/>
       <use xlink:href="#DejaVuSans-35" transform="translate(63.623047 0)"/>
      </g>
     </g>
    </g>
    <g id="xtick_3">
     <g id="line2d_5">
      <path d="M 237.095737 269.04351 
L 237.095737 20.70822 
" clip-path="url(#p7c9bde6b6a)" style="fill: none; stroke: #ededed; stroke-width: 0.6; stroke-linecap: square"/>
     </g>
     <g id="line2d_6">
      <g>
       <use xlink:href="#m282acd360b" x="237.095737" y="269.04351" style="stroke: #000000; stroke-width: 0.8"/>
      </g>
     </g>
     <g id="text_3">
      <!-- 50 -->
      <g transform="translate(230.733237 283.641948) scale(0.1 -0.1)">
       <use xlink:href="#DejaVuSans-35"/>
       <use xlink:href="#DejaVuSans-30" transform="translate(63.623047 0)"/>
      </g>
     </g>
    </g>
    <g id="xtick_4">
     <g id="line2d_7">
      <path d="M 337.441923 269.04351 
L 337.441923 20.70822 
" clip-path="url(#p7c9bde6b6a)" style="fill: none; stroke: #ededed; stroke-width: 0.6; stroke-linecap: square"/>
     </g>
     <g id="line2d_8">
      <g>
       <use xlink:href="#m282acd360b" x="337.441923" y="269.04351" style="stroke: #000000; stroke-width: 0.8"/>
      </g>
     </g>
     <g id="text_4">
      <!-- 75 -->
      <g transform="translate(331.079423 283.641948) scale(0.1 -0.1)">
       <defs>
        <path id="DejaVuSans-37" d="M 525 4666 
L 3525 4666 
L 3525 4397 
L 1831 0 
L 1172 0 
L 2766 4134 
L 525 4134 
L 525 4666 
z
" transform="scale(0.015625)"/>
       </defs>
       <use xlink:href="#DejaVuSans-37"/>
       <use xlink:href="#DejaVuSans-35" transform="translate(63.623047 0)"/>
      </g>
     </g>
    </g>
    <g id="xtick_5">
     <g id="line2d_9">
      <path d="M 437.788109 269.04351 
L 437.788109 20.70822 
" clip-path="url(#p7c9bde6b6a)" style="fill: none; stroke: #ededed; stroke-width: 0.6; stroke-linecap: square"/>
     </g>
     <g id="line2d_10">
      <g>
       <use xlink:href="#m282acd360b" x="437.788109" y="269.04351" style="stroke: #000000; stroke-width: 0.8"/>
      </g>
     </g>
     <g id="text_5">
      <!-- 100 -->
      <g transform="translate(428.244359 283.641948) scale(0.1 -0.1)">
       <defs>
        <path id="DejaVuSans-31" d="M 794 531 
L 1825 531 
L 1825 4091 
L 703 3866 
L 703 4441 
L 1819 4666 
L 2450 4666 
L 2450 531 
L 3481 531 
L 3481 0 
L 794 0 
L 794 531 
z
" transform="scale(0.015625)"/>
       </defs>
       <use xlink:href="#DejaVuSans-31"/>
       <use xlink:href="#DejaVuSans-30" transform="translate(63.623047 0)"/>
       <use xlink:href="#DejaVuSans-30" transform="translate(127.246094 0)"/>
      </g>
     </g>
    </g>
    <g id="xtick_6">
     <g id="line2d_11">
      <path d="M 538.134295 269.04351 
L 538.134295 20.70822 
" clip-path="url(#p7c9bde6b6a)" style="fill: none; stroke: #ededed; stroke-width: 0.6; stroke-linecap: square"/>
     </g>
     <g id="line2d_12">
      <g>
       <use xlink:href="#m282acd360b" x="538.134295" y="269.04351" style="stroke: #000000; stroke-width: 0.8"/>
      </g>
     </g>
     <g id="text_6">
      <!-- 125 -->
      <g transform="translate(528.590545 283.641948) scale(0.1 -0.1)">
       <use xlink:href="#DejaVuSans-31"/>
       <use xlink:href="#DejaVuSans-32" transform="translate(63.623047 0)"/>
       <use xlink:href="#DejaVuSans-35" transform="translate(127.246094 0)"/>
      </g>
     </g>
    </g>
    <g id="xtick_7">
     <g id="line2d_13">
      <path d="M 638.480481 269.04351 
L 638.480481 20.70822 
" clip-path="url(#p7c9bde6b6a)" style="fill: none; stroke: #ededed; stroke-width: 0.6; stroke-linecap: square"/>
     </g>
     <g id="line2d_14">
      <g>
       <use xlink:href="#m282acd360b" x="638.480481" y="269.04351" style="stroke: #000000; stroke-width: 0.8"/>
      </g>
     </g>
     <g id="text_7">
      <!-- 150 -->
      <g transform="translate(628.936731 283.641948) scale(0.1 -0.1)">
       <use xlink:href="#DejaVuSans-31"/>
       <use xlink:href="#DejaVuSans-35" transform="translate(63.623047 0)"/>
       <use xlink:href="#DejaVuSans-30" transform="translate(127.246094 0)"/>
      </g>
     </g>
    </g>
    <g id="xtick_8">
     <g id="line2d_15">
      <path d="M 738.826667 269.04351 
L 738.826667 20.70822 
" clip-path="url(#p7c9bde6b6a)" style="fill: none; stroke: #ededed; stroke-width: 0.6; stroke-linecap: square"/>
     </g>
     <g id="line2d_16">
      <g>
       <use xlink:href="#m282acd360b" x="738.826667" y="269.04351" style="stroke: #000000; stroke-width: 0.8"/>
      </g>
     </g>
     <g id="text_8">
      <!-- 175 -->
      <g transform="translate(729.282917 283.641948) scale(0.1 -0.1)">
       <use xlink:href="#DejaVuSans-31"/>
       <use xlink:href="#DejaVuSans-37" transform="translate(63.623047 0)"/>
       <use xlink:href="#DejaVuSans-35" transform="translate(127.246094 0)"/>
      </g>
     </g>
    </g>
    <g id="text_9">
     <!-- time (s, video clock) -->
     <g transform="translate(362.042187 297.320073) scale(0.1 -0.1)">
      <defs>
       <path id="DejaVuSans-74" d="M 1172 4494 
L 1172 3500 
L 2356 3500 
L 2356 3053 
L 1172 3053 
L 1172 1153 
Q 1172 725 1289 603 
Q 1406 481 1766 481 
L 2356 481 
L 2356 0 
L 1766 0 
Q 1100 0 847 248 
Q 594 497 594 1153 
L 594 3053 
L 172 3053 
L 172 3500 
L 594 3500 
L 594 4494 
L 1172 4494 
z
" transform="scale(0.015625)"/>
       <path id="DejaVuSans-69" d="M 603 3500 
L 1178 3500 
L 1178 0 
L 603 0 
L 603 3500 
z
M 603 4863 
L 1178 4863 
L 1178 4134 
L 603 4134 
L 603 4863 
z
" transform="scale(0.015625)"/>
       <path id="DejaVuSans-6d" d="M 3328 2828 
Q 3544 3216 3844 3400 
Q 4144 3584 4550 3584 
Q 5097 3584 5394 3201 
Q 5691 2819 5691 2113 
L 5691 0 
L 5113 0 
L 5113 2094 
Q 5113 2597 4934 2840 
Q 4756 3084 4391 3084 
Q 3944 3084 3684 2787 
Q 3425 2491 3425 1978 
L 3425 0 
L 2847 0 
L 2847 2094 
Q 2847 2600 2669 2842 
Q 2491 3084 2119 3084 
Q 1678 3084 1418 2786 
Q 1159 2488 1159 1978 
L 1159 0 
L 581 0 
L 581 3500 
L 1159 3500 
L 1159 2956 
Q 1356 3278 1631 3431 
Q 1906 3584 2284 3584 
Q 2666 3584 2933 3390 
Q 3200 3197 3328 2828 
z
" transform="scale(0.015625)"/>
       <path id="DejaVuSans-65" d="M 3597 1894 
L 3597 1613 
L 953 1613 
Q 991 1019 1311 708 
Q 1631 397 2203 397 
Q 2534 397 2845 478 
Q 3156 559 3463 722 
L 3463 178 
Q 3153 47 2828 -22 
Q 2503 -91 2169 -91 
Q 1331 -91 842 396 
Q 353 884 353 1716 
Q 353 2575 817 3079 
Q 1281 3584 2069 3584 
Q 2775 3584 3186 3129 
Q 3597 2675 3597 1894 
z
M 3022 2063 
Q 3016 2534 2758 2815 
Q 2500 3097 2075 3097 
Q 1594 3097 1305 2825 
Q 1016 2553 972 2059 
L 3022 2063 
z
" transform="scale(0.015625)"/>
       <path id="DejaVuSans-20" transform="scale(0.015625)"/>
       <path id="DejaVuSans-28" d="M 1984 4856 
Q 1566 4138 1362 3434 
Q 1159 2731 1159 2009 
Q 1159 1288 1364 580 
Q 1569 -128 1984 -844 
L 1484 -844 
Q 1016 -109 783 600 
Q 550 1309 550 2009 
Q 550 2706 781 3412 
Q 1013 4119 1484 4856 
L 1984 4856 
z
" transform="scale(0.015625)"/>
       <path id="DejaVuSans-73" d="M 2834 3397 
L 2834 2853 
Q 2591 2978 2328 3040 
Q 2066 3103 1784 3103 
Q 1356 3103 1142 2972 
Q 928 2841 928 2578 
Q 928 2378 1081 2264 
Q 1234 2150 1697 2047 
L 1894 2003 
Q 2506 1872 2764 1633 
Q 3022 1394 3022 966 
Q 3022 478 2636 193 
Q 2250 -91 1575 -91 
Q 1294 -91 989 -36 
Q 684 19 347 128 
L 347 722 
Q 666 556 975 473 
Q 1284 391 1588 391 
Q 1994 391 2212 530 
Q 2431 669 2431 922 
Q 2431 1156 2273 1281 
Q 2116 1406 1581 1522 
L 1381 1569 
Q 847 1681 609 1914 
Q 372 2147 372 2553 
Q 372 3047 722 3315 
Q 1072 3584 1716 3584 
Q 2034 3584 2315 3537 
Q 2597 3491 2834 3397 
z
" transform="scale(0.015625)"/>
       <path id="DejaVuSans-2c" d="M 750 794 
L 1409 794 
L 1409 256 
L 897 -744 
L 494 -744 
L 750 256 
L 750 794 
z
" transform="scale(0.015625)"/>
       <path id="DejaVuSans-76" d="M 191 3500 
L 800 3500 
L 1894 563 
L 2988 3500 
L 3597 3500 
L 2284 0 
L 1503 0 
L 191 3500 
z
" transform="scale(0.015625)"/>
       <path id="DejaVuSans-64" d="M 2906 2969 
L 2906 4863 
L 3481 4863 
L 3481 0 
L 2906 0 
L 2906 525 
Q 2725 213 2448 61 
Q 2172 -91 1784 -91 
Q 1150 -91 751 415 
Q 353 922 353 1747 
Q 353 2572 751 3078 
Q 1150 3584 1784 3584 
Q 2172 3584 2448 3432 
Q 2725 3281 2906 2969 
z
M 947 1747 
Q 947 1113 1208 752 
Q 1469 391 1925 391 
Q 2381 391 2643 752 
Q 2906 1113 2906 1747 
Q 2906 2381 2643 2742 
Q 2381 3103 1925 3103 
Q 1469 3103 1208 2742 
Q 947 2381 947 1747 
z
" transform="scale(0.015625)"/>
       <path id="DejaVuSans-6f" d="M 1959 3097 
Q 1497 3097 1228 2736 
Q 959 2375 959 1747 
Q 959 1119 1226 758 
Q 1494 397 1959 397 
Q 2419 397 2687 759 
Q 2956 1122 2956 1747 
Q 2956 2369 2687 2733 
Q 2419 3097 1959 3097 
z
M 1959 3584 
Q 2709 3584 3137 3096 
Q 3566 2609 3566 1747 
Q 3566 888 3137 398 
Q 2709 -91 1959 -91 
Q 1206 -91 779 398 
Q 353 888 353 1747 
Q 353 2609 779 3096 
Q 1206 3584 1959 3584 
z
" transform="scale(0.015625)"/>
       <path id="DejaVuSans-63" d="M 3122 3366 
L 3122 2828 
Q 2878 2963 2633 3030 
Q 2388 3097 2138 3097 
Q 1578 3097 1268 2742 
Q 959 2388 959 1747 
Q 959 1106 1268 751 
Q 1578 397 2138 397 
Q 2388 397 2633 464 
Q 2878 531 3122 666 
L 3122 134 
Q 2881 22 2623 -34 
Q 2366 -91 2075 -91 
Q 1284 -91 818 406 
Q 353 903 353 1747 
Q 353 2603 823 3093 
Q 1294 3584 2113 3584 
Q 2378 3584 2631 3529 
Q 2884 3475 3122 3366 
z
" transform="scale(0.015625)"/>
       <path id="DejaVuSans-6c" d="M 603 4863 
L 1178 4863 
L 1178 0 
L 603 0 
L 603 4863 
z
" transform="scale(0.015625)"/>
       <path id="DejaVuSans-6b" d="M 581 4863 
L 1159 4863 
L 1159 1991 
L 2875 3500 
L 3609 3500 
L 1753 1863 
L 3688 0 
L 2938 0 
L 1159 1709 
L 1159 0 
L 581 0 
L 581 4863 
z
" transform="scale(0.015625)"/>
       <path id="DejaVuSans-29" d="M 513 4856 
L 1013 4856 
Q 1481 4119 1714 3412 
Q 1947 2706 1947 2009 
Q 1947 1309 1714 600 
Q 1481 -109 1013 -844 
L 513 -844 
Q 928 -128 1133 580 
Q 1338 1288 1338 2009 
Q 1338 2731 1133 3434 
Q 928 4138 513 4856 
z
" transform="scale(0.015625)"/>
      </defs>
      <use xlink:href="#DejaVuSans-74"/>
      <use xlink:href="#DejaVuSans-69" transform="translate(39.208984 0)"/>
      <use xlink:href="#DejaVuSans-6d" transform="translate(66.992188 0)"/>
      <use xlink:href="#DejaVuSans-65" transform="translate(164.404297 0)"/>
      <use xlink:href="#DejaVuSans-20" transform="translate(225.927734 0)"/>
      <use xlink:href="#DejaVuSans-28" transform="translate(257.714844 0)"/>
      <use xlink:href="#DejaVuSans-73" transform="translate(296.728516 0)"/>
      <use xlink:href="#DejaVuSans-2c" transform="translate(348.828125 0)"/>
      <use xlink:href="#DejaVuSans-20" transform="translate(380.615234 0)"/>
      <use xlink:href="#DejaVuSans-76" transform="translate(412.402344 0)"/>
      <use xlink:href="#DejaVuSans-69" transform="translate(471.582031 0)"/>
      <use xlink:href="#DejaVuSans-64" transform="translate(499.365234 0)"/>
      <use xlink:href="#DejaVuSans-65" transform="translate(562.841797 0)"/>
      <use xlink:href="#DejaVuSans-6f" transform="translate(624.365234 0)"/>
      <use xlink:href="#DejaVuSans-20" transform="translate(685.546875 0)"/>
      <use xlink:href="#DejaVuSans-63" transform="translate(717.333984 0)"/>
      <use xlink:href="#DejaVuSans-6c" transform="translate(772.314453 0)"/>
      <use xlink:href="#DejaVuSans-6f" transform="translate(800.097656 0)"/>
      <use xlink:href="#DejaVuSans-63" transform="translate(861.279297 0)"/>
      <use xlink:href="#DejaVuSans-6b" transform="translate(916.259766 0)"/>
      <use xlink:href="#DejaVuSans-29" transform="translate(974.169922 0)"/>
     </g>
    </g>
   </g>
   <g id="matplotlib.axis_2">
    <g id="ytick_1">
     <g id="line2d_17">
      <path d="M 36.403365 257.755542 
L 788.99976 257.755542 
" clip-path="url(#p7c9bde6b6a)" style="fill: none; stroke: #ededed; stroke-width: 0.6; stroke-linecap: square"/>
     </g>
     <g id="line2d_18">
      <defs>
       <path id="mf25bc12b9e" d="M 0 0 
L -3.5 0 
" style="stroke: #000000; stroke-width: 0.8"/>
      </defs>
      <g>
       <use xlink:href="#mf25bc12b9e" x="36.403365" y="257.755542" style="stroke: #000000; stroke-width: 0.8"/>
      </g>
     </g>
     <g id="text_10">
      <!-- 0 -->
      <g transform="translate(23.040865 261.554761) scale(0.1 -0.1)">
       <use xlink:href="#DejaVuSans-30"/>
      </g>
     </g>
    </g>
    <g id="ytick_2">
     <g id="line2d_19">
      <path d="M 36.403365 221.595359 
L 788.99976 221.595359 
" clip-path="url(#p7c9bde6b6a)" style="fill: none; stroke: #ededed; stroke-width: 0.6; stroke-linecap: square"/>
     </g>
     <g id="line2d_20">
      <g>
       <use xlink:href="#mf25bc12b9e" x="36.403365" y="221.595359" style="stroke: #000000; stroke-width: 0.8"/>
      </g>
     </g>
     <g id="text_11">
      <!-- 10 -->
      <g transform="translate(16.678365 225.394578) scale(0.1 -0.1)">
       <use xlink:href="#DejaVuSans-31"/>
       <use xlink:href="#DejaVuSans-30" transform="translate(63.623047 0)"/>
      </g>
     </g>
    </g>
    <g id="ytick_3">
     <g id="line2d_21">
      <path d="M 36.403365 185.435175 
L 788.99976 185.435175 
" clip-path="url(#p7c9bde6b6a)" style="fill: none; stroke: #ededed; stroke-width: 0.6; stroke-linecap: square"/>
     </g>
     <g id="line2d_22">
      <g>
       <use xlink:href="#mf25bc12b9e" x="36.403365" y="185.435175" style="stroke: #000000; stroke-width: 0.8"/>
      </g>
     </g>
     <g id="text_12">
      <!-- 20 -->
      <g transform="translate(16.678365 189.234394) scale(0.1 -0.1)">
       <use xlink:href="#DejaVuSans-32"/>
       <use xlink:href="#DejaVuSans-30" transform="translate(63.623047 0)"/>
      </g>
     </g>
    </g>
    <g id="ytick_4">
     <g id="line2d_23">
      <path d="M 36.403365 149.274992 
L 788.99976 149.274992 
" clip-path="url(#p7c9bde6b6a)" style="fill: none; stroke: #ededed; stroke-width: 0.6; stroke-linecap: square"/>
     </g>
     <g id="line2d_24">
      <g>
       <use xlink:href="#mf25bc12b9e" x="36.403365" y="149.274992" style="stroke: #000000; stroke-width: 0.8"/>
      </g>
     </g>
     <g id="text_13">
      <!-- 30 -->
      <g transform="translate(16.678365 153.074211) scale(0.1 -0.1)">
       <defs>
        <path id="DejaVuSans-33" d="M 2597 2516 
Q 3050 2419 3304 2112 
Q 3559 1806 3559 1356 
Q 3559 666 3084 287 
Q 2609 -91 1734 -91 
Q 1441 -91 1130 -33 
Q 819 25 488 141 
L 488 750 
Q 750 597 1062 519 
Q 1375 441 1716 441 
Q 2309 441 2620 675 
Q 2931 909 2931 1356 
Q 2931 1769 2642 2001 
Q 2353 2234 1838 2234 
L 1294 2234 
L 1294 2753 
L 1863 2753 
Q 2328 2753 2575 2939 
Q 2822 3125 2822 3475 
Q 2822 3834 2567 4026 
Q 2313 4219 1838 4219 
Q 1578 4219 1281 4162 
Q 984 4106 628 3988 
L 628 4550 
Q 988 4650 1302 4700 
Q 1616 4750 1894 4750 
Q 2613 4750 3031 4423 
Q 3450 4097 3450 3541 
Q 3450 3153 3228 2886 
Q 3006 2619 2597 2516 
z
" transform="scale(0.015625)"/>
       </defs>
       <use xlink:href="#DejaVuSans-33"/>
       <use xlink:href="#DejaVuSans-30" transform="translate(63.623047 0)"/>
      </g>
     </g>
    </g>
    <g id="ytick_5">
     <g id="line2d_25">
      <path d="M 36.403365 113.114809 
L 788.99976 113.114809 
" clip-path="url(#p7c9bde6b6a)" style="fill: none; stroke: #ededed; stroke-width: 0.6; stroke-linecap: square"/>
     </g>
     <g id="line2d_26">
      <g>
       <use xlink:href="#mf25bc12b9e" x="36.403365" y="113.114809" style="stroke: #000000; stroke-width: 0.8"/>
      </g>
     </g>
     <g id="text_14">
      <!-- 40 -->
      <g transform="translate(16.678365 116.914027) scale(0.1 -0.1)">
       <defs>
        <path id="DejaVuSans-34" d="M 2419 4116 
L 825 1625 
L 2419 1625 
L 2419 4116 
z
M 2253 4666 
L 3047 4666 
L 3047 1625 
L 3713 1625 
L 3713 1100 
L 3047 1100 
L 3047 0 
L 2419 0 
L 2419 1100 
L 313 1100 
L 313 1709 
L 2253 4666 
z
" transform="scale(0.015625)"/>
       </defs>
       <use xlink:href="#DejaVuSans-34"/>
       <use xlink:href="#DejaVuSans-30" transform="translate(63.623047 0)"/>
      </g>
     </g>
    </g>
    <g id="ytick_6">
     <g id="line2d_27">
      <path d="M 36.403365 76.954625 
L 788.99976 76.954625 
" clip-path="url(#p7c9bde6b6a)" style="fill: none; stroke: #ededed; stroke-width: 0.6; stroke-linecap: square"/>
     </g>
     <g id="line2d_28">
      <g>
       <use xlink:href="#mf25bc12b9e" x="36.403365" y="76.954625" style="stroke: #000000; stroke-width: 0.8"/>
      </g>
     </g>
     <g id="text_15">
      <!-- 50 -->
      <g transform="translate(16.678365 80.753844) scale(0.1 -0.1)">
       <use xlink:href="#DejaVuSans-35"/>
       <use xlink:href="#DejaVuSans-30" transform="translate(63.623047 0)"/>
      </g>
     </g>
    </g>
    <g id="ytick_7">
     <g id="line2d_29">
      <path d="M 36.403365 40.794442 
L 788.99976 40.794442 
" clip-path="url(#p7c9bde6b6a)" style="fill: none; stroke: #ededed; stroke-width: 0.6; stroke-linecap: square"/>
     </g>
     <g id="line2d_30">
      <g>
       <use xlink:href="#mf25bc12b9e" x="36.403365" y="40.794442" style="stroke: #000000; stroke-width: 0.8"/>
      </g>
     </g>
     <g id="text_16">
      <!-- 60 -->
      <g transform="translate(16.678365 44.593661) scale(0.1 -0.1)">
       <defs>
        <path id="DejaVuSans-36" d="M 2113 2584 
Q 1688 2584 1439 2293 
Q 1191 2003 1191 1497 
Q 1191 994 1439 701 
Q 1688 409 2113 409 
Q 2538 409 2786 701 
Q 3034 994 3034 1497 
Q 3034 2003 2786 2293 
Q 2538 2584 2113 2584 
z
M 3366 4563 
L 3366 3988 
Q 3128 4100 2886 4159 
Q 2644 4219 2406 4219 
Q 1781 4219 1451 3797 
Q 1122 3375 1075 2522 
Q 1259 2794 1537 2939 
Q 1816 3084 2150 3084 
Q 2853 3084 3261 2657 
Q 3669 2231 3669 1497 
Q 3669 778 3244 343 
Q 2819 -91 2113 -91 
Q 1303 -91 875 529 
Q 447 1150 447 2328 
Q 447 3434 972 4092 
Q 1497 4750 2381 4750 
Q 2619 4750 2861 4703 
Q 3103 4656 3366 4563 
z
" transform="scale(0.015625)"/>
       </defs>
       <use xlink:href="#DejaVuSans-36"/>
       <use xlink:href="#DejaVuSans-30" transform="translate(63.623047 0)"/>
      </g>
     </g>
    </g>
    <g id="text_17">
     <!-- theta (deg) -->
     <g transform="translate(10.598677 173.021178) rotate(-90) scale(0.1 -0.1)">
      <defs>
       <path id="DejaVuSans-68" d="M 3513 2113 
L 3513 0 
L 2938 0 
L 2938 2094 
Q 2938 2591 2744 2837 
Q 2550 3084 2163 3084 
Q 1697 3084 1428 2787 
Q 1159 2491 1159 1978 
L 1159 0 
L 581 0 
L 581 4863 
L 1159 4863 
L 1159 2956 
Q 1366 3272 1645 3428 
Q 1925 3584 2291 3584 
Q 2894 3584 3203 3211 
Q 3513 2838 3513 2113 
z
" transform="scale(0.015625)"/>
       <path id="DejaVuSans-61" d="M 2194 1759 
Q 1497 1759 1228 1600 
Q 959 1441 959 1056 
Q 959 750 1161 570 
Q 1363 391 1709 391 
Q 2188 391 2477 730 
Q 2766 1069 2766 1631 
L 2766 1759 
L 2194 1759 
z
M 3341 1997 
L 3341 0 
L 2766 0 
L 2766 531 
Q 2569 213 2275 61 
Q 1981 -91 1556 -91 
Q 1019 -91 701 211 
Q 384 513 384 1019 
Q 384 1609 779 1909 
Q 1175 2209 1959 2209 
L 2766 2209 
L 2766 2266 
Q 2766 2663 2505 2880 
Q 2244 3097 1772 3097 
Q 1472 3097 1187 3025 
Q 903 2953 641 2809 
L 641 3341 
Q 956 3463 1253 3523 
Q 1550 3584 1831 3584 
Q 2591 3584 2966 3190 
Q 3341 2797 3341 1997 
z
" transform="scale(0.015625)"/>
       <path id="DejaVuSans-67" d="M 2906 1791 
Q 2906 2416 2648 2759 
Q 2391 3103 1925 3103 
Q 1463 3103 1205 2759 
Q 947 2416 947 1791 
Q 947 1169 1205 825 
Q 1463 481 1925 481 
Q 2391 481 2648 825 
Q 2906 1169 2906 1791 
z
M 3481 434 
Q 3481 -459 3084 -895 
Q 2688 -1331 1869 -1331 
Q 1566 -1331 1297 -1286 
Q 1028 -1241 775 -1147 
L 775 -588 
Q 1028 -725 1275 -790 
Q 1522 -856 1778 -856 
Q 2344 -856 2625 -561 
Q 2906 -266 2906 331 
L 2906 616 
Q 2728 306 2450 153 
Q 2172 0 1784 0 
Q 1141 0 747 490 
Q 353 981 353 1791 
Q 353 2603 747 3093 
Q 1141 3584 1784 3584 
Q 2172 3584 2450 3431 
Q 2728 3278 2906 2969 
L 2906 3500 
L 3481 3500 
L 3481 434 
z
" transform="scale(0.015625)"/>
      </defs>
      <use xlink:href="#DejaVuSans-74"/>
      <use xlink:href="#DejaVuSans-68" transform="translate(39.208984 0)"/>
      <use xlink:href="#DejaVuSans-65" transform="translate(102.587891 0)"/>
      <use xlink:href="#DejaVuSans-74" transform="translate(164.111328 0)"/>
      <use xlink:href="#DejaVuSans-61" transform="translate(203.320312 0)"/>
      <use xlink:href="#DejaVuSans-20" transform="translate(264.599609 0)"/>
      <use xlink:href="#DejaVuSans-28" transform="translate(296.386719 0)"/>
      <use xlink:href="#DejaVuSans-64" transform="translate(335.400391 0)"/>
      <use xlink:href="#DejaVuSans-65" transform="translate(398.876953 0)"/>
      <use xlink:href="#DejaVuSans-67" transform="translate(460.400391 0)"/>
      <use xlink:href="#DejaVuSans-29" transform="translate(523.876953 0)"/>
     </g>
    </g>
   </g>
   <g id="line2d_31">
    <path d="M 36.403365 257.755542 
L 52.458755 257.755542 
L 54.465678 218.471889 
L 66.507221 198.830062 
L 78.548763 169.367322 
L 90.590305 160.423552 
L 102.631848 144.398231 
L 114.67339 118.897703 
L 126.714932 105.10196 
L 138.756475 102.120594 
L 150.798017 110.221011 
L 162.839559 107.661418 
L 174.881102 113.85225 
L 186.922644 103.518353 
L 198.964186 100.941838 
L 211.005729 94.432942 
L 223.047271 89.198851 
L 235.088813 81.753922 
L 267.199593 56.540502 
L 271.21344 53.461373 
L 283.254983 45.173922 
L 295.296525 39.530349 
L 307.338067 35.702494 
L 319.37961 33.502157 
L 331.421152 32.317182 
L 345.469618 32.040077 
L 371.559626 32.71581 
L 387.615016 33.597624 
L 393.635787 33.904937 
L 417.718872 34.64242 
L 439.795033 34.120003 
L 465.885041 35.657018 
L 475.91966 37.022603 
L 487.961202 40.048839 
L 500.002744 44.663882 
L 514.05121 48.916852 
L 524.085829 51.494935 
L 540.141219 54.265713 
L 552.182761 55.997632 
L 560.210456 57.026313 
L 572.251998 50.944752 
L 584.293541 46.7739 
L 596.335083 44.733123 
L 608.376625 44.37563 
L 620.418168 45.765886 
L 632.45971 48.693615 
L 644.501252 53.651598 
L 656.542794 59.893522 
L 668.584337 71.109038 
L 680.625879 87.380016 
L 704.708964 110.079321 
L 716.750506 106.603446 
L 728.792048 114.722213 
L 740.833591 135.627186 
L 752.875133 173.75639 
L 764.916675 197.885736 
L 776.958218 212.036781 
L 788.99976 218.568033 
L 788.99976 218.568033 
" clip-path="url(#p7c9bde6b6a)" style="fill: none; stroke: #c0392b; stroke-width: 2; stroke-linecap: square"/>
   </g>
   <g id="line2d_32">
    <path d="M 35.147147 253.862072 
L 39.160995 254.442407 
L 41.167918 254.616388 
L 43.174842 254.660082 
L 45.181766 254.579698 
L 47.188689 254.352173 
L 51.202537 254.751122 
L 55.216384 255.002859 
L 59.230232 254.875135 
L 63.244079 254.331301 
L 65.251003 253.908438 
L 67.257927 253.360887 
L 69.26485 253.393092 
L 73.278698 254.295567 
L 75.285622 254.590517 
L 79.299469 254.910139 
L 83.313316 254.972559 
L 87.327164 255.04101 
L 91.341011 255.137556 
L 97.361782 254.974584 
L 105.389477 254.472023 
L 113.417172 254.466224 
L 115.424096 254.369275 
L 119.437943 253.844173 
L 123.451791 253.366461 
L 127.465638 252.972063 
L 131.479486 252.397179 
L 141.514104 250.500414 
L 143.521028 250.250337 
L 145.527952 250.352963 
L 149.541799 251.037918 
L 153.555647 251.307538 
L 157.569494 250.951014 
L 161.583342 250.427971 
L 167.604113 250.127248 
L 171.61796 249.353462 
L 191.687197 245.91585 
L 193.694121 245.6278 
L 195.701045 245.201574 
L 201.721816 243.275478 
L 205.735663 242.073687 
L 207.742587 241.402473 
L 211.756435 239.378076 
L 215.770282 237.067238 
L 217.777206 235.71076 
L 221.791053 232.661997 
L 223.797977 231.346539 
L 227.811824 228.979753 
L 229.818748 227.510136 
L 231.825672 225.822006 
L 233.832595 223.770371 
L 235.839519 221.234762 
L 237.846443 218.048662 
L 239.853367 214.135014 
L 241.86029 209.687613 
L 243.867214 204.204315 
L 245.874138 197.69195 
L 247.881061 189.581474 
L 249.887985 179.879133 
L 251.894909 168.549935 
L 257.91568 129.47754 
L 259.922604 119.068082 
L 261.929528 110.457062 
L 263.936451 104.621111 
L 265.943375 102.107714 
L 267.950299 103.046257 
L 269.957222 106.440299 
L 271.964146 108.918338 
L 273.97107 107.094572 
L 275.977994 100.522803 
L 279.991841 82.011768 
L 281.998765 74.054481 
L 284.005688 68.777427 
L 286.012612 66.33794 
L 288.019536 66.813513 
L 290.02646 69.637313 
L 292.033383 73.401195 
L 294.040307 76.18967 
L 296.047231 75.827977 
L 298.054154 71.903974 
L 302.068002 60.359072 
L 304.074926 56.716761 
L 306.081849 55.649523 
L 308.088773 57.335705 
L 310.095697 61.625352 
L 314.109544 73.485292 
L 316.116468 76.672974 
L 318.123392 76.080132 
L 320.130315 72.341166 
L 322.137239 67.639695 
L 324.144163 63.753692 
L 326.151087 61.728956 
L 328.15801 61.970659 
L 330.164934 64.784366 
L 334.178781 74.333499 
L 336.185705 76.181998 
L 338.192629 71.818336 
L 340.199553 63.548458 
L 342.206476 56.483891 
L 344.2134 52.992201 
L 346.220324 52.511765 
L 348.227247 53.674423 
L 350.234171 55.61579 
L 352.241095 57.828813 
L 354.248019 61.333681 
L 356.254942 65.969562 
L 358.261866 69.988383 
L 360.26879 71.477635 
L 362.275714 69.199432 
L 366.289561 59.821949 
L 368.296485 58.50276 
L 370.303408 61.202161 
L 372.310332 66.653979 
L 374.317256 70.985497 
L 376.32418 72.291127 
L 378.331103 70.049659 
L 382.344951 60.087517 
L 384.351874 58.284596 
L 388.365722 59.180171 
L 390.372646 58.617348 
L 392.379569 57.136089 
L 394.386493 53.259607 
L 396.393417 50.767901 
L 398.40034 51.722655 
L 400.407264 54.851195 
L 402.414188 57.764026 
L 404.421112 59.575476 
L 406.428035 60.556623 
L 408.434959 61.986766 
L 410.441883 64.691119 
L 412.448807 68.310591 
L 414.45573 71.087625 
L 416.462654 71.197789 
L 418.469578 68.289592 
L 420.476501 63.854978 
L 422.483425 59.810695 
L 424.490349 59.167264 
L 426.497273 62.199189 
L 428.504196 66.563715 
L 430.51112 69.001736 
L 432.518044 68.361385 
L 434.524967 65.103328 
L 436.531891 60.549899 
L 438.538815 58.395619 
L 440.545739 59.326451 
L 442.552662 61.694598 
L 444.559586 62.947693 
L 446.56651 62.562313 
L 448.573433 61.423404 
L 450.580357 61.326911 
L 452.587281 63.669824 
L 454.594205 67.815187 
L 456.601128 71.544032 
L 458.608052 71.998527 
L 460.614976 69.146334 
L 462.6219 64.455873 
L 464.628823 60.323015 
L 466.635747 59.783714 
L 468.642671 62.787653 
L 470.649594 66.699696 
L 472.656518 68.784157 
L 474.663442 68.453162 
L 476.670366 66.044841 
L 478.677289 62.903467 
L 480.684213 62.16539 
L 482.691137 64.403837 
L 484.69806 67.816119 
L 486.704984 70.312287 
L 490.718832 73.132363 
L 492.725755 76.088122 
L 494.732679 81.997053 
L 498.746526 98.154713 
L 500.75345 103.772509 
L 502.760374 106.267993 
L 504.767298 106.76249 
L 506.774221 105.670516 
L 508.781145 103.655951 
L 510.788069 103.125554 
L 512.794993 105.26258 
L 514.801916 108.279101 
L 516.80884 110.996672 
L 518.815764 113.99083 
L 522.829611 122.00491 
L 524.836535 123.859212 
L 526.843459 126.010765 
L 528.850382 128.704561 
L 530.857306 128.36957 
L 532.86423 125.285742 
L 534.871153 121.399831 
L 536.878077 118.73207 
L 538.885001 118.880213 
L 540.891925 122.772853 
L 542.898848 130.050072 
L 544.905772 139.018043 
L 546.912696 147.313578 
L 548.919619 153.480593 
L 550.926543 157.704801 
L 552.933467 160.48351 
L 554.940391 162.579884 
L 556.947314 164.362973 
L 558.954238 166.301584 
L 560.961162 168.878575 
L 562.968086 173.097569 
L 564.975009 179.537423 
L 568.988857 194.982322 
L 570.99578 201.692296 
L 575.009628 214.123881 
L 577.016552 219.526576 
L 579.023475 224.042569 
L 581.030399 227.857776 
L 583.037323 231.149992 
L 585.044246 234.082935 
L 587.05117 236.800891 
L 589.058094 239.003798 
L 591.065018 240.828139 
L 593.071941 242.493502 
L 595.078865 243.721539 
L 597.085789 244.419931 
L 601.099636 245.019721 
L 605.113484 245.007068 
L 611.134255 245.04736 
L 613.141179 245.134497 
L 615.148102 245.623282 
L 621.168873 248.275421 
L 623.175797 248.809275 
L 633.210416 250.19725 
L 637.224263 250.248464 
L 639.231187 250.177689 
L 641.238111 249.993856 
L 643.245034 249.993465 
L 645.251958 250.361068 
L 649.265805 251.450114 
L 651.272729 251.875048 
L 653.279653 252.138674 
L 655.286577 252.119073 
L 657.2935 251.846057 
L 659.300424 251.389437 
L 661.307348 250.7908 
L 663.314272 250.528696 
L 665.321195 250.483162 
L 673.34889 251.320107 
L 675.355814 251.239179 
L 677.362738 250.917125 
L 679.369661 250.707766 
L 689.40428 252.479905 
L 693.418127 253.203861 
L 697.431975 253.642406 
L 705.45967 253.844 
L 713.487365 253.881211 
L 721.515059 253.757581 
L 727.535831 254.03782 
L 733.556602 254.602398 
L 739.577373 254.884118 
L 745.598144 254.738727 
L 759.64661 254.528111 
L 763.660458 254.476221 
L 779.715847 254.628377 
L 789.750466 254.964448 
L 789.750466 254.964448 
" clip-path="url(#p7c9bde6b6a)" style="fill: none; stroke: #1f6fd6; stroke-width: 1.5; stroke-linecap: square"/>
   </g>
   <g id="patch_3">
    <path d="M 36.403365 269.04351 
L 36.403365 20.70822 
" style="fill: none; stroke: #000000; stroke-width: 0.8; stroke-linejoin: miter; stroke-linecap: square"/>
   </g>
   <g id="patch_4">
    <path d="M 36.403365 269.04351 
L 788.99976 269.04351 
" style="fill: none; stroke: #000000; stroke-width: 0.8; stroke-linejoin: miter; stroke-linecap: square"/>
   </g>
   <g id="legend_1">
    <g id="patch_5">
     <path d="M 667.384447 54.328845 
L 782.69976 54.328845 
Q 784.49976 54.328845 784.49976 52.528845 
L 784.49976 27.00822 
Q 784.49976 25.20822 782.69976 25.20822 
L 667.384447 25.20822 
Q 665.584448 25.20822 665.584448 27.00822 
L 665.584448 52.528845 
Q 665.584448 54.328845 667.384447 54.328845 
z
" style="fill: #ffffff; opacity: 0.8; stroke: #cccccc; stroke-linejoin: miter"/>
    </g>
    <g id="line2d_33">
     <path d="M 669.184448 32.496814 
L 678.184448 32.496814 
L 687.184448 32.496814 
" style="fill: none; stroke: #c0392b; stroke-width: 2; stroke-linecap: square"/>
    </g>
    <g id="text_18">
     <!-- video theta(t) -->
     <g transform="translate(694.384448 35.646814) scale(0.09 -0.09)">
      <use xlink:href="#DejaVuSans-76"/>
      <use xlink:href="#DejaVuSans-69" transform="translate(59.179688 0)"/>
      <use xlink:href="#DejaVuSans-64" transform="translate(86.962891 0)"/>
      <use xlink:href="#DejaVuSans-65" transform="translate(150.439453 0)"/>
      <use xlink:href="#DejaVuSans-6f" transform="translate(211.962891 0)"/>
      <use xlink:href="#DejaVuSans-20" transform="translate(273.144531 0)"/>
      <use xlink:href="#DejaVuSans-74" transform="translate(304.931641 0)"/>
      <use xlink:href="#DejaVuSans-68" transform="translate(344.140625 0)"/>
      <use xlink:href="#DejaVuSans-65" transform="translate(407.519531 0)"/>
      <use xlink:href="#DejaVuSans-74" transform="translate(469.042969 0)"/>
      <use xlink:href="#DejaVuSans-61" transform="translate(508.251953 0)"/>
      <use xlink:href="#DejaVuSans-28" transform="translate(569.53125 0)"/>
      <use xlink:href="#DejaVuSans-74" transform="translate(608.544922 0)"/>
      <use xlink:href="#DejaVuSans-29" transform="translate(647.753906 0)"/>
     </g>
    </g>
    <g id="line2d_34">
     <path d="M 669.184448 45.707126 
L 678.184448 45.707126 
L 687.184448 45.707126 
" style="fill: none; stroke: #1f6fd6; stroke-width: 1.5; stroke-linecap: square"/>
    </g>
    <g id="text_19">
     <!-- phone arctan(aT/g) -->
     <g transform="translate(694.384448 48.857126) scale(0.09 -0.09)">
      <defs>
       <path id="DejaVuSans-70" d="M 1159 525 
L 1159 -1331 
L 581 -1331 
L 581 3500 
L 1159 3500 
L 1159 2969 
Q 1341 3281 1617 3432 
Q 1894 3584 2278 3584 
Q 2916 3584 3314 3078 
Q 3713 2572 3713 1747 
Q 3713 922 3314 415 
Q 2916 -91 2278 -91 
Q 1894 -91 1617 61 
Q 1341 213 1159 525 
z
M 3116 1747 
Q 3116 2381 2855 2742 
Q 2594 3103 2138 3103 
Q 1681 3103 1420 2742 
Q 1159 2381 1159 1747 
Q 1159 1113 1420 752 
Q 1681 391 2138 391 
Q 2594 391 2855 752 
Q 3116 1113 3116 1747 
z
" transform="scale(0.015625)"/>
       <path id="DejaVuSans-6e" d="M 3513 2113 
L 3513 0 
L 2938 0 
L 2938 2094 
Q 2938 2591 2744 2837 
Q 2550 3084 2163 3084 
Q 1697 3084 1428 2787 
Q 1159 2491 1159 1978 
L 1159 0 
L 581 0 
L 581 3500 
L 1159 3500 
L 1159 2956 
Q 1366 3272 1645 3428 
Q 1925 3584 2291 3584 
Q 2894 3584 3203 3211 
Q 3513 2838 3513 2113 
z
" transform="scale(0.015625)"/>
       <path id="DejaVuSans-72" d="M 2631 2963 
Q 2534 3019 2420 3045 
Q 2306 3072 2169 3072 
Q 1681 3072 1420 2755 
Q 1159 2438 1159 1844 
L 1159 0 
L 581 0 
L 581 3500 
L 1159 3500 
L 1159 2956 
Q 1341 3275 1631 3429 
Q 1922 3584 2338 3584 
Q 2397 3584 2469 3576 
Q 2541 3569 2628 3553 
L 2631 2963 
z
" transform="scale(0.015625)"/>
       <path id="DejaVuSans-54" d="M -19 4666 
L 3928 4666 
L 3928 4134 
L 2272 4134 
L 2272 0 
L 1638 0 
L 1638 4134 
L -19 4134 
L -19 4666 
z
" transform="scale(0.015625)"/>
       <path id="DejaVuSans-2f" d="M 1625 4666 
L 2156 4666 
L 531 -594 
L 0 -594 
L 1625 4666 
z
" transform="scale(0.015625)"/>
      </defs>
      <use xlink:href="#DejaVuSans-70"/>
      <use xlink:href="#DejaVuSans-68" transform="translate(63.476562 0)"/>
      <use xlink:href="#DejaVuSans-6f" transform="translate(126.855469 0)"/>
      <use xlink:href="#DejaVuSans-6e" transform="translate(188.037109 0)"/>
      <use xlink:href="#DejaVuSans-65" transform="translate(251.416016 0)"/>
      <use xlink:href="#DejaVuSans-20" transform="translate(312.939453 0)"/>
      <use xlink:href="#DejaVuSans-61" transform="translate(344.726562 0)"/>
      <use xlink:href="#DejaVuSans-72" transform="translate(406.005859 0)"/>
      <use xlink:href="#DejaVuSans-63" transform="translate(444.869141 0)"/>
      <use xlink:href="#DejaVuSans-74" transform="translate(499.849609 0)"/>
      <use xlink:href="#DejaVuSans-61" transform="translate(539.058594 0)"/>
      <use xlink:href="#DejaVuSans-6e" transform="translate(600.337891 0)"/>
      <use xlink:href="#DejaVuSans-28" transform="translate(663.716797 0)"/>
      <use xlink:href="#DejaVuSans-61" transform="translate(702.730469 0)"/>
      <use xlink:href="#DejaVuSans-54" transform="translate(764.009766 0)"/>
      <use xlink:href="#DejaVuSans-2f" transform="translate(825.09375 0)"/>
      <use xlink:href="#DejaVuSans-67" transform="translate(858.785156 0)"/>
      <use xlink:href="#DejaVuSans-29" transform="translate(922.261719 0)"/>
     </g>
    </g>
   </g>
  </g>
  <g id="text_20">
   <!-- Video (ryan) vs accelerometer: trial 3 -->
   <g transform="translate(269.09625 12.118365) scale(0.12 -0.12)">
    <defs>
     <path id="DejaVuSans-Bold-56" d="M 31 4666 
L 1241 4666 
L 2478 1222 
L 3713 4666 
L 4922 4666 
L 3194 0 
L 1759 0 
L 31 4666 
z
" transform="scale(0.015625)"/>
     <path id="DejaVuSans-Bold-69" d="M 538 3500 
L 1656 3500 
L 1656 0 
L 538 0 
L 538 3500 
z
M 538 4863 
L 1656 4863 
L 1656 3950 
L 538 3950 
L 538 4863 
z
" transform="scale(0.015625)"/>
     <path id="DejaVuSans-Bold-64" d="M 2919 2988 
L 2919 4863 
L 4044 4863 
L 4044 0 
L 2919 0 
L 2919 506 
Q 2688 197 2409 53 
Q 2131 -91 1766 -91 
Q 1119 -91 703 423 
Q 288 938 288 1747 
Q 288 2556 703 3070 
Q 1119 3584 1766 3584 
Q 2128 3584 2408 3439 
Q 2688 3294 2919 2988 
z
M 2181 722 
Q 2541 722 2730 984 
Q 2919 1247 2919 1747 
Q 2919 2247 2730 2509 
Q 2541 2772 2181 2772 
Q 1825 2772 1636 2509 
Q 1447 2247 1447 1747 
Q 1447 1247 1636 984 
Q 1825 722 2181 722 
z
" transform="scale(0.015625)"/>
     <path id="DejaVuSans-Bold-65" d="M 4031 1759 
L 4031 1441 
L 1416 1441 
Q 1456 1047 1700 850 
Q 1944 653 2381 653 
Q 2734 653 3104 758 
Q 3475 863 3866 1075 
L 3866 213 
Q 3469 63 3072 -14 
Q 2675 -91 2278 -91 
Q 1328 -91 801 392 
Q 275 875 275 1747 
Q 275 2603 792 3093 
Q 1309 3584 2216 3584 
Q 3041 3584 3536 3087 
Q 4031 2591 4031 1759 
z
M 2881 2131 
Q 2881 2450 2695 2645 
Q 2509 2841 2209 2841 
Q 1884 2841 1681 2658 
Q 1478 2475 1428 2131 
L 2881 2131 
z
" transform="scale(0.015625)"/>
     <path id="DejaVuSans-Bold-6f" d="M 2203 2784 
Q 1831 2784 1636 2517 
Q 1441 2250 1441 1747 
Q 1441 1244 1636 976 
Q 1831 709 2203 709 
Q 2569 709 2762 976 
Q 2956 1244 2956 1747 
Q 2956 2250 2762 2517 
Q 2569 2784 2203 2784 
z
M 2203 3584 
Q 3106 3584 3614 3096 
Q 4122 2609 4122 1747 
Q 4122 884 3614 396 
Q 3106 -91 2203 -91 
Q 1297 -91 786 396 
Q 275 884 275 1747 
Q 275 2609 786 3096 
Q 1297 3584 2203 3584 
z
" transform="scale(0.015625)"/>
     <path id="DejaVuSans-Bold-20" transform="scale(0.015625)"/>
     <path id="DejaVuSans-Bold-28" d="M 2413 -844 
L 1484 -844 
Q 1006 -72 778 623 
Q 550 1319 550 2003 
Q 550 2688 779 3389 
Q 1009 4091 1484 4856 
L 2413 4856 
Q 2013 4116 1813 3408 
Q 1613 2700 1613 2009 
Q 1613 1319 1811 609 
Q 2009 -100 2413 -844 
z
" transform="scale(0.015625)"/>
     <path id="DejaVuSans-Bold-72" d="M 3138 2547 
Q 2991 2616 2845 2648 
Q 2700 2681 2553 2681 
Q 2122 2681 1889 2404 
Q 1656 2128 1656 1613 
L 1656 0 
L 538 0 
L 538 3500 
L 1656 3500 
L 1656 2925 
Q 1872 3269 2151 3426 
Q 2431 3584 2822 3584 
Q 2878 3584 2943 3579 
Q 3009 3575 3134 3559 
L 3138 2547 
z
" transform="scale(0.015625)"/>
     <path id="DejaVuSans-Bold-79" d="M 78 3500 
L 1197 3500 
L 2138 1125 
L 2938 3500 
L 4056 3500 
L 2584 -331 
Q 2363 -916 2067 -1148 
Q 1772 -1381 1288 -1381 
L 641 -1381 
L 641 -647 
L 991 -647 
Q 1275 -647 1404 -556 
Q 1534 -466 1606 -231 
L 1638 -134 
L 78 3500 
z
" transform="scale(0.015625)"/>
     <path id="DejaVuSans-Bold-61" d="M 2106 1575 
Q 1756 1575 1579 1456 
Q 1403 1338 1403 1106 
Q 1403 894 1545 773 
Q 1688 653 1941 653 
Q 2256 653 2472 879 
Q 2688 1106 2688 1447 
L 2688 1575 
L 2106 1575 
z
M 3816 1997 
L 3816 0 
L 2688 0 
L 2688 519 
Q 2463 200 2181 54 
Q 1900 -91 1497 -91 
Q 953 -91 614 226 
Q 275 544 275 1050 
Q 275 1666 698 1953 
Q 1122 2241 2028 2241 
L 2688 2241 
L 2688 2328 
Q 2688 2594 2478 2717 
Q 2269 2841 1825 2841 
Q 1466 2841 1156 2769 
Q 847 2697 581 2553 
L 581 3406 
Q 941 3494 1303 3539 
Q 1666 3584 2028 3584 
Q 2975 3584 3395 3211 
Q 3816 2838 3816 1997 
z
" transform="scale(0.015625)"/>
     <path id="DejaVuSans-Bold-6e" d="M 4056 2131 
L 4056 0 
L 2931 0 
L 2931 347 
L 2931 1631 
Q 2931 2084 2911 2256 
Q 2891 2428 2841 2509 
Q 2775 2619 2662 2680 
Q 2550 2741 2406 2741 
Q 2056 2741 1856 2470 
Q 1656 2200 1656 1722 
L 1656 0 
L 538 0 
L 538 3500 
L 1656 3500 
L 1656 2988 
Q 1909 3294 2193 3439 
Q 2478 3584 2822 3584 
Q 3428 3584 3742 3212 
Q 4056 2841 4056 2131 
z
" transform="scale(0.015625)"/>
     <path id="DejaVuSans-Bold-29" d="M 513 -844 
Q 913 -100 1113 609 
Q 1313 1319 1313 2009 
Q 1313 2700 1113 3408 
Q 913 4116 513 4856 
L 1441 4856 
Q 1916 4091 2145 3389 
Q 2375 2688 2375 2003 
Q 2375 1319 2147 623 
Q 1919 -72 1441 -844 
L 513 -844 
z
" transform="scale(0.015625)"/>
     <path id="DejaVuSans-Bold-76" d="M 97 3500 
L 1216 3500 
L 2088 1081 
L 2956 3500 
L 4078 3500 
L 2700 0 
L 1472 0 
L 97 3500 
z
" transform="scale(0.015625)"/>
     <path id="DejaVuSans-Bold-73" d="M 3272 3391 
L 3272 2541 
Q 2913 2691 2578 2766 
Q 2244 2841 1947 2841 
Q 1628 2841 1473 2761 
Q 1319 2681 1319 2516 
Q 1319 2381 1436 2309 
Q 1553 2238 1856 2203 
L 2053 2175 
Q 2913 2066 3209 1816 
Q 3506 1566 3506 1031 
Q 3506 472 3093 190 
Q 2681 -91 1863 -91 
Q 1516 -91 1145 -36 
Q 775 19 384 128 
L 384 978 
Q 719 816 1070 734 
Q 1422 653 1784 653 
Q 2113 653 2278 743 
Q 2444 834 2444 1013 
Q 2444 1163 2330 1236 
Q 2216 1309 1875 1350 
L 1678 1375 
Q 931 1469 631 1722 
Q 331 1975 331 2491 
Q 331 3047 712 3315 
Q 1094 3584 1881 3584 
Q 2191 3584 2531 3537 
Q 2872 3491 3272 3391 
z
" transform="scale(0.015625)"/>
     <path id="DejaVuSans-Bold-63" d="M 3366 3391 
L 3366 2478 
Q 3138 2634 2908 2709 
Q 2678 2784 2431 2784 
Q 1963 2784 1702 2511 
Q 1441 2238 1441 1747 
Q 1441 1256 1702 982 
Q 1963 709 2431 709 
Q 2694 709 2930 787 
Q 3166 866 3366 1019 
L 3366 103 
Q 3103 6 2833 -42 
Q 2563 -91 2291 -91 
Q 1344 -91 809 395 
Q 275 881 275 1747 
Q 275 2613 809 3098 
Q 1344 3584 2291 3584 
Q 2566 3584 2833 3536 
Q 3100 3488 3366 3391 
z
" transform="scale(0.015625)"/>
     <path id="DejaVuSans-Bold-6c" d="M 538 4863 
L 1656 4863 
L 1656 0 
L 538 0 
L 538 4863 
z
" transform="scale(0.015625)"/>
     <path id="DejaVuSans-Bold-6d" d="M 3781 2919 
Q 3994 3244 4286 3414 
Q 4578 3584 4928 3584 
Q 5531 3584 5847 3212 
Q 6163 2841 6163 2131 
L 6163 0 
L 5038 0 
L 5038 1825 
Q 5041 1866 5042 1909 
Q 5044 1953 5044 2034 
Q 5044 2406 4934 2573 
Q 4825 2741 4581 2741 
Q 4263 2741 4089 2478 
Q 3916 2216 3909 1719 
L 3909 0 
L 2784 0 
L 2784 1825 
Q 2784 2406 2684 2573 
Q 2584 2741 2328 2741 
Q 2006 2741 1831 2477 
Q 1656 2213 1656 1722 
L 1656 0 
L 531 0 
L 531 3500 
L 1656 3500 
L 1656 2988 
Q 1863 3284 2130 3434 
Q 2397 3584 2719 3584 
Q 3081 3584 3359 3409 
Q 3638 3234 3781 2919 
z
" transform="scale(0.015625)"/>
     <path id="DejaVuSans-Bold-74" d="M 1759 4494 
L 1759 3500 
L 2913 3500 
L 2913 2700 
L 1759 2700 
L 1759 1216 
Q 1759 972 1856 886 
Q 1953 800 2241 800 
L 2816 800 
L 2816 0 
L 1856 0 
Q 1194 0 917 276 
Q 641 553 641 1216 
L 641 2700 
L 84 2700 
L 84 3500 
L 641 3500 
L 641 4494 
L 1759 4494 
z
" transform="scale(0.015625)"/>
     <path id="DejaVuSans-Bold-3a" d="M 716 3500 
L 1844 3500 
L 1844 2291 
L 716 2291 
L 716 3500 
z
M 716 1209 
L 1844 1209 
L 1844 0 
L 716 0 
L 716 1209 
z
" transform="scale(0.015625)"/>
     <path id="DejaVuSans-Bold-33" d="M 2981 2516 
Q 3453 2394 3698 2092 
Q 3944 1791 3944 1325 
Q 3944 631 3412 270 
Q 2881 -91 1863 -91 
Q 1503 -91 1142 -33 
Q 781 25 428 141 
L 428 1069 
Q 766 900 1098 814 
Q 1431 728 1753 728 
Q 2231 728 2486 893 
Q 2741 1059 2741 1369 
Q 2741 1688 2480 1852 
Q 2219 2016 1709 2016 
L 1228 2016 
L 1228 2791 
L 1734 2791 
Q 2188 2791 2409 2933 
Q 2631 3075 2631 3366 
Q 2631 3634 2415 3781 
Q 2200 3928 1806 3928 
Q 1516 3928 1219 3862 
Q 922 3797 628 3669 
L 628 4550 
Q 984 4650 1334 4700 
Q 1684 4750 2022 4750 
Q 2931 4750 3382 4451 
Q 3834 4153 3834 3553 
Q 3834 3144 3618 2883 
Q 3403 2622 2981 2516 
z
" transform="scale(0.015625)"/>
    </defs>
    <use xlink:href="#DejaVuSans-Bold-56"/>
    <use xlink:href="#DejaVuSans-Bold-69" transform="translate(75.642578 0)"/>
    <use xlink:href="#DejaVuSans-Bold-64" transform="translate(109.919922 0)"/>
    <use xlink:href="#DejaVuSans-Bold-65" transform="translate(181.501953 0)"/>
    <use xlink:href="#DejaVuSans-Bold-6f" transform="translate(249.324219 0)"/>
    <use xlink:href="#DejaVuSans-Bold-20" transform="translate(318.025391 0)"/>
    <use xlink:href="#DejaVuSans-Bold-28" transform="translate(352.839844 0)"/>
    <use xlink:href="#DejaVuSans-Bold-72" transform="translate(398.542969 0)"/>
    <use xlink:href="#DejaVuSans-Bold-79" transform="translate(447.859375 0)"/>
    <use xlink:href="#DejaVuSans-Bold-61" transform="translate(513.044922 0)"/>
    <use xlink:href="#DejaVuSans-Bold-6e" transform="translate(580.525391 0)"/>
    <use xlink:href="#DejaVuSans-Bold-29" transform="translate(651.716797 0)"/>
    <use xlink:href="#DejaVuSans-Bold-20" transform="translate(697.419922 0)"/>
    <use xlink:href="#DejaVuSans-Bold-76" transform="translate(732.234375 0)"/>
    <use xlink:href="#DejaVuSans-Bold-73" transform="translate(797.419922 0)"/>
    <use xlink:href="#DejaVuSans-Bold-20" transform="translate(856.941406 0)"/>
    <use xlink:href="#DejaVuSans-Bold-61" transform="translate(891.755859 0)"/>
    <use xlink:href="#DejaVuSans-Bold-63" transform="translate(959.236328 0)"/>
    <use xlink:href="#DejaVuSans-Bold-63" transform="translate(1018.513672 0)"/>
    <use xlink:href="#DejaVuSans-Bold-65" transform="translate(1077.791016 0)"/>
    <use xlink:href="#DejaVuSans-Bold-6c" transform="translate(1145.613281 0)"/>
    <use xlink:href="#DejaVuSans-Bold-65" transform="translate(1179.890625 0)"/>
    <use xlink:href="#DejaVuSans-Bold-72" transform="translate(1247.712891 0)"/>
    <use xlink:href="#DejaVuSans-Bold-6f" transform="translate(1297.029297 0)"/>
    <use xlink:href="#DejaVuSans-Bold-6d" transform="translate(1365.730469 0)"/>
    <use xlink:href="#DejaVuSans-Bold-65" transform="translate(1469.929688 0)"/>
    <use xlink:href="#DejaVuSans-Bold-74" transform="translate(1537.751953 0)"/>
    <use xlink:href="#DejaVuSans-Bold-65" transform="translate(1585.554688 0)"/>
    <use xlink:href="#DejaVuSans-Bold-72" transform="translate(1653.376953 0)"/>
    <use xlink:href="#DejaVuSans-Bold-3a" transform="translate(1702.693359 0)"/>
    <use xlink:href="#DejaVuSans-Bold-20" transform="translate(1742.683594 0)"/>
    <use xlink:href="#DejaVuSans-Bold-74" transform="translate(1777.498047 0)"/>
    <use xlink:href="#DejaVuSans-Bold-72" transform="translate(1825.300781 0)"/>
    <use xlink:href="#DejaVuSans-Bold-69" transform="translate(1874.617188 0)"/>
    <use xlink:href="#DejaVuSans-Bold-61" transform="translate(1908.894531 0)"/>
    <use xlink:href="#DejaVuSans-Bold-6c" transform="translate(1976.375 0)"/>
    <use xlink:href="#DejaVuSans-Bold-20" transform="translate(2010.652344 0)"/>
    <use xlink:href="#DejaVuSans-Bold-33" transform="translate(2045.466797 0)"/>
   </g>
  </g>
 </g>
 <defs>
  <clipPath id="p7c9bde6b6a">
   <rect x="36.403365" y="20.70822" width="752.596395" height="248.33529"/>
  </clipPath>
 </defs>
</svg>
