<?xml version="1.0" encoding="utf-8" standalone="no"?>
<!DOCTYPE svg PUBLIC "-//W3C//DTD SVG 1.1//EN"
  "http://www.w3.org/Graphics/SVG/1.1/DTD/svg11.dtd">
<svg xmlns:xlink="http://www.w3.org/1999/xlink" width="792pt" height="432pt" viewBox="0 0 792 432" xmlns="http://www.w3.org/2000/svg" version="1.1">
 <metadata>
  <rdf:RDF xmlns:dc="http://purl.org/dc/elements/1.1/" xmlns:cc="http://creativecommons.org/ns#" xmlns:rdf="http://www.w3.org/1999/02/22-rdf-syntax-ns#">
   <cc:Work>
    <dc:type rdf:resource="http://purl.org/dc/dcmitype/StillImage"/>
    <dc:date>2026-07-15T21:27:33.081097</dc:date>
    <dc:format>image/svg+xml</dc:format>
    <dc:creator>
     <cc:Agent>
      <dc:title>Matplotlib v3.10.3, https://matplotlib.org/</dc:title>
     </cc:Agent>
    </dc:creator>
   </cc:Work>
  </rdf:RDF>
 </metadata>
 <defs>
  <style type="text/css">*{stroke-linejoin: round; stroke-linecap: butt}</style>
 </defs>
 <g id="figure_1">
  <g id="patch_1">
   <path d="M 0 432 
L 792 432 
L 792 0 
L 0 0 
z
" style="fill: #ffffff"/>
  </g>
  <g id="axes_1">
   <g id="patch_2">
    <path d="M 36.403365 204.925625 
L 788.99976 204.925625 
L 788.99976 20.70822 
L 36.403365 20.70822 
z
" style="fill: #ffffff"/>
   </g>
   <g id="FillBetweenPolyCollection_1">
    <defs>
     <path id="ma0b9bcdb75" d="M 70.612292 -235.447893 
L 70.612292 -235.447893 
L 78.387048 -235.447893 
L 86.161804 -235.447893 
L 93.93656 -235.447893 
L 101.711317 -235.447893 
L 109.486073 -235.447893 
L 117.260829 -235.447893 
L 125.035585 -235.447893 
L 132.810341 -235.447893 
L 140.585097 -235.447893 
L 148.359854 -235.447893 
L 156.13461 -235.447893 
L 163.909366 -235.447893 
L 171.684122 -235.447893 
L 179.458878 -235.447893 
L 187.233634 -235.447893 
L 195.00839 -235.447893 
L 202.783147 -235.447893 
L 210.557903 -235.447893 
L 218.332659 -235.447893 
L 226.107415 -235.447893 
L 233.882171 -235.447893 
L 241.656927 -235.447893 
L 249.431683 -235.447893 
L 257.20644 -235.447893 
L 264.981196 -235.447893 
L 272.755952 -235.447893 
L 280.530708 -235.447893 
L 288.305464 -235.447893 
L 296.08022 -235.447893 
L 303.854976 -235.447893 
L 311.629733 -235.447893 
L 319.404489 -235.447893 
L 327.179245 -235.447893 
L 334.954001 -235.447893 
L 342.728757 -235.447893 
L 350.503513 -235.447893 
L 366.053026 -235.447893 
L 373.827782 -386.677835 
L 381.602538 -252.118615 
L 389.377294 -244.585653 
L 397.15205 -245.870173 
L 404.926806 -245.451816 
L 412.701562 -248.049072 
L 420.476319 -257.640143 
L 428.251075 -259.449063 
L 436.025831 -262.812934 
L 443.800587 -265.595742 
L 451.575343 -280.733976 
L 459.350099 -287.852518 
L 467.124856 -298.375444 
L 474.899612 -308.324061 
L 482.674368 -315.052116 
L 490.449124 -327.896962 
L 498.22388 -342.72288 
L 505.998636 -350.168007 
L 513.773392 -370.290279 
L 521.548149 -365.560897 
L 529.322905 -355.91859 
L 537.097661 -355.927025 
L 544.872417 -335.482733 
L 552.647173 -297.699478 
L 560.421929 -338.678425 
L 568.196685 -345.715215 
L 575.971442 -370.24444 
L 583.746198 -362.570733 
L 591.520954 -348.216223 
L 599.29571 -355.065936 
L 607.070466 -344.49303 
L 614.845222 -342.243684 
L 622.619978 -339.510304 
L 630.394735 -369.571245 
L 638.169491 -331.782344 
L 645.944247 -322.783468 
L 653.719003 -259.166743 
L 661.493759 -258.89914 
L 669.268515 -302.702005 
L 677.043271 -264.844625 
L 684.818028 -293.462839 
L 692.592784 -283.160892 
L 700.36754 -250.521019 
L 708.142296 -258.645569 
L 715.917052 -255.456974 
L 723.691808 -247.43367 
L 731.466565 -253.534898 
L 739.241321 -258.131282 
L 747.016077 -257.368623 
L 754.790833 -246.012573 
L 754.790833 -250.257728 
L 754.790833 -250.257728 
L 747.016077 -263.748972 
L 739.241321 -262.97958 
L 731.466565 -272.64879 
L 723.691808 -356.668461 
L 715.917052 -319.463512 
L 708.142296 -308.12565 
L 700.36754 -346.114132 
L 692.592784 -311.751226 
L 684.818028 -314.429677 
L 677.043271 -326.543825 
L 669.268515 -337.24114 
L 661.493759 -360.627042 
L 653.719003 -375.085247 
L 645.944247 -383.694175 
L 638.169491 -380.091417 
L 630.394735 -393.020664 
L 622.619978 -381.428741 
L 614.845222 -392.026213 
L 607.070466 -394.899402 
L 599.29571 -377.915596 
L 591.520954 -358.524666 
L 583.746198 -396.518474 
L 575.971442 -390.532257 
L 568.196685 -374.754306 
L 560.421929 -373.755218 
L 552.647173 -388.408943 
L 544.872417 -376.134956 
L 537.097661 -378.329689 
L 529.322905 -375.343072 
L 521.548149 -382.437965 
L 513.773392 -379.972566 
L 505.998636 -369.886156 
L 498.22388 -356.722616 
L 490.449124 -350.203726 
L 482.674368 -338.613769 
L 474.899612 -323.944767 
L 467.124856 -316.54245 
L 459.350099 -305.132353 
L 451.575343 -291.987579 
L 443.800587 -284.703345 
L 436.025831 -276.162432 
L 428.251075 -266.210297 
L 420.476319 -261.182359 
L 412.701562 -282.943901 
L 404.926806 -256.03687 
L 397.15205 -269.260687 
L 389.377294 -248.985771 
L 381.602538 -296.044445 
L 373.827782 -389.719248 
L 366.053026 -235.447893 
L 350.503513 -235.447893 
L 342.728757 -235.447893 
L 334.954001 -235.447893 
L 327.179245 -235.447893 
L 319.404489 -235.447893 
L 311.629733 -235.447893 
L 303.854976 -235.447893 
L 296.08022 -235.447893 
L 288.305464 -235.447893 
L 280.530708 -235.447893 
L 272.755952 -235.447893 
L 264.981196 -235.447893 
L 257.20644 -235.447893 
L 249.431683 -235.447893 
L 241.656927 -235.447893 
L 233.882171 -235.447893 
L 226.107415 -235.447893 
L 218.332659 -235.447893 
L 210.557903 -235.447893 
L 202.783147 -235.447893 
L 195.00839 -235.447893 
L 187.233634 -235.447893 
L 179.458878 -235.447893 
L 171.684122 -235.447893 
L 163.909366 -235.447893 
L 156.13461 -235.447893 
L 148.359854 -235.447893 
L 140.585097 -235.447893 
L 132.810341 -235.447893 
L 125.035585 -235.447893 
L 117.260829 -235.447893 
L 109.486073 -235.447893 
L 101.711317 -235.447893 
L 93.93656 -235.447893 
L 86.161804 -235.447893 
L 78.387048 -235.447893 
L 70.612292 -235.447893 
z
" style="stroke: #f2c7c0; stroke-opacity: 0.6"/>
    </defs>
    <g clip-path="url(#p053193660a)">
     <use xlink:href="#ma0b9bcdb75" x="0" y="432" style="fill: #f2c7c0; fill-opacity: 0.6; stroke: #f2c7c0; stroke-opacity: 0.6"/>
    </g>
   </g>
   <g id="patch_3">
    <path d="M 373.827782 204.925625 
L 397.15205 204.925625 
L 397.15205 20.70822 
L 373.827782 20.70822 
z
" clip-path="url(#p053193660a)" style="fill: #8fb3d9; opacity: 0.18; stroke: #8fb3d9; stroke-linejoin: miter"/>
   </g>
   <g id="patch_4">
    <path d="M 513.773392 204.925625 
L 677.043271 204.925625 
L 677.043271 20.70822 
L 513.773392 20.70822 
z
" clip-path="url(#p053193660a)" style="fill: #8fb3d9; opacity: 0.18; stroke: #8fb3d9; stroke-linejoin: miter"/>
   </g>
   <g id="matplotlib.axis_1">
    <g id="xtick_1">
     <g id="line2d_1">
      <path d="M 66.724914 204.925625 
L 66.724914 20.70822 
" clip-path="url(#p053193660a)" style="fill: none; stroke: #ededed; stroke-width: 0.6; stroke-linecap: square"/>
     </g>
     <g id="line2d_2">
      <defs>
       <path id="m6de3d236c9" d="M 0 0 
L 0 3.5 
" style="stroke: #000000; stroke-width: 0.8"/>
      </defs>
      <g>
       <use xlink:href="#m6de3d236c9" x="66.724914" y="204.925625" style="stroke: #000000; stroke-width: 0.8"/>
      </g>
     </g>
    </g>
    <g id="xtick_2">
     <g id="line2d_3">
      <path d="M 196.304183 204.925625 
L 196.304183 20.70822 
" clip-path="url(#p053193660a)" style="fill: none; stroke: #ededed; stroke-width: 0.6; stroke-linecap: square"/>
     </g>
     <g id="line2d_4">
      <g>
       <use xlink:href="#m6de3d236c9" x="196.304183" y="204.925625" style="stroke: #000000; stroke-width: 0.8"/>
      </g>
     </g>
    </g>
    <g id="xtick_3">
     <g id="line2d_5">
      <path d="M 325.883452 204.925625 
L 325.883452 20.70822 
" clip-path="url(#p053193660a)" style="fill: none; stroke: #ededed; stroke-width: 0.6; stroke-linecap: square"/>
     </g>
     <g id="line2d_6">
      <g>
       <use xlink:href="#m6de3d236c9" x="325.883452" y="204.925625" style="stroke: #000000; stroke-width: 0.8"/>
      </g>
     </g>
    </g>
    <g id="xtick_4">
     <g id="line2d_7">
      <path d="M 455.462721 204.925625 
L 455.462721 20.70822 
" clip-path="url(#p053193660a)" style="fill: none; stroke: #ededed; stroke-width: 0.6; stroke-linecap: square"/>
     </g>
     <g id="line2d_8">
      <g>
       <use xlink:href="#m6de3d236c9" x="455.462721" y="204.925625" style="stroke: #000000; stroke-width: 0.8"/>
      </g>
     </g>
    </g>
    <g id="xtick_5">
     <g id="line2d_9">
      <path d="M 585.04199 204.925625 
L 585.04199 20.70822 
" clip-path="url(#p053193660a)" style="fill: none; stroke: #ededed; stroke-width: 0.6; stroke-linecap: square"/>
     </g>
     <g id="line2d_10">
      <g>
       <use xlink:href="#m6de3d236c9" x="585.04199" y="204.925625" style="stroke: #000000; stroke-width: 0.8"/>
      </g>
     </g>
    </g>
    <g id="xtick_6">
     <g id="line2d_11">
      <path d="M 714.62126 204.925625 
L 714.62126 20.70822 
" clip-path="url(#p053193660a)" style="fill: none; stroke: #ededed; stroke-width: 0.6; stroke-linecap: square"/>
     </g>
     <g id="line2d_12">
      <g>
       <use xlink:href="#m6de3d236c9" x="714.62126" y="204.925625" style="stroke: #000000; stroke-width: 0.8"/>
      </g>
     </g>
    </g>
   </g>
   <g id="matplotlib.axis_2">
    <g id="ytick_1">
     <g id="line2d_13">
      <path d="M 36.403365 196.552107 
L 788.99976 196.552107 
" clip-path="url(#p053193660a)" style="fill: none; stroke: #ededed; stroke-width: 0.6; stroke-linecap: square"/>
     </g>
     <g id="line2d_14">
      <defs>
       <path id="mc3c5db0d96" d="M 0 0 
L -3.5 0 
" style="stroke: #000000; stroke-width: 0.8"/>
      </defs>
      <g>
       <use xlink:href="#mc3c5db0d96" x="36.403365" y="196.552107" style="stroke: #000000; stroke-width: 0.8"/>
      </g>
     </g>
     <g id="text_1">
      <!-- 0 -->
      <g transform="translate(23.040865 200.351325) scale(0.1 -0.1)">
       <defs>
        <path id="DejaVuSans-30" d="M 2034 4250 
Q 1547 4250 1301 3770 
Q 1056 3291 1056 2328 
Q 1056 1369 1301 889 
Q 1547 409 2034 409 
Q 2525 409 2770 889 
Q 3016 1369 3016 2328 
Q 3016 3291 2770 3770 
Q 2525 4250 2034 4250 
z
M 2034 4750 
Q 2819 4750 3233 4129 
Q 3647 3509 3647 2328 
Q 3647 1150 3233 529 
Q 2819 -91 2034 -91 
Q 1250 -91 836 529 
Q 422 1150 422 2328 
Q 422 3509 836 4129 
Q 1250 4750 2034 4750 
z
" transform="scale(0.015625)"/>
       </defs>
       <use xlink:href="#DejaVuSans-30"/>
      </g>
     </g>
    </g>
    <g id="ytick_2">
     <g id="line2d_15">
      <path d="M 36.403365 159.719173 
L 788.99976 159.719173 
" clip-path="url(#p053193660a)" style="fill: none; stroke: #ededed; stroke-width: 0.6; stroke-linecap: square"/>
     </g>
     <g id="line2d_16">
      <g>
       <use xlink:href="#mc3c5db0d96" x="36.403365" y="159.719173" style="stroke: #000000; stroke-width: 0.8"/>
      </g>
     </g>
     <g id="text_2">
      <!-- 10 -->
      <g transform="translate(16.678365 163.518392) scale(0.1 -0.1)">
       <defs>
        <path id="DejaVuSans-31" d="M 794 531 
L 1825 531 
L 1825 4091 
L 703 3866 
L 703 4441 
L 1819 4666 
L 2450 4666 
L 2450 531 
L 3481 531 
L 3481 0 
L 794 0 
L 794 531 
z
" transform="scale(0.015625)"/>
       </defs>
       <use xlink:href="#DejaVuSans-31"/>
       <use xlink:href="#DejaVuSans-30" transform="translate(63.623047 0)"/>
      </g>
     </g>
    </g>
    <g id="ytick_3">
     <g id="line2d_17">
      <path d="M 36.403365 122.886239 
L 788.99976 122.886239 
" clip-path="url(#p053193660a)" style="fill: none; stroke: #ededed; stroke-width: 0.6; stroke-linecap: square"/>
     </g>
     <g id="line2d_18">
      <g>
       <use xlink:href="#mc3c5db0d96" x="36.403365" y="122.886239" style="stroke: #000000; stroke-width: 0.8"/>
      </g>
     </g>
     <g id="text_3">
      <!-- 20 -->
      <g transform="translate(16.678365 126.685458) scale(0.1 -0.1)">
       <defs>
        <path id="DejaVuSans-32" d="M 1228 531 
L 3431 531 
L 3431 0 
L 469 0 
L 469 531 
Q 828 903 1448 1529 
Q 2069 2156 2228 2338 
Q 2531 2678 2651 2914 
Q 2772 3150 2772 3378 
Q 2772 3750 2511 3984 
Q 2250 4219 1831 4219 
Q 1534 4219 1204 4116 
Q 875 4013 500 3803 
L 500 4441 
Q 881 4594 1212 4672 
Q 1544 4750 1819 4750 
Q 2544 4750 2975 4387 
Q 3406 4025 3406 3419 
Q 3406 3131 3298 2873 
Q 3191 2616 2906 2266 
Q 2828 2175 2409 1742 
Q 1991 1309 1228 531 
z
" transform="scale(0.015625)"/>
       </defs>
       <use xlink:href="#DejaVuSans-32"/>
       <use xlink:href="#DejaVuSans-30" transform="translate(63.623047 0)"/>
      </g>
     </g>
    </g>
    <g id="ytick_4">
     <g id="line2d_19">
      <path d="M 36.403365 86.053306 
L 788.99976 86.053306 
" clip-path="url(#p053193660a)" style="fill: none; stroke: #ededed; stroke-width: 0.6; stroke-linecap: square"/>
     </g>
     <g id="line2d_20">
      <g>
       <use xlink:href="#mc3c5db0d96" x="36.403365" y="86.053306" style="stroke: #000000; stroke-width: 0.8"/>
      </g>
     </g>
     <g id="text_4">
      <!-- 30 -->
      <g transform="translate(16.678365 89.852525) scale(0.1 -0.1)">
       <defs>
        <path id="DejaVuSans-33" d="M 2597 2516 
Q 3050 2419 3304 2112 
Q 3559 1806 3559 1356 
Q 3559 666 3084 287 
Q 2609 -91 1734 -91 
Q 1441 -91 1130 -33 
Q 819 25 488 141 
L 488 750 
Q 750 597 1062 519 
Q 1375 441 1716 441 
Q 2309 441 2620 675 
Q 2931 909 2931 1356 
Q 2931 1769 2642 2001 
Q 2353 2234 1838 2234 
L 1294 2234 
L 1294 2753 
L 1863 2753 
Q 2328 2753 2575 2939 
Q 2822 3125 2822 3475 
Q 2822 3834 2567 4026 
Q 2313 4219 1838 4219 
Q 1578 4219 1281 4162 
Q 984 4106 628 3988 
L 628 4550 
Q 988 4650 1302 4700 
Q 1616 4750 1894 4750 
Q 2613 4750 3031 4423 
Q 3450 4097 3450 3541 
Q 3450 3153 3228 2886 
Q 3006 2619 2597 2516 
z
" transform="scale(0.015625)"/>
       </defs>
       <use xlink:href="#DejaVuSans-33"/>
       <use xlink:href="#DejaVuSans-30" transform="translate(63.623047 0)"/>
      </g>
     </g>
    </g>
    <g id="ytick_5">
     <g id="line2d_21">
      <path d="M 36.403365 49.220372 
L 788.99976 49.220372 
" clip-path="url(#p053193660a)" style="fill: none; stroke: #ededed; stroke-width: 0.6; stroke-linecap: square"/>
     </g>
     <g id="line2d_22">
      <g>
       <use xlink:href="#mc3c5db0d96" x="36.403365" y="49.220372" style="stroke: #000000; stroke-width: 0.8"/>
      </g>
     </g>
     <g id="text_5">
      <!-- 40 -->
      <g transform="translate(16.678365 53.019591) scale(0.1 -0.1)">
       <defs>
        <path id="DejaVuSans-34" d="M 2419 4116 
L 825 1625 
L 2419 1625 
L 2419 4116 
z
M 2253 4666 
L 3047 4666 
L 3047 1625 
L 3713 1625 
L 3713 1100 
L 3047 1100 
L 3047 0 
L 2419 0 
L 2419 1100 
L 313 1100 
L 313 1709 
L 2253 4666 
z
" transform="scale(0.015625)"/>
       </defs>
       <use xlink:href="#DejaVuSans-34"/>
       <use xlink:href="#DejaVuSans-30" transform="translate(63.623047 0)"/>
      </g>
     </g>
    </g>
    <g id="text_6">
     <!-- fly-out angle theta (deg) -->
     <g transform="translate(10.598678 174.120048) rotate(-90) scale(0.1 -0.1)">
      <defs>
       <path id="DejaVuSans-66" d="M 2375 4863 
L 2375 4384 
L 1825 4384 
Q 1516 4384 1395 4259 
Q 1275 4134 1275 3809 
L 1275 3500 
L 2222 3500 
L 2222 3053 
L 1275 3053 
L 1275 0 
L 697 0 
L 697 3053 
L 147 3053 
L 147 3500 
L 697 3500 
L 697 3744 
Q 697 4328 969 4595 
Q 1241 4863 1831 4863 
L 2375 4863 
z
" transform="scale(0.015625)"/>
       <path id="DejaVuSans-6c" d="M 603 4863 
L 1178 4863 
L 1178 0 
L 603 0 
L 603 4863 
z
" transform="scale(0.015625)"/>
       <path id="DejaVuSans-79" d="M 2059 -325 
Q 1816 -950 1584 -1140 
Q 1353 -1331 966 -1331 
L 506 -1331 
L 506 -850 
L 844 -850 
Q 1081 -850 1212 -737 
Q 1344 -625 1503 -206 
L 1606 56 
L 191 3500 
L 800 3500 
L 1894 763 
L 2988 3500 
L 3597 3500 
L 2059 -325 
z
" transform="scale(0.015625)"/>
       <path id="DejaVuSans-2d" d="M 313 2009 
L 1997 2009 
L 1997 1497 
L 313 1497 
L 313 2009 
z
" transform="scale(0.015625)"/>
       <path id="DejaVuSans-6f" d="M 1959 3097 
Q 1497 3097 1228 2736 
Q 959 2375 959 1747 
Q 959 1119 1226 758 
Q 1494 397 1959 397 
Q 2419 397 2687 759 
Q 2956 1122 2956 1747 
Q 2956 2369 2687 2733 
Q 2419 3097 1959 3097 
z
M 1959 3584 
Q 2709 3584 3137 3096 
Q 3566 2609 3566 1747 
Q 3566 888 3137 398 
Q 2709 -91 1959 -91 
Q 1206 -91 779 398 
Q 353 888 353 1747 
Q 353 2609 779 3096 
Q 1206 3584 1959 3584 
z
" transform="scale(0.015625)"/>
       <path id="DejaVuSans-75" d="M 544 1381 
L 544 3500 
L 1119 3500 
L 1119 1403 
Q 1119 906 1312 657 
Q 1506 409 1894 409 
Q 2359 409 2629 706 
Q 2900 1003 2900 1516 
L 2900 3500 
L 3475 3500 
L 3475 0 
L 2900 0 
L 2900 538 
Q 2691 219 2414 64 
Q 2138 -91 1772 -91 
Q 1169 -91 856 284 
Q 544 659 544 1381 
z
M 1991 3584 
L 1991 3584 
z
" transform="scale(0.015625)"/>
       <path id="DejaVuSans-74" d="M 1172 4494 
L 1172 3500 
L 2356 3500 
L 2356 3053 
L 1172 3053 
L 1172 1153 
Q 1172 725 1289 603 
Q 1406 481 1766 481 
L 2356 481 
L 2356 0 
L 1766 0 
Q 1100 0 847 248 
Q 594 497 594 1153 
L 594 3053 
L 172 3053 
L 172 3500 
L 594 3500 
L 594 4494 
L 1172 4494 
z
" transform="scale(0.015625)"/>
       <path id="DejaVuSans-20" transform="scale(0.015625)"/>
       <path id="DejaVuSans-61" d="M 2194 1759 
Q 1497 1759 1228 1600 
Q 959 1441 959 1056 
Q 959 750 1161 570 
Q 1363 391 1709 391 
Q 2188 391 2477 730 
Q 2766 1069 2766 1631 
L 2766 1759 
L 2194 1759 
z
M 3341 1997 
L 3341 0 
L 2766 0 
L 2766 531 
Q 2569 213 2275 61 
Q 1981 -91 1556 -91 
Q 1019 -91 701 211 
Q 384 513 384 1019 
Q 384 1609 779 1909 
Q 1175 2209 1959 2209 
L 2766 2209 
L 2766 2266 
Q 2766 2663 2505 2880 
Q 2244 3097 1772 3097 
Q 1472 3097 1187 3025 
Q 903 2953 641 2809 
L 641 3341 
Q 956 3463 1253 3523 
Q 1550 3584 1831 3584 
Q 2591 3584 2966 3190 
Q 3341 2797 3341 1997 
z
" transform="scale(0.015625)"/>
       <path id="DejaVuSans-6e" d="M 3513 2113 
L 3513 0 
L 2938 0 
L 2938 2094 
Q 2938 2591 2744 2837 
Q 2550 3084 2163 3084 
Q 1697 3084 1428 2787 
Q 1159 2491 1159 1978 
L 1159 0 
L 581 0 
L 581 3500 
L 1159 3500 
L 1159 2956 
Q 1366 3272 1645 3428 
Q 1925 3584 2291 3584 
Q 2894 3584 3203 3211 
Q 3513 2838 3513 2113 
z
" transform="scale(0.015625)"/>
       <path id="DejaVuSans-67" d="M 2906 1791 
Q 2906 2416 2648 2759 
Q 2391 3103 1925 3103 
Q 1463 3103 1205 2759 
Q 947 2416 947 1791 
Q 947 1169 1205 825 
Q 1463 481 1925 481 
Q 2391 481 2648 825 
Q 2906 1169 2906 1791 
z
M 3481 434 
Q 3481 -459 3084 -895 
Q 2688 -1331 1869 -1331 
Q 1566 -1331 1297 -1286 
Q 1028 -1241 775 -1147 
L 775 -588 
Q 1028 -725 1275 -790 
Q 1522 -856 1778 -856 
Q 2344 -856 2625 -561 
Q 2906 -266 2906 331 
L 2906 616 
Q 2728 306 2450 153 
Q 2172 0 1784 0 
Q 1141 0 747 490 
Q 353 981 353 1791 
Q 353 2603 747 3093 
Q 1141 3584 1784 3584 
Q 2172 3584 2450 3431 
Q 2728 3278 2906 2969 
L 2906 3500 
L 3481 3500 
L 3481 434 
z
" transform="scale(0.015625)"/>
       <path id="DejaVuSans-65" d="M 3597 1894 
L 3597 1613 
L 953 1613 
Q 991 1019 1311 708 
Q 1631 397 2203 397 
Q 2534 397 2845 478 
Q 3156 559 3463 722 
L 3463 178 
Q 3153 47 2828 -22 
Q 2503 -91 2169 -91 
Q 1331 -91 842 396 
Q 353 884 353 1716 
Q 353 2575 817 3079 
Q 1281 3584 2069 3584 
Q 2775 3584 3186 3129 
Q 3597 2675 3597 1894 
z
M 3022 2063 
Q 3016 2534 2758 2815 
Q 2500 3097 2075 3097 
Q 1594 3097 1305 2825 
Q 1016 2553 972 2059 
L 3022 2063 
z
" transform="scale(0.015625)"/>
       <path id="DejaVuSans-68" d="M 3513 2113 
L 3513 0 
L 2938 0 
L 2938 2094 
Q 2938 2591 2744 2837 
Q 2550 3084 2163 3084 
Q 1697 3084 1428 2787 
Q 1159 2491 1159 1978 
L 1159 0 
L 581 0 
L 581 4863 
L 1159 4863 
L 1159 2956 
Q 1366 3272 1645 3428 
Q 1925 3584 2291 3584 
Q 2894 3584 3203 3211 
Q 3513 2838 3513 2113 
z
" transform="scale(0.015625)"/>
       <path id="DejaVuSans-28" d="M 1984 4856 
Q 1566 4138 1362 3434 
Q 1159 2731 1159 2009 
Q 1159 1288 1364 580 
Q 1569 -128 1984 -844 
L 1484 -844 
Q 1016 -109 783 600 
Q 550 1309 550 2009 
Q 550 2706 781 3412 
Q 1013 4119 1484 4856 
L 1984 4856 
z
" transform="scale(0.015625)"/>
       <path id="DejaVuSans-64" d="M 2906 2969 
L 2906 4863 
L 3481 4863 
L 3481 0 
L 2906 0 
L 2906 525 
Q 2725 213 2448 61 
Q 2172 -91 1784 -91 
Q 1150 -91 751 415 
Q 353 922 353 1747 
Q 353 2572 751 3078 
Q 1150 3584 1784 3584 
Q 2172 3584 2448 3432 
Q 2725 3281 2906 2969 
z
M 947 1747 
Q 947 1113 1208 752 
Q 1469 391 1925 391 
Q 2381 391 2643 752 
Q 2906 1113 2906 1747 
Q 2906 2381 2643 2742 
Q 2381 3103 1925 3103 
Q 1469 3103 1208 2742 
Q 947 2381 947 1747 
z
" transform="scale(0.015625)"/>
       <path id="DejaVuSans-29" d="M 513 4856 
L 1013 4856 
Q 1481 4119 1714 3412 
Q 1947 2706 1947 2009 
Q 1947 1309 1714 600 
Q 1481 -109 1013 -844 
L 513 -844 
Q 928 -128 1133 580 
Q 1338 1288 1338 2009 
Q 1338 2731 1133 3434 
Q 928 4138 513 4856 
z
" transform="scale(0.015625)"/>
      </defs>
      <use xlink:href="#DejaVuSans-66"/>
      <use xlink:href="#DejaVuSans-6c" transform="translate(35.205078 0)"/>
      <use xlink:href="#DejaVuSans-79" transform="translate(62.988281 0)"/>
      <use xlink:href="#DejaVuSans-2d" transform="translate(120.417969 0)"/>
      <use xlink:href="#DejaVuSans-6f" transform="translate(158.376953 0)"/>
      <use xlink:href="#DejaVuSans-75" transform="translate(219.558594 0)"/>
      <use xlink:href="#DejaVuSans-74" transform="translate(282.9375 0)"/>
      <use xlink:href="#DejaVuSans-20" transform="translate(322.146484 0)"/>
      <use xlink:href="#DejaVuSans-61" transform="translate(353.933594 0)"/>
      <use xlink:href="#DejaVuSans-6e" transform="translate(415.212891 0)"/>
      <use xlink:href="#DejaVuSans-67" transform="translate(478.591797 0)"/>
      <use xlink:href="#DejaVuSans-6c" transform="translate(542.068359 0)"/>
      <use xlink:href="#DejaVuSans-65" transform="translate(569.851562 0)"/>
      <use xlink:href="#DejaVuSans-20" transform="translate(631.375 0)"/>
      <use xlink:href="#DejaVuSans-74" transform="translate(663.162109 0)"/>
      <use xlink:href="#DejaVuSans-68" transform="translate(702.371094 0)"/>
      <use xlink:href="#DejaVuSans-65" transform="translate(765.75 0)"/>
      <use xlink:href="#DejaVuSans-74" transform="translate(827.273438 0)"/>
      <use xlink:href="#DejaVuSans-61" transform="translate(866.482422 0)"/>
      <use xlink:href="#DejaVuSans-20" transform="translate(927.761719 0)"/>
      <use xlink:href="#DejaVuSans-28" transform="translate(959.548828 0)"/>
      <use xlink:href="#DejaVuSans-64" transform="translate(998.5625 0)"/>
      <use xlink:href="#DejaVuSans-65" transform="translate(1062.039062 0)"/>
      <use xlink:href="#DejaVuSans-67" transform="translate(1123.5625 0)"/>
      <use xlink:href="#DejaVuSans-29" transform="translate(1187.039062 0)"/>
     </g>
    </g>
   </g>
   <g id="line2d_23">
    <defs>
     <path id="m35d20efd1c" d="M 0 1 
C 0.265203 1 0.51958 0.894634 0.707107 0.707107 
C 0.894634 0.51958 1 0.265203 1 0 
C 1 -0.265203 0.894634 -0.51958 0.707107 -0.707107 
C 0.51958 -0.894634 0.265203 -1 0 -1 
C -0.265203 -1 -0.51958 -0.894634 -0.707107 -0.707107 
C -0.894634 -0.51958 -1 -0.265203 -1 0 
C -1 0.265203 -0.894634 0.51958 -0.707107 0.707107 
C -0.51958 0.894634 -0.265203 1 0 1 
z
" style="stroke: #9aa0a6"/>
    </defs>
    <g clip-path="url(#p053193660a)">
     <use xlink:href="#m35d20efd1c" x="70.612292" y="196.552107" style="fill: #9aa0a6; stroke: #9aa0a6"/>
     <use xlink:href="#m35d20efd1c" x="78.387048" y="196.552107" style="fill: #9aa0a6; stroke: #9aa0a6"/>
     <use xlink:href="#m35d20efd1c" x="86.161804" y="196.552107" style="fill: #9aa0a6; stroke: #9aa0a6"/>
     <use xlink:href="#m35d20efd1c" x="93.93656" y="196.552107" style="fill: #9aa0a6; stroke: #9aa0a6"/>
     <use xlink:href="#m35d20efd1c" x="101.711317" y="196.552107" style="fill: #9aa0a6; stroke: #9aa0a6"/>
     <use xlink:href="#m35d20efd1c" x="109.486073" y="196.552107" style="fill: #9aa0a6; stroke: #9aa0a6"/>
     <use xlink:href="#m35d20efd1c" x="117.260829" y="196.552107" style="fill: #9aa0a6; stroke: #9aa0a6"/>
     <use xlink:href="#m35d20efd1c" x="125.035585" y="196.552107" style="fill: #9aa0a6; stroke: #9aa0a6"/>
     <use xlink:href="#m35d20efd1c" x="132.810341" y="196.552107" style="fill: #9aa0a6; stroke: #9aa0a6"/>
     <use xlink:href="#m35d20efd1c" x="140.585097" y="196.552107" style="fill: #9aa0a6; stroke: #9aa0a6"/>
     <use xlink:href="#m35d20efd1c" x="148.359854" y="196.552107" style="fill: #9aa0a6; stroke: #9aa0a6"/>
     <use xlink:href="#m35d20efd1c" x="156.13461" y="196.552107" style="fill: #9aa0a6; stroke: #9aa0a6"/>
     <use xlink:href="#m35d20efd1c" x="163.909366" y="196.552107" style="fill: #9aa0a6; stroke: #9aa0a6"/>
     <use xlink:href="#m35d20efd1c" x="171.684122" y="196.552107" style="fill: #9aa0a6; stroke: #9aa0a6"/>
     <use xlink:href="#m35d20efd1c" x="179.458878" y="196.552107" style="fill: #9aa0a6; stroke: #9aa0a6"/>
     <use xlink:href="#m35d20efd1c" x="187.233634" y="196.552107" style="fill: #9aa0a6; stroke: #9aa0a6"/>
     <use xlink:href="#m35d20efd1c" x="195.00839" y="196.552107" style="fill: #9aa0a6; stroke: #9aa0a6"/>
     <use xlink:href="#m35d20efd1c" x="202.783147" y="196.552107" style="fill: #9aa0a6; stroke: #9aa0a6"/>
     <use xlink:href="#m35d20efd1c" x="210.557903" y="196.552107" style="fill: #9aa0a6; stroke: #9aa0a6"/>
     <use xlink:href="#m35d20efd1c" x="218.332659" y="196.552107" style="fill: #9aa0a6; stroke: #9aa0a6"/>
     <use xlink:href="#m35d20efd1c" x="226.107415" y="196.552107" style="fill: #9aa0a6; stroke: #9aa0a6"/>
     <use xlink:href="#m35d20efd1c" x="233.882171" y="196.552107" style="fill: #9aa0a6; stroke: #9aa0a6"/>
     <use xlink:href="#m35d20efd1c" x="241.656927" y="196.552107" style="fill: #9aa0a6; stroke: #9aa0a6"/>
     <use xlink:href="#m35d20efd1c" x="249.431683" y="196.552107" style="fill: #9aa0a6; stroke: #9aa0a6"/>
     <use xlink:href="#m35d20efd1c" x="257.20644" y="196.552107" style="fill: #9aa0a6; stroke: #9aa0a6"/>
     <use xlink:href="#m35d20efd1c" x="264.981196" y="196.552107" style="fill: #9aa0a6; stroke: #9aa0a6"/>
     <use xlink:href="#m35d20efd1c" x="272.755952" y="196.552107" style="fill: #9aa0a6; stroke: #9aa0a6"/>
     <use xlink:href="#m35d20efd1c" x="280.530708" y="196.552107" style="fill: #9aa0a6; stroke: #9aa0a6"/>
     <use xlink:href="#m35d20efd1c" x="288.305464" y="196.552107" style="fill: #9aa0a6; stroke: #9aa0a6"/>
     <use xlink:href="#m35d20efd1c" x="296.08022" y="196.552107" style="fill: #9aa0a6; stroke: #9aa0a6"/>
     <use xlink:href="#m35d20efd1c" x="303.854976" y="196.552107" style="fill: #9aa0a6; stroke: #9aa0a6"/>
     <use xlink:href="#m35d20efd1c" x="311.629733" y="196.552107" style="fill: #9aa0a6; stroke: #9aa0a6"/>
     <use xlink:href="#m35d20efd1c" x="319.404489" y="196.552107" style="fill: #9aa0a6; stroke: #9aa0a6"/>
     <use xlink:href="#m35d20efd1c" x="327.179245" y="196.552107" style="fill: #9aa0a6; stroke: #9aa0a6"/>
     <use xlink:href="#m35d20efd1c" x="334.954001" y="196.552107" style="fill: #9aa0a6; stroke: #9aa0a6"/>
     <use xlink:href="#m35d20efd1c" x="342.728757" y="196.552107" style="fill: #9aa0a6; stroke: #9aa0a6"/>
     <use xlink:href="#m35d20efd1c" x="350.503513" y="196.552107" style="fill: #9aa0a6; stroke: #9aa0a6"/>
     <use xlink:href="#m35d20efd1c" x="366.053026" y="196.552107" style="fill: #9aa0a6; stroke: #9aa0a6"/>
     <use xlink:href="#m35d20efd1c" x="373.827782" y="42.325252" style="fill: #9aa0a6; stroke: #9aa0a6"/>
     <use xlink:href="#m35d20efd1c" x="381.602538" y="138.665502" style="fill: #9aa0a6; stroke: #9aa0a6"/>
     <use xlink:href="#m35d20efd1c" x="389.377294" y="179.864732" style="fill: #9aa0a6; stroke: #9aa0a6"/>
     <use xlink:href="#m35d20efd1c" x="397.15205" y="44.632895" style="fill: #9aa0a6; stroke: #9aa0a6"/>
     <use xlink:href="#m35d20efd1c" x="404.926806" y="175.511803" style="fill: #9aa0a6; stroke: #9aa0a6"/>
     <use xlink:href="#m35d20efd1c" x="412.701562" y="94.629569" style="fill: #9aa0a6; stroke: #9aa0a6"/>
     <use xlink:href="#m35d20efd1c" x="420.476319" y="164.245197" style="fill: #9aa0a6; stroke: #9aa0a6"/>
     <use xlink:href="#m35d20efd1c" x="428.251075" y="106.633252" style="fill: #9aa0a6; stroke: #9aa0a6"/>
     <use xlink:href="#m35d20efd1c" x="436.025831" y="156.424602" style="fill: #9aa0a6; stroke: #9aa0a6"/>
     <use xlink:href="#m35d20efd1c" x="443.800587" y="117.613759" style="fill: #9aa0a6; stroke: #9aa0a6"/>
     <use xlink:href="#m35d20efd1c" x="451.575343" y="140.492472" style="fill: #9aa0a6; stroke: #9aa0a6"/>
     <use xlink:href="#m35d20efd1c" x="459.350099" y="128.544759" style="fill: #9aa0a6; stroke: #9aa0a6"/>
     <use xlink:href="#m35d20efd1c" x="467.124856" y="116.16814" style="fill: #9aa0a6; stroke: #9aa0a6"/>
     <use xlink:href="#m35d20efd1c" x="474.899612" y="110.180565" style="fill: #9aa0a6; stroke: #9aa0a6"/>
     <use xlink:href="#m35d20efd1c" x="482.674368" y="94.955349" style="fill: #9aa0a6; stroke: #9aa0a6"/>
     <use xlink:href="#m35d20efd1c" x="490.449124" y="83.340676" style="fill: #9aa0a6; stroke: #9aa0a6"/>
     <use xlink:href="#m35d20efd1c" x="498.22388" y="75.834478" style="fill: #9aa0a6; stroke: #9aa0a6"/>
     <use xlink:href="#m35d20efd1c" x="505.998636" y="62.166686" style="fill: #9aa0a6; stroke: #9aa0a6"/>
     <use xlink:href="#m35d20efd1c" x="513.773392" y="52.976774" style="fill: #9aa0a6; stroke: #9aa0a6"/>
     <use xlink:href="#m35d20efd1c" x="521.548149" y="34.527454" style="fill: #9aa0a6; stroke: #9aa0a6"/>
     <use xlink:href="#m35d20efd1c" x="529.322905" y="48.489306" style="fill: #9aa0a6; stroke: #9aa0a6"/>
     <use xlink:href="#m35d20efd1c" x="537.097661" y="55.472001" style="fill: #9aa0a6; stroke: #9aa0a6"/>
     <use xlink:href="#m35d20efd1c" x="544.872417" y="62.737883" style="fill: #9aa0a6; stroke: #9aa0a6"/>
     <use xlink:href="#m35d20efd1c" x="552.647173" y="44.245656" style="fill: #9aa0a6; stroke: #9aa0a6"/>
     <use xlink:href="#m35d20efd1c" x="560.421929" y="59.004803" style="fill: #9aa0a6; stroke: #9aa0a6"/>
     <use xlink:href="#m35d20efd1c" x="568.196685" y="29.081738" style="fill: #9aa0a6; stroke: #9aa0a6"/>
     <use xlink:href="#m35d20efd1c" x="575.971442" y="44.929012" style="fill: #9aa0a6; stroke: #9aa0a6"/>
     <use xlink:href="#m35d20efd1c" x="583.746198" y="35.481526" style="fill: #9aa0a6; stroke: #9aa0a6"/>
     <use xlink:href="#m35d20efd1c" x="591.520954" y="75.326129" style="fill: #9aa0a6; stroke: #9aa0a6"/>
     <use xlink:href="#m35d20efd1c" x="599.29571" y="56.184192" style="fill: #9aa0a6; stroke: #9aa0a6"/>
     <use xlink:href="#m35d20efd1c" x="607.070466" y="41.169799" style="fill: #9aa0a6; stroke: #9aa0a6"/>
     <use xlink:href="#m35d20efd1c" x="614.845222" y="32.501927" style="fill: #9aa0a6; stroke: #9aa0a6"/>
     <use xlink:href="#m35d20efd1c" x="622.619978" y="44.033944" style="fill: #9aa0a6; stroke: #9aa0a6"/>
     <use xlink:href="#m35d20efd1c" x="630.394735" y="40.675088" style="fill: #9aa0a6; stroke: #9aa0a6"/>
     <use xlink:href="#m35d20efd1c" x="638.169491" y="50.639629" style="fill: #9aa0a6; stroke: #9aa0a6"/>
     <use xlink:href="#m35d20efd1c" x="645.944247" y="40.184492" style="fill: #9aa0a6; stroke: #9aa0a6"/>
     <use xlink:href="#m35d20efd1c" x="653.719003" y="50.980707" style="fill: #9aa0a6; stroke: #9aa0a6"/>
     <use xlink:href="#m35d20efd1c" x="661.493759" y="72.694923" style="fill: #9aa0a6; stroke: #9aa0a6"/>
     <use xlink:href="#m35d20efd1c" x="669.268515" y="97.932693" style="fill: #9aa0a6; stroke: #9aa0a6"/>
     <use xlink:href="#m35d20efd1c" x="677.043271" y="45.684603" style="fill: #9aa0a6; stroke: #9aa0a6"/>
     <use xlink:href="#m35d20efd1c" x="684.818028" y="119.081749" style="fill: #9aa0a6; stroke: #9aa0a6"/>
     <use xlink:href="#m35d20efd1c" x="692.592784" y="64.015166" style="fill: #9aa0a6; stroke: #9aa0a6"/>
     <use xlink:href="#m35d20efd1c" x="700.36754" y="68.472226" style="fill: #9aa0a6; stroke: #9aa0a6"/>
     <use xlink:href="#m35d20efd1c" x="708.142296" y="81.36163" style="fill: #9aa0a6; stroke: #9aa0a6"/>
     <use xlink:href="#m35d20efd1c" x="715.917052" y="65.625356" style="fill: #9aa0a6; stroke: #9aa0a6"/>
     <use xlink:href="#m35d20efd1c" x="723.691808" y="73.886011" style="fill: #9aa0a6; stroke: #9aa0a6"/>
     <use xlink:href="#m35d20efd1c" x="731.466565" y="160.679303" style="fill: #9aa0a6; stroke: #9aa0a6"/>
     <use xlink:href="#m35d20efd1c" x="739.241321" y="112.248954" style="fill: #9aa0a6; stroke: #9aa0a6"/>
     <use xlink:href="#m35d20efd1c" x="747.016077" y="168.358088" style="fill: #9aa0a6; stroke: #9aa0a6"/>
     <use xlink:href="#m35d20efd1c" x="754.790833" y="182.755961" style="fill: #9aa0a6; stroke: #9aa0a6"/>
    </g>
   </g>
   <g id="line2d_24">
    <path d="M 70.612292 196.552095 
L 78.387048 196.55209 
L 86.161804 196.552081 
L 93.93656 196.552068 
L 101.711317 196.552049 
L 109.486073 196.55202 
L 117.260829 196.551977 
L 125.035585 196.551913 
L 132.810341 196.551816 
L 140.585097 196.551671 
L 148.359854 196.551453 
L 156.13461 196.551126 
L 163.909366 196.550636 
L 171.684122 196.5499 
L 179.458878 196.548797 
L 187.233634 196.547142 
L 195.00839 196.544659 
L 202.783147 196.540936 
L 210.557903 196.53535 
L 218.332659 196.526972 
L 226.107415 196.514405 
L 233.882171 196.495554 
L 241.656927 196.467278 
L 249.431683 196.424864 
L 257.20644 196.361243 
L 264.981196 196.265811 
L 272.755952 196.122664 
L 280.530708 195.907942 
L 288.305464 195.58586 
L 296.08022 195.102736 
L 303.854976 194.378051 
L 311.629733 193.291024 
L 319.404489 191.660482 
L 327.179245 189.21467 
L 334.954001 185.545952 
L 342.728757 180.042875 
L 350.503513 171.788259 
L 366.053026 159.406336 
L 373.827782 140.83345 
L 381.602538 138.678598 
L 389.377294 136.525928 
L 397.15205 127.150125 
L 404.926806 131.527193 
L 412.701562 128.573493 
L 420.476319 131.277113 
L 428.251075 128.486053 
L 436.025831 129.337127 
L 443.800587 125.673621 
L 451.575343 123.353425 
L 459.350099 118.176722 
L 467.124856 111.272013 
L 474.899612 103.551283 
L 482.674368 94.725672 
L 490.449124 85.861781 
L 498.22388 77.418075 
L 505.998636 69.238302 
L 513.773392 62.237131 
L 521.548149 56.779354 
L 529.322905 55.030226 
L 537.097661 54.371251 
L 544.872417 53.528819 
L 552.647173 51.151542 
L 560.421929 49.925246 
L 568.196685 47.185691 
L 575.971442 47.463461 
L 583.746198 48.163639 
L 591.520954 50.977502 
L 599.29571 49.733261 
L 607.070466 47.413865 
L 614.845222 46.135146 
L 622.619978 47.12863 
L 630.394735 48.637896 
L 638.169491 51.474296 
L 645.944247 54.449807 
L 653.719003 59.802871 
L 661.493759 66.626296 
L 669.268515 72.438283 
L 677.043271 74.001201 
L 684.818028 80.283553 
L 692.592784 80.099538 
L 700.36754 82.596252 
L 708.142296 87.44697 
L 715.917052 93.311912 
L 723.691808 103.791279 
L 731.466565 119.254858 
L 739.241321 127.814362 
L 747.016077 138.968102 
L 754.790833 145.22351 
" clip-path="url(#p053193660a)" style="fill: none; stroke: #c0392b; stroke-width: 2; stroke-linecap: square"/>
   </g>
   <g id="line2d_25">
    <path d="M 36.403365 42.503518 
L 788.99976 42.503518 
" clip-path="url(#p053193660a)" style="fill: none; stroke-dasharray: 4.44,1.92; stroke-dashoffset: 0; stroke: #1f6fd6; stroke-width: 1.2"/>
   </g>
   <g id="patch_5">
    <path d="M 36.403365 204.925625 
L 36.403365 20.70822 
" style="fill: none; stroke: #000000; stroke-width: 0.8; stroke-linejoin: miter; stroke-linecap: square"/>
   </g>
   <g id="patch_6">
    <path d="M 36.403365 204.925625 
L 788.99976 204.925625 
" style="fill: none; stroke: #000000; stroke-width: 0.8; stroke-linejoin: miter; stroke-linecap: square"/>
   </g>
   <g id="text_7">
    <!-- spin-up -->
    <g style="fill: #555555" transform="translate(339.070861 180.155183) scale(0.08 -0.08)">
     <defs>
      <path id="DejaVuSans-73" d="M 2834 3397 
L 2834 2853 
Q 2591 2978 2328 3040 
Q 2066 3103 1784 3103 
Q 1356 3103 1142 2972 
Q 928 2841 928 2578 
Q 928 2378 1081 2264 
Q 1234 2150 1697 2047 
L 1894 2003 
Q 2506 1872 2764 1633 
Q 3022 1394 3022 966 
Q 3022 478 2636 193 
Q 2250 -91 1575 -91 
Q 1294 -91 989 -36 
Q 684 19 347 128 
L 347 722 
Q 666 556 975 473 
Q 1284 391 1588 391 
Q 1994 391 2212 530 
Q 2431 669 2431 922 
Q 2431 1156 2273 1281 
Q 2116 1406 1581 1522 
L 1381 1569 
Q 847 1681 609 1914 
Q 372 2147 372 2553 
Q 372 3047 722 3315 
Q 1072 3584 1716 3584 
Q 2034 3584 2315 3537 
Q 2597 3491 2834 3397 
z
" transform="scale(0.015625)"/>
      <path id="DejaVuSans-70" d="M 1159 525 
L 1159 -1331 
L 581 -1331 
L 581 3500 
L 1159 3500 
L 1159 2969 
Q 1341 3281 1617 3432 
Q 1894 3584 2278 3584 
Q 2916 3584 3314 3078 
Q 3713 2572 3713 1747 
Q 3713 922 3314 415 
Q 2916 -91 2278 -91 
Q 1894 -91 1617 61 
Q 1341 213 1159 525 
z
M 3116 1747 
Q 3116 2381 2855 2742 
Q 2594 3103 2138 3103 
Q 1681 3103 1420 2742 
Q 1159 2381 1159 1747 
Q 1159 1113 1420 752 
Q 1681 391 2138 391 
Q 2594 391 2855 752 
Q 3116 1113 3116 1747 
z
" transform="scale(0.015625)"/>
      <path id="DejaVuSans-69" d="M 603 3500 
L 1178 3500 
L 1178 0 
L 603 0 
L 603 3500 
z
M 603 4863 
L 1178 4863 
L 1178 4134 
L 603 4134 
L 603 4863 
z
" transform="scale(0.015625)"/>
     </defs>
     <use xlink:href="#DejaVuSans-73"/>
     <use xlink:href="#DejaVuSans-70" transform="translate(52.099609 0)"/>
     <use xlink:href="#DejaVuSans-69" transform="translate(115.576172 0)"/>
     <use xlink:href="#DejaVuSans-6e" transform="translate(143.359375 0)"/>
     <use xlink:href="#DejaVuSans-2d" transform="translate(206.738281 0)"/>
     <use xlink:href="#DejaVuSans-75" transform="translate(242.822266 0)"/>
     <use xlink:href="#DejaVuSans-70" transform="translate(306.201172 0)"/>
    </g>
   </g>
   <g id="text_8">
    <!-- slow-down -->
    <g style="fill: #555555" transform="translate(682.226442 180.155183) scale(0.08 -0.08)">
     <defs>
      <path id="DejaVuSans-77" d="M 269 3500 
L 844 3500 
L 1563 769 
L 2278 3500 
L 2956 3500 
L 3675 769 
L 4391 3500 
L 4966 3500 
L 4050 0 
L 3372 0 
L 2619 2869 
L 1863 0 
L 1184 0 
L 269 3500 
z
" transform="scale(0.015625)"/>
     </defs>
     <use xlink:href="#DejaVuSans-73"/>
     <use xlink:href="#DejaVuSans-6c" transform="translate(52.099609 0)"/>
     <use xlink:href="#DejaVuSans-6f" transform="translate(79.882812 0)"/>
     <use xlink:href="#DejaVuSans-77" transform="translate(141.064453 0)"/>
     <use xlink:href="#DejaVuSans-2d" transform="translate(222.851562 0)"/>
     <use xlink:href="#DejaVuSans-64" transform="translate(258.935547 0)"/>
     <use xlink:href="#DejaVuSans-6f" transform="translate(322.412109 0)"/>
     <use xlink:href="#DejaVuSans-77" transform="translate(383.59375 0)"/>
     <use xlink:href="#DejaVuSans-6e" transform="translate(465.380859 0)"/>
    </g>
   </g>
   <g id="legend_1">
    <g id="patch_7">
     <path d="M 91.925937 200.925625 
L 733.477188 200.925625 
Q 735.077188 200.925625 735.077188 199.325625 
L 735.077188 188.383125 
Q 735.077188 186.783125 733.477188 186.783125 
L 91.925937 186.783125 
Q 90.325937 186.783125 90.325937 188.383125 
L 90.325937 199.325625 
Q 90.325937 200.925625 91.925937 200.925625 
z
" style="fill: #ffffff; opacity: 0.8; stroke: #cccccc; stroke-linejoin: miter"/>
    </g>
    <g id="patch_8">
     <path d="M 93.525937 196.061875 
L 109.525937 196.061875 
L 109.525937 190.461875 
L 93.525937 190.461875 
z
" style="fill: #f2c7c0; fill-opacity: 0.6; stroke: #f2c7c0; stroke-opacity: 0.6; stroke-linejoin: miter"/>
    </g>
    <g id="text_9">
     <!-- per-window spread (the wave) -->
     <g transform="translate(115.925937 196.061875) scale(0.08 -0.08)">
      <defs>
       <path id="DejaVuSans-72" d="M 2631 2963 
Q 2534 3019 2420 3045 
Q 2306 3072 2169 3072 
Q 1681 3072 1420 2755 
Q 1159 2438 1159 1844 
L 1159 0 
L 581 0 
L 581 3500 
L 1159 3500 
L 1159 2956 
Q 1341 3275 1631 3429 
Q 1922 3584 2338 3584 
Q 2397 3584 2469 3576 
Q 2541 3569 2628 3553 
L 2631 2963 
z
" transform="scale(0.015625)"/>
       <path id="DejaVuSans-76" d="M 191 3500 
L 800 3500 
L 1894 563 
L 2988 3500 
L 3597 3500 
L 2284 0 
L 1503 0 
L 191 3500 
z
" transform="scale(0.015625)"/>
      </defs>
      <use xlink:href="#DejaVuSans-70"/>
      <use xlink:href="#DejaVuSans-65" transform="translate(63.476562 0)"/>
      <use xlink:href="#DejaVuSans-72" transform="translate(125 0)"/>
      <use xlink:href="#DejaVuSans-2d" transform="translate(159.738281 0)"/>
      <use xlink:href="#DejaVuSans-77" transform="translate(195.822266 0)"/>
      <use xlink:href="#DejaVuSans-69" transform="translate(277.609375 0)"/>
      <use xlink:href="#DejaVuSans-6e" transform="translate(305.392578 0)"/>
      <use xlink:href="#DejaVuSans-64" transform="translate(368.771484 0)"/>
      <use xlink:href="#DejaVuSans-6f" transform="translate(432.248047 0)"/>
      <use xlink:href="#DejaVuSans-77" transform="translate(493.429688 0)"/>
      <use xlink:href="#DejaVuSans-20" transform="translate(575.216797 0)"/>
      <use xlink:href="#DejaVuSans-73" transform="translate(607.003906 0)"/>
      <use xlink:href="#DejaVuSans-70" transform="translate(659.103516 0)"/>
      <use xlink:href="#DejaVuSans-72" transform="translate(722.580078 0)"/>
      <use xlink:href="#DejaVuSans-65" transform="translate(761.443359 0)"/>
      <use xlink:href="#DejaVuSans-61" transform="translate(822.966797 0)"/>
      <use xlink:href="#DejaVuSans-64" transform="translate(884.246094 0)"/>
      <use xlink:href="#DejaVuSans-20" transform="translate(947.722656 0)"/>
      <use xlink:href="#DejaVuSans-28" transform="translate(979.509766 0)"/>
      <use xlink:href="#DejaVuSans-74" transform="translate(1018.523438 0)"/>
      <use xlink:href="#DejaVuSans-68" transform="translate(1057.732422 0)"/>
      <use xlink:href="#DejaVuSans-65" transform="translate(1121.111328 0)"/>
      <use xlink:href="#DejaVuSans-20" transform="translate(1182.634766 0)"/>
      <use xlink:href="#DejaVuSans-77" transform="translate(1214.421875 0)"/>
      <use xlink:href="#DejaVuSans-61" transform="translate(1296.208984 0)"/>
      <use xlink:href="#DejaVuSans-76" transform="translate(1357.488281 0)"/>
      <use xlink:href="#DejaVuSans-65" transform="translate(1416.667969 0)"/>
      <use xlink:href="#DejaVuSans-29" transform="translate(1478.191406 0)"/>
     </g>
    </g>
    <g id="line2d_26">
     <g>
      <use xlink:href="#m35d20efd1c" x="261.303437" y="193.261875" style="fill: #9aa0a6; stroke: #9aa0a6"/>
     </g>
    </g>
    <g id="text_10">
     <!-- per window -->
     <g transform="translate(275.703437 196.061875) scale(0.08 -0.08)">
      <use xlink:href="#DejaVuSans-70"/>
      <use xlink:href="#DejaVuSans-65" transform="translate(63.476562 0)"/>
      <use xlink:href="#DejaVuSans-72" transform="translate(125 0)"/>
      <use xlink:href="#DejaVuSans-20" transform="translate(166.113281 0)"/>
      <use xlink:href="#DejaVuSans-77" transform="translate(197.900391 0)"/>
      <use xlink:href="#DejaVuSans-69" transform="translate(279.6875 0)"/>
      <use xlink:href="#DejaVuSans-6e" transform="translate(307.470703 0)"/>
      <use xlink:href="#DejaVuSans-64" transform="translate(370.849609 0)"/>
      <use xlink:href="#DejaVuSans-6f" transform="translate(434.326172 0)"/>
      <use xlink:href="#DejaVuSans-77" transform="translate(495.507812 0)"/>
     </g>
    </g>
    <g id="line2d_27">
     <path d="M 337.887187 193.261875 
L 345.887187 193.261875 
L 353.887187 193.261875 
" style="fill: none; stroke: #c0392b; stroke-width: 2; stroke-linecap: square"/>
    </g>
    <g id="text_11">
     <!-- smoothed -->
     <g transform="translate(360.287187 196.061875) scale(0.08 -0.08)">
      <defs>
       <path id="DejaVuSans-6d" d="M 3328 2828 
Q 3544 3216 3844 3400 
Q 4144 3584 4550 3584 
Q 5097 3584 5394 3201 
Q 5691 2819 5691 2113 
L 5691 0 
L 5113 0 
L 5113 2094 
Q 5113 2597 4934 2840 
Q 4756 3084 4391 3084 
Q 3944 3084 3684 2787 
Q 3425 2491 3425 1978 
L 3425 0 
L 2847 0 
L 2847 2094 
Q 2847 2600 2669 2842 
Q 2491 3084 2119 3084 
Q 1678 3084 1418 2786 
Q 1159 2488 1159 1978 
L 1159 0 
L 581 0 
L 581 3500 
L 1159 3500 
L 1159 2956 
Q 1356 3278 1631 3431 
Q 1906 3584 2284 3584 
Q 2666 3584 2933 3390 
Q 3200 3197 3328 2828 
z
" transform="scale(0.015625)"/>
      </defs>
      <use xlink:href="#DejaVuSans-73"/>
      <use xlink:href="#DejaVuSans-6d" transform="translate(52.099609 0)"/>
      <use xlink:href="#DejaVuSans-6f" transform="translate(149.511719 0)"/>
      <use xlink:href="#DejaVuSans-6f" transform="translate(210.693359 0)"/>
      <use xlink:href="#DejaVuSans-74" transform="translate(271.875 0)"/>
      <use xlink:href="#DejaVuSans-68" transform="translate(311.083984 0)"/>
      <use xlink:href="#DejaVuSans-65" transform="translate(374.462891 0)"/>
      <use xlink:href="#DejaVuSans-64" transform="translate(435.986328 0)"/>
     </g>
    </g>
    <g id="patch_9">
     <path d="M 416.244687 196.061875 
L 432.244687 196.061875 
L 432.244687 190.461875 
L 416.244687 190.461875 
z
" style="fill: #8fb3d9; opacity: 0.18; stroke: #8fb3d9; stroke-linejoin: miter"/>
    </g>
    <g id="text_12">
     <!-- steady state (angle averaged here) -->
     <g transform="translate(438.644687 196.061875) scale(0.08 -0.08)">
      <use xlink:href="#DejaVuSans-73"/>
      <use xlink:href="#DejaVuSans-74" transform="translate(52.099609 0)"/>
      <use xlink:href="#DejaVuSans-65" transform="translate(91.308594 0)"/>
      <use xlink:href="#DejaVuSans-61" transform="translate(152.832031 0)"/>
      <use xlink:href="#DejaVuSans-64" transform="translate(214.111328 0)"/>
      <use xlink:href="#DejaVuSans-79" transform="translate(277.587891 0)"/>
      <use xlink:href="#DejaVuSans-20" transform="translate(336.767578 0)"/>
      <use xlink:href="#DejaVuSans-73" transform="translate(368.554688 0)"/>
      <use xlink:href="#DejaVuSans-74" transform="translate(420.654297 0)"/>
      <use xlink:href="#DejaVuSans-61" transform="translate(459.863281 0)"/>
      <use xlink:href="#DejaVuSans-74" transform="translate(521.142578 0)"/>
      <use xlink:href="#DejaVuSans-65" transform="translate(560.351562 0)"/>
      <use xlink:href="#DejaVuSans-20" transform="translate(621.875 0)"/>
      <use xlink:href="#DejaVuSans-28" transform="translate(653.662109 0)"/>
      <use xlink:href="#DejaVuSans-61" transform="translate(692.675781 0)"/>
      <use xlink:href="#DejaVuSans-6e" transform="translate(753.955078 0)"/>
      <use xlink:href="#DejaVuSans-67" transform="translate(817.333984 0)"/>
      <use xlink:href="#DejaVuSans-6c" transform="translate(880.810547 0)"/>
      <use xlink:href="#DejaVuSans-65" transform="translate(908.59375 0)"/>
      <use xlink:href="#DejaVuSans-20" transform="translate(970.117188 0)"/>
      <use xlink:href="#DejaVuSans-61" transform="translate(1001.904297 0)"/>
      <use xlink:href="#DejaVuSans-76" transform="translate(1063.183594 0)"/>
      <use xlink:href="#DejaVuSans-65" transform="translate(1122.363281 0)"/>
      <use xlink:href="#DejaVuSans-72" transform="translate(1183.886719 0)"/>
      <use xlink:href="#DejaVuSans-61" transform="translate(1225 0)"/>
      <use xlink:href="#DejaVuSans-67" transform="translate(1286.279297 0)"/>
      <use xlink:href="#DejaVuSans-65" transform="translate(1349.755859 0)"/>
      <use xlink:href="#DejaVuSans-64" transform="translate(1411.279297 0)"/>
      <use xlink:href="#DejaVuSans-20" transform="translate(1474.755859 0)"/>
      <use xlink:href="#DejaVuSans-68" transform="translate(1506.542969 0)"/>
      <use xlink:href="#DejaVuSans-65" transform="translate(1569.921875 0)"/>
      <use xlink:href="#DejaVuSans-72" transform="translate(1631.445312 0)"/>
      <use xlink:href="#DejaVuSans-65" transform="translate(1670.308594 0)"/>
      <use xlink:href="#DejaVuSans-29" transform="translate(1731.832031 0)"/>
     </g>
    </g>
    <g id="line2d_28">
     <path d="M 596.315937 193.261875 
L 604.315937 193.261875 
L 612.315937 193.261875 
" style="fill: none; stroke-dasharray: 4.44,1.92; stroke-dashoffset: 0; stroke: #1f6fd6; stroke-width: 1.2"/>
    </g>
    <g id="text_13">
     <!-- steady-state mean 41.8 deg -->
     <g transform="translate(618.715937 196.061875) scale(0.08 -0.08)">
      <defs>
       <path id="DejaVuSans-2e" d="M 684 794 
L 1344 794 
L 1344 0 
L 684 0 
L 684 794 
z
" transform="scale(0.015625)"/>
       <path id="DejaVuSans-38" d="M 2034 2216 
Q 1584 2216 1326 1975 
Q 1069 1734 1069 1313 
Q 1069 891 1326 650 
Q 1584 409 2034 409 
Q 2484 409 2743 651 
Q 3003 894 3003 1313 
Q 3003 1734 2745 1975 
Q 2488 2216 2034 2216 
z
M 1403 2484 
Q 997 2584 770 2862 
Q 544 3141 544 3541 
Q 544 4100 942 4425 
Q 1341 4750 2034 4750 
Q 2731 4750 3128 4425 
Q 3525 4100 3525 3541 
Q 3525 3141 3298 2862 
Q 3072 2584 2669 2484 
Q 3125 2378 3379 2068 
Q 3634 1759 3634 1313 
Q 3634 634 3220 271 
Q 2806 -91 2034 -91 
Q 1263 -91 848 271 
Q 434 634 434 1313 
Q 434 1759 690 2068 
Q 947 2378 1403 2484 
z
M 1172 3481 
Q 1172 3119 1398 2916 
Q 1625 2713 2034 2713 
Q 2441 2713 2670 2916 
Q 2900 3119 2900 3481 
Q 2900 3844 2670 4047 
Q 2441 4250 2034 4250 
Q 1625 4250 1398 4047 
Q 1172 3844 1172 3481 
z
" transform="scale(0.015625)"/>
      </defs>
      <use xlink:href="#DejaVuSans-73"/>
      <use xlink:href="#DejaVuSans-74" transform="translate(52.099609 0)"/>
      <use xlink:href="#DejaVuSans-65" transform="translate(91.308594 0)"/>
      <use xlink:href="#DejaVuSans-61" transform="translate(152.832031 0)"/>
      <use xlink:href="#DejaVuSans-64" transform="translate(214.111328 0)"/>
      <use xlink:href="#DejaVuSans-79" transform="translate(277.587891 0)"/>
      <use xlink:href="#DejaVuSans-2d" transform="translate(335.017578 0)"/>
      <use xlink:href="#DejaVuSans-73" transform="translate(371.101562 0)"/>
      <use xlink:href="#DejaVuSans-74" transform="translate(423.201172 0)"/>
      <use xlink:href="#DejaVuSans-61" transform="translate(462.410156 0)"/>
      <use xlink:href="#DejaVuSans-74" transform="translate(523.689453 0)"/>
      <use xlink:href="#DejaVuSans-65" transform="translate(562.898438 0)"/>
      <use xlink:href="#DejaVuSans-20" transform="translate(624.421875 0)"/>
      <use xlink:href="#DejaVuSans-6d" transform="translate(656.208984 0)"/>
      <use xlink:href="#DejaVuSans-65" transform="translate(753.621094 0)"/>
      <use xlink:href="#DejaVuSans-61" transform="translate(815.144531 0)"/>
      <use xlink:href="#DejaVuSans-6e" transform="translate(876.423828 0)"/>
      <use xlink:href="#DejaVuSans-20" transform="translate(939.802734 0)"/>
      <use xlink:href="#DejaVuSans-34" transform="translate(971.589844 0)"/>
      <use xlink:href="#DejaVuSans-31" transform="translate(1035.212891 0)"/>
      <use xlink:href="#DejaVuSans-2e" transform="translate(1098.835938 0)"/>
      <use xlink:href="#DejaVuSans-38" transform="translate(1130.623047 0)"/>
      <use xlink:href="#DejaVuSans-20" transform="translate(1194.246094 0)"/>
      <use xlink:href="#DejaVuSans-64" transform="translate(1226.033203 0)"/>
      <use xlink:href="#DejaVuSans-65" transform="translate(1289.509766 0)"/>
      <use xlink:href="#DejaVuSans-67" transform="translate(1351.033203 0)"/>
     </g>
    </g>
   </g>
  </g>
  <g id="axes_2">
   <g id="patch_10">
    <path d="M 36.403365 398.64351 
L 788.99976 398.64351 
L 788.99976 214.426105 
L 36.403365 214.426105 
z
" style="fill: #ffffff"/>
   </g>
   <g id="matplotlib.axis_3">
    <g id="xtick_7">
     <g id="line2d_29">
      <path d="M 66.724914 398.64351 
L 66.724914 214.426105 
" clip-path="url(#p9316b3b201)" style="fill: none; stroke: #ededed; stroke-width: 0.6; stroke-linecap: square"/>
     </g>
     <g id="line2d_30">
      <g>
       <use xlink:href="#m6de3d236c9" x="66.724914" y="398.64351" style="stroke: #000000; stroke-width: 0.8"/>
      </g>
     </g>
     <g id="text_14">
      <!-- 0 -->
      <g transform="translate(63.543664 413.241947) scale(0.1 -0.1)">
       <use xlink:href="#DejaVuSans-30"/>
      </g>
     </g>
    </g>
    <g id="xtick_8">
     <g id="line2d_31">
      <path d="M 196.304183 398.64351 
L 196.304183 214.426105 
" clip-path="url(#p9316b3b201)" style="fill: none; stroke: #ededed; stroke-width: 0.6; stroke-linecap: square"/>
     </g>
     <g id="line2d_32">
      <g>
       <use xlink:href="#m6de3d236c9" x="196.304183" y="398.64351" style="stroke: #000000; stroke-width: 0.8"/>
      </g>
     </g>
     <g id="text_15">
      <!-- 50 -->
      <g transform="translate(189.941683 413.241947) scale(0.1 -0.1)">
       <defs>
        <path id="DejaVuSans-35" d="M 691 4666 
L 3169 4666 
L 3169 4134 
L 1269 4134 
L 1269 2991 
Q 1406 3038 1543 3061 
Q 1681 3084 1819 3084 
Q 2600 3084 3056 2656 
Q 3513 2228 3513 1497 
Q 3513 744 3044 326 
Q 2575 -91 1722 -91 
Q 1428 -91 1123 -41 
Q 819 9 494 109 
L 494 744 
Q 775 591 1075 516 
Q 1375 441 1709 441 
Q 2250 441 2565 725 
Q 2881 1009 2881 1497 
Q 2881 1984 2565 2268 
Q 2250 2553 1709 2553 
Q 1456 2553 1204 2497 
Q 953 2441 691 2322 
L 691 4666 
z
" transform="scale(0.015625)"/>
       </defs>
       <use xlink:href="#DejaVuSans-35"/>
       <use xlink:href="#DejaVuSans-30" transform="translate(63.623047 0)"/>
      </g>
     </g>
    </g>
    <g id="xtick_9">
     <g id="line2d_33">
      <path d="M 325.883452 398.64351 
L 325.883452 214.426105 
" clip-path="url(#p9316b3b201)" style="fill: none; stroke: #ededed; stroke-width: 0.6; stroke-linecap: square"/>
     </g>
     <g id="line2d_34">
      <g>
       <use xlink:href="#m6de3d236c9" x="325.883452" y="398.64351" style="stroke: #000000; stroke-width: 0.8"/>
      </g>
     </g>
     <g id="text_16">
      <!-- 100 -->
      <g transform="translate(316.339702 413.241947) scale(0.1 -0.1)">
       <use xlink:href="#DejaVuSans-31"/>
       <use xlink:href="#DejaVuSans-30" transform="translate(63.623047 0)"/>
       <use xlink:href="#DejaVuSans-30" transform="translate(127.246094 0)"/>
      </g>
     </g>
    </g>
    <g id="xtick_10">
     <g id="line2d_35">
      <path d="M 455.462721 398.64351 
L 455.462721 214.426105 
" clip-path="url(#p9316b3b201)" style="fill: none; stroke: #ededed; stroke-width: 0.6; stroke-linecap: square"/>
     </g>
     <g id="line2d_36">
      <g>
       <use xlink:href="#m6de3d236c9" x="455.462721" y="398.64351" style="stroke: #000000; stroke-width: 0.8"/>
      </g>
     </g>
     <g id="text_17">
      <!-- 150 -->
      <g transform="translate(445.918971 413.241947) scale(0.1 -0.1)">
       <use xlink:href="#DejaVuSans-31"/>
       <use xlink:href="#DejaVuSans-35" transform="translate(63.623047 0)"/>
       <use xlink:href="#DejaVuSans-30" transform="translate(127.246094 0)"/>
      </g>
     </g>
    </g>
    <g id="xtick_11">
     <g id="line2d_37">
      <path d="M 585.04199 398.64351 
L 585.04199 214.426105 
" clip-path="url(#p9316b3b201)" style="fill: none; stroke: #ededed; stroke-width: 0.6; stroke-linecap: square"/>
     </g>
     <g id="line2d_38">
      <g>
       <use xlink:href="#m6de3d236c9" x="585.04199" y="398.64351" style="stroke: #000000; stroke-width: 0.8"/>
      </g>
     </g>
     <g id="text_18">
      <!-- 200 -->
      <g transform="translate(575.49824 413.241947) scale(0.1 -0.1)">
       <use xlink:href="#DejaVuSans-32"/>
       <use xlink:href="#DejaVuSans-30" transform="translate(63.623047 0)"/>
       <use xlink:href="#DejaVuSans-30" transform="translate(127.246094 0)"/>
      </g>
     </g>
    </g>
    <g id="xtick_12">
     <g id="line2d_39">
      <path d="M 714.62126 398.64351 
L 714.62126 214.426105 
" clip-path="url(#p9316b3b201)" style="fill: none; stroke: #ededed; stroke-width: 0.6; stroke-linecap: square"/>
     </g>
     <g id="line2d_40">
      <g>
       <use xlink:href="#m6de3d236c9" x="714.62126" y="398.64351" style="stroke: #000000; stroke-width: 0.8"/>
      </g>
     </g>
     <g id="text_19">
      <!-- 250 -->
      <g transform="translate(705.07751 413.241947) scale(0.1 -0.1)">
       <use xlink:href="#DejaVuSans-32"/>
       <use xlink:href="#DejaVuSans-35" transform="translate(63.623047 0)"/>
       <use xlink:href="#DejaVuSans-30" transform="translate(127.246094 0)"/>
      </g>
     </g>
    </g>
    <g id="text_20">
     <!-- time (s) -->
     <g transform="translate(393.310156 426.920073) scale(0.1 -0.1)">
      <use xlink:href="#DejaVuSans-74"/>
      <use xlink:href="#DejaVuSans-69" transform="translate(39.208984 0)"/>
      <use xlink:href="#DejaVuSans-6d" transform="translate(66.992188 0)"/>
      <use xlink:href="#DejaVuSans-65" transform="translate(164.404297 0)"/>
      <use xlink:href="#DejaVuSans-20" transform="translate(225.927734 0)"/>
      <use xlink:href="#DejaVuSans-28" transform="translate(257.714844 0)"/>
      <use xlink:href="#DejaVuSans-73" transform="translate(296.728516 0)"/>
      <use xlink:href="#DejaVuSans-29" transform="translate(348.828125 0)"/>
     </g>
    </g>
   </g>
   <g id="matplotlib.axis_4">
    <g id="ytick_6">
     <g id="line2d_41">
      <path d="M 36.403365 390.270002 
L 788.99976 390.270002 
" clip-path="url(#p9316b3b201)" style="fill: none; stroke: #ededed; stroke-width: 0.6; stroke-linecap: square"/>
     </g>
     <g id="line2d_42">
      <g>
       <use xlink:href="#mc3c5db0d96" x="36.403365" y="390.270002" style="stroke: #000000; stroke-width: 0.8"/>
      </g>
     </g>
     <g id="text_21">
      <!-- 0 -->
      <g transform="translate(23.040865 394.069221) scale(0.1 -0.1)">
       <use xlink:href="#DejaVuSans-30"/>
      </g>
     </g>
    </g>
    <g id="ytick_7">
     <g id="line2d_43">
      <path d="M 36.403365 350.767677 
L 788.99976 350.767677 
" clip-path="url(#p9316b3b201)" style="fill: none; stroke: #ededed; stroke-width: 0.6; stroke-linecap: square"/>
     </g>
     <g id="line2d_44">
      <g>
       <use xlink:href="#mc3c5db0d96" x="36.403365" y="350.767677" style="stroke: #000000; stroke-width: 0.8"/>
      </g>
     </g>
     <g id="text_22">
      <!-- 2 -->
      <g transform="translate(23.040865 354.566895) scale(0.1 -0.1)">
       <use xlink:href="#DejaVuSans-32"/>
      </g>
     </g>
    </g>
    <g id="ytick_8">
     <g id="line2d_45">
      <path d="M 36.403365 311.265351 
L 788.99976 311.265351 
" clip-path="url(#p9316b3b201)" style="fill: none; stroke: #ededed; stroke-width: 0.6; stroke-linecap: square"/>
     </g>
     <g id="line2d_46">
      <g>
       <use xlink:href="#mc3c5db0d96" x="36.403365" y="311.265351" style="stroke: #000000; stroke-width: 0.8"/>
      </g>
     </g>
     <g id="text_23">
      <!-- 4 -->
      <g transform="translate(23.040865 315.06457) scale(0.1 -0.1)">
       <use xlink:href="#DejaVuSans-34"/>
      </g>
     </g>
    </g>
    <g id="ytick_9">
     <g id="line2d_47">
      <path d="M 36.403365 271.763026 
L 788.99976 271.763026 
" clip-path="url(#p9316b3b201)" style="fill: none; stroke: #ededed; stroke-width: 0.6; stroke-linecap: square"/>
     </g>
     <g id="line2d_48">
      <g>
       <use xlink:href="#mc3c5db0d96" x="36.403365" y="271.763026" style="stroke: #000000; stroke-width: 0.8"/>
      </g>
     </g>
     <g id="text_24">
      <!-- 6 -->
      <g transform="translate(23.040865 275.562245) scale(0.1 -0.1)">
       <defs>
        <path id="DejaVuSans-36" d="M 2113 2584 
Q 1688 2584 1439 2293 
Q 1191 2003 1191 1497 
Q 1191 994 1439 701 
Q 1688 409 2113 409 
Q 2538 409 2786 701 
Q 3034 994 3034 1497 
Q 3034 2003 2786 2293 
Q 2538 2584 2113 2584 
z
M 3366 4563 
L 3366 3988 
Q 3128 4100 2886 4159 
Q 2644 4219 2406 4219 
Q 1781 4219 1451 3797 
Q 1122 3375 1075 2522 
Q 1259 2794 1537 2939 
Q 1816 3084 2150 3084 
Q 2853 3084 3261 2657 
Q 3669 2231 3669 1497 
Q 3669 778 3244 343 
Q 2819 -91 2113 -91 
Q 1303 -91 875 529 
Q 447 1150 447 2328 
Q 447 3434 972 4092 
Q 1497 4750 2381 4750 
Q 2619 4750 2861 4703 
Q 3103 4656 3366 4563 
z
" transform="scale(0.015625)"/>
       </defs>
       <use xlink:href="#DejaVuSans-36"/>
      </g>
     </g>
    </g>
    <g id="ytick_10">
     <g id="line2d_49">
      <path d="M 36.403365 232.260701 
L 788.99976 232.260701 
" clip-path="url(#p9316b3b201)" style="fill: none; stroke: #ededed; stroke-width: 0.6; stroke-linecap: square"/>
     </g>
     <g id="line2d_50">
      <g>
       <use xlink:href="#mc3c5db0d96" x="36.403365" y="232.260701" style="stroke: #000000; stroke-width: 0.8"/>
      </g>
     </g>
     <g id="text_25">
      <!-- 8 -->
      <g transform="translate(23.040865 236.059919) scale(0.1 -0.1)">
       <use xlink:href="#DejaVuSans-38"/>
      </g>
     </g>
    </g>
    <g id="text_26">
     <!-- $g\,\tan\theta$  (m/s$^2$) -->
     <g transform="translate(16.940865 341.284807) rotate(-90) scale(0.1 -0.1)">
      <defs>
       <path id="DejaVuSans-Oblique-67" d="M 3816 3500 
L 3219 434 
Q 3047 -456 2561 -893 
Q 2075 -1331 1253 -1331 
Q 950 -1331 690 -1286 
Q 431 -1241 206 -1147 
L 313 -588 
Q 525 -725 762 -790 
Q 1000 -856 1269 -856 
Q 1816 -856 2167 -557 
Q 2519 -259 2631 300 
L 2681 563 
Q 2441 288 2122 144 
Q 1803 0 1434 0 
Q 903 0 598 351 
Q 294 703 294 1319 
Q 294 1803 478 2267 
Q 663 2731 997 3091 
Q 1219 3328 1514 3456 
Q 1809 3584 2131 3584 
Q 2484 3584 2746 3420 
Q 3009 3256 3138 2956 
L 3238 3500 
L 3816 3500 
z
M 2950 2216 
Q 2950 2641 2750 2872 
Q 2550 3103 2181 3103 
Q 1953 3103 1747 3012 
Q 1541 2922 1394 2759 
Q 1156 2491 1023 2127 
Q 891 1763 891 1375 
Q 891 944 1092 712 
Q 1294 481 1672 481 
Q 2219 481 2584 976 
Q 2950 1472 2950 2216 
z
" transform="scale(0.015625)"/>
       <path id="DejaVuSans-Oblique-3b8" d="M 2913 2219 
L 925 2219 
Q 791 1284 928 888 
Q 1100 400 1566 400 
Q 2034 400 2391 891 
Q 2703 1322 2913 2219 
z
M 3009 2750 
Q 3094 3638 2984 3950 
Q 2813 4444 2353 4444 
Q 1875 4444 1525 3956 
Q 1250 3563 1034 2750 
L 3009 2750 
z
M 2444 4913 
Q 3194 4913 3494 4250 
Q 3794 3591 3566 2422 
Q 3341 1256 2781 594 
Q 2225 -72 1475 -72 
Q 722 -72 425 594 
Q 128 1256 353 2422 
Q 581 3591 1134 4250 
Q 1691 4913 2444 4913 
z
" transform="scale(0.015625)"/>
       <path id="DejaVuSans-2f" d="M 1625 4666 
L 2156 4666 
L 531 -594 
L 0 -594 
L 1625 4666 
z
" transform="scale(0.015625)"/>
      </defs>
      <use xlink:href="#DejaVuSans-Oblique-67" transform="translate(0 0.765625)"/>
      <use xlink:href="#DejaVuSans-74" transform="translate(79.712239 0.765625)"/>
      <use xlink:href="#DejaVuSans-61" transform="translate(118.921223 0.765625)"/>
      <use xlink:href="#DejaVuSans-6e" transform="translate(180.20052 0.765625)"/>
      <use xlink:href="#DejaVuSans-Oblique-3b8" transform="translate(259.815103 0.765625)"/>
      <use xlink:href="#DejaVuSans-20" transform="translate(320.996743 0.765625)"/>
      <use xlink:href="#DejaVuSans-20" transform="translate(352.783853 0.765625)"/>
      <use xlink:href="#DejaVuSans-28" transform="translate(384.570962 0.765625)"/>
      <use xlink:href="#DejaVuSans-6d" transform="translate(423.584634 0.765625)"/>
      <use xlink:href="#DejaVuSans-2f" transform="translate(520.996743 0.765625)"/>
      <use xlink:href="#DejaVuSans-73" transform="translate(554.688149 0.765625)"/>
      <use xlink:href="#DejaVuSans-32" transform="translate(607.74479 39.046875) scale(0.7)"/>
      <use xlink:href="#DejaVuSans-29" transform="translate(655.015298 0.765625)"/>
     </g>
    </g>
   </g>
   <g id="line2d_51">
    <path d="M 70.612292 390.269992 
L 78.387048 390.269986 
L 86.161804 390.269979 
L 93.93656 390.269967 
L 101.711317 390.269949 
L 109.486073 390.269923 
L 117.260829 390.269883 
L 125.035585 390.269824 
L 132.810341 390.269735 
L 140.585097 390.269602 
L 148.359854 390.269402 
L 156.13461 390.269102 
L 163.909366 390.268651 
L 171.684122 390.267976 
L 179.458878 390.266963 
L 187.233634 390.265444 
L 195.00839 390.263165 
L 202.783147 390.259746 
L 210.557903 390.254618 
L 218.332659 390.246926 
L 226.107415 390.235387 
L 233.882171 390.21808 
L 241.656927 390.192119 
L 249.431683 390.153177 
L 257.20644 390.094765 
L 264.981196 390.007146 
L 272.755952 389.875718 
L 280.530708 389.678575 
L 288.305464 389.382859 
L 296.08022 388.939275 
L 303.854976 388.273873 
L 311.629733 387.275676 
L 319.404489 385.778066 
L 327.179245 383.530588 
L 334.954001 380.155784 
L 342.728757 375.081436 
L 350.503513 367.428713 
L 366.053026 355.808847 
L 373.827782 337.890415 
L 381.602538 335.761452 
L 389.377294 333.622398 
L 397.15205 324.149155 
L 404.926806 328.604954 
L 412.701562 325.604845 
L 420.476319 328.351997 
L 428.251075 325.51561 
L 436.025831 326.383113 
L 443.800587 322.632023 
L 451.575343 320.232897 
L 459.350099 314.809857 
L 467.124856 307.41203 
L 474.899612 298.889988 
L 482.674368 288.779351 
L 490.449124 278.168664 
L 498.22388 267.570297 
L 505.998636 256.778259 
L 513.773392 247.073811 
L 521.548149 239.173218 
L 529.322905 236.573849 
L 537.097661 235.585684 
L 544.872417 234.315213 
L 552.647173 230.685484 
L 560.421929 228.786721 
L 568.196685 224.477511 
L 575.971442 224.918764 
L 583.746198 226.026652 
L 591.520954 230.417116 
L 599.29571 228.487794 
L 607.070466 224.840051 
L 614.845222 222.799623 
L 622.619978 224.386745 
L 630.394735 226.773533 
L 638.169491 231.182205 
L 645.944247 235.70374 
L 653.719003 243.588283 
L 661.493759 253.211192 
L 669.268515 261.066334 
L 677.043271 263.129208 
L 684.818028 271.224996 
L 692.592784 270.992146 
L 700.36754 274.130433 
L 708.142296 280.102871 
L 715.917052 287.119361 
L 723.691808 299.159201 
L 731.466565 315.947606 
L 739.241321 324.829301 
L 747.016077 336.048178 
L 754.790833 342.192037 
" clip-path="url(#p9316b3b201)" style="fill: none; stroke: #1f6fd6; stroke-width: 1.6; stroke-linecap: square"/>
   </g>
   <g id="patch_11">
    <path d="M 36.403365 398.64351 
L 36.403365 214.426105 
" style="fill: none; stroke: #000000; stroke-width: 0.8; stroke-linejoin: miter; stroke-linecap: square"/>
   </g>
   <g id="patch_12">
    <path d="M 36.403365 398.64351 
L 788.99976 398.64351 
" style="fill: none; stroke: #000000; stroke-width: 0.8; stroke-linejoin: miter; stroke-linecap: square"/>
   </g>
  </g>
  <g id="text_27">
   <!-- Fly-out angle, automatic: trial 3.MOV   (elevation-corrected 37 deg) -->
   <g transform="translate(166.956563 12.118365) scale(0.12 -0.12)">
    <defs>
     <path id="DejaVuSans-Bold-46" d="M 588 4666 
L 3834 4666 
L 3834 3756 
L 1791 3756 
L 1791 2888 
L 3713 2888 
L 3713 1978 
L 1791 1978 
L 1791 0 
L 588 0 
L 588 4666 
z
" transform="scale(0.015625)"/>
     <path id="DejaVuSans-Bold-6c" d="M 538 4863 
L 1656 4863 
L 1656 0 
L 538 0 
L 538 4863 
z
" transform="scale(0.015625)"/>
     <path id="DejaVuSans-Bold-79" d="M 78 3500 
L 1197 3500 
L 2138 1125 
L 2938 3500 
L 4056 3500 
L 2584 -331 
Q 2363 -916 2067 -1148 
Q 1772 -1381 1288 -1381 
L 641 -1381 
L 641 -647 
L 991 -647 
Q 1275 -647 1404 -556 
Q 1534 -466 1606 -231 
L 1638 -134 
L 78 3500 
z
" transform="scale(0.015625)"/>
     <path id="DejaVuSans-Bold-2d" d="M 347 2297 
L 2309 2297 
L 2309 1388 
L 347 1388 
L 347 2297 
z
" transform="scale(0.015625)"/>
     <path id="DejaVuSans-Bold-6f" d="M 2203 2784 
Q 1831 2784 1636 2517 
Q 1441 2250 1441 1747 
Q 1441 1244 1636 976 
Q 1831 709 2203 709 
Q 2569 709 2762 976 
Q 2956 1244 2956 1747 
Q 2956 2250 2762 2517 
Q 2569 2784 2203 2784 
z
M 2203 3584 
Q 3106 3584 3614 3096 
Q 4122 2609 4122 1747 
Q 4122 884 3614 396 
Q 3106 -91 2203 -91 
Q 1297 -91 786 396 
Q 275 884 275 1747 
Q 275 2609 786 3096 
Q 1297 3584 2203 3584 
z
" transform="scale(0.015625)"/>
     <path id="DejaVuSans-Bold-75" d="M 500 1363 
L 500 3500 
L 1625 3500 
L 1625 3150 
Q 1625 2866 1622 2436 
Q 1619 2006 1619 1863 
Q 1619 1441 1641 1255 
Q 1663 1069 1716 984 
Q 1784 875 1895 815 
Q 2006 756 2150 756 
Q 2500 756 2700 1025 
Q 2900 1294 2900 1772 
L 2900 3500 
L 4019 3500 
L 4019 0 
L 2900 0 
L 2900 506 
Q 2647 200 2364 54 
Q 2081 -91 1741 -91 
Q 1134 -91 817 281 
Q 500 653 500 1363 
z
" transform="scale(0.015625)"/>
     <path id="DejaVuSans-Bold-74" d="M 1759 4494 
L 1759 3500 
L 2913 3500 
L 2913 2700 
L 1759 2700 
L 1759 1216 
Q 1759 972 1856 886 
Q 1953 800 2241 800 
L 2816 800 
L 2816 0 
L 1856 0 
Q 1194 0 917 276 
Q 641 553 641 1216 
L 641 2700 
L 84 2700 
L 84 3500 
L 641 3500 
L 641 4494 
L 1759 4494 
z
" transform="scale(0.015625)"/>
     <path id="DejaVuSans-Bold-20" transform="scale(0.015625)"/>
     <path id="DejaVuSans-Bold-61" d="M 2106 1575 
Q 1756 1575 1579 1456 
Q 1403 1338 1403 1106 
Q 1403 894 1545 773 
Q 1688 653 1941 653 
Q 2256 653 2472 879 
Q 2688 1106 2688 1447 
L 2688 1575 
L 2106 1575 
z
M 3816 1997 
L 3816 0 
L 2688 0 
L 2688 519 
Q 2463 200 2181 54 
Q 1900 -91 1497 -91 
Q 953 -91 614 226 
Q 275 544 275 1050 
Q 275 1666 698 1953 
Q 1122 2241 2028 2241 
L 2688 2241 
L 2688 2328 
Q 2688 2594 2478 2717 
Q 2269 2841 1825 2841 
Q 1466 2841 1156 2769 
Q 847 2697 581 2553 
L 581 3406 
Q 941 3494 1303 3539 
Q 1666 3584 2028 3584 
Q 2975 3584 3395 3211 
Q 3816 2838 3816 1997 
z
" transform="scale(0.015625)"/>
     <path id="DejaVuSans-Bold-6e" d="M 4056 2131 
L 4056 0 
L 2931 0 
L 2931 347 
L 2931 1631 
Q 2931 2084 2911 2256 
Q 2891 2428 2841 2509 
Q 2775 2619 2662 2680 
Q 2550 2741 2406 2741 
Q 2056 2741 1856 2470 
Q 1656 2200 1656 1722 
L 1656 0 
L 538 0 
L 538 3500 
L 1656 3500 
L 1656 2988 
Q 1909 3294 2193 3439 
Q 2478 3584 2822 3584 
Q 3428 3584 3742 3212 
Q 4056 2841 4056 2131 
z
" transform="scale(0.015625)"/>
     <path id="DejaVuSans-Bold-67" d="M 2919 594 
Q 2688 288 2409 144 
Q 2131 0 1766 0 
Q 1125 0 706 504 
Q 288 1009 288 1791 
Q 288 2575 706 3076 
Q 1125 3578 1766 3578 
Q 2131 3578 2409 3434 
Q 2688 3291 2919 2981 
L 2919 3500 
L 4044 3500 
L 4044 353 
Q 4044 -491 3511 -936 
Q 2978 -1381 1966 -1381 
Q 1638 -1381 1331 -1331 
Q 1025 -1281 716 -1178 
L 716 -306 
Q 1009 -475 1290 -558 
Q 1572 -641 1856 -641 
Q 2406 -641 2662 -400 
Q 2919 -159 2919 353 
L 2919 594 
z
M 2181 2772 
Q 1834 2772 1640 2515 
Q 1447 2259 1447 1791 
Q 1447 1309 1634 1061 
Q 1822 813 2181 813 
Q 2531 813 2725 1069 
Q 2919 1325 2919 1791 
Q 2919 2259 2725 2515 
Q 2531 2772 2181 2772 
z
" transform="scale(0.015625)"/>
     <path id="DejaVuSans-Bold-65" d="M 4031 1759 
L 4031 1441 
L 1416 1441 
Q 1456 1047 1700 850 
Q 1944 653 2381 653 
Q 2734 653 3104 758 
Q 3475 863 3866 1075 
L 3866 213 
Q 3469 63 3072 -14 
Q 2675 -91 2278 -91 
Q 1328 -91 801 392 
Q 275 875 275 1747 
Q 275 2603 792 3093 
Q 1309 3584 2216 3584 
Q 3041 3584 3536 3087 
Q 4031 2591 4031 1759 
z
M 2881 2131 
Q 2881 2450 2695 2645 
Q 2509 2841 2209 2841 
Q 1884 2841 1681 2658 
Q 1478 2475 1428 2131 
L 2881 2131 
z
" transform="scale(0.015625)"/>
     <path id="DejaVuSans-Bold-2c" d="M 653 1209 
L 1778 1209 
L 1778 256 
L 1006 -909 
L 341 -909 
L 653 256 
L 653 1209 
z
" transform="scale(0.015625)"/>
     <path id="DejaVuSans-Bold-6d" d="M 3781 2919 
Q 3994 3244 4286 3414 
Q 4578 3584 4928 3584 
Q 5531 3584 5847 3212 
Q 6163 2841 6163 2131 
L 6163 0 
L 5038 0 
L 5038 1825 
Q 5041 1866 5042 1909 
Q 5044 1953 5044 2034 
Q 5044 2406 4934 2573 
Q 4825 2741 4581 2741 
Q 4263 2741 4089 2478 
Q 3916 2216 3909 1719 
L 3909 0 
L 2784 0 
L 2784 1825 
Q 2784 2406 2684 2573 
Q 2584 2741 2328 2741 
Q 2006 2741 1831 2477 
Q 1656 2213 1656 1722 
L 1656 0 
L 531 0 
L 531 3500 
L 1656 3500 
L 1656 2988 
Q 1863 3284 2130 3434 
Q 2397 3584 2719 3584 
Q 3081 3584 3359 3409 
Q 3638 3234 3781 2919 
z
" transform="scale(0.015625)"/>
     <path id="DejaVuSans-Bold-69" d="M 538 3500 
L 1656 3500 
L 1656 0 
L 538 0 
L 538 3500 
z
M 538 4863 
L 1656 4863 
L 1656 3950 
L 538 3950 
L 538 4863 
z
" transform="scale(0.015625)"/>
     <path id="DejaVuSans-Bold-63" d="M 3366 3391 
L 3366 2478 
Q 3138 2634 2908 2709 
Q 2678 2784 2431 2784 
Q 1963 2784 1702 2511 
Q 1441 2238 1441 1747 
Q 1441 1256 1702 982 
Q 1963 709 2431 709 
Q 2694 709 2930 787 
Q 3166 866 3366 1019 
L 3366 103 
Q 3103 6 2833 -42 
Q 2563 -91 2291 -91 
Q 1344 -91 809 395 
Q 275 881 275 1747 
Q 275 2613 809 3098 
Q 1344 3584 2291 3584 
Q 2566 3584 2833 3536 
Q 3100 3488 3366 3391 
z
" transform="scale(0.015625)"/>
     <path id="DejaVuSans-Bold-3a" d="M 716 3500 
L 1844 3500 
L 1844 2291 
L 716 2291 
L 716 3500 
z
M 716 1209 
L 1844 1209 
L 1844 0 
L 716 0 
L 716 1209 
z
" transform="scale(0.015625)"/>
     <path id="DejaVuSans-Bold-72" d="M 3138 2547 
Q 2991 2616 2845 2648 
Q 2700 2681 2553 2681 
Q 2122 2681 1889 2404 
Q 1656 2128 1656 1613 
L 1656 0 
L 538 0 
L 538 3500 
L 1656 3500 
L 1656 2925 
Q 1872 3269 2151 3426 
Q 2431 3584 2822 3584 
Q 2878 3584 2943 3579 
Q 3009 3575 3134 3559 
L 3138 2547 
z
" transform="scale(0.015625)"/>
     <path id="DejaVuSans-Bold-33" d="M 2981 2516 
Q 3453 2394 3698 2092 
Q 3944 1791 3944 1325 
Q 3944 631 3412 270 
Q 2881 -91 1863 -91 
Q 1503 -91 1142 -33 
Q 781 25 428 141 
L 428 1069 
Q 766 900 1098 814 
Q 1431 728 1753 728 
Q 2231 728 2486 893 
Q 2741 1059 2741 1369 
Q 2741 1688 2480 1852 
Q 2219 2016 1709 2016 
L 1228 2016 
L 1228 2791 
L 1734 2791 
Q 2188 2791 2409 2933 
Q 2631 3075 2631 3366 
Q 2631 3634 2415 3781 
Q 2200 3928 1806 3928 
Q 1516 3928 1219 3862 
Q 922 3797 628 3669 
L 628 4550 
Q 984 4650 1334 4700 
Q 1684 4750 2022 4750 
Q 2931 4750 3382 4451 
Q 3834 4153 3834 3553 
Q 3834 3144 3618 2883 
Q 3403 2622 2981 2516 
z
" transform="scale(0.015625)"/>
     <path id="DejaVuSans-Bold-2e" d="M 653 1209 
L 1778 1209 
L 1778 0 
L 653 0 
L 653 1209 
z
" transform="scale(0.015625)"/>
     <path id="DejaVuSans-Bold-4d" d="M 588 4666 
L 2119 4666 
L 3181 2169 
L 4250 4666 
L 5778 4666 
L 5778 0 
L 4641 0 
L 4641 3413 
L 3566 897 
L 2803 897 
L 1728 3413 
L 1728 0 
L 588 0 
L 588 4666 
z
" transform="scale(0.015625)"/>
     <path id="DejaVuSans-Bold-4f" d="M 2719 3878 
Q 2169 3878 1866 3472 
Q 1563 3066 1563 2328 
Q 1563 1594 1866 1187 
Q 2169 781 2719 781 
Q 3272 781 3575 1187 
Q 3878 1594 3878 2328 
Q 3878 3066 3575 3472 
Q 3272 3878 2719 3878 
z
M 2719 4750 
Q 3844 4750 4481 4106 
Q 5119 3463 5119 2328 
Q 5119 1197 4481 553 
Q 3844 -91 2719 -91 
Q 1597 -91 958 553 
Q 319 1197 319 2328 
Q 319 3463 958 4106 
Q 1597 4750 2719 4750 
z
" transform="scale(0.015625)"/>
     <path id="DejaVuSans-Bold-56" d="M 31 4666 
L 1241 4666 
L 2478 1222 
L 3713 4666 
L 4922 4666 
L 3194 0 
L 1759 0 
L 31 4666 
z
" transform="scale(0.015625)"/>
     <path id="DejaVuSans-Bold-28" d="M 2413 -844 
L 1484 -844 
Q 1006 -72 778 623 
Q 550 1319 550 2003 
Q 550 2688 779 3389 
Q 1009 4091 1484 4856 
L 2413 4856 
Q 2013 4116 1813 3408 
Q 1613 2700 1613 2009 
Q 1613 1319 1811 609 
Q 2009 -100 2413 -844 
z
" transform="scale(0.015625)"/>
     <path id="DejaVuSans-Bold-76" d="M 97 3500 
L 1216 3500 
L 2088 1081 
L 2956 3500 
L 4078 3500 
L 2700 0 
L 1472 0 
L 97 3500 
z
" transform="scale(0.015625)"/>
     <path id="DejaVuSans-Bold-64" d="M 2919 2988 
L 2919 4863 
L 4044 4863 
L 4044 0 
L 2919 0 
L 2919 506 
Q 2688 197 2409 53 
Q 2131 -91 1766 -91 
Q 1119 -91 703 423 
Q 288 938 288 1747 
Q 288 2556 703 3070 
Q 1119 3584 1766 3584 
Q 2128 3584 2408 3439 
Q 2688 3294 2919 2988 
z
M 2181 722 
Q 2541 722 2730 984 
Q 2919 1247 2919 1747 
Q 2919 2247 2730 2509 
Q 2541 2772 2181 2772 
Q 1825 2772 1636 2509 
Q 1447 2247 1447 1747 
Q 1447 1247 1636 984 
Q 1825 722 2181 722 
z
" transform="scale(0.015625)"/>
     <path id="DejaVuSans-Bold-37" d="M 428 4666 
L 3944 4666 
L 3944 3988 
L 2125 0 
L 953 0 
L 2675 3781 
L 428 3781 
L 428 4666 
z
" transform="scale(0.015625)"/>
     <path id="DejaVuSans-Bold-29" d="M 513 -844 
Q 913 -100 1113 609 
Q 1313 1319 1313 2009 
Q 1313 2700 1113 3408 
Q 913 4116 513 4856 
L 1441 4856 
Q 1916 4091 2145 3389 
Q 2375 2688 2375 2003 
Q 2375 1319 2147 623 
Q 1919 -72 1441 -844 
L 513 -844 
z
" transform="scale(0.015625)"/>
    </defs>
    <use xlink:href="#DejaVuSans-Bold-46"/>
    <use xlink:href="#DejaVuSans-Bold-6c" transform="translate(68.310547 0)"/>
    <use xlink:href="#DejaVuSans-Bold-79" transform="translate(102.587891 0)"/>
    <use xlink:href="#DejaVuSans-Bold-2d" transform="translate(167.773438 0)"/>
    <use xlink:href="#DejaVuSans-Bold-6f" transform="translate(209.277344 0)"/>
    <use xlink:href="#DejaVuSans-Bold-75" transform="translate(277.978516 0)"/>
    <use xlink:href="#DejaVuSans-Bold-74" transform="translate(349.169922 0)"/>
    <use xlink:href="#DejaVuSans-Bold-20" transform="translate(396.972656 0)"/>
    <use xlink:href="#DejaVuSans-Bold-61" transform="translate(431.787109 0)"/>
    <use xlink:href="#DejaVuSans-Bold-6e" transform="translate(499.267578 0)"/>
    <use xlink:href="#DejaVuSans-Bold-67" transform="translate(570.458984 0)"/>
    <use xlink:href="#DejaVuSans-Bold-6c" transform="translate(642.041016 0)"/>
    <use xlink:href="#DejaVuSans-Bold-65" transform="translate(676.318359 0)"/>
    <use xlink:href="#DejaVuSans-Bold-2c" transform="translate(744.140625 0)"/>
    <use xlink:href="#DejaVuSans-Bold-20" transform="translate(782.128906 0)"/>
    <use xlink:href="#DejaVuSans-Bold-61" transform="translate(816.943359 0)"/>
    <use xlink:href="#DejaVuSans-Bold-75" transform="translate(884.423828 0)"/>
    <use xlink:href="#DejaVuSans-Bold-74" transform="translate(955.615234 0)"/>
    <use xlink:href="#DejaVuSans-Bold-6f" transform="translate(1003.417969 0)"/>
    <use xlink:href="#DejaVuSans-Bold-6d" transform="translate(1072.119141 0)"/>
    <use xlink:href="#DejaVuSans-Bold-61" transform="translate(1176.318359 0)"/>
    <use xlink:href="#DejaVuSans-Bold-74" transform="translate(1243.798828 0)"/>
    <use xlink:href="#DejaVuSans-Bold-69" transform="translate(1291.601562 0)"/>
    <use xlink:href="#DejaVuSans-Bold-63" transform="translate(1325.878906 0)"/>
    <use xlink:href="#DejaVuSans-Bold-3a" transform="translate(1385.15625 0)"/>
    <use xlink:href="#DejaVuSans-Bold-20" transform="translate(1425.146484 0)"/>
    <use xlink:href="#DejaVuSans-Bold-74" transform="translate(1459.960938 0)"/>
    <use xlink:href="#DejaVuSans-Bold-72" transform="translate(1507.763672 0)"/>
    <use xlink:href="#DejaVuSans-Bold-69" transform="translate(1557.080078 0)"/>
    <use xlink:href="#DejaVuSans-Bold-61" transform="translate(1591.357422 0)"/>
    <use xlink:href="#DejaVuSans-Bold-6c" transform="translate(1658.837891 0)"/>
    <use xlink:href="#DejaVuSans-Bold-20" transform="translate(1693.115234 0)"/>
    <use xlink:href="#DejaVuSans-Bold-33" transform="translate(1727.929688 0)"/>
    <use xlink:href="#DejaVuSans-Bold-2e" transform="translate(1797.509766 0)"/>
    <use xlink:href="#DejaVuSans-Bold-4d" transform="translate(1835.498047 0)"/>
    <use xlink:href="#DejaVuSans-Bold-4f" transform="translate(1935.009766 0)"/>
    <use xlink:href="#DejaVuSans-Bold-56" transform="translate(2017.394531 0)"/>
    <use xlink:href="#DejaVuSans-Bold-20" transform="translate(2094.787109 0)"/>
    <use xlink:href="#DejaVuSans-Bold-20" transform="translate(2129.601562 0)"/>
    <use xlink:href="#DejaVuSans-Bold-20" transform="translate(2164.416016 0)"/>
    <use xlink:href="#DejaVuSans-Bold-28" transform="translate(2199.230469 0)"/>
    <use xlink:href="#DejaVuSans-Bold-65" transform="translate(2244.933594 0)"/>
    <use xlink:href="#DejaVuSans-Bold-6c" transform="translate(2312.755859 0)"/>
    <use xlink:href="#DejaVuSans-Bold-65" transform="translate(2347.033203 0)"/>
    <use xlink:href="#DejaVuSans-Bold-76" transform="translate(2414.855469 0)"/>
    <use xlink:href="#DejaVuSans-Bold-61" transform="translate(2480.041016 0)"/>
    <use xlink:href="#DejaVuSans-Bold-74" transform="translate(2547.521484 0)"/>
    <use xlink:href="#DejaVuSans-Bold-69" transform="translate(2595.324219 0)"/>
    <use xlink:href="#DejaVuSans-Bold-6f" transform="translate(2629.601562 0)"/>
    <use xlink:href="#DejaVuSans-Bold-6e" transform="translate(2698.302734 0)"/>
    <use xlink:href="#DejaVuSans-Bold-2d" transform="translate(2769.494141 0)"/>
    <use xlink:href="#DejaVuSans-Bold-63" transform="translate(2810.998047 0)"/>
    <use xlink:href="#DejaVuSans-Bold-6f" transform="translate(2870.275391 0)"/>
    <use xlink:href="#DejaVuSans-Bold-72" transform="translate(2938.976562 0)"/>
    <use xlink:href="#DejaVuSans-Bold-72" transform="translate(2988.292969 0)"/>
    <use xlink:href="#DejaVuSans-Bold-65" transform="translate(3037.609375 0)"/>
    <use xlink:href="#DejaVuSans-Bold-63" transform="translate(3105.431641 0)"/>
    <use xlink:href="#DejaVuSans-Bold-74" transform="translate(3164.708984 0)"/>
    <use xlink:href="#DejaVuSans-Bold-65" transform="translate(3212.511719 0)"/>
    <use xlink:href="#DejaVuSans-Bold-64" transform="translate(3280.333984 0)"/>
    <use xlink:href="#DejaVuSans-Bold-20" transform="translate(3351.916016 0)"/>
    <use xlink:href="#DejaVuSans-Bold-33" transform="translate(3386.730469 0)"/>
    <use xlink:href="#DejaVuSans-Bold-37" transform="translate(3456.310547 0)"/>
    <use xlink:href="#DejaVuSans-Bold-20" transform="translate(3525.890625 0)"/>
    <use xlink:href="#DejaVuSans-Bold-64" transform="translate(3560.705078 0)"/>
    <use xlink:href="#DejaVuSans-Bold-65" transform="translate(3632.287109 0)"/>
    <use xlink:href="#DejaVuSans-Bold-67" transform="translate(3700.109375 0)"/>
    <use xlink:href="#DejaVuSans-Bold-29" transform="translate(3771.691406 0)"/>
   </g>
  </g>
 </g>
 <defs>
  <clipPath id="p053193660a">
   <rect x="36.403365" y="20.70822" width="752.596395" height="184.217405"/>
  </clipPath>
  <clipPath id="p9316b3b201">
   <rect x="36.403365" y="214.426105" width="752.596395" height="184.217405"/>
  </clipPath>
 </defs>
</svg>
