<?xml version="1.0" encoding="utf-8" standalone="no"?>
<!DOCTYPE svg PUBLIC "-//W3C//DTD SVG 1.1//EN"
  "http://www.w3.org/Graphics/SVG/1.1/DTD/svg11.dtd">
<svg xmlns:xlink="http://www.w3.org/1999/xlink" width="792pt" height="302.4pt" viewBox="0 0 792 302.4" xmlns="http://www.w3.org/2000/svg" version="1.1">
 <metadata>
  <rdf:RDF xmlns:dc="http://purl.org/dc/elements/1.1/" xmlns:cc="http://creativecommons.org/ns#" xmlns:rdf="http://www.w3.org/1999/02/22-rdf-syntax-ns#">
   <cc:Work>
    <dc:type rdf:resource="http://purl.org/dc/dcmitype/StillImage"/>
    <dc:date>2026-07-15T21:27:32.565244</dc:date>
    <dc:format>image/svg+xml</dc:format>
    <dc:creator>
     <cc:Agent>
      <dc:title>Matplotlib v3.10.3, https://matplotlib.org/</dc:title>
     </cc:Agent>
    </dc:creator>
   </cc:Work>
  </rdf:RDF>
 </metadata>
 <defs>
  <style type="text/css">*{stroke-linejoin: round; stroke-linecap: butt}</style>
 </defs>
 <g id="figure_1">
  <g id="patch_1">
   <path d="M 0 302.4 
L 792 302.4 
L 792 0 
L 0 0 
z
" style="fill: #ffffff"/>
  </g>
  <g id="axes_1">
   <g id="patch_2">
    <path d="M 36.403365 269.04351 
L 788.99976 269.04351 
L 788.99976 20.70822 
L 36.403365 20.70822 
z
" style="fill: #ffffff"/>
   </g>
   <g id="matplotlib.axis_1">
    <g id="xtick_1">
     <g id="line2d_1">
      <path d="M 36.403365 269.04351 
L 36.403365 20.70822 
" clip-path="url(#p9e48d40582)" style="fill: none; stroke: #ededed; stroke-width: 0.6; stroke-linecap: square"/>
     </g>
     <g id="line2d_2">
      <defs>
       <path id="ma501a61c55" d="M 0 0 
L 0 3.5 
" style="stroke: #000000; stroke-width: 0.8"/>
      </defs>
      <g>
       <use xlink:href="#ma501a61c55" x="36.403365" y="269.04351" style="stroke: #000000; stroke-width: 0.8"/>
      </g>
     </g>
     <g id="text_1">
      <!-- 0 -->
      <g transform="translate(33.222115 283.641948) scale(0.1 -0.1)">
       <defs>
        <path id="DejaVuSans-30" d="M 2034 4250 
Q 1547 4250 1301 3770 
Q 1056 3291 1056 2328 
Q 1056 1369 1301 889 
Q 1547 409 2034 409 
Q 2525 409 2770 889 
Q 3016 1369 3016 2328 
Q 3016 3291 2770 3770 
Q 2525 4250 2034 4250 
z
M 2034 4750 
Q 2819 4750 3233 4129 
Q 3647 3509 3647 2328 
Q 3647 1150 3233 529 
Q 2819 -91 2034 -91 
Q 1250 -91 836 529 
Q 422 1150 422 2328 
Q 422 3509 836 4129 
Q 1250 4750 2034 4750 
z
" transform="scale(0.015625)"/>
       </defs>
       <use xlink:href="#DejaVuSans-30"/>
      </g>
     </g>
    </g>
    <g id="xtick_2">
     <g id="line2d_3">
      <path d="M 126.642741 269.04351 
L 126.642741 20.70822 
" clip-path="url(#p9e48d40582)" style="fill: none; stroke: #ededed; stroke-width: 0.6; stroke-linecap: square"/>
     </g>
     <g id="line2d_4">
      <g>
       <use xlink:href="#ma501a61c55" x="126.642741" y="269.04351" style="stroke: #000000; stroke-width: 0.8"/>
      </g>
     </g>
     <g id="text_2">
      <!-- 25 -->
      <g transform="translate(120.280241 283.641948) scale(0.1 -0.1)">
       <defs>
        <path id="DejaVuSans-32" d="M 1228 531 
L 3431 531 
L 3431 0 
L 469 0 
L 469 531 
Q 828 903 1448 1529 
Q 2069 2156 2228 2338 
Q 2531 2678 2651 2914 
Q 2772 3150 2772 3378 
Q 2772 3750 2511 3984 
Q 2250 4219 1831 4219 
Q 1534 4219 1204 4116 
Q 875 4013 500 3803 
L 500 4441 
Q 881 4594 1212 4672 
Q 1544 4750 1819 4750 
Q 2544 4750 2975 4387 
Q 3406 4025 3406 3419 
Q 3406 3131 3298 2873 
Q 3191 2616 2906 2266 
Q 2828 2175 2409 1742 
Q 1991 1309 1228 531 
z
" transform="scale(0.015625)"/>
        <path id="DejaVuSans-35" d="M 691 4666 
L 3169 4666 
L 3169 4134 
L 1269 4134 
L 1269 2991 
Q 1406 3038 1543 3061 
Q 1681 3084 1819 3084 
Q 2600 3084 3056 2656 
Q 3513 2228 3513 1497 
Q 3513 744 3044 326 
Q 2575 -91 1722 -91 
Q 1428 -91 1123 -41 
Q 819 9 494 109 
L 494 744 
Q 775 591 1075 516 
Q 1375 441 1709 441 
Q 2250 441 2565 725 
Q 2881 1009 2881 1497 
Q 2881 1984 2565 2268 
Q 2250 2553 1709 2553 
Q 1456 2553 1204 2497 
Q 953 2441 691 2322 
L 691 4666 
z
" transform="scale(0.015625)"/>
       </defs>
       <use xlink:href="#DejaVuSans-32"/>
       <use xlink:href="#DejaVuSans-35" transform="translate(63.623047 0)"/>
      </g>
     </g>
    </g>
    <g id="xtick_3">
     <g id="line2d_5">
      <path d="M 216.882117 269.04351 
L 216.882117 20.70822 
" clip-path="url(#p9e48d40582)" style="fill: none; stroke: #ededed; stroke-width: 0.6; stroke-linecap: square"/>
     </g>
     <g id="line2d_6">
      <g>
       <use xlink:href="#ma501a61c55" x="216.882117" y="269.04351" style="stroke: #000000; stroke-width: 0.8"/>
      </g>
     </g>
     <g id="text_3">
      <!-- 50 -->
      <g transform="translate(210.519617 283.641948) scale(0.1 -0.1)">
       <use xlink:href="#DejaVuSans-35"/>
       <use xlink:href="#DejaVuSans-30" transform="translate(63.623047 0)"/>
      </g>
     </g>
    </g>
    <g id="xtick_4">
     <g id="line2d_7">
      <path d="M 307.121493 269.04351 
L 307.121493 20.70822 
" clip-path="url(#p9e48d40582)" style="fill: none; stroke: #ededed; stroke-width: 0.6; stroke-linecap: square"/>
     </g>
     <g id="line2d_8">
      <g>
       <use xlink:href="#ma501a61c55" x="307.121493" y="269.04351" style="stroke: #000000; stroke-width: 0.8"/>
      </g>
     </g>
     <g id="text_4">
      <!-- 75 -->
      <g transform="translate(300.758993 283.641948) scale(0.1 -0.1)">
       <defs>
        <path id="DejaVuSans-37" d="M 525 4666 
L 3525 4666 
L 3525 4397 
L 1831 0 
L 1172 0 
L 2766 4134 
L 525 4134 
L 525 4666 
z
" transform="scale(0.015625)"/>
       </defs>
       <use xlink:href="#DejaVuSans-37"/>
       <use xlink:href="#DejaVuSans-35" transform="translate(63.623047 0)"/>
      </g>
     </g>
    </g>
    <g id="xtick_5">
     <g id="line2d_9">
      <path d="M 397.360869 269.04351 
L 397.360869 20.70822 
" clip-path="url(#p9e48d40582)" style="fill: none; stroke: #ededed; stroke-width: 0.6; stroke-linecap: square"/>
     </g>
     <g id="line2d_10">
      <g>
       <use xlink:href="#ma501a61c55" x="397.360869" y="269.04351" style="stroke: #000000; stroke-width: 0.8"/>
      </g>
     </g>
     <g id="text_5">
      <!-- 100 -->
      <g transform="translate(387.817119 283.641948) scale(0.1 -0.1)">
       <defs>
        <path id="DejaVuSans-31" d="M 794 531 
L 1825 531 
L 1825 4091 
L 703 3866 
L 703 4441 
L 1819 4666 
L 2450 4666 
L 2450 531 
L 3481 531 
L 3481 0 
L 794 0 
L 794 531 
z
" transform="scale(0.015625)"/>
       </defs>
       <use xlink:href="#DejaVuSans-31"/>
       <use xlink:href="#DejaVuSans-30" transform="translate(63.623047 0)"/>
       <use xlink:href="#DejaVuSans-30" transform="translate(127.246094 0)"/>
      </g>
     </g>
    </g>
    <g id="xtick_6">
     <g id="line2d_11">
      <path d="M 487.600244 269.04351 
L 487.600244 20.70822 
" clip-path="url(#p9e48d40582)" style="fill: none; stroke: #ededed; stroke-width: 0.6; stroke-linecap: square"/>
     </g>
     <g id="line2d_12">
      <g>
       <use xlink:href="#ma501a61c55" x="487.600244" y="269.04351" style="stroke: #000000; stroke-width: 0.8"/>
      </g>
     </g>
     <g id="text_6">
      <!-- 125 -->
      <g transform="translate(478.056494 283.641948) scale(0.1 -0.1)">
       <use xlink:href="#DejaVuSans-31"/>
       <use xlink:href="#DejaVuSans-32" transform="translate(63.623047 0)"/>
       <use xlink:href="#DejaVuSans-35" transform="translate(127.246094 0)"/>
      </g>
     </g>
    </g>
    <g id="xtick_7">
     <g id="line2d_13">
      <path d="M 577.83962 269.04351 
L 577.83962 20.70822 
" clip-path="url(#p9e48d40582)" style="fill: none; stroke: #ededed; stroke-width: 0.6; stroke-linecap: square"/>
     </g>
     <g id="line2d_14">
      <g>
       <use xlink:href="#ma501a61c55" x="577.83962" y="269.04351" style="stroke: #000000; stroke-width: 0.8"/>
      </g>
     </g>
     <g id="text_7">
      <!-- 150 -->
      <g transform="translate(568.29587 283.641948) scale(0.1 -0.1)">
       <use xlink:href="#DejaVuSans-31"/>
       <use xlink:href="#DejaVuSans-35" transform="translate(63.623047 0)"/>
       <use xlink:href="#DejaVuSans-30" transform="translate(127.246094 0)"/>
      </g>
     </g>
    </g>
    <g id="xtick_8">
     <g id="line2d_15">
      <path d="M 668.078996 269.04351 
L 668.078996 20.70822 
" clip-path="url(#p9e48d40582)" style="fill: none; stroke: #ededed; stroke-width: 0.6; stroke-linecap: square"/>
     </g>
     <g id="line2d_16">
      <g>
       <use xlink:href="#ma501a61c55" x="668.078996" y="269.04351" style="stroke: #000000; stroke-width: 0.8"/>
      </g>
     </g>
     <g id="text_8">
      <!-- 175 -->
      <g transform="translate(658.535246 283.641948) scale(0.1 -0.1)">
       <use xlink:href="#DejaVuSans-31"/>
       <use xlink:href="#DejaVuSans-37" transform="translate(63.623047 0)"/>
       <use xlink:href="#DejaVuSans-35" transform="translate(127.246094 0)"/>
      </g>
     </g>
    </g>
    <g id="xtick_9">
     <g id="line2d_17">
      <path d="M 758.318372 269.04351 
L 758.318372 20.70822 
" clip-path="url(#p9e48d40582)" style="fill: none; stroke: #ededed; stroke-width: 0.6; stroke-linecap: square"/>
     </g>
     <g id="line2d_18">
      <g>
       <use xlink:href="#ma501a61c55" x="758.318372" y="269.04351" style="stroke: #000000; stroke-width: 0.8"/>
      </g>
     </g>
     <g id="text_9">
      <!-- 200 -->
      <g transform="translate(748.774622 283.641948) scale(0.1 -0.1)">
       <use xlink:href="#DejaVuSans-32"/>
       <use xlink:href="#DejaVuSans-30" transform="translate(63.623047 0)"/>
       <use xlink:href="#DejaVuSans-30" transform="translate(127.246094 0)"/>
      </g>
     </g>
    </g>
    <g id="text_10">
     <!-- time (s, video clock) -->
     <g transform="translate(362.042187 297.320073) scale(0.1 -0.1)">
      <defs>
       <path id="DejaVuSans-74" d="M 1172 4494 
L 1172 3500 
L 2356 3500 
L 2356 3053 
L 1172 3053 
L 1172 1153 
Q 1172 725 1289 603 
Q 1406 481 1766 481 
L 2356 481 
L 2356 0 
L 1766 0 
Q 1100 0 847 248 
Q 594 497 594 1153 
L 594 3053 
L 172 3053 
L 172 3500 
L 594 3500 
L 594 4494 
L 1172 4494 
z
" transform="scale(0.015625)"/>
       <path id="DejaVuSans-69" d="M 603 3500 
L 1178 3500 
L 1178 0 
L 603 0 
L 603 3500 
z
M 603 4863 
L 1178 4863 
L 1178 4134 
L 603 4134 
L 603 4863 
z
" transform="scale(0.015625)"/>
       <path id="DejaVuSans-6d" d="M 3328 2828 
Q 3544 3216 3844 3400 
Q 4144 3584 4550 3584 
Q 5097 3584 5394 3201 
Q 5691 2819 5691 2113 
L 5691 0 
L 5113 0 
L 5113 2094 
Q 5113 2597 4934 2840 
Q 4756 3084 4391 3084 
Q 3944 3084 3684 2787 
Q 3425 2491 3425 1978 
L 3425 0 
L 2847 0 
L 2847 2094 
Q 2847 2600 2669 2842 
Q 2491 3084 2119 3084 
Q 1678 3084 1418 2786 
Q 1159 2488 1159 1978 
L 1159 0 
L 581 0 
L 581 3500 
L 1159 3500 
L 1159 2956 
Q 1356 3278 1631 3431 
Q 1906 3584 2284 3584 
Q 2666 3584 2933 3390 
Q 3200 3197 3328 2828 
z
" transform="scale(0.015625)"/>
       <path id="DejaVuSans-65" d="M 3597 1894 
L 3597 1613 
L 953 1613 
Q 991 1019 1311 708 
Q 1631 397 2203 397 
Q 2534 397 2845 478 
Q 3156 559 3463 722 
L 3463 178 
Q 3153 47 2828 -22 
Q 2503 -91 2169 -91 
Q 1331 -91 842 396 
Q 353 884 353 1716 
Q 353 2575 817 3079 
Q 1281 3584 2069 3584 
Q 2775 3584 3186 3129 
Q 3597 2675 3597 1894 
z
M 3022 2063 
Q 3016 2534 2758 2815 
Q 2500 3097 2075 3097 
Q 1594 3097 1305 2825 
Q 1016 2553 972 2059 
L 3022 2063 
z
" transform="scale(0.015625)"/>
       <path id="DejaVuSans-20" transform="scale(0.015625)"/>
       <path id="DejaVuSans-28" d="M 1984 4856 
Q 1566 4138 1362 3434 
Q 1159 2731 1159 2009 
Q 1159 1288 1364 580 
Q 1569 -128 1984 -844 
L 1484 -844 
Q 1016 -109 783 600 
Q 550 1309 550 2009 
Q 550 2706 781 3412 
Q 1013 4119 1484 4856 
L 1984 4856 
z
" transform="scale(0.015625)"/>
       <path id="DejaVuSans-73" d="M 2834 3397 
L 2834 2853 
Q 2591 2978 2328 3040 
Q 2066 3103 1784 3103 
Q 1356 3103 1142 2972 
Q 928 2841 928 2578 
Q 928 2378 1081 2264 
Q 1234 2150 1697 2047 
L 1894 2003 
Q 2506 1872 2764 1633 
Q 3022 1394 3022 966 
Q 3022 478 2636 193 
Q 2250 -91 1575 -91 
Q 1294 -91 989 -36 
Q 684 19 347 128 
L 347 722 
Q 666 556 975 473 
Q 1284 391 1588 391 
Q 1994 391 2212 530 
Q 2431 669 2431 922 
Q 2431 1156 2273 1281 
Q 2116 1406 1581 1522 
L 1381 1569 
Q 847 1681 609 1914 
Q 372 2147 372 2553 
Q 372 3047 722 3315 
Q 1072 3584 1716 3584 
Q 2034 3584 2315 3537 
Q 2597 3491 2834 3397 
z
" transform="scale(0.015625)"/>
       <path id="DejaVuSans-2c" d="M 750 794 
L 1409 794 
L 1409 256 
L 897 -744 
L 494 -744 
L 750 256 
L 750 794 
z
" transform="scale(0.015625)"/>
       <path id="DejaVuSans-76" d="M 191 3500 
L 800 3500 
L 1894 563 
L 2988 3500 
L 3597 3500 
L 2284 0 
L 1503 0 
L 191 3500 
z
" transform="scale(0.015625)"/>
       <path id="DejaVuSans-64" d="M 2906 2969 
L 2906 4863 
L 3481 4863 
L 3481 0 
L 2906 0 
L 2906 525 
Q 2725 213 2448 61 
Q 2172 -91 1784 -91 
Q 1150 -91 751 415 
Q 353 922 353 1747 
Q 353 2572 751 3078 
Q 1150 3584 1784 3584 
Q 2172 3584 2448 3432 
Q 2725 3281 2906 2969 
z
M 947 1747 
Q 947 1113 1208 752 
Q 1469 391 1925 391 
Q 2381 391 2643 752 
Q 2906 1113 2906 1747 
Q 2906 2381 2643 2742 
Q 2381 3103 1925 3103 
Q 1469 3103 1208 2742 
Q 947 2381 947 1747 
z
" transform="scale(0.015625)"/>
       <path id="DejaVuSans-6f" d="M 1959 3097 
Q 1497 3097 1228 2736 
Q 959 2375 959 1747 
Q 959 1119 1226 758 
Q 1494 397 1959 397 
Q 2419 397 2687 759 
Q 2956 1122 2956 1747 
Q 2956 2369 2687 2733 
Q 2419 3097 1959 3097 
z
M 1959 3584 
Q 2709 3584 3137 3096 
Q 3566 2609 3566 1747 
Q 3566 888 3137 398 
Q 2709 -91 1959 -91 
Q 1206 -91 779 398 
Q 353 888 353 1747 
Q 353 2609 779 3096 
Q 1206 3584 1959 3584 
z
" transform="scale(0.015625)"/>
       <path id="DejaVuSans-63" d="M 3122 3366 
L 3122 2828 
Q 2878 2963 2633 3030 
Q 2388 3097 2138 3097 
Q 1578 3097 1268 2742 
Q 959 2388 959 1747 
Q 959 1106 1268 751 
Q 1578 397 2138 397 
Q 2388 397 2633 464 
Q 2878 531 3122 666 
L 3122 134 
Q 2881 22 2623 -34 
Q 2366 -91 2075 -91 
Q 1284 -91 818 406 
Q 353 903 353 1747 
Q 353 2603 823 3093 
Q 1294 3584 2113 3584 
Q 2378 3584 2631 3529 
Q 2884 3475 3122 3366 
z
" transform="scale(0.015625)"/>
       <path id="DejaVuSans-6c" d="M 603 4863 
L 1178 4863 
L 1178 0 
L 603 0 
L 603 4863 
z
" transform="scale(0.015625)"/>
       <path id="DejaVuSans-6b" d="M 581 4863 
L 1159 4863 
L 1159 1991 
L 2875 3500 
L 3609 3500 
L 1753 1863 
L 3688 0 
L 2938 0 
L 1159 1709 
L 1159 0 
L 581 0 
L 581 4863 
z
" transform="scale(0.015625)"/>
       <path id="DejaVuSans-29" d="M 513 4856 
L 1013 4856 
Q 1481 4119 1714 3412 
Q 1947 2706 1947 2009 
Q 1947 1309 1714 600 
Q 1481 -109 1013 -844 
L 513 -844 
Q 928 -128 1133 580 
Q 1338 1288 1338 2009 
Q 1338 2731 1133 3434 
Q 928 4138 513 4856 
z
" transform="scale(0.015625)"/>
      </defs>
      <use xlink:href="#DejaVuSans-74"/>
      <use xlink:href="#DejaVuSans-69" transform="translate(39.208984 0)"/>
      <use xlink:href="#DejaVuSans-6d" transform="translate(66.992188 0)"/>
      <use xlink:href="#DejaVuSans-65" transform="translate(164.404297 0)"/>
      <use xlink:href="#DejaVuSans-20" transform="translate(225.927734 0)"/>
      <use xlink:href="#DejaVuSans-28" transform="translate(257.714844 0)"/>
      <use xlink:href="#DejaVuSans-73" transform="translate(296.728516 0)"/>
      <use xlink:href="#DejaVuSans-2c" transform="translate(348.828125 0)"/>
      <use xlink:href="#DejaVuSans-20" transform="translate(380.615234 0)"/>
      <use xlink:href="#DejaVuSans-76" transform="translate(412.402344 0)"/>
      <use xlink:href="#DejaVuSans-69" transform="translate(471.582031 0)"/>
      <use xlink:href="#DejaVuSans-64" transform="translate(499.365234 0)"/>
      <use xlink:href="#DejaVuSans-65" transform="translate(562.841797 0)"/>
      <use xlink:href="#DejaVuSans-6f" transform="translate(624.365234 0)"/>
      <use xlink:href="#DejaVuSans-20" transform="translate(685.546875 0)"/>
      <use xlink:href="#DejaVuSans-63" transform="translate(717.333984 0)"/>
      <use xlink:href="#DejaVuSans-6c" transform="translate(772.314453 0)"/>
      <use xlink:href="#DejaVuSans-6f" transform="translate(800.097656 0)"/>
      <use xlink:href="#DejaVuSans-63" transform="translate(861.279297 0)"/>
      <use xlink:href="#DejaVuSans-6b" transform="translate(916.259766 0)"/>
      <use xlink:href="#DejaVuSans-29" transform="translate(974.169922 0)"/>
     </g>
    </g>
   </g>
   <g id="matplotlib.axis_2">
    <g id="ytick_1">
     <g id="line2d_19">
      <path d="M 36.403365 257.755542 
L 788.99976 257.755542 
" clip-path="url(#p9e48d40582)" style="fill: none; stroke: #ededed; stroke-width: 0.6; stroke-linecap: square"/>
     </g>
     <g id="line2d_20">
      <defs>
       <path id="m07dd548e08" d="M 0 0 
L -3.5 0 
" style="stroke: #000000; stroke-width: 0.8"/>
      </defs>
      <g>
       <use xlink:href="#m07dd548e08" x="36.403365" y="257.755542" style="stroke: #000000; stroke-width: 0.8"/>
      </g>
     </g>
     <g id="text_11">
      <!-- 0 -->
      <g transform="translate(23.040865 261.554761) scale(0.1 -0.1)">
       <use xlink:href="#DejaVuSans-30"/>
      </g>
     </g>
    </g>
    <g id="ytick_2">
     <g id="line2d_21">
      <path d="M 36.403365 221.139649 
L 788.99976 221.139649 
" clip-path="url(#p9e48d40582)" style="fill: none; stroke: #ededed; stroke-width: 0.6; stroke-linecap: square"/>
     </g>
     <g id="line2d_22">
      <g>
       <use xlink:href="#m07dd548e08" x="36.403365" y="221.139649" style="stroke: #000000; stroke-width: 0.8"/>
      </g>
     </g>
     <g id="text_12">
      <!-- 10 -->
      <g transform="translate(16.678365 224.938867) scale(0.1 -0.1)">
       <use xlink:href="#DejaVuSans-31"/>
       <use xlink:href="#DejaVuSans-30" transform="translate(63.623047 0)"/>
      </g>
     </g>
    </g>
    <g id="ytick_3">
     <g id="line2d_23">
      <path d="M 36.403365 184.523755 
L 788.99976 184.523755 
" clip-path="url(#p9e48d40582)" style="fill: none; stroke: #ededed; stroke-width: 0.6; stroke-linecap: square"/>
     </g>
     <g id="line2d_24">
      <g>
       <use xlink:href="#m07dd548e08" x="36.403365" y="184.523755" style="stroke: #000000; stroke-width: 0.8"/>
      </g>
     </g>
     <g id="text_13">
      <!-- 20 -->
      <g transform="translate(16.678365 188.322974) scale(0.1 -0.1)">
       <use xlink:href="#DejaVuSans-32"/>
       <use xlink:href="#DejaVuSans-30" transform="translate(63.623047 0)"/>
      </g>
     </g>
    </g>
    <g id="ytick_4">
     <g id="line2d_25">
      <path d="M 36.403365 147.907861 
L 788.99976 147.907861 
" clip-path="url(#p9e48d40582)" style="fill: none; stroke: #ededed; stroke-width: 0.6; stroke-linecap: square"/>
     </g>
     <g id="line2d_26">
      <g>
       <use xlink:href="#m07dd548e08" x="36.403365" y="147.907861" style="stroke: #000000; stroke-width: 0.8"/>
      </g>
     </g>
     <g id="text_14">
      <!-- 30 -->
      <g transform="translate(16.678365 151.70708) scale(0.1 -0.1)">
       <defs>
        <path id="DejaVuSans-33" d="M 2597 2516 
Q 3050 2419 3304 2112 
Q 3559 1806 3559 1356 
Q 3559 666 3084 287 
Q 2609 -91 1734 -91 
Q 1441 -91 1130 -33 
Q 819 25 488 141 
L 488 750 
Q 750 597 1062 519 
Q 1375 441 1716 441 
Q 2309 441 2620 675 
Q 2931 909 2931 1356 
Q 2931 1769 2642 2001 
Q 2353 2234 1838 2234 
L 1294 2234 
L 1294 2753 
L 1863 2753 
Q 2328 2753 2575 2939 
Q 2822 3125 2822 3475 
Q 2822 3834 2567 4026 
Q 2313 4219 1838 4219 
Q 1578 4219 1281 4162 
Q 984 4106 628 3988 
L 628 4550 
Q 988 4650 1302 4700 
Q 1616 4750 1894 4750 
Q 2613 4750 3031 4423 
Q 3450 4097 3450 3541 
Q 3450 3153 3228 2886 
Q 3006 2619 2597 2516 
z
" transform="scale(0.015625)"/>
       </defs>
       <use xlink:href="#DejaVuSans-33"/>
       <use xlink:href="#DejaVuSans-30" transform="translate(63.623047 0)"/>
      </g>
     </g>
    </g>
    <g id="ytick_5">
     <g id="line2d_27">
      <path d="M 36.403365 111.291967 
L 788.99976 111.291967 
" clip-path="url(#p9e48d40582)" style="fill: none; stroke: #ededed; stroke-width: 0.6; stroke-linecap: square"/>
     </g>
     <g id="line2d_28">
      <g>
       <use xlink:href="#m07dd548e08" x="36.403365" y="111.291967" style="stroke: #000000; stroke-width: 0.8"/>
      </g>
     </g>
     <g id="text_15">
      <!-- 40 -->
      <g transform="translate(16.678365 115.091186) scale(0.1 -0.1)">
       <defs>
        <path id="DejaVuSans-34" d="M 2419 4116 
L 825 1625 
L 2419 1625 
L 2419 4116 
z
M 2253 4666 
L 3047 4666 
L 3047 1625 
L 3713 1625 
L 3713 1100 
L 3047 1100 
L 3047 0 
L 2419 0 
L 2419 1100 
L 313 1100 
L 313 1709 
L 2253 4666 
z
" transform="scale(0.015625)"/>
       </defs>
       <use xlink:href="#DejaVuSans-34"/>
       <use xlink:href="#DejaVuSans-30" transform="translate(63.623047 0)"/>
      </g>
     </g>
    </g>
    <g id="ytick_6">
     <g id="line2d_29">
      <path d="M 36.403365 74.676074 
L 788.99976 74.676074 
" clip-path="url(#p9e48d40582)" style="fill: none; stroke: #ededed; stroke-width: 0.6; stroke-linecap: square"/>
     </g>
     <g id="line2d_30">
      <g>
       <use xlink:href="#m07dd548e08" x="36.403365" y="74.676074" style="stroke: #000000; stroke-width: 0.8"/>
      </g>
     </g>
     <g id="text_16">
      <!-- 50 -->
      <g transform="translate(16.678365 78.475292) scale(0.1 -0.1)">
       <use xlink:href="#DejaVuSans-35"/>
       <use xlink:href="#DejaVuSans-30" transform="translate(63.623047 0)"/>
      </g>
     </g>
    </g>
    <g id="ytick_7">
     <g id="line2d_31">
      <path d="M 36.403365 38.06018 
L 788.99976 38.06018 
" clip-path="url(#p9e48d40582)" style="fill: none; stroke: #ededed; stroke-width: 0.6; stroke-linecap: square"/>
     </g>
     <g id="line2d_32">
      <g>
       <use xlink:href="#m07dd548e08" x="36.403365" y="38.06018" style="stroke: #000000; stroke-width: 0.8"/>
      </g>
     </g>
     <g id="text_17">
      <!-- 60 -->
      <g transform="translate(16.678365 41.859399) scale(0.1 -0.1)">
       <defs>
        <path id="DejaVuSans-36" d="M 2113 2584 
Q 1688 2584 1439 2293 
Q 1191 2003 1191 1497 
Q 1191 994 1439 701 
Q 1688 409 2113 409 
Q 2538 409 2786 701 
Q 3034 994 3034 1497 
Q 3034 2003 2786 2293 
Q 2538 2584 2113 2584 
z
M 3366 4563 
L 3366 3988 
Q 3128 4100 2886 4159 
Q 2644 4219 2406 4219 
Q 1781 4219 1451 3797 
Q 1122 3375 1075 2522 
Q 1259 2794 1537 2939 
Q 1816 3084 2150 3084 
Q 2853 3084 3261 2657 
Q 3669 2231 3669 1497 
Q 3669 778 3244 343 
Q 2819 -91 2113 -91 
Q 1303 -91 875 529 
Q 447 1150 447 2328 
Q 447 3434 972 4092 
Q 1497 4750 2381 4750 
Q 2619 4750 2861 4703 
Q 3103 4656 3366 4563 
z
" transform="scale(0.015625)"/>
       </defs>
       <use xlink:href="#DejaVuSans-36"/>
       <use xlink:href="#DejaVuSans-30" transform="translate(63.623047 0)"/>
      </g>
     </g>
    </g>
    <g id="text_18">
     <!-- theta (deg) -->
     <g transform="translate(10.598677 173.021178) rotate(-90) scale(0.1 -0.1)">
      <defs>
       <path id="DejaVuSans-68" d="M 3513 2113 
L 3513 0 
L 2938 0 
L 2938 2094 
Q 2938 2591 2744 2837 
Q 2550 3084 2163 3084 
Q 1697 3084 1428 2787 
Q 1159 2491 1159 1978 
L 1159 0 
L 581 0 
L 581 4863 
L 1159 4863 
L 1159 2956 
Q 1366 3272 1645 3428 
Q 1925 3584 2291 3584 
Q 2894 3584 3203 3211 
Q 3513 2838 3513 2113 
z
" transform="scale(0.015625)"/>
       <path id="DejaVuSans-61" d="M 2194 1759 
Q 1497 1759 1228 1600 
Q 959 1441 959 1056 
Q 959 750 1161 570 
Q 1363 391 1709 391 
Q 2188 391 2477 730 
Q 2766 1069 2766 1631 
L 2766 1759 
L 2194 1759 
z
M 3341 1997 
L 3341 0 
L 2766 0 
L 2766 531 
Q 2569 213 2275 61 
Q 1981 -91 1556 -91 
Q 1019 -91 701 211 
Q 384 513 384 1019 
Q 384 1609 779 1909 
Q 1175 2209 1959 2209 
L 2766 2209 
L 2766 2266 
Q 2766 2663 2505 2880 
Q 2244 3097 1772 3097 
Q 1472 3097 1187 3025 
Q 903 2953 641 2809 
L 641 3341 
Q 956 3463 1253 3523 
Q 1550 3584 1831 3584 
Q 2591 3584 2966 3190 
Q 3341 2797 3341 1997 
z
" transform="scale(0.015625)"/>
       <path id="DejaVuSans-67" d="M 2906 1791 
Q 2906 2416 2648 2759 
Q 2391 3103 1925 3103 
Q 1463 3103 1205 2759 
Q 947 2416 947 1791 
Q 947 1169 1205 825 
Q 1463 481 1925 481 
Q 2391 481 2648 825 
Q 2906 1169 2906 1791 
z
M 3481 434 
Q 3481 -459 3084 -895 
Q 2688 -1331 1869 -1331 
Q 1566 -1331 1297 -1286 
Q 1028 -1241 775 -1147 
L 775 -588 
Q 1028 -725 1275 -790 
Q 1522 -856 1778 -856 
Q 2344 -856 2625 -561 
Q 2906 -266 2906 331 
L 2906 616 
Q 2728 306 2450 153 
Q 2172 0 1784 0 
Q 1141 0 747 490 
Q 353 981 353 1791 
Q 353 2603 747 3093 
Q 1141 3584 1784 3584 
Q 2172 3584 2450 3431 
Q 2728 3278 2906 2969 
L 2906 3500 
L 3481 3500 
L 3481 434 
z
" transform="scale(0.015625)"/>
      </defs>
      <use xlink:href="#DejaVuSans-74"/>
      <use xlink:href="#DejaVuSans-68" transform="translate(39.208984 0)"/>
      <use xlink:href="#DejaVuSans-65" transform="translate(102.587891 0)"/>
      <use xlink:href="#DejaVuSans-74" transform="translate(164.111328 0)"/>
      <use xlink:href="#DejaVuSans-61" transform="translate(203.320312 0)"/>
      <use xlink:href="#DejaVuSans-20" transform="translate(264.599609 0)"/>
      <use xlink:href="#DejaVuSans-28" transform="translate(296.386719 0)"/>
      <use xlink:href="#DejaVuSans-64" transform="translate(335.400391 0)"/>
      <use xlink:href="#DejaVuSans-65" transform="translate(398.876953 0)"/>
      <use xlink:href="#DejaVuSans-67" transform="translate(460.400391 0)"/>
      <use xlink:href="#DejaVuSans-29" transform="translate(523.876953 0)"/>
     </g>
    </g>
   </g>
   <g id="line2d_33">
    <path d="M 36.403365 257.755542 
L 50.841665 257.755542 
L 52.646453 241.759647 
L 63.475178 233.761699 
L 76.10869 219.680974 
L 86.937416 207.325649 
L 95.961353 197.644131 
L 110.399653 175.013618 
L 117.618803 163.407279 
L 135.666678 151.445709 
L 139.276254 149.018432 
L 150.104979 146.229829 
L 160.933704 134.441598 
L 171.762429 130.380618 
L 182.591154 123.993576 
L 193.419879 111.914598 
L 204.248604 108.276521 
L 215.077329 100.351181 
L 225.906054 89.938201 
L 249.368292 64.251459 
L 258.39223 54.748578 
L 269.220955 45.979037 
L 280.04968 39.654272 
L 290.878405 35.756393 
L 301.70713 33.57251 
L 314.340643 32.437075 
L 323.36458 31.996188 
L 335.998093 32.382589 
L 345.022031 33.083491 
L 359.460331 35.974399 
L 366.679481 37.54021 
L 381.117781 37.509366 
L 388.336931 37.382354 
L 400.970444 35.115606 
L 409.994381 33.810791 
L 422.627894 33.777249 
L 435.261406 33.271097 
L 442.480557 32.833916 
L 455.114069 33.049022 
L 465.942794 33.510053 
L 480.381094 33.666268 
L 485.795457 33.670622 
L 496.624182 34.612024 
L 518.281632 39.888753 
L 529.110357 44.903221 
L 539.939083 52.689 
L 550.767808 62.238125 
L 567.010895 73.771059 
L 572.425258 77.537186 
L 583.253983 83.221169 
L 594.082708 86.930538 
L 604.911433 84.6175 
L 615.740158 89.133816 
L 626.568883 102.542281 
L 637.397608 104.044653 
L 648.226334 91.284329 
L 659.055059 75.171379 
L 669.883784 64.000227 
L 680.712509 58.575672 
L 691.541234 57.864216 
L 702.369959 61.667891 
L 713.198684 71.00929 
L 724.027409 87.144778 
L 734.856134 89.352687 
L 745.68486 99.647124 
L 756.513585 122.25085 
L 767.34231 161.175524 
L 778.171035 184.003528 
L 788.99976 194.53953 
L 788.99976 194.53953 
" clip-path="url(#p9e48d40582)" style="fill: none; stroke: #c0392b; stroke-width: 2; stroke-linecap: square"/>
   </g>
   <g id="line2d_34">
    <path d="M 36.345125 255.669725 
L 41.759487 255.494144 
L 47.17385 255.051238 
L 50.783425 254.476505 
L 54.393 254.788565 
L 58.002575 254.958495 
L 59.807362 254.880167 
L 63.416937 254.412108 
L 65.221725 254.114472 
L 67.026512 253.691455 
L 68.8313 253.091693 
L 70.636087 252.845383 
L 74.245662 253.544888 
L 81.464812 254.18396 
L 86.879175 254.535332 
L 90.48875 254.903911 
L 94.098325 254.995073 
L 99.512688 254.848304 
L 110.341413 254.212691 
L 115.755775 254.016603 
L 121.170138 253.918694 
L 131.998863 253.689493 
L 142.827588 252.588048 
L 146.437163 252.248654 
L 150.046738 251.825654 
L 157.265888 251.50254 
L 160.875463 251.5322 
L 162.680251 251.429601 
L 164.485038 251.187362 
L 168.094613 250.3564 
L 171.704188 249.150276 
L 175.313763 248.355694 
L 178.923338 247.725913 
L 182.532913 247.067217 
L 186.142488 246.352229 
L 189.752064 245.182187 
L 193.361639 243.734097 
L 198.776001 241.164773 
L 200.580789 240.275448 
L 202.385576 239.171448 
L 205.995151 236.659832 
L 207.799939 235.274853 
L 211.409514 231.929359 
L 216.823876 226.829924 
L 220.433451 223.963326 
L 222.238239 222.158226 
L 225.847814 218.038971 
L 227.652601 215.714314 
L 229.457389 212.996763 
L 231.262176 209.708259 
L 234.871751 202.032191 
L 236.676539 197.544026 
L 240.286114 186.692043 
L 242.090902 180.15338 
L 243.895689 172.773627 
L 245.700477 164.051726 
L 247.505264 154.190382 
L 249.310052 143.317883 
L 251.114839 131.5147 
L 252.919627 118.921683 
L 254.724414 105.396359 
L 256.529202 92.722296 
L 258.333989 82.056487 
L 260.138777 74.784721 
L 261.943564 69.821145 
L 263.748352 68.073377 
L 265.553139 69.134252 
L 267.357927 72.12322 
L 269.162714 75.453524 
L 270.967502 76.887884 
L 272.772289 74.635945 
L 274.577077 69.396305 
L 276.381864 62.663409 
L 278.186652 57.238981 
L 279.991439 53.998453 
L 281.796227 53.340057 
L 283.601014 55.429471 
L 285.405802 59.483872 
L 287.21059 64.707159 
L 289.015377 69.145807 
L 290.820165 70.421424 
L 292.624952 68.42616 
L 296.234527 60.439554 
L 298.039315 58.068305 
L 299.844102 57.920145 
L 301.64889 60.116014 
L 303.453677 63.857685 
L 305.258465 68.690903 
L 307.063252 73.183394 
L 308.86804 75.733955 
L 310.672827 75.212228 
L 312.477615 72.327643 
L 317.891977 58.619284 
L 319.696765 54.843789 
L 321.501552 54.492594 
L 323.30634 57.959316 
L 325.111127 63.749995 
L 326.915915 68.21443 
L 328.720702 68.516978 
L 330.52549 64.427495 
L 332.330277 57.463012 
L 334.135065 52.587871 
L 335.939852 51.840923 
L 337.74464 53.691569 
L 339.549428 55.874005 
L 341.354215 57.419735 
L 343.159003 58.63803 
L 344.96379 60.72021 
L 346.768578 64.555245 
L 348.573365 68.969679 
L 350.378153 72.050959 
L 352.18294 71.614389 
L 353.987728 67.886381 
L 355.792515 61.932919 
L 357.597303 56.908812 
L 359.40209 55.87576 
L 361.206878 58.892002 
L 363.011665 63.278592 
L 364.816453 66.419598 
L 366.62124 66.254813 
L 368.426028 62.589916 
L 370.230815 57.805563 
L 372.035603 55.406586 
L 373.84039 55.87442 
L 375.645178 57.59909 
L 377.449965 58.339652 
L 379.254753 57.882428 
L 381.05954 57.003741 
L 382.864328 57.392848 
L 384.669115 60.113466 
L 386.473903 64.306748 
L 388.278691 67.60891 
L 390.083478 67.787109 
L 391.888266 64.980838 
L 393.693053 60.323227 
L 395.497841 57.224878 
L 397.302628 57.971268 
L 399.107416 61.749166 
L 400.912203 65.932547 
L 402.716991 67.760363 
L 404.521778 66.484088 
L 408.131353 58.351373 
L 409.936141 56.80058 
L 411.740928 58.114375 
L 413.545716 60.227184 
L 415.350503 60.942384 
L 417.155291 60.317554 
L 418.960078 58.906149 
L 420.764866 58.589998 
L 422.569653 60.60459 
L 424.374441 63.981565 
L 426.179228 66.316266 
L 427.984016 65.721933 
L 429.788803 62.576636 
L 431.593591 58.296735 
L 433.398378 56.330649 
L 435.203166 58.248916 
L 437.007953 62.739002 
L 438.812741 66.925264 
L 440.617529 68.449509 
L 442.422316 66.897963 
L 444.227104 63.103213 
L 446.031891 59.982493 
L 447.836679 59.478907 
L 449.641466 61.2413 
L 451.446254 63.173483 
L 453.251041 63.200402 
L 455.055829 61.689444 
L 456.860616 59.368066 
L 458.665404 58.395908 
L 460.470191 60.260663 
L 462.274979 63.443967 
L 464.079766 65.621951 
L 465.884554 65.125932 
L 467.689341 62.585596 
L 469.494129 59.020944 
L 471.298916 57.809139 
L 473.103704 59.832884 
L 474.908491 63.700675 
L 476.713279 66.763271 
L 478.518066 67.177951 
L 480.322854 64.81194 
L 482.127641 61.276919 
L 483.932429 59.547605 
L 485.737216 60.61775 
L 487.542004 63.362741 
L 489.346792 65.533301 
L 491.151579 65.319045 
L 492.956367 63.263977 
L 494.761154 59.969937 
L 496.565942 58.14421 
L 498.370729 59.138473 
L 500.175517 61.686748 
L 501.980304 63.242744 
L 503.785092 62.778402 
L 505.589879 60.770761 
L 507.394667 58.58914 
L 509.199454 59.006386 
L 511.004242 62.060695 
L 512.809029 66.173685 
L 514.613817 68.578936 
L 516.418604 67.9763 
L 520.028179 61.477483 
L 521.832967 60.872 
L 523.637754 63.793011 
L 525.442542 68.714234 
L 527.247329 73.216124 
L 529.052117 75.524875 
L 530.856904 75.982415 
L 532.661692 75.468714 
L 534.466479 76.444905 
L 536.271267 80.240367 
L 539.880842 92.298109 
L 541.68563 96.963811 
L 543.490417 100.837649 
L 545.295205 102.256547 
L 547.099992 102.897288 
L 548.90478 105.322919 
L 550.709567 110.720881 
L 552.514355 118.220866 
L 554.319142 123.61577 
L 556.12393 126.486155 
L 557.928717 128.263182 
L 559.733505 127.530081 
L 563.34308 119.075767 
L 565.147867 118.675252 
L 566.952655 123.035401 
L 568.757442 129.846529 
L 570.56223 137.977294 
L 572.367017 149.0085 
L 574.171805 162.531111 
L 575.976592 174.602012 
L 577.78138 185.100597 
L 579.586167 192.820042 
L 581.390955 199.144949 
L 583.195742 204.106638 
L 585.00053 207.470762 
L 592.21968 219.753185 
L 595.829255 224.840188 
L 597.634043 226.837365 
L 599.43883 227.930702 
L 603.048405 229.573656 
L 606.65798 231.774235 
L 610.267555 233.598188 
L 612.072343 234.847875 
L 613.87713 236.375048 
L 617.486705 240.02309 
L 619.291493 241.486571 
L 621.09628 242.612391 
L 622.901068 243.389065 
L 624.705855 244.015207 
L 626.510643 244.504354 
L 628.31543 244.764254 
L 631.925005 244.548847 
L 633.729793 244.589352 
L 635.53458 244.771589 
L 637.339368 245.446611 
L 639.144156 246.354924 
L 642.753731 247.68374 
L 649.972881 250.216593 
L 651.777668 250.369885 
L 653.582456 250.168731 
L 655.387243 249.751423 
L 657.192031 249.773832 
L 664.411181 250.735032 
L 669.825543 250.87311 
L 677.044693 252.295387 
L 678.849481 252.334364 
L 684.263843 251.672627 
L 687.873418 250.829374 
L 689.678206 250.855966 
L 693.287781 251.24106 
L 695.092569 251.221344 
L 696.897356 250.927639 
L 698.702144 250.487908 
L 700.506931 250.381662 
L 704.116506 251.440007 
L 711.335656 252.555623 
L 714.945231 253.126935 
L 718.554806 253.45028 
L 723.969169 253.67552 
L 732.993106 253.735427 
L 736.602681 253.528465 
L 740.212257 253.537646 
L 743.821832 253.37144 
L 745.626619 253.427557 
L 751.040982 253.960897 
L 756.455344 254.262678 
L 761.869707 254.14188 
L 765.479282 254.029359 
L 769.088857 253.965467 
L 770.893644 253.992955 
L 776.308007 253.763689 
L 779.917582 253.714053 
L 783.527157 253.578101 
L 790.746307 253.689199 
L 790.746307 253.689199 
" clip-path="url(#p9e48d40582)" style="fill: none; stroke: #1f6fd6; stroke-width: 1.5; stroke-linecap: square"/>
   </g>
   <g id="patch_3">
    <path d="M 36.403365 269.04351 
L 36.403365 20.70822 
" style="fill: none; stroke: #000000; stroke-width: 0.8; stroke-linejoin: miter; stroke-linecap: square"/>
   </g>
   <g id="patch_4">
    <path d="M 36.403365 269.04351 
L 788.99976 269.04351 
" style="fill: none; stroke: #000000; stroke-width: 0.8; stroke-linejoin: miter; stroke-linecap: square"/>
   </g>
   <g id="legend_1">
    <g id="patch_5">
     <path d="M 667.384447 54.328845 
L 782.69976 54.328845 
Q 784.49976 54.328845 784.49976 52.528845 
L 784.49976 27.00822 
Q 784.49976 25.20822 782.69976 25.20822 
L 667.384447 25.20822 
Q 665.584448 25.20822 665.584448 27.00822 
L 665.584448 52.528845 
Q 665.584448 54.328845 667.384447 54.328845 
z
" style="fill: #ffffff; opacity: 0.8; stroke: #cccccc; stroke-linejoin: miter"/>
    </g>
    <g id="line2d_35">
     <path d="M 669.184448 32.496814 
L 678.184448 32.496814 
L 687.184448 32.496814 
" style="fill: none; stroke: #c0392b; stroke-width: 2; stroke-linecap: square"/>
    </g>
    <g id="text_19">
     <!-- video theta(t) -->
     <g transform="translate(694.384448 35.646814) scale(0.09 -0.09)">
      <use xlink:href="#DejaVuSans-76"/>
      <use xlink:href="#DejaVuSans-69" transform="translate(59.179688 0)"/>
      <use xlink:href="#DejaVuSans-64" transform="translate(86.962891 0)"/>
      <use xlink:href="#DejaVuSans-65" transform="translate(150.439453 0)"/>
      <use xlink:href="#DejaVuSans-6f" transform="translate(211.962891 0)"/>
      <use xlink:href="#DejaVuSans-20" transform="translate(273.144531 0)"/>
      <use xlink:href="#DejaVuSans-74" transform="translate(304.931641 0)"/>
      <use xlink:href="#DejaVuSans-68" transform="translate(344.140625 0)"/>
      <use xlink:href="#DejaVuSans-65" transform="translate(407.519531 0)"/>
      <use xlink:href="#DejaVuSans-74" transform="translate(469.042969 0)"/>
      <use xlink:href="#DejaVuSans-61" transform="translate(508.251953 0)"/>
      <use xlink:href="#DejaVuSans-28" transform="translate(569.53125 0)"/>
      <use xlink:href="#DejaVuSans-74" transform="translate(608.544922 0)"/>
      <use xlink:href="#DejaVuSans-29" transform="translate(647.753906 0)"/>
     </g>
    </g>
    <g id="line2d_36">
     <path d="M 669.184448 45.707126 
L 678.184448 45.707126 
L 687.184448 45.707126 
" style="fill: none; stroke: #1f6fd6; stroke-width: 1.5; stroke-linecap: square"/>
    </g>
    <g id="text_20">
     <!-- phone arctan(aT/g) -->
     <g transform="translate(694.384448 48.857126) scale(0.09 -0.09)">
      <defs>
       <path id="DejaVuSans-70" d="M 1159 525 
L 1159 -1331 
L 581 -1331 
L 581 3500 
L 1159 3500 
L 1159 2969 
Q 1341 3281 1617 3432 
Q 1894 3584 2278 3584 
Q 2916 3584 3314 3078 
Q 3713 2572 3713 1747 
Q 3713 922 3314 415 
Q 2916 -91 2278 -91 
Q 1894 -91 1617 61 
Q 1341 213 1159 525 
z
M 3116 1747 
Q 3116 2381 2855 2742 
Q 2594 3103 2138 3103 
Q 1681 3103 1420 2742 
Q 1159 2381 1159 1747 
Q 1159 1113 1420 752 
Q 1681 391 2138 391 
Q 2594 391 2855 752 
Q 3116 1113 3116 1747 
z
" transform="scale(0.015625)"/>
       <path id="DejaVuSans-6e" d="M 3513 2113 
L 3513 0 
L 2938 0 
L 2938 2094 
Q 2938 2591 2744 2837 
Q 2550 3084 2163 3084 
Q 1697 3084 1428 2787 
Q 1159 2491 1159 1978 
L 1159 0 
L 581 0 
L 581 3500 
L 1159 3500 
L 1159 2956 
Q 1366 3272 1645 3428 
Q 1925 3584 2291 3584 
Q 2894 3584 3203 3211 
Q 3513 2838 3513 2113 
z
" transform="scale(0.015625)"/>
       <path id="DejaVuSans-72" d="M 2631 2963 
Q 2534 3019 2420 3045 
Q 2306 3072 2169 3072 
Q 1681 3072 1420 2755 
Q 1159 2438 1159 1844 
L 1159 0 
L 581 0 
L 581 3500 
L 1159 3500 
L 1159 2956 
Q 1341 3275 1631 3429 
Q 1922 3584 2338 3584 
Q 2397 3584 2469 3576 
Q 2541 3569 2628 3553 
L 2631 2963 
z
" transform="scale(0.015625)"/>
       <path id="DejaVuSans-54" d="M -19 4666 
L 3928 4666 
L 3928 4134 
L 2272 4134 
L 2272 0 
L 1638 0 
L 1638 4134 
L -19 4134 
L -19 4666 
z
" transform="scale(0.015625)"/>
       <path id="DejaVuSans-2f" d="M 1625 4666 
L 2156 4666 
L 531 -594 
L 0 -594 
L 1625 4666 
z
" transform="scale(0.015625)"/>
      </defs>
      <use xlink:href="#DejaVuSans-70"/>
      <use xlink:href="#DejaVuSans-68" transform="translate(63.476562 0)"/>
      <use xlink:href="#DejaVuSans-6f" transform="translate(126.855469 0)"/>
      <use xlink:href="#DejaVuSans-6e" transform="translate(188.037109 0)"/>
      <use xlink:href="#DejaVuSans-65" transform="translate(251.416016 0)"/>
      <use xlink:href="#DejaVuSans-20" transform="translate(312.939453 0)"/>
      <use xlink:href="#DejaVuSans-61" transform="translate(344.726562 0)"/>
      <use xlink:href="#DejaVuSans-72" transform="translate(406.005859 0)"/>
      <use xlink:href="#DejaVuSans-63" transform="translate(444.869141 0)"/>
      <use xlink:href="#DejaVuSans-74" transform="translate(499.849609 0)"/>
      <use xlink:href="#DejaVuSans-61" transform="translate(539.058594 0)"/>
      <use xlink:href="#DejaVuSans-6e" transform="translate(600.337891 0)"/>
      <use xlink:href="#DejaVuSans-28" transform="translate(663.716797 0)"/>
      <use xlink:href="#DejaVuSans-61" transform="translate(702.730469 0)"/>
      <use xlink:href="#DejaVuSans-54" transform="translate(764.009766 0)"/>
      <use xlink:href="#DejaVuSans-2f" transform="translate(825.09375 0)"/>
      <use xlink:href="#DejaVuSans-67" transform="translate(858.785156 0)"/>
      <use xlink:href="#DejaVuSans-29" transform="translate(922.261719 0)"/>
     </g>
    </g>
   </g>
  </g>
  <g id="text_21">
   <!-- Video (ryan) vs accelerometer: trial 2 -->
   <g transform="translate(269.09625 12.118365) scale(0.12 -0.12)">
    <defs>
     <path id="DejaVuSans-Bold-56" d="M 31 4666 
L 1241 4666 
L 2478 1222 
L 3713 4666 
L 4922 4666 
L 3194 0 
L 1759 0 
L 31 4666 
z
" transform="scale(0.015625)"/>
     <path id="DejaVuSans-Bold-69" d="M 538 3500 
L 1656 3500 
L 1656 0 
L 538 0 
L 538 3500 
z
M 538 4863 
L 1656 4863 
L 1656 3950 
L 538 3950 
L 538 4863 
z
" transform="scale(0.015625)"/>
     <path id="DejaVuSans-Bold-64" d="M 2919 2988 
L 2919 4863 
L 4044 4863 
L 4044 0 
L 2919 0 
L 2919 506 
Q 2688 197 2409 53 
Q 2131 -91 1766 -91 
Q 1119 -91 703 423 
Q 288 938 288 1747 
Q 288 2556 703 3070 
Q 1119 3584 1766 3584 
Q 2128 3584 2408 3439 
Q 2688 3294 2919 2988 
z
M 2181 722 
Q 2541 722 2730 984 
Q 2919 1247 2919 1747 
Q 2919 2247 2730 2509 
Q 2541 2772 2181 2772 
Q 1825 2772 1636 2509 
Q 1447 2247 1447 1747 
Q 1447 1247 1636 984 
Q 1825 722 2181 722 
z
" transform="scale(0.015625)"/>
     <path id="DejaVuSans-Bold-65" d="M 4031 1759 
L 4031 1441 
L 1416 1441 
Q 1456 1047 1700 850 
Q 1944 653 2381 653 
Q 2734 653 3104 758 
Q 3475 863 3866 1075 
L 3866 213 
Q 3469 63 3072 -14 
Q 2675 -91 2278 -91 
Q 1328 -91 801 392 
Q 275 875 275 1747 
Q 275 2603 792 3093 
Q 1309 3584 2216 3584 
Q 3041 3584 3536 3087 
Q 4031 2591 4031 1759 
z
M 2881 2131 
Q 2881 2450 2695 2645 
Q 2509 2841 2209 2841 
Q 1884 2841 1681 2658 
Q 1478 2475 1428 2131 
L 2881 2131 
z
" transform="scale(0.015625)"/>
     <path id="DejaVuSans-Bold-6f" d="M 2203 2784 
Q 1831 2784 1636 2517 
Q 1441 2250 1441 1747 
Q 1441 1244 1636 976 
Q 1831 709 2203 709 
Q 2569 709 2762 976 
Q 2956 1244 2956 1747 
Q 2956 2250 2762 2517 
Q 2569 2784 2203 2784 
z
M 2203 3584 
Q 3106 3584 3614 3096 
Q 4122 2609 4122 1747 
Q 4122 884 3614 396 
Q 3106 -91 2203 -91 
Q 1297 -91 786 396 
Q 275 884 275 1747 
Q 275 2609 786 3096 
Q 1297 3584 2203 3584 
z
" transform="scale(0.015625)"/>
     <path id="DejaVuSans-Bold-20" transform="scale(0.015625)"/>
     <path id="DejaVuSans-Bold-28" d="M 2413 -844 
L 1484 -844 
Q 1006 -72 778 623 
Q 550 1319 550 2003 
Q 550 2688 779 3389 
Q 1009 4091 1484 4856 
L 2413 4856 
Q 2013 4116 1813 3408 
Q 1613 2700 1613 2009 
Q 1613 1319 1811 609 
Q 2009 -100 2413 -844 
z
" transform="scale(0.015625)"/>
     <path id="DejaVuSans-Bold-72" d="M 3138 2547 
Q 2991 2616 2845 2648 
Q 2700 2681 2553 2681 
Q 2122 2681 1889 2404 
Q 1656 2128 1656 1613 
L 1656 0 
L 538 0 
L 538 3500 
L 1656 3500 
L 1656 2925 
Q 1872 3269 2151 3426 
Q 2431 3584 2822 3584 
Q 2878 3584 2943 3579 
Q 3009 3575 3134 3559 
L 3138 2547 
z
" transform="scale(0.015625)"/>
     <path id="DejaVuSans-Bold-79" d="M 78 3500 
L 1197 3500 
L 2138 1125 
L 2938 3500 
L 4056 3500 
L 2584 -331 
Q 2363 -916 2067 -1148 
Q 1772 -1381 1288 -1381 
L 641 -1381 
L 641 -647 
L 991 -647 
Q 1275 -647 1404 -556 
Q 1534 -466 1606 -231 
L 1638 -134 
L 78 3500 
z
" transform="scale(0.015625)"/>
     <path id="DejaVuSans-Bold-61" d="M 2106 1575 
Q 1756 1575 1579 1456 
Q 1403 1338 1403 1106 
Q 1403 894 1545 773 
Q 1688 653 1941 653 
Q 2256 653 2472 879 
Q 2688 1106 2688 1447 
L 2688 1575 
L 2106 1575 
z
M 3816 1997 
L 3816 0 
L 2688 0 
L 2688 519 
Q 2463 200 2181 54 
Q 1900 -91 1497 -91 
Q 953 -91 614 226 
Q 275 544 275 1050 
Q 275 1666 698 1953 
Q 1122 2241 2028 2241 
L 2688 2241 
L 2688 2328 
Q 2688 2594 2478 2717 
Q 2269 2841 1825 2841 
Q 1466 2841 1156 2769 
Q 847 2697 581 2553 
L 581 3406 
Q 941 3494 1303 3539 
Q 1666 3584 2028 3584 
Q 2975 3584 3395 3211 
Q 3816 2838 3816 1997 
z
" transform="scale(0.015625)"/>
     <path id="DejaVuSans-Bold-6e" d="M 4056 2131 
L 4056 0 
L 2931 0 
L 2931 347 
L 2931 1631 
Q 2931 2084 2911 2256 
Q 2891 2428 2841 2509 
Q 2775 2619 2662 2680 
Q 2550 2741 2406 2741 
Q 2056 2741 1856 2470 
Q 1656 2200 1656 1722 
L 1656 0 
L 538 0 
L 538 3500 
L 1656 3500 
L 1656 2988 
Q 1909 3294 2193 3439 
Q 2478 3584 2822 3584 
Q 3428 3584 3742 3212 
Q 4056 2841 4056 2131 
z
" transform="scale(0.015625)"/>
     <path id="DejaVuSans-Bold-29" d="M 513 -844 
Q 913 -100 1113 609 
Q 1313 1319 1313 2009 
Q 1313 2700 1113 3408 
Q 913 4116 513 4856 
L 1441 4856 
Q 1916 4091 2145 3389 
Q 2375 2688 2375 2003 
Q 2375 1319 2147 623 
Q 1919 -72 1441 -844 
L 513 -844 
z
" transform="scale(0.015625)"/>
     <path id="DejaVuSans-Bold-76" d="M 97 3500 
L 1216 3500 
L 2088 1081 
L 2956 3500 
L 4078 3500 
L 2700 0 
L 1472 0 
L 97 3500 
z
" transform="scale(0.015625)"/>
     <path id="DejaVuSans-Bold-73" d="M 3272 3391 
L 3272 2541 
Q 2913 2691 2578 2766 
Q 2244 2841 1947 2841 
Q 1628 2841 1473 2761 
Q 1319 2681 1319 2516 
Q 1319 2381 1436 2309 
Q 1553 2238 1856 2203 
L 2053 2175 
Q 2913 2066 3209 1816 
Q 3506 1566 3506 1031 
Q 3506 472 3093 190 
Q 2681 -91 1863 -91 
Q 1516 -91 1145 -36 
Q 775 19 384 128 
L 384 978 
Q 719 816 1070 734 
Q 1422 653 1784 653 
Q 2113 653 2278 743 
Q 2444 834 2444 1013 
Q 2444 1163 2330 1236 
Q 2216 1309 1875 1350 
L 1678 1375 
Q 931 1469 631 1722 
Q 331 1975 331 2491 
Q 331 3047 712 3315 
Q 1094 3584 1881 3584 
Q 2191 3584 2531 3537 
Q 2872 3491 3272 3391 
z
" transform="scale(0.015625)"/>
     <path id="DejaVuSans-Bold-63" d="M 3366 3391 
L 3366 2478 
Q 3138 2634 2908 2709 
Q 2678 2784 2431 2784 
Q 1963 2784 1702 2511 
Q 1441 2238 1441 1747 
Q 1441 1256 1702 982 
Q 1963 709 2431 709 
Q 2694 709 2930 787 
Q 3166 866 3366 1019 
L 3366 103 
Q 3103 6 2833 -42 
Q 2563 -91 2291 -91 
Q 1344 -91 809 395 
Q 275 881 275 1747 
Q 275 2613 809 3098 
Q 1344 3584 2291 3584 
Q 2566 3584 2833 3536 
Q 3100 3488 3366 3391 
z
" transform="scale(0.015625)"/>
     <path id="DejaVuSans-Bold-6c" d="M 538 4863 
L 1656 4863 
L 1656 0 
L 538 0 
L 538 4863 
z
" transform="scale(0.015625)"/>
     <path id="DejaVuSans-Bold-6d" d="M 3781 2919 
Q 3994 3244 4286 3414 
Q 4578 3584 4928 3584 
Q 5531 3584 5847 3212 
Q 6163 2841 6163 2131 
L 6163 0 
L 5038 0 
L 5038 1825 
Q 5041 1866 5042 1909 
Q 5044 1953 5044 2034 
Q 5044 2406 4934 2573 
Q 4825 2741 4581 2741 
Q 4263 2741 4089 2478 
Q 3916 2216 3909 1719 
L 3909 0 
L 2784 0 
L 2784 1825 
Q 2784 2406 2684 2573 
Q 2584 2741 2328 2741 
Q 2006 2741 1831 2477 
Q 1656 2213 1656 1722 
L 1656 0 
L 531 0 
L 531 3500 
L 1656 3500 
L 1656 2988 
Q 1863 3284 2130 3434 
Q 2397 3584 2719 3584 
Q 3081 3584 3359 3409 
Q 3638 3234 3781 2919 
z
" transform="scale(0.015625)"/>
     <path id="DejaVuSans-Bold-74" d="M 1759 4494 
L 1759 3500 
L 2913 3500 
L 2913 2700 
L 1759 2700 
L 1759 1216 
Q 1759 972 1856 886 
Q 1953 800 2241 800 
L 2816 800 
L 2816 0 
L 1856 0 
Q 1194 0 917 276 
Q 641 553 641 1216 
L 641 2700 
L 84 2700 
L 84 3500 
L 641 3500 
L 641 4494 
L 1759 4494 
z
" transform="scale(0.015625)"/>
     <path id="DejaVuSans-Bold-3a" d="M 716 3500 
L 1844 3500 
L 1844 2291 
L 716 2291 
L 716 3500 
z
M 716 1209 
L 1844 1209 
L 1844 0 
L 716 0 
L 716 1209 
z
" transform="scale(0.015625)"/>
     <path id="DejaVuSans-Bold-32" d="M 1844 884 
L 3897 884 
L 3897 0 
L 506 0 
L 506 884 
L 2209 2388 
Q 2438 2594 2547 2791 
Q 2656 2988 2656 3200 
Q 2656 3528 2436 3728 
Q 2216 3928 1850 3928 
Q 1569 3928 1234 3808 
Q 900 3688 519 3450 
L 519 4475 
Q 925 4609 1322 4679 
Q 1719 4750 2100 4750 
Q 2938 4750 3402 4381 
Q 3866 4013 3866 3353 
Q 3866 2972 3669 2642 
Q 3472 2313 2841 1759 
L 1844 884 
z
" transform="scale(0.015625)"/>
    </defs>
    <use xlink:href="#DejaVuSans-Bold-56"/>
    <use xlink:href="#DejaVuSans-Bold-69" transform="translate(75.642578 0)"/>
    <use xlink:href="#DejaVuSans-Bold-64" transform="translate(109.919922 0)"/>
    <use xlink:href="#DejaVuSans-Bold-65" transform="translate(181.501953 0)"/>
    <use xlink:href="#DejaVuSans-Bold-6f" transform="translate(249.324219 0)"/>
    <use xlink:href="#DejaVuSans-Bold-20" transform="translate(318.025391 0)"/>
    <use xlink:href="#DejaVuSans-Bold-28" transform="translate(352.839844 0)"/>
    <use xlink:href="#DejaVuSans-Bold-72" transform="translate(398.542969 0)"/>
    <use xlink:href="#DejaVuSans-Bold-79" transform="translate(447.859375 0)"/>
    <use xlink:href="#DejaVuSans-Bold-61" transform="translate(513.044922 0)"/>
    <use xlink:href="#DejaVuSans-Bold-6e" transform="translate(580.525391 0)"/>
    <use xlink:href="#DejaVuSans-Bold-29" transform="translate(651.716797 0)"/>
    <use xlink:href="#DejaVuSans-Bold-20" transform="translate(697.419922 0)"/>
    <use xlink:href="#DejaVuSans-Bold-76" transform="translate(732.234375 0)"/>
    <use xlink:href="#DejaVuSans-Bold-73" transform="translate(797.419922 0)"/>
    <use xlink:href="#DejaVuSans-Bold-20" transform="translate(856.941406 0)"/>
    <use xlink:href="#DejaVuSans-Bold-61" transform="translate(891.755859 0)"/>
    <use xlink:href="#DejaVuSans-Bold-63" transform="translate(959.236328 0)"/>
    <use xlink:href="#DejaVuSans-Bold-63" transform="translate(1018.513672 0)"/>
    <use xlink:href="#DejaVuSans-Bold-65" transform="translate(1077.791016 0)"/>
    <use xlink:href="#DejaVuSans-Bold-6c" transform="translate(1145.613281 0)"/>
    <use xlink:href="#DejaVuSans-Bold-65" transform="translate(1179.890625 0)"/>
    <use xlink:href="#DejaVuSans-Bold-72" transform="translate(1247.712891 0)"/>
    <use xlink:href="#DejaVuSans-Bold-6f" transform="translate(1297.029297 0)"/>
    <use xlink:href="#DejaVuSans-Bold-6d" transform="translate(1365.730469 0)"/>
    <use xlink:href="#DejaVuSans-Bold-65" transform="translate(1469.929688 0)"/>
    <use xlink:href="#DejaVuSans-Bold-74" transform="translate(1537.751953 0)"/>
    <use xlink:href="#DejaVuSans-Bold-65" transform="translate(1585.554688 0)"/>
    <use xlink:href="#DejaVuSans-Bold-72" transform="translate(1653.376953 0)"/>
    <use xlink:href="#DejaVuSans-Bold-3a" transform="translate(1702.693359 0)"/>
    <use xlink:href="#DejaVuSans-Bold-20" transform="translate(1742.683594 0)"/>
    <use xlink:href="#DejaVuSans-Bold-74" transform="translate(1777.498047 0)"/>
    <use xlink:href="#DejaVuSans-Bold-72" transform="translate(1825.300781 0)"/>
    <use xlink:href="#DejaVuSans-Bold-69" transform="translate(1874.617188 0)"/>
    <use xlink:href="#DejaVuSans-Bold-61" transform="translate(1908.894531 0)"/>
    <use xlink:href="#DejaVuSans-Bold-6c" transform="translate(1976.375 0)"/>
    <use xlink:href="#DejaVuSans-Bold-20" transform="translate(2010.652344 0)"/>
    <use xlink:href="#DejaVuSans-Bold-32" transform="translate(2045.466797 0)"/>
   </g>
  </g>
 </g>
 <defs>
  <clipPath id="p9e48d40582">
   <rect x="36.403365" y="20.70822" width="752.596395" height="248.33529"/>
  </clipPath>
 </defs>
</svg>
