<?xml version="1.0" encoding="utf-8" standalone="no"?>
<!DOCTYPE svg PUBLIC "-//W3C//DTD SVG 1.1//EN"
  "http://www.w3.org/Graphics/SVG/1.1/DTD/svg11.dtd">
<svg xmlns:xlink="http://www.w3.org/1999/xlink" width="792pt" height="302.4pt" viewBox="0 0 792 302.4" xmlns="http://www.w3.org/2000/svg" version="1.1">
 <metadata>
  <rdf:RDF xmlns:dc="http://purl.org/dc/elements/1.1/" xmlns:cc="http://creativecommons.org/ns#" xmlns:rdf="http://www.w3.org/1999/02/22-rdf-syntax-ns#">
   <cc:Work>
    <dc:type rdf:resource="http://purl.org/dc/dcmitype/StillImage"/>
    <dc:date>2026-07-15T21:27:28.834214</dc:date>
    <dc:format>image/svg+xml</dc:format>
    <dc:creator>
     <cc:Agent>
      <dc:title>Matplotlib v3.10.3, https://matplotlib.org/</dc:title>
     </cc:Agent>
    </dc:creator>
   </cc:Work>
  </rdf:RDF>
 </metadata>
 <defs>
  <style type="text/css">*{stroke-linejoin: round; stroke-linecap: butt}</style>
 </defs>
 <g id="figure_1">
  <g id="patch_1">
   <path d="M 0 302.4 
L 792 302.4 
L 792 0 
L 0 0 
z
" style="fill: #ffffff"/>
  </g>
  <g id="axes_1">
   <g id="patch_2">
    <path d="M 36.403365 269.04351 
L 788.99976 269.04351 
L 788.99976 20.70822 
L 36.403365 20.70822 
z
" style="fill: #ffffff"/>
   </g>
   <g id="matplotlib.axis_1">
    <g id="xtick_1">
     <g id="line2d_1">
      <path d="M 36.403365 269.04351 
L 36.403365 20.70822 
" clip-path="url(#p524f494a1a)" style="fill: none; stroke: #ededed; stroke-width: 0.6; stroke-linecap: square"/>
     </g>
     <g id="line2d_2">
      <defs>
       <path id="m51fee9fc72" d="M 0 0 
L 0 3.5 
" style="stroke: #000000; stroke-width: 0.8"/>
      </defs>
      <g>
       <use xlink:href="#m51fee9fc72" x="36.403365" y="269.04351" style="stroke: #000000; stroke-width: 0.8"/>
      </g>
     </g>
     <g id="text_1">
      <!-- 0 -->
      <g transform="translate(33.222115 283.641948) scale(0.1 -0.1)">
       <defs>
        <path id="DejaVuSans-30" d="M 2034 4250 
Q 1547 4250 1301 3770 
Q 1056 3291 1056 2328 
Q 1056 1369 1301 889 
Q 1547 409 2034 409 
Q 2525 409 2770 889 
Q 3016 1369 3016 2328 
Q 3016 3291 2770 3770 
Q 2525 4250 2034 4250 
z
M 2034 4750 
Q 2819 4750 3233 4129 
Q 3647 3509 3647 2328 
Q 3647 1150 3233 529 
Q 2819 -91 2034 -91 
Q 1250 -91 836 529 
Q 422 1150 422 2328 
Q 422 3509 836 4129 
Q 1250 4750 2034 4750 
z
" transform="scale(0.015625)"/>
       </defs>
       <use xlink:href="#DejaVuSans-30"/>
      </g>
     </g>
    </g>
    <g id="xtick_2">
     <g id="line2d_3">
      <path d="M 181.412304 269.04351 
L 181.412304 20.70822 
" clip-path="url(#p524f494a1a)" style="fill: none; stroke: #ededed; stroke-width: 0.6; stroke-linecap: square"/>
     </g>
     <g id="line2d_4">
      <g>
       <use xlink:href="#m51fee9fc72" x="181.412304" y="269.04351" style="stroke: #000000; stroke-width: 0.8"/>
      </g>
     </g>
     <g id="text_2">
      <!-- 50 -->
      <g transform="translate(175.049804 283.641948) scale(0.1 -0.1)">
       <defs>
        <path id="DejaVuSans-35" d="M 691 4666 
L 3169 4666 
L 3169 4134 
L 1269 4134 
L 1269 2991 
Q 1406 3038 1543 3061 
Q 1681 3084 1819 3084 
Q 2600 3084 3056 2656 
Q 3513 2228 3513 1497 
Q 3513 744 3044 326 
Q 2575 -91 1722 -91 
Q 1428 -91 1123 -41 
Q 819 9 494 109 
L 494 744 
Q 775 591 1075 516 
Q 1375 441 1709 441 
Q 2250 441 2565 725 
Q 2881 1009 2881 1497 
Q 2881 1984 2565 2268 
Q 2250 2553 1709 2553 
Q 1456 2553 1204 2497 
Q 953 2441 691 2322 
L 691 4666 
z
" transform="scale(0.015625)"/>
       </defs>
       <use xlink:href="#DejaVuSans-35"/>
       <use xlink:href="#DejaVuSans-30" transform="translate(63.623047 0)"/>
      </g>
     </g>
    </g>
    <g id="xtick_3">
     <g id="line2d_5">
      <path d="M 326.421244 269.04351 
L 326.421244 20.70822 
" clip-path="url(#p524f494a1a)" style="fill: none; stroke: #ededed; stroke-width: 0.6; stroke-linecap: square"/>
     </g>
     <g id="line2d_6">
      <g>
       <use xlink:href="#m51fee9fc72" x="326.421244" y="269.04351" style="stroke: #000000; stroke-width: 0.8"/>
      </g>
     </g>
     <g id="text_3">
      <!-- 100 -->
      <g transform="translate(316.877494 283.641948) scale(0.1 -0.1)">
       <defs>
        <path id="DejaVuSans-31" d="M 794 531 
L 1825 531 
L 1825 4091 
L 703 3866 
L 703 4441 
L 1819 4666 
L 2450 4666 
L 2450 531 
L 3481 531 
L 3481 0 
L 794 0 
L 794 531 
z
" transform="scale(0.015625)"/>
       </defs>
       <use xlink:href="#DejaVuSans-31"/>
       <use xlink:href="#DejaVuSans-30" transform="translate(63.623047 0)"/>
       <use xlink:href="#DejaVuSans-30" transform="translate(127.246094 0)"/>
      </g>
     </g>
    </g>
    <g id="xtick_4">
     <g id="line2d_7">
      <path d="M 471.430183 269.04351 
L 471.430183 20.70822 
" clip-path="url(#p524f494a1a)" style="fill: none; stroke: #ededed; stroke-width: 0.6; stroke-linecap: square"/>
     </g>
     <g id="line2d_8">
      <g>
       <use xlink:href="#m51fee9fc72" x="471.430183" y="269.04351" style="stroke: #000000; stroke-width: 0.8"/>
      </g>
     </g>
     <g id="text_4">
      <!-- 150 -->
      <g transform="translate(461.886433 283.641948) scale(0.1 -0.1)">
       <use xlink:href="#DejaVuSans-31"/>
       <use xlink:href="#DejaVuSans-35" transform="translate(63.623047 0)"/>
       <use xlink:href="#DejaVuSans-30" transform="translate(127.246094 0)"/>
      </g>
     </g>
    </g>
    <g id="xtick_5">
     <g id="line2d_9">
      <path d="M 616.439122 269.04351 
L 616.439122 20.70822 
" clip-path="url(#p524f494a1a)" style="fill: none; stroke: #ededed; stroke-width: 0.6; stroke-linecap: square"/>
     </g>
     <g id="line2d_10">
      <g>
       <use xlink:href="#m51fee9fc72" x="616.439122" y="269.04351" style="stroke: #000000; stroke-width: 0.8"/>
      </g>
     </g>
     <g id="text_5">
      <!-- 200 -->
      <g transform="translate(606.895372 283.641948) scale(0.1 -0.1)">
       <defs>
        <path id="DejaVuSans-32" d="M 1228 531 
L 3431 531 
L 3431 0 
L 469 0 
L 469 531 
Q 828 903 1448 1529 
Q 2069 2156 2228 2338 
Q 2531 2678 2651 2914 
Q 2772 3150 2772 3378 
Q 2772 3750 2511 3984 
Q 2250 4219 1831 4219 
Q 1534 4219 1204 4116 
Q 875 4013 500 3803 
L 500 4441 
Q 881 4594 1212 4672 
Q 1544 4750 1819 4750 
Q 2544 4750 2975 4387 
Q 3406 4025 3406 3419 
Q 3406 3131 3298 2873 
Q 3191 2616 2906 2266 
Q 2828 2175 2409 1742 
Q 1991 1309 1228 531 
z
" transform="scale(0.015625)"/>
       </defs>
       <use xlink:href="#DejaVuSans-32"/>
       <use xlink:href="#DejaVuSans-30" transform="translate(63.623047 0)"/>
       <use xlink:href="#DejaVuSans-30" transform="translate(127.246094 0)"/>
      </g>
     </g>
    </g>
    <g id="xtick_6">
     <g id="line2d_11">
      <path d="M 761.448062 269.04351 
L 761.448062 20.70822 
" clip-path="url(#p524f494a1a)" style="fill: none; stroke: #ededed; stroke-width: 0.6; stroke-linecap: square"/>
     </g>
     <g id="line2d_12">
      <g>
       <use xlink:href="#m51fee9fc72" x="761.448062" y="269.04351" style="stroke: #000000; stroke-width: 0.8"/>
      </g>
     </g>
     <g id="text_6">
      <!-- 250 -->
      <g transform="translate(751.904312 283.641948) scale(0.1 -0.1)">
       <use xlink:href="#DejaVuSans-32"/>
       <use xlink:href="#DejaVuSans-35" transform="translate(63.623047 0)"/>
       <use xlink:href="#DejaVuSans-30" transform="translate(127.246094 0)"/>
      </g>
     </g>
    </g>
    <g id="text_7">
     <!-- time (s, video clock) -->
     <g transform="translate(362.042187 297.320073) scale(0.1 -0.1)">
      <defs>
       <path id="DejaVuSans-74" d="M 1172 4494 
L 1172 3500 
L 2356 3500 
L 2356 3053 
L 1172 3053 
L 1172 1153 
Q 1172 725 1289 603 
Q 1406 481 1766 481 
L 2356 481 
L 2356 0 
L 1766 0 
Q 1100 0 847 248 
Q 594 497 594 1153 
L 594 3053 
L 172 3053 
L 172 3500 
L 594 3500 
L 594 4494 
L 1172 4494 
z
" transform="scale(0.015625)"/>
       <path id="DejaVuSans-69" d="M 603 3500 
L 1178 3500 
L 1178 0 
L 603 0 
L 603 3500 
z
M 603 4863 
L 1178 4863 
L 1178 4134 
L 603 4134 
L 603 4863 
z
" transform="scale(0.015625)"/>
       <path id="DejaVuSans-6d" d="M 3328 2828 
Q 3544 3216 3844 3400 
Q 4144 3584 4550 3584 
Q 5097 3584 5394 3201 
Q 5691 2819 5691 2113 
L 5691 0 
L 5113 0 
L 5113 2094 
Q 5113 2597 4934 2840 
Q 4756 3084 4391 3084 
Q 3944 3084 3684 2787 
Q 3425 2491 3425 1978 
L 3425 0 
L 2847 0 
L 2847 2094 
Q 2847 2600 2669 2842 
Q 2491 3084 2119 3084 
Q 1678 3084 1418 2786 
Q 1159 2488 1159 1978 
L 1159 0 
L 581 0 
L 581 3500 
L 1159 3500 
L 1159 2956 
Q 1356 3278 1631 3431 
Q 1906 3584 2284 3584 
Q 2666 3584 2933 3390 
Q 3200 3197 3328 2828 
z
" transform="scale(0.015625)"/>
       <path id="DejaVuSans-65" d="M 3597 1894 
L 3597 1613 
L 953 1613 
Q 991 1019 1311 708 
Q 1631 397 2203 397 
Q 2534 397 2845 478 
Q 3156 559 3463 722 
L 3463 178 
Q 3153 47 2828 -22 
Q 2503 -91 2169 -91 
Q 1331 -91 842 396 
Q 353 884 353 1716 
Q 353 2575 817 3079 
Q 1281 3584 2069 3584 
Q 2775 3584 3186 3129 
Q 3597 2675 3597 1894 
z
M 3022 2063 
Q 3016 2534 2758 2815 
Q 2500 3097 2075 3097 
Q 1594 3097 1305 2825 
Q 1016 2553 972 2059 
L 3022 2063 
z
" transform="scale(0.015625)"/>
       <path id="DejaVuSans-20" transform="scale(0.015625)"/>
       <path id="DejaVuSans-28" d="M 1984 4856 
Q 1566 4138 1362 3434 
Q 1159 2731 1159 2009 
Q 1159 1288 1364 580 
Q 1569 -128 1984 -844 
L 1484 -844 
Q 1016 -109 783 600 
Q 550 1309 550 2009 
Q 550 2706 781 3412 
Q 1013 4119 1484 4856 
L 1984 4856 
z
" transform="scale(0.015625)"/>
       <path id="DejaVuSans-73" d="M 2834 3397 
L 2834 2853 
Q 2591 2978 2328 3040 
Q 2066 3103 1784 3103 
Q 1356 3103 1142 2972 
Q 928 2841 928 2578 
Q 928 2378 1081 2264 
Q 1234 2150 1697 2047 
L 1894 2003 
Q 2506 1872 2764 1633 
Q 3022 1394 3022 966 
Q 3022 478 2636 193 
Q 2250 -91 1575 -91 
Q 1294 -91 989 -36 
Q 684 19 347 128 
L 347 722 
Q 666 556 975 473 
Q 1284 391 1588 391 
Q 1994 391 2212 530 
Q 2431 669 2431 922 
Q 2431 1156 2273 1281 
Q 2116 1406 1581 1522 
L 1381 1569 
Q 847 1681 609 1914 
Q 372 2147 372 2553 
Q 372 3047 722 3315 
Q 1072 3584 1716 3584 
Q 2034 3584 2315 3537 
Q 2597 3491 2834 3397 
z
" transform="scale(0.015625)"/>
       <path id="DejaVuSans-2c" d="M 750 794 
L 1409 794 
L 1409 256 
L 897 -744 
L 494 -744 
L 750 256 
L 750 794 
z
" transform="scale(0.015625)"/>
       <path id="DejaVuSans-76" d="M 191 3500 
L 800 3500 
L 1894 563 
L 2988 3500 
L 3597 3500 
L 2284 0 
L 1503 0 
L 191 3500 
z
" transform="scale(0.015625)"/>
       <path id="DejaVuSans-64" d="M 2906 2969 
L 2906 4863 
L 3481 4863 
L 3481 0 
L 2906 0 
L 2906 525 
Q 2725 213 2448 61 
Q 2172 -91 1784 -91 
Q 1150 -91 751 415 
Q 353 922 353 1747 
Q 353 2572 751 3078 
Q 1150 3584 1784 3584 
Q 2172 3584 2448 3432 
Q 2725 3281 2906 2969 
z
M 947 1747 
Q 947 1113 1208 752 
Q 1469 391 1925 391 
Q 2381 391 2643 752 
Q 2906 1113 2906 1747 
Q 2906 2381 2643 2742 
Q 2381 3103 1925 3103 
Q 1469 3103 1208 2742 
Q 947 2381 947 1747 
z
" transform="scale(0.015625)"/>
       <path id="DejaVuSans-6f" d="M 1959 3097 
Q 1497 3097 1228 2736 
Q 959 2375 959 1747 
Q 959 1119 1226 758 
Q 1494 397 1959 397 
Q 2419 397 2687 759 
Q 2956 1122 2956 1747 
Q 2956 2369 2687 2733 
Q 2419 3097 1959 3097 
z
M 1959 3584 
Q 2709 3584 3137 3096 
Q 3566 2609 3566 1747 
Q 3566 888 3137 398 
Q 2709 -91 1959 -91 
Q 1206 -91 779 398 
Q 353 888 353 1747 
Q 353 2609 779 3096 
Q 1206 3584 1959 3584 
z
" transform="scale(0.015625)"/>
       <path id="DejaVuSans-63" d="M 3122 3366 
L 3122 2828 
Q 2878 2963 2633 3030 
Q 2388 3097 2138 3097 
Q 1578 3097 1268 2742 
Q 959 2388 959 1747 
Q 959 1106 1268 751 
Q 1578 397 2138 397 
Q 2388 397 2633 464 
Q 2878 531 3122 666 
L 3122 134 
Q 2881 22 2623 -34 
Q 2366 -91 2075 -91 
Q 1284 -91 818 406 
Q 353 903 353 1747 
Q 353 2603 823 3093 
Q 1294 3584 2113 3584 
Q 2378 3584 2631 3529 
Q 2884 3475 3122 3366 
z
" transform="scale(0.015625)"/>
       <path id="DejaVuSans-6c" d="M 603 4863 
L 1178 4863 
L 1178 0 
L 603 0 
L 603 4863 
z
" transform="scale(0.015625)"/>
       <path id="DejaVuSans-6b" d="M 581 4863 
L 1159 4863 
L 1159 1991 
L 2875 3500 
L 3609 3500 
L 1753 1863 
L 3688 0 
L 2938 0 
L 1159 1709 
L 1159 0 
L 581 0 
L 581 4863 
z
" transform="scale(0.015625)"/>
       <path id="DejaVuSans-29" d="M 513 4856 
L 1013 4856 
Q 1481 4119 1714 3412 
Q 1947 2706 1947 2009 
Q 1947 1309 1714 600 
Q 1481 -109 1013 -844 
L 513 -844 
Q 928 -128 1133 580 
Q 1338 1288 1338 2009 
Q 1338 2731 1133 3434 
Q 928 4138 513 4856 
z
" transform="scale(0.015625)"/>
      </defs>
      <use xlink:href="#DejaVuSans-74"/>
      <use xlink:href="#DejaVuSans-69" transform="translate(39.208984 0)"/>
      <use xlink:href="#DejaVuSans-6d" transform="translate(66.992188 0)"/>
      <use xlink:href="#DejaVuSans-65" transform="translate(164.404297 0)"/>
      <use xlink:href="#DejaVuSans-20" transform="translate(225.927734 0)"/>
      <use xlink:href="#DejaVuSans-28" transform="translate(257.714844 0)"/>
      <use xlink:href="#DejaVuSans-73" transform="translate(296.728516 0)"/>
      <use xlink:href="#DejaVuSans-2c" transform="translate(348.828125 0)"/>
      <use xlink:href="#DejaVuSans-20" transform="translate(380.615234 0)"/>
      <use xlink:href="#DejaVuSans-76" transform="translate(412.402344 0)"/>
      <use xlink:href="#DejaVuSans-69" transform="translate(471.582031 0)"/>
      <use xlink:href="#DejaVuSans-64" transform="translate(499.365234 0)"/>
      <use xlink:href="#DejaVuSans-65" transform="translate(562.841797 0)"/>
      <use xlink:href="#DejaVuSans-6f" transform="translate(624.365234 0)"/>
      <use xlink:href="#DejaVuSans-20" transform="translate(685.546875 0)"/>
      <use xlink:href="#DejaVuSans-63" transform="translate(717.333984 0)"/>
      <use xlink:href="#DejaVuSans-6c" transform="translate(772.314453 0)"/>
      <use xlink:href="#DejaVuSans-6f" transform="translate(800.097656 0)"/>
      <use xlink:href="#DejaVuSans-63" transform="translate(861.279297 0)"/>
      <use xlink:href="#DejaVuSans-6b" transform="translate(916.259766 0)"/>
      <use xlink:href="#DejaVuSans-29" transform="translate(974.169922 0)"/>
     </g>
    </g>
   </g>
   <g id="matplotlib.axis_2">
    <g id="ytick_1">
     <g id="line2d_13">
      <path d="M 36.403365 257.755542 
L 788.99976 257.755542 
" clip-path="url(#p524f494a1a)" style="fill: none; stroke: #ededed; stroke-width: 0.6; stroke-linecap: square"/>
     </g>
     <g id="line2d_14">
      <defs>
       <path id="m9ca62a10c3" d="M 0 0 
L -3.5 0 
" style="stroke: #000000; stroke-width: 0.8"/>
      </defs>
      <g>
       <use xlink:href="#m9ca62a10c3" x="36.403365" y="257.755542" style="stroke: #000000; stroke-width: 0.8"/>
      </g>
     </g>
     <g id="text_8">
      <!-- 0 -->
      <g transform="translate(23.040865 261.554761) scale(0.1 -0.1)">
       <use xlink:href="#DejaVuSans-30"/>
      </g>
     </g>
    </g>
    <g id="ytick_2">
     <g id="line2d_15">
      <path d="M 36.403365 216.189857 
L 788.99976 216.189857 
" clip-path="url(#p524f494a1a)" style="fill: none; stroke: #ededed; stroke-width: 0.6; stroke-linecap: square"/>
     </g>
     <g id="line2d_16">
      <g>
       <use xlink:href="#m9ca62a10c3" x="36.403365" y="216.189857" style="stroke: #000000; stroke-width: 0.8"/>
      </g>
     </g>
     <g id="text_9">
      <!-- 10 -->
      <g transform="translate(16.678365 219.989076) scale(0.1 -0.1)">
       <use xlink:href="#DejaVuSans-31"/>
       <use xlink:href="#DejaVuSans-30" transform="translate(63.623047 0)"/>
      </g>
     </g>
    </g>
    <g id="ytick_3">
     <g id="line2d_17">
      <path d="M 36.403365 174.624172 
L 788.99976 174.624172 
" clip-path="url(#p524f494a1a)" style="fill: none; stroke: #ededed; stroke-width: 0.6; stroke-linecap: square"/>
     </g>
     <g id="line2d_18">
      <g>
       <use xlink:href="#m9ca62a10c3" x="36.403365" y="174.624172" style="stroke: #000000; stroke-width: 0.8"/>
      </g>
     </g>
     <g id="text_10">
      <!-- 20 -->
      <g transform="translate(16.678365 178.423391) scale(0.1 -0.1)">
       <use xlink:href="#DejaVuSans-32"/>
       <use xlink:href="#DejaVuSans-30" transform="translate(63.623047 0)"/>
      </g>
     </g>
    </g>
    <g id="ytick_4">
     <g id="line2d_19">
      <path d="M 36.403365 133.058487 
L 788.99976 133.058487 
" clip-path="url(#p524f494a1a)" style="fill: none; stroke: #ededed; stroke-width: 0.6; stroke-linecap: square"/>
     </g>
     <g id="line2d_20">
      <g>
       <use xlink:href="#m9ca62a10c3" x="36.403365" y="133.058487" style="stroke: #000000; stroke-width: 0.8"/>
      </g>
     </g>
     <g id="text_11">
      <!-- 30 -->
      <g transform="translate(16.678365 136.857706) scale(0.1 -0.1)">
       <defs>
        <path id="DejaVuSans-33" d="M 2597 2516 
Q 3050 2419 3304 2112 
Q 3559 1806 3559 1356 
Q 3559 666 3084 287 
Q 2609 -91 1734 -91 
Q 1441 -91 1130 -33 
Q 819 25 488 141 
L 488 750 
Q 750 597 1062 519 
Q 1375 441 1716 441 
Q 2309 441 2620 675 
Q 2931 909 2931 1356 
Q 2931 1769 2642 2001 
Q 2353 2234 1838 2234 
L 1294 2234 
L 1294 2753 
L 1863 2753 
Q 2328 2753 2575 2939 
Q 2822 3125 2822 3475 
Q 2822 3834 2567 4026 
Q 2313 4219 1838 4219 
Q 1578 4219 1281 4162 
Q 984 4106 628 3988 
L 628 4550 
Q 988 4650 1302 4700 
Q 1616 4750 1894 4750 
Q 2613 4750 3031 4423 
Q 3450 4097 3450 3541 
Q 3450 3153 3228 2886 
Q 3006 2619 2597 2516 
z
" transform="scale(0.015625)"/>
       </defs>
       <use xlink:href="#DejaVuSans-33"/>
       <use xlink:href="#DejaVuSans-30" transform="translate(63.623047 0)"/>
      </g>
     </g>
    </g>
    <g id="ytick_5">
     <g id="line2d_21">
      <path d="M 36.403365 91.492802 
L 788.99976 91.492802 
" clip-path="url(#p524f494a1a)" style="fill: none; stroke: #ededed; stroke-width: 0.6; stroke-linecap: square"/>
     </g>
     <g id="line2d_22">
      <g>
       <use xlink:href="#m9ca62a10c3" x="36.403365" y="91.492802" style="stroke: #000000; stroke-width: 0.8"/>
      </g>
     </g>
     <g id="text_12">
      <!-- 40 -->
      <g transform="translate(16.678365 95.292021) scale(0.1 -0.1)">
       <defs>
        <path id="DejaVuSans-34" d="M 2419 4116 
L 825 1625 
L 2419 1625 
L 2419 4116 
z
M 2253 4666 
L 3047 4666 
L 3047 1625 
L 3713 1625 
L 3713 1100 
L 3047 1100 
L 3047 0 
L 2419 0 
L 2419 1100 
L 313 1100 
L 313 1709 
L 2253 4666 
z
" transform="scale(0.015625)"/>
       </defs>
       <use xlink:href="#DejaVuSans-34"/>
       <use xlink:href="#DejaVuSans-30" transform="translate(63.623047 0)"/>
      </g>
     </g>
    </g>
    <g id="ytick_6">
     <g id="line2d_23">
      <path d="M 36.403365 49.927117 
L 788.99976 49.927117 
" clip-path="url(#p524f494a1a)" style="fill: none; stroke: #ededed; stroke-width: 0.6; stroke-linecap: square"/>
     </g>
     <g id="line2d_24">
      <g>
       <use xlink:href="#m9ca62a10c3" x="36.403365" y="49.927117" style="stroke: #000000; stroke-width: 0.8"/>
      </g>
     </g>
     <g id="text_13">
      <!-- 50 -->
      <g transform="translate(16.678365 53.726336) scale(0.1 -0.1)">
       <use xlink:href="#DejaVuSans-35"/>
       <use xlink:href="#DejaVuSans-30" transform="translate(63.623047 0)"/>
      </g>
     </g>
    </g>
    <g id="text_14">
     <!-- theta (deg) -->
     <g transform="translate(10.598677 173.021178) rotate(-90) scale(0.1 -0.1)">
      <defs>
       <path id="DejaVuSans-68" d="M 3513 2113 
L 3513 0 
L 2938 0 
L 2938 2094 
Q 2938 2591 2744 2837 
Q 2550 3084 2163 3084 
Q 1697 3084 1428 2787 
Q 1159 2491 1159 1978 
L 1159 0 
L 581 0 
L 581 4863 
L 1159 4863 
L 1159 2956 
Q 1366 3272 1645 3428 
Q 1925 3584 2291 3584 
Q 2894 3584 3203 3211 
Q 3513 2838 3513 2113 
z
" transform="scale(0.015625)"/>
       <path id="DejaVuSans-61" d="M 2194 1759 
Q 1497 1759 1228 1600 
Q 959 1441 959 1056 
Q 959 750 1161 570 
Q 1363 391 1709 391 
Q 2188 391 2477 730 
Q 2766 1069 2766 1631 
L 2766 1759 
L 2194 1759 
z
M 3341 1997 
L 3341 0 
L 2766 0 
L 2766 531 
Q 2569 213 2275 61 
Q 1981 -91 1556 -91 
Q 1019 -91 701 211 
Q 384 513 384 1019 
Q 384 1609 779 1909 
Q 1175 2209 1959 2209 
L 2766 2209 
L 2766 2266 
Q 2766 2663 2505 2880 
Q 2244 3097 1772 3097 
Q 1472 3097 1187 3025 
Q 903 2953 641 2809 
L 641 3341 
Q 956 3463 1253 3523 
Q 1550 3584 1831 3584 
Q 2591 3584 2966 3190 
Q 3341 2797 3341 1997 
z
" transform="scale(0.015625)"/>
       <path id="DejaVuSans-67" d="M 2906 1791 
Q 2906 2416 2648 2759 
Q 2391 3103 1925 3103 
Q 1463 3103 1205 2759 
Q 947 2416 947 1791 
Q 947 1169 1205 825 
Q 1463 481 1925 481 
Q 2391 481 2648 825 
Q 2906 1169 2906 1791 
z
M 3481 434 
Q 3481 -459 3084 -895 
Q 2688 -1331 1869 -1331 
Q 1566 -1331 1297 -1286 
Q 1028 -1241 775 -1147 
L 775 -588 
Q 1028 -725 1275 -790 
Q 1522 -856 1778 -856 
Q 2344 -856 2625 -561 
Q 2906 -266 2906 331 
L 2906 616 
Q 2728 306 2450 153 
Q 2172 0 1784 0 
Q 1141 0 747 490 
Q 353 981 353 1791 
Q 353 2603 747 3093 
Q 1141 3584 1784 3584 
Q 2172 3584 2450 3431 
Q 2728 3278 2906 2969 
L 2906 3500 
L 3481 3500 
L 3481 434 
z
" transform="scale(0.015625)"/>
      </defs>
      <use xlink:href="#DejaVuSans-74"/>
      <use xlink:href="#DejaVuSans-68" transform="translate(39.208984 0)"/>
      <use xlink:href="#DejaVuSans-65" transform="translate(102.587891 0)"/>
      <use xlink:href="#DejaVuSans-74" transform="translate(164.111328 0)"/>
      <use xlink:href="#DejaVuSans-61" transform="translate(203.320312 0)"/>
      <use xlink:href="#DejaVuSans-20" transform="translate(264.599609 0)"/>
      <use xlink:href="#DejaVuSans-28" transform="translate(296.386719 0)"/>
      <use xlink:href="#DejaVuSans-64" transform="translate(335.400391 0)"/>
      <use xlink:href="#DejaVuSans-65" transform="translate(398.876953 0)"/>
      <use xlink:href="#DejaVuSans-67" transform="translate(460.400391 0)"/>
      <use xlink:href="#DejaVuSans-29" transform="translate(523.876953 0)"/>
     </g>
    </g>
   </g>
   <g id="line2d_25">
    <path d="M 36.403365 257.755542 
L 187.212662 257.647612 
L 208.964003 257.455559 
L 224.914986 257.128792 
L 237.965791 256.598465 
L 245.216238 256.128402 
L 252.466685 255.477546 
L 259.717132 254.582619 
L 266.967578 253.362264 
L 275.668115 251.165625 
L 284.368651 247.870667 
L 293.069188 242.928229 
L 301.769724 235.514573 
L 310.47026 224.394088 
L 319.170797 207.71336 
L 327.871333 216.256835 
L 336.571869 217.883859 
L 346.722495 217.667866 
L 353.972942 217.210639 
L 364.123568 215.349496 
L 371.374015 213.616468 
L 380.074551 209.811527 
L 388.775088 203.919602 
L 397.475624 195.457252 
L 407.62625 194.987031 
L 414.876697 194.345234 
L 423.577233 190.04382 
L 432.277769 181.752909 
L 440.978306 172.040708 
L 451.128931 157.751324 
L 461.279557 142.622823 
L 469.980094 130.183125 
L 475.780451 122.147957 
L 484.480987 111.487747 
L 493.181524 102.051108 
L 501.88206 94.603152 
L 510.582597 89.020082 
L 519.283133 86.158908 
L 536.684206 83.178371 
L 545.384742 83.369591 
L 554.085278 80.307221 
L 562.785815 80.421483 
L 571.486351 79.836589 
L 580.186887 81.370429 
L 588.887424 79.514447 
L 597.58796 81.533869 
L 607.738586 81.562226 
L 614.989033 81.216158 
L 623.689569 83.413042 
L 632.390106 84.836815 
L 649.791178 81.639551 
L 658.491715 81.085225 
L 675.892787 86.828228 
L 684.593324 94.046695 
L 694.743949 101.164533 
L 701.994396 105.90214 
L 710.694933 118.575007 
L 719.395469 129.091318 
L 728.096005 138.379215 
L 741.14681 155.597647 
L 745.497078 161.429755 
L 754.197615 170.697231 
L 771.598687 180.22445 
L 780.299224 181.7923 
L 788.99976 176.506843 
L 788.99976 176.506843 
" clip-path="url(#p524f494a1a)" style="fill: none; stroke: #c0392b; stroke-width: 2; stroke-linecap: square"/>
   </g>
   <g id="line2d_26">
    <path d="M 36.299785 255.249399 
L 40.650053 255.135624 
L 43.550232 254.95818 
L 47.9005 255.033406 
L 63.851484 255.422044 
L 72.55202 255.351228 
L 76.902288 255.015522 
L 81.252556 254.712337 
L 84.152735 254.777902 
L 91.403182 254.869082 
L 101.553808 254.668545 
L 108.804255 254.88963 
L 111.704434 254.819919 
L 114.604612 254.616658 
L 117.504791 254.134743 
L 120.40497 253.246166 
L 123.305149 252.056025 
L 124.755238 252.066272 
L 130.555596 253.085957 
L 132.005685 253.21448 
L 134.905864 253.134593 
L 137.806043 252.987543 
L 143.6064 252.852171 
L 146.506579 253.331364 
L 149.406758 253.558474 
L 155.207115 253.493285 
L 158.107294 253.691059 
L 162.457562 254.296482 
L 165.357741 254.570935 
L 171.158099 254.755862 
L 178.408546 254.618047 
L 182.758814 254.577542 
L 188.559171 254.703456 
L 203.060065 254.214972 
L 208.860423 254.377142 
L 213.210691 254.573614 
L 220.461138 254.239781 
L 221.911227 254.125064 
L 226.261496 254.375711 
L 230.611764 254.42826 
L 236.412121 254.523916 
L 246.562747 254.640261 
L 250.913015 254.821154 
L 268.314088 254.547787 
L 272.664356 254.666549 
L 275.564535 254.729802 
L 285.715161 254.692984 
L 294.415697 254.93251 
L 298.765965 254.825425 
L 301.666144 254.712296 
L 304.566323 254.74348 
L 307.466502 254.500534 
L 310.36668 254.037189 
L 317.617127 254.386508 
L 321.967396 254.188251 
L 324.867574 253.753449 
L 327.767753 252.927307 
L 329.217843 252.99874 
L 332.118021 253.595281 
L 335.0182 254.033151 
L 337.918379 254.284636 
L 340.818558 254.483828 
L 343.718736 254.595661 
L 348.069005 254.49339 
L 352.419273 254.386311 
L 355.319452 254.450933 
L 362.569899 254.327243 
L 366.920167 254.276773 
L 369.820346 253.975421 
L 374.170614 253.854046 
L 382.87115 253.529056 
L 385.771329 253.50555 
L 387.221418 253.365298 
L 390.121597 252.727126 
L 393.021776 251.919754 
L 394.471865 251.638842 
L 395.921955 251.541212 
L 400.272223 251.587541 
L 406.07258 251.449639 
L 408.972759 250.975071 
L 411.872938 250.38858 
L 417.673295 249.038208 
L 420.573474 248.248583 
L 423.473653 247.225413 
L 426.373832 245.796372 
L 429.274011 244.284117 
L 433.624279 241.653036 
L 439.424636 238.017503 
L 443.774905 234.461232 
L 445.224994 233.251519 
L 446.675083 231.846901 
L 448.125173 230.243098 
L 449.575262 228.457083 
L 452.475441 224.372283 
L 453.92553 222.015519 
L 455.37562 219.331819 
L 456.825709 216.326214 
L 458.275798 212.89707 
L 464.076156 197.492726 
L 465.526245 193.773212 
L 466.976335 189.603698 
L 468.426424 184.898423 
L 469.876514 179.240568 
L 471.326603 172.623384 
L 474.226782 156.859431 
L 475.676871 146.954213 
L 477.126961 134.118962 
L 478.57705 118.339101 
L 481.477229 83.885743 
L 482.927318 69.884156 
L 484.377408 60.112622 
L 485.827497 54.536813 
L 487.277586 53.030673 
L 488.727676 55.316861 
L 490.177765 60.451009 
L 491.627855 66.762529 
L 493.077944 71.061761 
L 494.528033 70.730104 
L 495.978123 64.591439 
L 498.878302 46.795279 
L 500.328391 40.401214 
L 501.77848 37.257229 
L 503.22857 37.697309 
L 504.678659 41.53591 
L 507.578838 53.909251 
L 509.028927 57.292615 
L 510.479017 55.850991 
L 511.929106 50.434798 
L 513.379195 43.848619 
L 514.829285 38.922155 
L 516.279374 36.626566 
L 517.729464 37.623927 
L 519.179553 42.111713 
L 520.629642 49.36244 
L 522.079732 57.915942 
L 523.529821 64.512889 
L 524.979911 67.049668 
L 526.43 63.844305 
L 529.330179 50.304025 
L 530.780268 45.252697 
L 532.230358 43.18221 
L 533.680447 45.275671 
L 535.130536 51.324815 
L 536.580626 59.485308 
L 538.030715 64.075269 
L 539.480805 59.744976 
L 542.380983 39.126912 
L 543.831073 33.300078 
L 545.281162 31.996188 
L 546.731251 33.301655 
L 548.181341 35.394688 
L 549.63143 38.599039 
L 551.08152 42.922596 
L 553.981698 53.465094 
L 555.431788 56.239811 
L 556.881877 54.59072 
L 558.331967 49.231894 
L 559.782056 42.648933 
L 561.232145 37.942934 
L 562.682235 38.377569 
L 564.132324 43.72659 
L 565.582414 51.162641 
L 567.032503 56.233649 
L 568.482592 57.403572 
L 569.932682 53.96643 
L 571.382771 47.287884 
L 572.832861 42.081893 
L 574.28295 40.456046 
L 577.183129 41.971412 
L 578.633218 42.466348 
L 580.083308 43.623204 
L 581.533397 46.611827 
L 584.433576 57.498842 
L 585.883665 60.297009 
L 587.333754 57.856831 
L 588.783844 51.21014 
L 590.233933 43.131306 
L 591.684023 37.915381 
L 593.134112 37.946344 
L 594.584201 42.883659 
L 596.034291 49.48681 
L 597.48438 53.756314 
L 598.93447 54.39267 
L 600.384559 50.84542 
L 601.834648 44.868136 
L 603.284738 40.882236 
L 604.734827 40.343271 
L 606.184917 41.406844 
L 609.085095 42.88242 
L 610.535185 44.351066 
L 611.985274 48.332984 
L 614.885453 61.329123 
L 616.335542 64.285741 
L 617.785632 61.813319 
L 619.235721 54.982452 
L 620.685811 46.836959 
L 622.1359 41.37038 
L 623.585989 40.822986 
L 625.036079 44.528952 
L 626.486168 49.353537 
L 627.936257 51.849638 
L 629.386347 51.29485 
L 630.836436 47.162621 
L 632.286526 41.817557 
L 633.736615 39.116458 
L 635.186704 39.592616 
L 636.636794 40.984016 
L 638.086883 41.692282 
L 639.536973 42.086481 
L 640.987062 43.165301 
L 642.437151 46.987579 
L 645.33733 59.560411 
L 646.78742 62.224463 
L 648.237509 59.718828 
L 649.687598 53.154894 
L 651.137688 45.867264 
L 652.587777 42.060635 
L 654.037867 43.107814 
L 656.938045 52.870512 
L 658.388135 55.128667 
L 659.838224 54.310638 
L 661.288314 50.009757 
L 662.738403 45.101146 
L 664.188492 42.810977 
L 665.638582 43.062408 
L 667.088671 43.61197 
L 668.53876 43.30051 
L 669.98885 42.696126 
L 671.438939 43.024607 
L 672.889029 46.295257 
L 675.789207 58.285328 
L 677.239297 60.743038 
L 678.689386 58.296278 
L 681.589565 45.556691 
L 683.039654 42.478007 
L 684.489744 44.084595 
L 687.389923 54.219333 
L 688.840012 56.72016 
L 690.290101 56.750695 
L 691.740191 54.733768 
L 693.19028 53.673771 
L 694.64037 55.406691 
L 698.990638 68.180152 
L 701.890817 76.246743 
L 703.340906 82.223136 
L 704.790995 91.143413 
L 706.241085 102.294652 
L 707.691174 111.706254 
L 709.141263 117.946595 
L 710.591353 123.144956 
L 712.041442 129.978385 
L 713.491532 137.45297 
L 714.941621 143.550255 
L 716.39171 148.463434 
L 717.8418 150.148651 
L 719.291889 147.815863 
L 720.741979 144.194011 
L 722.192068 142.460133 
L 723.642157 145.967311 
L 725.092247 154.981998 
L 726.542336 164.775982 
L 727.992426 173.597026 
L 729.442515 180.024963 
L 730.892604 184.079725 
L 732.342694 187.407643 
L 733.792783 191.380028 
L 735.242873 196.147454 
L 738.143051 206.287898 
L 739.593141 210.658955 
L 741.04323 214.400545 
L 742.49332 217.603752 
L 745.393498 223.503068 
L 746.843588 226.837072 
L 748.293677 229.722368 
L 749.743767 231.913106 
L 751.193856 233.499935 
L 752.643945 234.86498 
L 754.094035 235.850991 
L 755.544124 236.51957 
L 756.994213 236.928528 
L 758.444303 237.710617 
L 764.24466 241.755025 
L 765.69475 242.575342 
L 768.594929 244.654996 
L 771.495107 246.070891 
L 775.845376 247.666327 
L 777.295465 248.12518 
L 778.745554 248.338871 
L 783.095823 248.439021 
L 784.545912 248.449783 
L 787.446091 249.161792 
L 790.34627 249.554606 
L 790.34627 249.554606 
" clip-path="url(#p524f494a1a)" style="fill: none; stroke: #1f6fd6; stroke-width: 1.5; stroke-linecap: square"/>
   </g>
   <g id="patch_3">
    <path d="M 36.403365 269.04351 
L 36.403365 20.70822 
" style="fill: none; stroke: #000000; stroke-width: 0.8; stroke-linejoin: miter; stroke-linecap: square"/>
   </g>
   <g id="patch_4">
    <path d="M 36.403365 269.04351 
L 788.99976 269.04351 
" style="fill: none; stroke: #000000; stroke-width: 0.8; stroke-linejoin: miter; stroke-linecap: square"/>
   </g>
   <g id="legend_1">
    <g id="patch_5">
     <path d="M 42.703365 54.328845 
L 158.018677 54.328845 
Q 159.818677 54.328845 159.818677 52.528845 
L 159.818677 27.00822 
Q 159.818677 25.20822 158.018677 25.20822 
L 42.703365 25.20822 
Q 40.903365 25.20822 40.903365 27.00822 
L 40.903365 52.528845 
Q 40.903365 54.328845 42.703365 54.328845 
z
" style="fill: #ffffff; opacity: 0.8; stroke: #cccccc; stroke-linejoin: miter"/>
    </g>
    <g id="line2d_27">
     <path d="M 44.503365 32.496814 
L 53.503365 32.496814 
L 62.503365 32.496814 
" style="fill: none; stroke: #c0392b; stroke-width: 2; stroke-linecap: square"/>
    </g>
    <g id="text_15">
     <!-- video theta(t) -->
     <g transform="translate(69.703365 35.646814) scale(0.09 -0.09)">
      <use xlink:href="#DejaVuSans-76"/>
      <use xlink:href="#DejaVuSans-69" transform="translate(59.179688 0)"/>
      <use xlink:href="#DejaVuSans-64" transform="translate(86.962891 0)"/>
      <use xlink:href="#DejaVuSans-65" transform="translate(150.439453 0)"/>
      <use xlink:href="#DejaVuSans-6f" transform="translate(211.962891 0)"/>
      <use xlink:href="#DejaVuSans-20" transform="translate(273.144531 0)"/>
      <use xlink:href="#DejaVuSans-74" transform="translate(304.931641 0)"/>
      <use xlink:href="#DejaVuSans-68" transform="translate(344.140625 0)"/>
      <use xlink:href="#DejaVuSans-65" transform="translate(407.519531 0)"/>
      <use xlink:href="#DejaVuSans-74" transform="translate(469.042969 0)"/>
      <use xlink:href="#DejaVuSans-61" transform="translate(508.251953 0)"/>
      <use xlink:href="#DejaVuSans-28" transform="translate(569.53125 0)"/>
      <use xlink:href="#DejaVuSans-74" transform="translate(608.544922 0)"/>
      <use xlink:href="#DejaVuSans-29" transform="translate(647.753906 0)"/>
     </g>
    </g>
    <g id="line2d_28">
     <path d="M 44.503365 45.707126 
L 53.503365 45.707126 
L 62.503365 45.707126 
" style="fill: none; stroke: #1f6fd6; stroke-width: 1.5; stroke-linecap: square"/>
    </g>
    <g id="text_16">
     <!-- phone arctan(aT/g) -->
     <g transform="translate(69.703365 48.857126) scale(0.09 -0.09)">
      <defs>
       <path id="DejaVuSans-70" d="M 1159 525 
L 1159 -1331 
L 581 -1331 
L 581 3500 
L 1159 3500 
L 1159 2969 
Q 1341 3281 1617 3432 
Q 1894 3584 2278 3584 
Q 2916 3584 3314 3078 
Q 3713 2572 3713 1747 
Q 3713 922 3314 415 
Q 2916 -91 2278 -91 
Q 1894 -91 1617 61 
Q 1341 213 1159 525 
z
M 3116 1747 
Q 3116 2381 2855 2742 
Q 2594 3103 2138 3103 
Q 1681 3103 1420 2742 
Q 1159 2381 1159 1747 
Q 1159 1113 1420 752 
Q 1681 391 2138 391 
Q 2594 391 2855 752 
Q 3116 1113 3116 1747 
z
" transform="scale(0.015625)"/>
       <path id="DejaVuSans-6e" d="M 3513 2113 
L 3513 0 
L 2938 0 
L 2938 2094 
Q 2938 2591 2744 2837 
Q 2550 3084 2163 3084 
Q 1697 3084 1428 2787 
Q 1159 2491 1159 1978 
L 1159 0 
L 581 0 
L 581 3500 
L 1159 3500 
L 1159 2956 
Q 1366 3272 1645 3428 
Q 1925 3584 2291 3584 
Q 2894 3584 3203 3211 
Q 3513 2838 3513 2113 
z
" transform="scale(0.015625)"/>
       <path id="DejaVuSans-72" d="M 2631 2963 
Q 2534 3019 2420 3045 
Q 2306 3072 2169 3072 
Q 1681 3072 1420 2755 
Q 1159 2438 1159 1844 
L 1159 0 
L 581 0 
L 581 3500 
L 1159 3500 
L 1159 2956 
Q 1341 3275 1631 3429 
Q 1922 3584 2338 3584 
Q 2397 3584 2469 3576 
Q 2541 3569 2628 3553 
L 2631 2963 
z
" transform="scale(0.015625)"/>
       <path id="DejaVuSans-54" d="M -19 4666 
L 3928 4666 
L 3928 4134 
L 2272 4134 
L 2272 0 
L 1638 0 
L 1638 4134 
L -19 4134 
L -19 4666 
z
" transform="scale(0.015625)"/>
       <path id="DejaVuSans-2f" d="M 1625 4666 
L 2156 4666 
L 531 -594 
L 0 -594 
L 1625 4666 
z
" transform="scale(0.015625)"/>
      </defs>
      <use xlink:href="#DejaVuSans-70"/>
      <use xlink:href="#DejaVuSans-68" transform="translate(63.476562 0)"/>
      <use xlink:href="#DejaVuSans-6f" transform="translate(126.855469 0)"/>
      <use xlink:href="#DejaVuSans-6e" transform="translate(188.037109 0)"/>
      <use xlink:href="#DejaVuSans-65" transform="translate(251.416016 0)"/>
      <use xlink:href="#DejaVuSans-20" transform="translate(312.939453 0)"/>
      <use xlink:href="#DejaVuSans-61" transform="translate(344.726562 0)"/>
      <use xlink:href="#DejaVuSans-72" transform="translate(406.005859 0)"/>
      <use xlink:href="#DejaVuSans-63" transform="translate(444.869141 0)"/>
      <use xlink:href="#DejaVuSans-74" transform="translate(499.849609 0)"/>
      <use xlink:href="#DejaVuSans-61" transform="translate(539.058594 0)"/>
      <use xlink:href="#DejaVuSans-6e" transform="translate(600.337891 0)"/>
      <use xlink:href="#DejaVuSans-28" transform="translate(663.716797 0)"/>
      <use xlink:href="#DejaVuSans-61" transform="translate(702.730469 0)"/>
      <use xlink:href="#DejaVuSans-54" transform="translate(764.009766 0)"/>
      <use xlink:href="#DejaVuSans-2f" transform="translate(825.09375 0)"/>
      <use xlink:href="#DejaVuSans-67" transform="translate(858.785156 0)"/>
      <use xlink:href="#DejaVuSans-29" transform="translate(922.261719 0)"/>
     </g>
    </g>
   </g>
  </g>
  <g id="text_17">
   <!-- Video (alex) vs accelerometer: probably trial 1 -->
   <g transform="translate(238.17 12.118365) scale(0.12 -0.12)">
    <defs>
     <path id="DejaVuSans-Bold-56" d="M 31 4666 
L 1241 4666 
L 2478 1222 
L 3713 4666 
L 4922 4666 
L 3194 0 
L 1759 0 
L 31 4666 
z
" transform="scale(0.015625)"/>
     <path id="DejaVuSans-Bold-69" d="M 538 3500 
L 1656 3500 
L 1656 0 
L 538 0 
L 538 3500 
z
M 538 4863 
L 1656 4863 
L 1656 3950 
L 538 3950 
L 538 4863 
z
" transform="scale(0.015625)"/>
     <path id="DejaVuSans-Bold-64" d="M 2919 2988 
L 2919 4863 
L 4044 4863 
L 4044 0 
L 2919 0 
L 2919 506 
Q 2688 197 2409 53 
Q 2131 -91 1766 -91 
Q 1119 -91 703 423 
Q 288 938 288 1747 
Q 288 2556 703 3070 
Q 1119 3584 1766 3584 
Q 2128 3584 2408 3439 
Q 2688 3294 2919 2988 
z
M 2181 722 
Q 2541 722 2730 984 
Q 2919 1247 2919 1747 
Q 2919 2247 2730 2509 
Q 2541 2772 2181 2772 
Q 1825 2772 1636 2509 
Q 1447 2247 1447 1747 
Q 1447 1247 1636 984 
Q 1825 722 2181 722 
z
" transform="scale(0.015625)"/>
     <path id="DejaVuSans-Bold-65" d="M 4031 1759 
L 4031 1441 
L 1416 1441 
Q 1456 1047 1700 850 
Q 1944 653 2381 653 
Q 2734 653 3104 758 
Q 3475 863 3866 1075 
L 3866 213 
Q 3469 63 3072 -14 
Q 2675 -91 2278 -91 
Q 1328 -91 801 392 
Q 275 875 275 1747 
Q 275 2603 792 3093 
Q 1309 3584 2216 3584 
Q 3041 3584 3536 3087 
Q 4031 2591 4031 1759 
z
M 2881 2131 
Q 2881 2450 2695 2645 
Q 2509 2841 2209 2841 
Q 1884 2841 1681 2658 
Q 1478 2475 1428 2131 
L 2881 2131 
z
" transform="scale(0.015625)"/>
     <path id="DejaVuSans-Bold-6f" d="M 2203 2784 
Q 1831 2784 1636 2517 
Q 1441 2250 1441 1747 
Q 1441 1244 1636 976 
Q 1831 709 2203 709 
Q 2569 709 2762 976 
Q 2956 1244 2956 1747 
Q 2956 2250 2762 2517 
Q 2569 2784 2203 2784 
z
M 2203 3584 
Q 3106 3584 3614 3096 
Q 4122 2609 4122 1747 
Q 4122 884 3614 396 
Q 3106 -91 2203 -91 
Q 1297 -91 786 396 
Q 275 884 275 1747 
Q 275 2609 786 3096 
Q 1297 3584 2203 3584 
z
" transform="scale(0.015625)"/>
     <path id="DejaVuSans-Bold-20" transform="scale(0.015625)"/>
     <path id="DejaVuSans-Bold-28" d="M 2413 -844 
L 1484 -844 
Q 1006 -72 778 623 
Q 550 1319 550 2003 
Q 550 2688 779 3389 
Q 1009 4091 1484 4856 
L 2413 4856 
Q 2013 4116 1813 3408 
Q 1613 2700 1613 2009 
Q 1613 1319 1811 609 
Q 2009 -100 2413 -844 
z
" transform="scale(0.015625)"/>
     <path id="DejaVuSans-Bold-61" d="M 2106 1575 
Q 1756 1575 1579 1456 
Q 1403 1338 1403 1106 
Q 1403 894 1545 773 
Q 1688 653 1941 653 
Q 2256 653 2472 879 
Q 2688 1106 2688 1447 
L 2688 1575 
L 2106 1575 
z
M 3816 1997 
L 3816 0 
L 2688 0 
L 2688 519 
Q 2463 200 2181 54 
Q 1900 -91 1497 -91 
Q 953 -91 614 226 
Q 275 544 275 1050 
Q 275 1666 698 1953 
Q 1122 2241 2028 2241 
L 2688 2241 
L 2688 2328 
Q 2688 2594 2478 2717 
Q 2269 2841 1825 2841 
Q 1466 2841 1156 2769 
Q 847 2697 581 2553 
L 581 3406 
Q 941 3494 1303 3539 
Q 1666 3584 2028 3584 
Q 2975 3584 3395 3211 
Q 3816 2838 3816 1997 
z
" transform="scale(0.015625)"/>
     <path id="DejaVuSans-Bold-6c" d="M 538 4863 
L 1656 4863 
L 1656 0 
L 538 0 
L 538 4863 
z
" transform="scale(0.015625)"/>
     <path id="DejaVuSans-Bold-78" d="M 1422 1791 
L 159 3500 
L 1344 3500 
L 2059 2463 
L 2784 3500 
L 3969 3500 
L 2706 1797 
L 4031 0 
L 2847 0 
L 2059 1106 
L 1281 0 
L 97 0 
L 1422 1791 
z
" transform="scale(0.015625)"/>
     <path id="DejaVuSans-Bold-29" d="M 513 -844 
Q 913 -100 1113 609 
Q 1313 1319 1313 2009 
Q 1313 2700 1113 3408 
Q 913 4116 513 4856 
L 1441 4856 
Q 1916 4091 2145 3389 
Q 2375 2688 2375 2003 
Q 2375 1319 2147 623 
Q 1919 -72 1441 -844 
L 513 -844 
z
" transform="scale(0.015625)"/>
     <path id="DejaVuSans-Bold-76" d="M 97 3500 
L 1216 3500 
L 2088 1081 
L 2956 3500 
L 4078 3500 
L 2700 0 
L 1472 0 
L 97 3500 
z
" transform="scale(0.015625)"/>
     <path id="DejaVuSans-Bold-73" d="M 3272 3391 
L 3272 2541 
Q 2913 2691 2578 2766 
Q 2244 2841 1947 2841 
Q 1628 2841 1473 2761 
Q 1319 2681 1319 2516 
Q 1319 2381 1436 2309 
Q 1553 2238 1856 2203 
L 2053 2175 
Q 2913 2066 3209 1816 
Q 3506 1566 3506 1031 
Q 3506 472 3093 190 
Q 2681 -91 1863 -91 
Q 1516 -91 1145 -36 
Q 775 19 384 128 
L 384 978 
Q 719 816 1070 734 
Q 1422 653 1784 653 
Q 2113 653 2278 743 
Q 2444 834 2444 1013 
Q 2444 1163 2330 1236 
Q 2216 1309 1875 1350 
L 1678 1375 
Q 931 1469 631 1722 
Q 331 1975 331 2491 
Q 331 3047 712 3315 
Q 1094 3584 1881 3584 
Q 2191 3584 2531 3537 
Q 2872 3491 3272 3391 
z
" transform="scale(0.015625)"/>
     <path id="DejaVuSans-Bold-63" d="M 3366 3391 
L 3366 2478 
Q 3138 2634 2908 2709 
Q 2678 2784 2431 2784 
Q 1963 2784 1702 2511 
Q 1441 2238 1441 1747 
Q 1441 1256 1702 982 
Q 1963 709 2431 709 
Q 2694 709 2930 787 
Q 3166 866 3366 1019 
L 3366 103 
Q 3103 6 2833 -42 
Q 2563 -91 2291 -91 
Q 1344 -91 809 395 
Q 275 881 275 1747 
Q 275 2613 809 3098 
Q 1344 3584 2291 3584 
Q 2566 3584 2833 3536 
Q 3100 3488 3366 3391 
z
" transform="scale(0.015625)"/>
     <path id="DejaVuSans-Bold-72" d="M 3138 2547 
Q 2991 2616 2845 2648 
Q 2700 2681 2553 2681 
Q 2122 2681 1889 2404 
Q 1656 2128 1656 1613 
L 1656 0 
L 538 0 
L 538 3500 
L 1656 3500 
L 1656 2925 
Q 1872 3269 2151 3426 
Q 2431 3584 2822 3584 
Q 2878 3584 2943 3579 
Q 3009 3575 3134 3559 
L 3138 2547 
z
" transform="scale(0.015625)"/>
     <path id="DejaVuSans-Bold-6d" d="M 3781 2919 
Q 3994 3244 4286 3414 
Q 4578 3584 4928 3584 
Q 5531 3584 5847 3212 
Q 6163 2841 6163 2131 
L 6163 0 
L 5038 0 
L 5038 1825 
Q 5041 1866 5042 1909 
Q 5044 1953 5044 2034 
Q 5044 2406 4934 2573 
Q 4825 2741 4581 2741 
Q 4263 2741 4089 2478 
Q 3916 2216 3909 1719 
L 3909 0 
L 2784 0 
L 2784 1825 
Q 2784 2406 2684 2573 
Q 2584 2741 2328 2741 
Q 2006 2741 1831 2477 
Q 1656 2213 1656 1722 
L 1656 0 
L 531 0 
L 531 3500 
L 1656 3500 
L 1656 2988 
Q 1863 3284 2130 3434 
Q 2397 3584 2719 3584 
Q 3081 3584 3359 3409 
Q 3638 3234 3781 2919 
z
" transform="scale(0.015625)"/>
     <path id="DejaVuSans-Bold-74" d="M 1759 4494 
L 1759 3500 
L 2913 3500 
L 2913 2700 
L 1759 2700 
L 1759 1216 
Q 1759 972 1856 886 
Q 1953 800 2241 800 
L 2816 800 
L 2816 0 
L 1856 0 
Q 1194 0 917 276 
Q 641 553 641 1216 
L 641 2700 
L 84 2700 
L 84 3500 
L 641 3500 
L 641 4494 
L 1759 4494 
z
" transform="scale(0.015625)"/>
     <path id="DejaVuSans-Bold-3a" d="M 716 3500 
L 1844 3500 
L 1844 2291 
L 716 2291 
L 716 3500 
z
M 716 1209 
L 1844 1209 
L 1844 0 
L 716 0 
L 716 1209 
z
" transform="scale(0.015625)"/>
     <path id="DejaVuSans-Bold-70" d="M 1656 506 
L 1656 -1331 
L 538 -1331 
L 538 3500 
L 1656 3500 
L 1656 2988 
Q 1888 3294 2169 3439 
Q 2450 3584 2816 3584 
Q 3463 3584 3878 3070 
Q 4294 2556 4294 1747 
Q 4294 938 3878 423 
Q 3463 -91 2816 -91 
Q 2450 -91 2169 54 
Q 1888 200 1656 506 
z
M 2400 2772 
Q 2041 2772 1848 2508 
Q 1656 2244 1656 1747 
Q 1656 1250 1848 986 
Q 2041 722 2400 722 
Q 2759 722 2948 984 
Q 3138 1247 3138 1747 
Q 3138 2247 2948 2509 
Q 2759 2772 2400 2772 
z
" transform="scale(0.015625)"/>
     <path id="DejaVuSans-Bold-62" d="M 2400 722 
Q 2759 722 2948 984 
Q 3138 1247 3138 1747 
Q 3138 2247 2948 2509 
Q 2759 2772 2400 2772 
Q 2041 2772 1848 2508 
Q 1656 2244 1656 1747 
Q 1656 1250 1848 986 
Q 2041 722 2400 722 
z
M 1656 2988 
Q 1888 3294 2169 3439 
Q 2450 3584 2816 3584 
Q 3463 3584 3878 3070 
Q 4294 2556 4294 1747 
Q 4294 938 3878 423 
Q 3463 -91 2816 -91 
Q 2450 -91 2169 54 
Q 1888 200 1656 506 
L 1656 0 
L 538 0 
L 538 4863 
L 1656 4863 
L 1656 2988 
z
" transform="scale(0.015625)"/>
     <path id="DejaVuSans-Bold-79" d="M 78 3500 
L 1197 3500 
L 2138 1125 
L 2938 3500 
L 4056 3500 
L 2584 -331 
Q 2363 -916 2067 -1148 
Q 1772 -1381 1288 -1381 
L 641 -1381 
L 641 -647 
L 991 -647 
Q 1275 -647 1404 -556 
Q 1534 -466 1606 -231 
L 1638 -134 
L 78 3500 
z
" transform="scale(0.015625)"/>
     <path id="DejaVuSans-Bold-31" d="M 750 831 
L 1813 831 
L 1813 3847 
L 722 3622 
L 722 4441 
L 1806 4666 
L 2950 4666 
L 2950 831 
L 4013 831 
L 4013 0 
L 750 0 
L 750 831 
z
" transform="scale(0.015625)"/>
    </defs>
    <use xlink:href="#DejaVuSans-Bold-56"/>
    <use xlink:href="#DejaVuSans-Bold-69" transform="translate(75.642578 0)"/>
    <use xlink:href="#DejaVuSans-Bold-64" transform="translate(109.919922 0)"/>
    <use xlink:href="#DejaVuSans-Bold-65" transform="translate(181.501953 0)"/>
    <use xlink:href="#DejaVuSans-Bold-6f" transform="translate(249.324219 0)"/>
    <use xlink:href="#DejaVuSans-Bold-20" transform="translate(318.025391 0)"/>
    <use xlink:href="#DejaVuSans-Bold-28" transform="translate(352.839844 0)"/>
    <use xlink:href="#DejaVuSans-Bold-61" transform="translate(398.542969 0)"/>
    <use xlink:href="#DejaVuSans-Bold-6c" transform="translate(466.023438 0)"/>
    <use xlink:href="#DejaVuSans-Bold-65" transform="translate(500.300781 0)"/>
    <use xlink:href="#DejaVuSans-Bold-78" transform="translate(568.123047 0)"/>
    <use xlink:href="#DejaVuSans-Bold-29" transform="translate(632.625 0)"/>
    <use xlink:href="#DejaVuSans-Bold-20" transform="translate(678.328125 0)"/>
    <use xlink:href="#DejaVuSans-Bold-76" transform="translate(713.142578 0)"/>
    <use xlink:href="#DejaVuSans-Bold-73" transform="translate(778.328125 0)"/>
    <use xlink:href="#DejaVuSans-Bold-20" transform="translate(837.849609 0)"/>
    <use xlink:href="#DejaVuSans-Bold-61" transform="translate(872.664062 0)"/>
    <use xlink:href="#DejaVuSans-Bold-63" transform="translate(940.144531 0)"/>
    <use xlink:href="#DejaVuSans-Bold-63" transform="translate(999.421875 0)"/>
    <use xlink:href="#DejaVuSans-Bold-65" transform="translate(1058.699219 0)"/>
    <use xlink:href="#DejaVuSans-Bold-6c" transform="translate(1126.521484 0)"/>
    <use xlink:href="#DejaVuSans-Bold-65" transform="translate(1160.798828 0)"/>
    <use xlink:href="#DejaVuSans-Bold-72" transform="translate(1228.621094 0)"/>
    <use xlink:href="#DejaVuSans-Bold-6f" transform="translate(1277.9375 0)"/>
    <use xlink:href="#DejaVuSans-Bold-6d" transform="translate(1346.638672 0)"/>
    <use xlink:href="#DejaVuSans-Bold-65" transform="translate(1450.837891 0)"/>
    <use xlink:href="#DejaVuSans-Bold-74" transform="translate(1518.660156 0)"/>
    <use xlink:href="#DejaVuSans-Bold-65" transform="translate(1566.462891 0)"/>
    <use xlink:href="#DejaVuSans-Bold-72" transform="translate(1634.285156 0)"/>
    <use xlink:href="#DejaVuSans-Bold-3a" transform="translate(1683.601562 0)"/>
    <use xlink:href="#DejaVuSans-Bold-20" transform="translate(1723.591797 0)"/>
    <use xlink:href="#DejaVuSans-Bold-70" transform="translate(1758.40625 0)"/>
    <use xlink:href="#DejaVuSans-Bold-72" transform="translate(1829.988281 0)"/>
    <use xlink:href="#DejaVuSans-Bold-6f" transform="translate(1879.304688 0)"/>
    <use xlink:href="#DejaVuSans-Bold-62" transform="translate(1948.005859 0)"/>
    <use xlink:href="#DejaVuSans-Bold-61" transform="translate(2019.587891 0)"/>
    <use xlink:href="#DejaVuSans-Bold-62" transform="translate(2087.068359 0)"/>
    <use xlink:href="#DejaVuSans-Bold-6c" transform="translate(2158.650391 0)"/>
    <use xlink:href="#DejaVuSans-Bold-79" transform="translate(2192.927734 0)"/>
    <use xlink:href="#DejaVuSans-Bold-20" transform="translate(2258.113281 0)"/>
    <use xlink:href="#DejaVuSans-Bold-74" transform="translate(2292.927734 0)"/>
    <use xlink:href="#DejaVuSans-Bold-72" transform="translate(2340.730469 0)"/>
    <use xlink:href="#DejaVuSans-Bold-69" transform="translate(2390.046875 0)"/>
    <use xlink:href="#DejaVuSans-Bold-61" transform="translate(2424.324219 0)"/>
    <use xlink:href="#DejaVuSans-Bold-6c" transform="translate(2491.804688 0)"/>
    <use xlink:href="#DejaVuSans-Bold-20" transform="translate(2526.082031 0)"/>
    <use xlink:href="#DejaVuSans-Bold-31" transform="translate(2560.896484 0)"/>
   </g>
  </g>
 </g>
 <defs>
  <clipPath id="p524f494a1a">
   <rect x="36.403365" y="20.70822" width="752.596395" height="248.33529"/>
  </clipPath>
 </defs>
</svg>
